<?xml version="1.0" encoding="utf-8"?>
<!-- Generator: Adobe Illustrator 15.0.0, SVG Export Plug-In . SVG Version: 6.00 Build 0)  -->
<!DOCTYPE svg PUBLIC "-//W3C//DTD SVG 1.1//EN" "http://www.w3.org/Graphics/SVG/1.1/DTD/svg11.dtd">
<svg version="1.1" id="Layer_1" xmlns="http://www.w3.org/2000/svg" xmlns:xlink="http://www.w3.org/1999/xlink" x="0px" y="0px"
	 width="345px" height="103.667px" viewBox="0 0 345 103.667" enable-background="new 0 0 345 103.667" xml:space="preserve">
<g>
	<g>
		<g>
			<path fill="none" stroke="#E37E26" stroke-width="3" stroke-linecap="round" stroke-linejoin="round" d="M7.73,11.355
				c97.334-16,198.668-17.334,269.334,10.666c21.686,8.592,39.609,21.051,56.967,34.292c8.623,6.578,9.656,14.027-2.43,16.578
				c-13.914,2.936-29.502,8.445-37.039,11.795c-4.205,1.869-8.321,4.105-12.024,6.321"/>
			<g>
				<path fill="#E37E26" d="M267.562,101.187c5.318-7.368,11.099-17.731,13.363-26.125l3.653,14.726l12.227,8.979
					C288.182,97.667,276.398,99.068,267.562,101.187z"/>
			</g>
		</g>
	</g>
	<path fill="#E37E26" d="M18.451,11.64c0,5.092-4.133,9.226-9.226,9.226S0,16.732,0,11.64s4.133-9.226,9.226-9.226
		S18.451,6.548,18.451,11.64z"/>
</g>
</svg>
