<?xml version="1.0" encoding="iso-8859-1"?>
<!-- Generator: Adobe Illustrator 16.0.0, SVG Export Plug-In . SVG Version: 6.00 Build 0)  -->
<!DOCTYPE svg PUBLIC "-//W3C//DTD SVG 1.1//EN" "http://www.w3.org/Graphics/SVG/1.1/DTD/svg11.dtd">
<svg version="1.1" id="Layer_1" xmlns="http://www.w3.org/2000/svg" xmlns:xlink="http://www.w3.org/1999/xlink" x="0px" y="0px"
	 width="133.632px" height="84.452px" viewBox="0 0 133.632 84.452" style="enable-background:new 0 0 133.632 84.452;"
	 xml:space="preserve">
<path style="fill:#4FBA6F;" d="M43.798,49.59c-0.153,0.236-0.308,0.478-0.463,0.723c-4.125,6.5-6.125,10.5-8.125,15.625
	s-3.125,7.625-4,9s-2.875,2.5-4.625,3.25s-5.625,1.5-9.125,1.75s-7.75,0.625-10.5,1.25C5.5,81.52,3.908,81.97,2.493,82.675
	C1.555,83.143,0.693,83.722,0,84.452l0.069-0.03c1.281-0.891,2.468-1.507,3.806-1.908c3.91-1.176,7.537-1.654,12.131-1.782
	c4.313-0.12,8.796-0.873,10.884-1.924c1.255-0.632,2.721-1.101,3.733-2.183c1.506-1.609,2.727-4.426,3.678-7.08
	c1.393-3.891,3.206-7.695,5.415-12.042c2.306-4.536,6.556-11.259,12.47-18.028c6.057-6.932,11.116-11.258,16.531-15.391
	c5.382-4.107,10.31-6.785,12.968-8.266c2.814-1.567,7.575-3.676,8.02-2.766c7.747-3.568,14.281-5.923,19.993-7.316
	c6.73-1.642,13.993-3.416,20.036-4.771c1.31-0.294,2.643-0.681,3.898-0.965l-0.043,0.017c-1.875,0.125-4.754,0.545-8.379,1.42
	s-7.75,1.75-12.125,2.875S103.71,6.688,99.71,8.188s-7,2.875-9.25,3.5c-0.389,0.108-0.811,0.227-1.258,0.359
	c-2.143,0.63-4.863,1.546-7.242,2.891c-2.875,1.625-6,3.5-9.125,5.5s-7,4.875-9.75,7.375s-5.875,5.25-9.125,8.875
	C50.832,40.176,47.705,43.549,43.798,49.59"/>
</svg>
