<?xml version="1.0" encoding="utf-8"?>
<!-- Generator: Adobe Illustrator 16.0.0, SVG Export Plug-In . SVG Version: 6.00 Build 0)  -->
<!DOCTYPE svg PUBLIC "-//W3C//DTD SVG 1.1//EN" "http://www.w3.org/Graphics/SVG/1.1/DTD/svg11.dtd">
<svg version="1.1" id="Layer_1" xmlns="http://www.w3.org/2000/svg" xmlns:xlink="http://www.w3.org/1999/xlink" x="0px" y="0px"
	 width="41.3px" height="54.845px" viewBox="0 0 41.3 54.845" enable-background="new 0 0 41.3 54.845" xml:space="preserve">
<path fill="#FCCD8A" d="M38.129,3.562c-1.14-1.266-2.223-2.464-3.211-3.528L34.926,0c-1.094,1.09-2.18,2.186-3.263,3.284
	c-5.834,5.917-11.833,12.75-15.417,17.5S8.914,31.451,6.164,37.117C3.983,41.61,1.58,47.784,0,54.538
	c0.407,0.083,0.798,0.148,1.175,0.197L1.132,54.73c0.151,0.02,0.3,0.037,0.447,0.052c5.561,0.557,7.838-2.673,9.887-6.029
	l-0.096,0.099c0.967-2.595,2.211-5.404,3.734-8.87c4.382-9.97,14.656-21.964,26.192-32.884L41.3,7.064
	C40.214,5.875,39.148,4.691,38.129,3.562z"/>
</svg>
