<?xml version="1.0" encoding="iso-8859-1"?>
<!-- Generator: Adobe Illustrator 16.0.0, SVG Export Plug-In . SVG Version: 6.00 Build 0)  -->
<!DOCTYPE svg PUBLIC "-//W3C//DTD SVG 1.1//EN" "http://www.w3.org/Graphics/SVG/1.1/DTD/svg11.dtd">
<svg version="1.1" id="Layer_1" xmlns="http://www.w3.org/2000/svg" xmlns:xlink="http://www.w3.org/1999/xlink" x="0px" y="0px"
	 width="38.129px" height="54.782px" viewBox="0 0 38.129 54.782" style="enable-background:new 0 0 38.129 54.782;"
	 xml:space="preserve">
<path style="fill:#FFCD8A;" d="M1.564,54.764c0,0,2.391-2.812,4.641-6.688s4.045-8.859,6.25-12.75c4.25-7.5,8.75-13.375,13.125-18.5
	s8.797-9.891,12.547-13.266l0.002,0.001c-1.139-1.266-2.223-2.464-3.211-3.528L34.926,0c-1.094,1.09-2.18,2.186-3.262,3.284
	c-5.834,5.917-11.834,12.75-15.417,17.5S8.914,31.451,6.164,37.117C3.983,41.61,1.58,47.784,0,54.538
	c0.407,0.083,0.798,0.148,1.175,0.197L1.132,54.73c0.151,0.02,0.3,0.037,0.447,0.052L1.564,54.764z"/>
</svg>
