<?xml version="1.0" encoding="iso-8859-1"?>
<!-- Generator: Adobe Illustrator 16.0.0, SVG Export Plug-In . SVG Version: 6.00 Build 0)  -->
<!DOCTYPE svg PUBLIC "-//W3C//DTD SVG 1.1//EN" "http://www.w3.org/Graphics/SVG/1.1/DTD/svg11.dtd">
<svg version="1.1" id="Layer_1" xmlns="http://www.w3.org/2000/svg" xmlns:xlink="http://www.w3.org/1999/xlink" x="0px" y="0px"
	 width="8.709px" height="7.096px" viewBox="0 0 8.709 7.096" style="enable-background:new 0 0 8.709 7.096;" xml:space="preserve"
	>
<path style="fill:#FFCD8A;" d="M5.838,0c1.461,0.398,2.496,1.11,2.788,2.034c0.03,0.094,0.052,0.19,0.065,0.289
	c0.281,1.975-2.781,4.045-6.84,4.623C1.217,7.036,0.597,7.085,0,7.096c0,0,1.438-0.633,2.438-1.398S4.578,3.76,5.125,2.588
	S5.75,0.869,5.812,0.525S5.838,0,5.838,0z M7.224,3.672c0.554-0.032,0.974-0.551,0.938-1.159S7.65,1.437,7.098,1.469
	C6.544,1.5,6.124,2.02,6.158,2.628C6.193,3.237,6.671,3.704,7.224,3.672z"/>
</svg>
