<?xml version="1.0" encoding="iso-8859-1"?>
<!-- Generator: Adobe Illustrator 16.0.0, SVG Export Plug-In . SVG Version: 6.00 Build 0)  -->
<!DOCTYPE svg PUBLIC "-//W3C//DTD SVG 1.1//EN" "http://www.w3.org/Graphics/SVG/1.1/DTD/svg11.dtd">
<svg version="1.1" id="Layer_1" xmlns="http://www.w3.org/2000/svg" xmlns:xlink="http://www.w3.org/1999/xlink" x="0px" y="0px"
	 width="45.246px" height="47.779px" viewBox="0 0 45.246 47.779" style="enable-background:new 0 0 45.246 47.779;"
	 xml:space="preserve">
<path style="fill:#4FBA6F;" d="M45.215,1.107c-3.135,5.392-5.537,10.408-7.152,13.994c-1.842,4.092-3.041,6.75-4.252,8.49
	c-2.719,3.908-5.916,6.422-10.963,7.096c-4.646,0.619-7.762,1.373-11.059,1.937C9.532,33.009,7.449,33.78,5.47,35.1l0.043-0.021
	c-1.251,0.624-2.364,1.445-3.126,2.56c-0.578,0.719-0.969,1.656-1.049,2.551c-0.292,3.269,1.583,6.275,3.455,7.496l0.109,0.094
	c-6.556-3.562-5.073-8.736-3.791-10.875c1.283-2.137,4.085-4.322,9.643-5.32c3.721-0.668,8.226-1.687,11.448-2.232
	c4.428-0.749,8.258-3.27,10.261-7.885C35.282,14.967,39.087,6.711,43.142,0l0.011,0.014c0.65,0.352,1.377,0.686,2.094,1.057
	L45.215,1.107z"/>
</svg>
