<?xml version="1.0" encoding="iso-8859-1"?>
<!-- Generator: Adobe Illustrator 16.0.0, SVG Export Plug-In . SVG Version: 6.00 Build 0)  -->
<!DOCTYPE svg PUBLIC "-//W3C//DTD SVG 1.1//EN" "http://www.w3.org/Graphics/SVG/1.1/DTD/svg11.dtd">
<svg version="1.1" id="Layer_1" xmlns="http://www.w3.org/2000/svg" xmlns:xlink="http://www.w3.org/1999/xlink" x="0px" y="0px"
	 width="49.138px" height="42.771px" viewBox="0 0 49.138 42.771" style="enable-background:new 0 0 49.138 42.771;"
	 xml:space="preserve">
<path style="fill:#FFCD8A;" d="M21.434,16.926c-0.371,0.296-0.741,0.594-1.109,0.895c-7.55,6.158-15.383,14.99-19.753,22.019
	C0.381,40.147,0.19,40.459,0,40.773l0.011,0.014c0.65,0.352,1.377,0.686,2.093,1.057c0.54,0.279,1.073,0.58,1.563,0.928l0.01-0.004
	c3.907-6.041,7.034-9.414,10.162-12.902c3.25-3.625,6.375-6.375,9.125-8.875s6.625-5.375,9.75-7.375s6.25-3.875,9.125-5.5
	c2.379-1.345,5.1-2.261,7.242-2.891l0.057-0.037L46.474,0.02L46.454,0c-0.197,0.902-1.156,1.497-2.164,2.026
	C37.134,5.786,29.04,10.861,21.434,16.926z"/>
</svg>
