<?xml version="1.0" encoding="iso-8859-1"?>
<!-- Generator: Adobe Illustrator 16.0.0, SVG Export Plug-In . SVG Version: 6.00 Build 0)  -->
<!DOCTYPE svg PUBLIC "-//W3C//DTD SVG 1.1//EN" "http://www.w3.org/Graphics/SVG/1.1/DTD/svg11.dtd">
<svg version="1.1" id="Layer_1" xmlns="http://www.w3.org/2000/svg" xmlns:xlink="http://www.w3.org/1999/xlink" x="0px" y="0px"
	 width="41.349px" height="34.029px" viewBox="0 0 41.349 34.029" style="enable-background:new 0 0 41.349 34.029;"
	 xml:space="preserve">
<path style="fill:#4FBA6F;" d="M41.339,0.928C40.849,0.581,40.315,0.279,39.776,0l-0.031,0.037
	c-3.135,5.392-5.537,10.408-7.152,13.994c-1.842,4.092-3.041,6.75-4.252,8.49c-2.719,3.908-5.916,6.422-10.963,7.096
	c-4.646,0.619-7.762,1.373-11.059,1.937C4.062,31.938,1.979,32.71,0,34.029l0.043-0.021c1.416-0.705,3.007-1.155,4.467-1.487
	c2.75-0.625,7-1,10.5-1.25s7.375-1,9.125-1.75s3.75-1.875,4.625-3.25s2-3.875,4-9s4-9.125,8.125-15.625
	c0.156-0.245,0.311-0.486,0.463-0.722L41.339,0.928z"/>
</svg>
