<?xml version="1.0" encoding="iso-8859-1"?>
<!-- Generator: Adobe Illustrator 16.0.0, SVG Export Plug-In . SVG Version: 6.00 Build 0)  -->
<!DOCTYPE svg PUBLIC "-//W3C//DTD SVG 1.1//EN" "http://www.w3.org/Graphics/SVG/1.1/DTD/svg11.dtd">
<svg version="1.1" id="Layer_1" xmlns="http://www.w3.org/2000/svg" xmlns:xlink="http://www.w3.org/1999/xlink" x="0px" y="0px"
	 width="65.125px" height="56.656px" viewBox="0 0 65.125 56.656" style="enable-background:new 0 0 65.125 56.656;"
	 xml:space="preserve">
<path style="fill:#FFCD8A;" d="M39.048,54.053c1.977,0.308,3.718,0.669,5.097,1.07c1.478,0.429,2.875,0.931,4.185,1.501l0.007,0.032
	c3.704-10.402,10.627-25.205,16.755-32.615l0.034-0.01c-1.026-0.885-2.109-1.798-3.255-2.744
	C54.353,15.089,48.261,10.635,43.7,7.572c-4.561-3.064-9.797-5.736-14.714-6.84c-4.916-1.104-9.868-0.926-13.289,0.32
	c-3.42,1.247-6.947,3.456-10.474,6.912C3.116,10.029,1.428,12.578,0,15.739l0.028,0.005c2.708,1.283,8.292,4.915,11.482,7.458
	c3.978,3.17,7.77,6.632,12.255,11.827c4.819,5.582,7.697,12.512,8.124,18.212l-0.002,0.02
	C34.446,53.447,36.888,53.718,39.048,54.053"/>
</svg>
