<?xml version="1.0" encoding="iso-8859-1"?>
<!-- Generator: Adobe Illustrator 16.0.0, SVG Export Plug-In . SVG Version: 6.00 Build 0)  -->
<!DOCTYPE svg PUBLIC "-//W3C//DTD SVG 1.1//EN" "http://www.w3.org/Graphics/SVG/1.1/DTD/svg11.dtd">
<svg version="1.1" id="Layer_1" xmlns="http://www.w3.org/2000/svg" xmlns:xlink="http://www.w3.org/1999/xlink" x="0px" y="0px"
	 width="38.524px" height="18.692px" viewBox="0 0 38.524 18.692" style="enable-background:new 0 0 38.524 18.692;"
	 xml:space="preserve">
<path style="fill:#FFCD8A;" d="M29.579,1.725c2.279,0.142,5.986,1.116,6.842,2.683c0.855,1.568,0.998,3.895,0.616,6.745
	c-0.38,2.839-1.188,4.894-2.613,4.608s-3.97-0.565-9.548-0.855c-5.486-0.285-8.906-0.57-13.181-0.997
	c-4.275-0.428-7.084-1.753-8.266-2.851c-0.642-0.596-1.747-1.241-1.931-2.711c-0.175-1.399,0.665-3.259,1.409-3.82
	c1.085-0.819,3.167-1.414,6.033-1.9c2.518-0.427,6.033-0.689,11.447-0.831C23.023,1.727,27.23,1.578,29.579,1.725z M38.522,5.988
	c0.06-3.409-1.549-5.83-10.18-5.973C23.21-0.07,17.438,0.215,12.217,0.68C9.688,0.905,5.66,1.518,3.2,2.426
	c-1.57,0.579-3.127,1.839-3.167,3.17c-0.082,2.743-0.046,4.572,0.537,6.33l0.02,0.014c0.166,0.171,0.341,0.333,0.525,0.486
	l0.018-0.016c0.859-0.25,3.263,0.203,5.979,0.93c2.811,0.75,5.156,1.068,7.079,1.2c2.232,0.153,4.49,0.854,5.271,1.464l0.048,0.033
	c1.054,0.053,2.097,0.112,3.108,0.175v-0.005c2.875-0.859,5.574-0.887,7.366-0.73c4.56,0.398,6.712,1.762,7.853,3.184l0.021,0.032
	c-0.003-3.1,0.121-7.619,0.65-12.704L38.522,5.988z"/>
</svg>
