<?xml version="1.0" encoding="iso-8859-1"?>
<!-- Generator: Adobe Illustrator 16.0.0, SVG Export Plug-In . SVG Version: 6.00 Build 0)  -->
<!DOCTYPE svg PUBLIC "-//W3C//DTD SVG 1.1//EN" "http://www.w3.org/Graphics/SVG/1.1/DTD/svg11.dtd">
<svg version="1.1" id="Layer_1" xmlns="http://www.w3.org/2000/svg" xmlns:xlink="http://www.w3.org/1999/xlink" x="0px" y="0px"
	 width="6.836px" height="19.409px" viewBox="0 0 6.836 19.409" style="enable-background:new 0 0 6.836 19.409;"
	 xml:space="preserve">
<path style="fill:#FFCD8A;" d="M2.154,18.978c-0.658-0.419-1.229-1.275-1.554-1.837l-0.017,0.011
	c0.609-2.146,1.003-4.924,1.039-7.17c0.006-0.378,0.003-0.748-0.007-1.104C1.543,6.354,1.068,1.901,0.021,0.558L0,0.581
	c0.147-0.076,0.279-0.168,0.392-0.269C0.499,0.215,0.597,0.111,0.686,0l0.008,0.026c1.354,2.352,2.832,5.051,3.452,7.568
	c0.456,1.851,1.286,5.229,2.657,6.854l0.033-0.051c-0.115,0.783-0.296,1.553-0.553,2.229c-0.594,1.559-1.805,3.631-4.014,2.42
	C2.23,19.024,2.192,19.001,2.154,18.978"/>
</svg>
