<?xml version="1.0" encoding="iso-8859-1"?>
<!-- Generator: Adobe Illustrator 16.0.0, SVG Export Plug-In . SVG Version: 6.00 Build 0)  -->
<!DOCTYPE svg PUBLIC "-//W3C//DTD SVG 1.1//EN" "http://www.w3.org/Graphics/SVG/1.1/DTD/svg11.dtd">
<svg version="1.1" id="Layer_1" xmlns="http://www.w3.org/2000/svg" xmlns:xlink="http://www.w3.org/1999/xlink" x="0px" y="0px"
	 width="30.032px" height="3.532px" viewBox="0 0 30.032 3.532" style="enable-background:new 0 0 30.032 3.532;"
	 xml:space="preserve">
<path style="fill:#4FBA6F;" d="M30.032,3.532h-4.188l0.004-0.008c0,0-0.528-0.624-1.781-1c-1.252-0.375-3.568-0.813-6.199-0.876
	c-2.63-0.062-5.323-0.188-8.517,0.125C6.157,2.086,5.009,2.337,3.756,2.713S2.051,3.526,2.051,3.526l0.043,0.006H0l0-0.008
	c0.039-0.462,0.082-0.846,0.15-1.167l0.021-0.021c1.503-0.563,3.229-1.19,4.669-1.565c1.44-0.376,3.507-0.564,6.638-0.689
	c3.131-0.125,5.887-0.125,8.955,0.125c3.069,0.25,4.571,0.564,5.824,1.065s2.818,1.438,3.758,2.252L30.032,3.532z"/>
</svg>
