<?xml version="1.0" encoding="iso-8859-1"?>
<!-- Generator: Adobe Illustrator 16.0.0, SVG Export Plug-In . SVG Version: 6.00 Build 0)  -->
<!DOCTYPE svg PUBLIC "-//W3C//DTD SVG 1.1//EN" "http://www.w3.org/Graphics/SVG/1.1/DTD/svg11.dtd">
<svg version="1.1" id="Layer_1" xmlns="http://www.w3.org/2000/svg" xmlns:xlink="http://www.w3.org/1999/xlink" x="0px" y="0px"
	 width="29.866px" height="4.409px" viewBox="0 0 29.866 4.409" style="enable-background:new 0 0 29.866 4.409;"
	 xml:space="preserve">
<path style="fill:#FFCD8A;" d="M28.534,2.637c-0.149-0.071-0.299-0.147-0.449-0.231c-1.251-0.692-2.306-1.02-3.714-1.481
	c0,0-2.736-0.438-4.559-0.596c-1.82-0.159-4.004-0.258-6.695-0.321c-2.692-0.062-5.685,0.243-7.65,0.525
	C4.948,0.608,4.436,0.708,3.946,0.826C2.57,1.158,1.377,1.628,0.734,2.037C0.325,2.297,0.122,2.671,0,3.242l0.021-0.021
	C1.524,2.659,3.25,2.032,4.691,1.657c1.44-0.376,3.507-0.564,6.638-0.689c3.131-0.125,5.887-0.125,8.955,0.125
	c3.069,0.25,4.571,0.564,5.824,1.065s2.818,1.438,3.758,2.251L29.85,4.378c-0.219-0.781-0.578-1.219-1.266-1.718L28.534,2.637z"/>
</svg>
