<?xml version="1.0" encoding="iso-8859-1"?>
<!-- Generator: Adobe Illustrator 16.0.0, SVG Export Plug-In . SVG Version: 6.00 Build 0)  -->
<!DOCTYPE svg PUBLIC "-//W3C//DTD SVG 1.1//EN" "http://www.w3.org/Graphics/SVG/1.1/DTD/svg11.dtd">
<svg version="1.1" id="Layer_1" xmlns="http://www.w3.org/2000/svg" xmlns:xlink="http://www.w3.org/1999/xlink" x="0px" y="0px"
	 width="26.365px" height="4.908px" viewBox="0 0 26.365 4.908" style="enable-background:new 0 0 26.365 4.908;"
	 xml:space="preserve">
<path style="fill:#FFCD8A;" d="M13.33,1.357c0,0,1.277-0.644,2.028-0.895c0.751-0.25,1.854-0.62,2.952-0.39
	c0.836,0.175,1.309,0.34,2,0.6c0.541,0.204,1.273,0.515,1.838,0.891c1.297,0.865,2.204,2.188,2.801,2.585
	C25.7,4.649,26.365,4.78,26.365,4.78l-0.022-0.014c-0.004,0.043-0.008,0.084-0.012,0.125l0.016,0.017
	c-2.16-0.424-4.044-2.455-5.373-2.986c-1.193-0.477-2.684-1.014-3.996-1.073c-1.312-0.06-2.685,0.715-3.34,1.073
	c-0.656,0.358-1.312,0.835-2.267,1.133C10.417,3.354,9.522,3.593,8.21,3.831C6.898,4.07,4.326,4.226,2.652,4.249
	C0.296,4.282,0.14,4.282,0.03,4.142L0,4.155c1.373-0.123,2.649-0.376,4.502-0.734c1.907-0.37,3.962-0.738,5.135-0.94
	c1.259-0.217,2.645-0.69,3.705-1.121L13.33,1.357z"/>
</svg>
