<?xml version="1.0" encoding="iso-8859-1"?>
<!-- Generator: Adobe Illustrator 16.0.0, SVG Export Plug-In . SVG Version: 6.00 Build 0)  -->
<!DOCTYPE svg PUBLIC "-//W3C//DTD SVG 1.1//EN" "http://www.w3.org/Graphics/SVG/1.1/DTD/svg11.dtd">
<svg version="1.1" id="Layer_1" xmlns="http://www.w3.org/2000/svg" xmlns:xlink="http://www.w3.org/1999/xlink" x="0px" y="0px"
	 width="22.521px" height="21.953px" viewBox="0 0 22.521 21.953" style="enable-background:new 0 0 22.521 21.953;"
	 xml:space="preserve">
<path style="fill:#4FBA6F;" d="M0.183,21.931c-0.51-0.778,0.131-2.362,0.914-3.687c1.853-3.135,6.185-7.377,11.97-11.828
	C15.697,4.392,19.154,1.938,22.521,0l-0.016,0.016c-0.349,0.221-0.534,0.479-0.605,0.782l0.012-0.016
	c-1.586,1.821-7.421,6.062-10.556,8.77c-3.135,2.708-5.771,5.13-7.054,6.84c-1.283,1.71-2.352,3.42-1.71,3.99l0.02,0.019
	c-0.718,0.396-1.629,1.029-2.372,1.553L0.183,21.931z"/>
</svg>
