<?xml version="1.0" encoding="iso-8859-1"?>
<!-- Generator: Adobe Illustrator 16.0.0, SVG Export Plug-In . SVG Version: 6.00 Build 0)  -->
<!DOCTYPE svg PUBLIC "-//W3C//DTD SVG 1.1//EN" "http://www.w3.org/Graphics/SVG/1.1/DTD/svg11.dtd">
<svg version="1.1" id="Layer_1" xmlns="http://www.w3.org/2000/svg" xmlns:xlink="http://www.w3.org/1999/xlink" x="0px" y="0px"
	 width="45.422px" height="23.082px" viewBox="0 0 45.422 23.082" style="enable-background:new 0 0 45.422 23.082;"
	 xml:space="preserve">
<path style="fill:#FFCD8A;" d="M45.422,0.01c-0.479,1.234-0.995,3.005-1.191,4.538l-0.019,0.018
	c-4.047,1.333-8.921,3.633-12.173,5.644c-1.211,0.749-2.463,1.607-3.729,2.562l0.002,0.004c-1.995,0.57-4.738,1.397-7.016,2.166
	c-2.063,0.695-4.845,1.639-6.983,2.422c-2.243,0.822-5.405,2.166-7.41,2.922c-2.228,0.839-4.393,1.521-6.669,2.678
	C0.163,23,0.088,23.039,0.012,23.082L0,23.057c2.085-2.25,4.767-4.838,6.761-6.406c2.021-1.588,4.297-3.409,6.128-4.845
	c2.372-1.86,5.212-4.005,7.314-5.608L20.19,6.2c0.365,0.635,0.779,1.257,1.107,1.615c0.52,0.566,1.729,0.907,2.636,0.926
	c0.721,0.016,1.752-0.251,2.624-0.674c1.518-0.736,3.577-1.899,5-2.532c2.54-1.128,6.667-2.809,8.693-3.634
	c1.4-0.57,3.233-1.252,5.155-1.901L45.422,0.01z"/>
</svg>
