<?xml version="1.0" encoding="iso-8859-1"?>
<!-- Generator: Adobe Illustrator 16.0.0, SVG Export Plug-In . SVG Version: 6.00 Build 0)  -->
<!DOCTYPE svg PUBLIC "-//W3C//DTD SVG 1.1//EN" "http://www.w3.org/Graphics/SVG/1.1/DTD/svg11.dtd">
<svg version="1.1" id="Layer_1" xmlns="http://www.w3.org/2000/svg" xmlns:xlink="http://www.w3.org/1999/xlink" x="0px" y="0px"
	 width="28.301px" height="10.311px" viewBox="0 0 28.301 10.311" style="enable-background:new 0 0 28.301 10.311;"
	 xml:space="preserve">
<path style="fill:#4FBA6F;" d="M0,10.311c0.076-0.043,0.15-0.082,0.222-0.119c2.277-1.157,4.442-1.839,6.669-2.678
	c2.005-0.756,5.167-2.1,7.41-2.922c2.138-0.784,4.919-1.727,6.983-2.422c2.277-0.768,5.02-1.596,7.016-2.166L28.299,0
	c-1.234,0.93-2.482,1.952-3.717,3.052l0.078-0.063c-1.711,1.282-5.32,4.102-7.152,4.846c-1.773,0.721-4.669,1.375-7.766,1.781
	c-3.242,0.424-7.422,0.721-9.738,0.686L0,10.311z"/>
</svg>
