<?xml version="1.0" encoding="iso-8859-1"?>
<!-- Generator: Adobe Illustrator 16.0.0, SVG Export Plug-In . SVG Version: 6.00 Build 0)  -->
<!DOCTYPE svg PUBLIC "-//W3C//DTD SVG 1.1//EN" "http://www.w3.org/Graphics/SVG/1.1/DTD/svg11.dtd">
<svg version="1.1" id="Layer_1" xmlns="http://www.w3.org/2000/svg" xmlns:xlink="http://www.w3.org/1999/xlink" x="0px" y="0px"
	 width="20.402px" height="19.601px" viewBox="0 0 20.402 19.601" style="enable-background:new 0 0 20.402 19.601;"
	 xml:space="preserve">
<path style="fill:#4FBA6F;" d="M19.5,0.016c-0.062,0.26-0.04,0.553,0.037,0.881c0.09,0.385,0.439,1.121,0.852,1.84l0.014-0.003
	c-2.102,1.603-4.941,3.748-7.314,5.608c-1.83,1.436-4.106,3.257-6.127,4.845c-1.995,1.568-4.676,4.156-6.761,6.406l-0.007,0.007
	c-0.642-0.57,0.427-2.28,1.71-3.99c1.282-1.71,3.919-4.132,7.054-6.84c3.135-2.708,8.97-6.949,10.556-8.77L19.5,0.016z"/>
</svg>
