<?xml version="1.0" encoding="iso-8859-1"?>
<!-- Generator: Adobe Illustrator 16.0.0, SVG Export Plug-In . SVG Version: 6.00 Build 0)  -->
<!DOCTYPE svg PUBLIC "-//W3C//DTD SVG 1.1//EN" "http://www.w3.org/Graphics/SVG/1.1/DTD/svg11.dtd">
<svg version="1.1" id="Layer_1" xmlns="http://www.w3.org/2000/svg" xmlns:xlink="http://www.w3.org/1999/xlink" x="0px" y="0px"
	 width="59.04px" height="15.39px" viewBox="0 0 59.04 15.39" style="enable-background:new 0 0 59.04 15.39;" xml:space="preserve"
	>
<path style="fill:#4FBA6F;" d="M58.664,0.9c-0.223-0.309-0.471-0.535-0.728-0.651c-0.667-0.3-1.746-0.352-3.065-0.033
	c-1.584,0.383-3.117,0.858-5.063,1.335c-6.983,1.71-16.007,4.126-23.229,5.843C17.109,9.646,6.271,10.354,0,4.583l0.02,0.058
	l4.966,10.718l0.041,0.03c0.605-0.25,1.405-0.551,2.01-0.729l-0.005-0.005c-0.973-2.468-1.272-4.436,0.31-3.983
	c1.995,0.569,4.56,0.569,8.408,0.569s9.12-1.14,18.099-3.42c6.906-1.754,13.328-3.32,19.559-4.858
	c1.868-0.461,3.719-0.92,5.561-1.38l0.073-0.03C58.927,1.31,58.8,1.089,58.664,0.9z"/>
</svg>
