<?xml version="1.0" encoding="iso-8859-1"?>
<!-- Generator: Adobe Illustrator 16.0.0, SVG Export Plug-In . SVG Version: 6.00 Build 0)  -->
<!DOCTYPE svg PUBLIC "-//W3C//DTD SVG 1.1//EN" "http://www.w3.org/Graphics/SVG/1.1/DTD/svg11.dtd">
<svg version="1.1" id="Layer_1" xmlns="http://www.w3.org/2000/svg" xmlns:xlink="http://www.w3.org/1999/xlink" x="0px" y="0px"
	 width="49.45px" height="19.58px" viewBox="0 0 49.45 19.58" style="enable-background:new 0 0 49.45 19.58;" xml:space="preserve"
	>
<path style="fill:#4FBA6F;" d="M47.193,0.006c0.597,1.641,1.598,4.341,2.194,5.833l0.062,0.05
	c-3.505,2.365-7.442,3.768-11.001,4.954c-5.131,1.71-14.25,4.418-20.093,6.127c-5.883,1.723-10.261,2.851-11.971,2.565
	c-1.571-0.262-3.135-2.565-4.703-5.843c-0.325-0.678-0.625-1.356-0.879-2.001c-0.973-2.468-1.272-4.436,0.31-3.984
	c1.995,0.57,4.56,0.57,8.408,0.57s9.12-1.14,18.098-3.42C34.525,3.104,40.947,1.538,47.177,0L47.193,0.006z"/>
</svg>
