<?xml version="1.0" encoding="iso-8859-1"?>
<!-- Generator: Adobe Illustrator 16.0.0, SVG Export Plug-In . SVG Version: 6.00 Build 0)  -->
<!DOCTYPE svg PUBLIC "-//W3C//DTD SVG 1.1//EN" "http://www.w3.org/Graphics/SVG/1.1/DTD/svg11.dtd">
<svg version="1.1" id="Layer_1" xmlns="http://www.w3.org/2000/svg" xmlns:xlink="http://www.w3.org/1999/xlink" x="0px" y="0px"
	 width="55.021px" height="22.476px" viewBox="0 0 55.021 22.476" style="enable-background:new 0 0 55.021 22.476;"
	 xml:space="preserve">
<path style="fill:#4FBA6F;" d="M55.004,0.038c0.27,2.985-2.729,6.573-8.045,8.532c-5.416,1.995-14.338,4.68-21.375,6.84
	c-5.551,1.705-13.158,4.288-19.863,7.023l-0.062,0.042L0.311,10.935L0,10.265l0.041,0.03c0.605-0.25,1.405-0.551,2.01-0.729
	L2.046,9.562c0.254,0.645,0.555,1.323,0.879,2.001c1.568,3.277,3.131,5.581,4.703,5.842c1.71,0.285,6.088-0.843,11.971-2.565
	c5.842-1.709,14.962-4.417,20.093-6.127c3.559-1.187,7.496-2.589,11.002-4.954C52.24,2.715,53.703,1.483,55.012,0L55.004,0.038z"/>
</svg>
