<?xml version="1.0" encoding="utf-8"?>
<!-- Generator: Adobe Illustrator 16.0.0, SVG Export Plug-In . SVG Version: 6.00 Build 0)  -->
<!DOCTYPE svg PUBLIC "-//W3C//DTD SVG 1.1//EN" "http://www.w3.org/Graphics/SVG/1.1/DTD/svg11.dtd">
<svg version="1.1" id="Layer_1" xmlns="http://www.w3.org/2000/svg" xmlns:xlink="http://www.w3.org/1999/xlink" x="0px" y="0px"
	 width="28.312px" height="16.885px" viewBox="0 0 28.312 16.885" enable-background="new 0 0 28.312 16.885" xml:space="preserve">
<path fill="#FFCD8A" d="M28.312,6.578c-1.995,0.57-4.738,1.397-7.016,2.166c-2.063,0.695-4.845,1.639-6.983,2.422
	c-2.243,0.822-5.405,2.166-7.41,2.922c-2.228,0.839-4.393,1.521-6.669,2.678c-0.072,0.037-0.146,0.076-0.222,0.119L0,16.859
	c2.085-2.25,4.767-4.838,6.761-6.406c2.021-1.588,4.297-3.409,6.128-4.845c2.372-1.86,5.212-4.005,7.314-5.608L20.19,0.003
	c0.365,0.635,0.779,1.257,1.107,1.615c0.52,0.566,1.729,0.907,2.637,0.926c0.416,0.009,0.937-0.077,1.47-0.232L28.312,6.578z"/>
</svg>
