<?xml version="1.0" encoding="iso-8859-1"?>
<!-- Generator: Adobe Illustrator 16.0.0, SVG Export Plug-In . SVG Version: 6.00 Build 0)  -->
<!DOCTYPE svg PUBLIC "-//W3C//DTD SVG 1.1//EN" "http://www.w3.org/Graphics/SVG/1.1/DTD/svg11.dtd">
<svg version="1.1" id="Layer_1" xmlns="http://www.w3.org/2000/svg" xmlns:xlink="http://www.w3.org/1999/xlink" x="0px" y="0px"
	 width="17.683px" height="16.622px" viewBox="0 0 17.683 16.622" style="enable-background:new 0 0 17.683 16.622;"
	 xml:space="preserve">
<path style="fill:#4FBA6F;" d="M16.422,16.62c0.365-0.791,0.789-1.584,1.261-2.351l-0.016,0.006
	c-1.917-1.242-3.705-2.59-5.409-3.938C8.435,7.311,7.356,4.218,7.455,0.043L7.466,0C6.853,0.577,6.119,1.147,5.211,1.702
	C3.953,2.472,2.095,3.315,0,4.089l0.014,0.008C1.989,5.047,4.09,6.582,5.656,7.88c1.058,0.877,3.301,2.964,5.212,4.582
	c1.692,1.432,3.546,2.908,5.539,4.16L16.422,16.62z"/>
</svg>
