<?xml version="1.0" encoding="utf-8"?>
<!-- Generator: Adobe Illustrator 16.0.0, SVG Export Plug-In . SVG Version: 6.00 Build 0)  -->
<!DOCTYPE svg PUBLIC "-//W3C//DTD SVG 1.1//EN" "http://www.w3.org/Graphics/SVG/1.1/DTD/svg11.dtd">
<svg version="1.1" id="Layer_1" xmlns="http://www.w3.org/2000/svg" xmlns:xlink="http://www.w3.org/1999/xlink" x="0px" y="0px"
	 width="21.111px" height="13.98px" viewBox="0 0 21.111 13.98" enable-background="new 0 0 21.111 13.98" xml:space="preserve">
<path fill="#FECD8A" d="M20.516,13.961c0.175-0.472,0.374-0.95,0.596-1.43l-0.015,0.002c-1.993-1.252-3.847-2.729-5.539-4.16
	c-1.911-1.618-4.155-3.705-5.212-4.582C8.78,2.493,6.678,0.958,4.703,0.008L4.689,0C3.202,0.549,1.596,1.064,0,1.492l0.017,0.028
	c1.028-0.208,1.97-0.286,3.012-0.134C4.716,1.632,6.174,2.331,7.37,3.321c1.453,1.203,2.948,2.439,4.413,3.729
	c1.175,1.035,2.721,2.354,4.376,3.669c1.157,0.92,2.567,2.053,4.324,3.262L20.516,13.961z"/>
</svg>
