<?xml version="1.0" encoding="utf-8"?>
<!-- Generator: Adobe Illustrator 16.0.0, SVG Export Plug-In . SVG Version: 6.00 Build 0)  -->
<!DOCTYPE svg PUBLIC "-//W3C//DTD SVG 1.1//EN" "http://www.w3.org/Graphics/SVG/1.1/DTD/svg11.dtd">
<svg version="1.1" id="Layer_1" xmlns="http://www.w3.org/2000/svg" xmlns:xlink="http://www.w3.org/1999/xlink" x="0px" y="0px"
	 width="271.773px" height="22.601px" viewBox="0 0 271.773 22.601" enable-background="new 0 0 271.773 22.601"
	 xml:space="preserve">
<path fill="#FFCD8A" d="M0.031,2.453c1.031-1.455,3.283-2.128,6.231-2.357c4.872-0.379,11.646,0.457,17.949,0.99
	C34.33,1.94,44.59,2.938,52.57,3.365c7.98,0.427,24.653,1.567,39.474,2.137c14.82,0.57,37.621,1.425,54.722,1.71
	c17.101,0.285,33.346,0.57,47.881,1.14c14.536,0.57,33.347,1.425,41.896,1.995c8.551,0.57,17.101,2.566,23.941,4.845
	c6.84,2.28,10.078,4.15,10.078,4.15l0.042,0.035c0.456,1.066,0.843,2.144,1.169,3.223l-0.023-0.008
	c-3.349-1.068-7.489-1.967-12.335-2.965c-4.845-0.998-13.823-1.853-25.509-2.707c-11.685-0.855-21.375-1.426-35.056-1.996
	c-13.681-0.569-29.641-0.854-45.886-1.14c-16.246-0.284-30.924-0.854-48.88-1.282c-17.955-0.428-36.623-0.998-51.871-1.71
	c-12.966-0.606-26.103-1.736-33.632-2.565c-4.111-0.453-10.276-1.263-13.4-2.261C2.596,5.14,0.724,3.673,0,2.468L0.031,2.453z
	 M2.439,2.524C2.382,3.246,5.125,4.051,8.564,4.325c3.439,0.273,6.274-0.09,6.332-0.812c0.057-0.721-2.686-1.527-6.125-1.8
	C5.332,1.44,2.497,1.803,2.439,2.524z"/>
</svg>
