<?xml version="1.0" encoding="utf-8"?>
<!-- Generator: Adobe Illustrator 16.0.0, SVG Export Plug-In . SVG Version: 6.00 Build 0)  -->
<!DOCTYPE svg PUBLIC "-//W3C//DTD SVG 1.1//EN" "http://www.w3.org/Graphics/SVG/1.1/DTD/svg11.dtd">
<svg version="1.1" id="Layer_1" xmlns="http://www.w3.org/2000/svg" xmlns:xlink="http://www.w3.org/1999/xlink" x="0px" y="0px"
	 width="5.746px" height="11.543px" viewBox="0 0 5.746 11.543" enable-background="new 0 0 5.746 11.543" xml:space="preserve">
<path fill="#FFCD8A" d="M1.444,5.775c0.656-2.005,1.408-3.963,2.231-5.762L3.668,0c0.46,0.21,0.83,0.527,1.105,0.958L4.75,0.949
	C4.615,1.574,4.56,2.237,4.633,2.824c0.092,0.744,0.39,1.363,0.992,1.625l0.004-0.033c0.209,1.826,0.135,3.504-0.2,5.11l0.01-0.013
	c-1.345,0.062-2.245,0.945-2.575,2.025l-0.02,0.004l-2.828-0.641H0c0.129-0.545,0.267-1.094,0.413-1.644
	C0.722,8.097,1.067,6.928,1.444,5.775z"/>
</svg>
