<?xml version="1.0" encoding="utf-8"?>
<!-- Generator: Adobe Illustrator 16.0.0, SVG Export Plug-In . SVG Version: 6.00 Build 0)  -->
<!DOCTYPE svg PUBLIC "-//W3C//DTD SVG 1.1//EN" "http://www.w3.org/Graphics/SVG/1.1/DTD/svg11.dtd">
<svg version="1.1" id="Layer_1" xmlns="http://www.w3.org/2000/svg" xmlns:xlink="http://www.w3.org/1999/xlink" x="0px" y="0px"
	 width="90.546px" height="89.008px" viewBox="0 0 90.546 89.008" enable-background="new 0 0 90.546 89.008" xml:space="preserve">
<path fill="#FFCD8A" d="M80.309,14.793C69.62,4.818,60.305,3.712,40.097,1.395C34.073,0.704,29.851,0.306,25.608,0l-0.027,0.001
	c-2.497,0.06-4.994,0.142-7.491,0.248l0.042,0.044l-0.255,1.405c-3.521-0.209-7.415,0.047-13.077,0.439
	C3.237,2.246,1.616,2.367,0,2.497l0.12,0.035c6.036,1.443,9.61,2.464,14.186,3.689c4.066,1.089,12.128,3.756,17.871,5.72
	c5.799,1.983,15.07,6.13,21.769,10.263c6.678,4.121,11.97,9.405,13.965,15.96c1.504,4.94-0.146,12.04-2.003,16.1
	c-1.225,2.68-3.515,6.74-5.122,9.266c-1.889,2.967-4.715,7.098-9.035,11.814c-3.694,4.035-9.081,8.365-16.766,12.226l0.022,0.021
	l-0.04-0.021c-0.139,0.857-0.224,1.371-0.223,1.371l0.038,0.066c1.639-0.285,4.202-1.041,9.035-2.926
	c5.605-2.186,11.411-5.023,17.539-8.16c6.127-3.134,15.106-9.261,19.665-14.535c4.561-5.272,8.551-12.397,9.264-19.809
	C90.996,36.169,90.996,24.769,80.309,14.793z M17.923,1.7c-0.015-0.001-0.03-0.001-0.044-0.002L17.89,1.68
	c1.919,0.117,5.785,0.988,13.196,3.352C23.675,2.668,19.843,1.817,17.923,1.7z"/>
</svg>
