<?xml version="1.0" encoding="iso-8859-1"?>
<!-- Generator: Adobe Illustrator 16.0.0, SVG Export Plug-In . SVG Version: 6.00 Build 0)  -->
<!DOCTYPE svg PUBLIC "-//W3C//DTD SVG 1.1//EN" "http://www.w3.org/Graphics/SVG/1.1/DTD/svg11.dtd">
<svg version="1.1" id="Layer_1" xmlns="http://www.w3.org/2000/svg" xmlns:xlink="http://www.w3.org/1999/xlink" x="0px" y="0px"
	 width="79.536px" height="85.97px" viewBox="0 0 79.536 85.97" style="enable-background:new 0 0 79.536 85.97;"
	 xml:space="preserve">
<path style="fill:#FFCD8A;" d="M35.006,85.97c1.086-0.343,2.137-0.698,3.158-1.068l-0.018,0.004
	c3.686-1.605,6.973-3.326,10.963-5.749s8.979-6.128,11.971-8.692c2.992-2.565,7.125-6.271,10.261-9.977
	c3.135-3.705,5.695-7.981,7.07-12.237c1.335-4.133,1.466-9.319,0.478-12.753c-0.775-2.688-2.645-5.385-5.025-8.438
	c-1.685-2.161-6.108-5.981-8.888-8.141c-2.868-2.228-7.23-4.74-13.73-7.735c-6.72-3.097-13.838-5.76-20.158-7.775
	c-7.412-2.363-11.244-3.215-13.163-3.332c-3.533-0.214-7.436,0.043-13.122,0.437C3.237,0.623,1.616,0.745,0,0.874l0.12,0.035
	c6.036,1.443,9.61,2.464,14.186,3.689c4.066,1.089,12.128,3.756,17.871,5.72c5.799,1.983,15.07,6.13,21.769,10.263
	c6.678,4.121,11.97,9.405,13.965,15.96c1.504,4.94-0.146,12.04-2.003,16.101c-1.225,2.68-3.515,6.74-5.122,9.266
	c-1.889,2.967-4.715,7.098-9.035,11.814c-3.694,4.034-9.08,8.365-16.766,12.227L35.006,85.97z"/>
</svg>
