<?xml version="1.0" encoding="iso-8859-1"?>
<!-- Generator: Adobe Illustrator 16.0.0, SVG Export Plug-In . SVG Version: 6.00 Build 0)  -->
<!DOCTYPE svg PUBLIC "-//W3C//DTD SVG 1.1//EN" "http://www.w3.org/Graphics/SVG/1.1/DTD/svg11.dtd">
<svg version="1.1" id="Layer_1" xmlns="http://www.w3.org/2000/svg" xmlns:xlink="http://www.w3.org/1999/xlink" x="0px" y="0px"
	 width="62.634px" height="86.271px" viewBox="0 0 62.634 86.271" style="enable-background:new 0 0 62.634 86.271;"
	 xml:space="preserve">
<path style="fill:#4FBA6F;" d="M0,1.443L0.262,0l0.003,0.046c6.144,1.685,13.323,3.926,17.243,5.265
	c6.864,2.345,14.944,5.647,22.704,9.71c6.812,3.567,13.341,8.195,16.601,12.738c3.075,4.285,6.243,7.8,5.775,14.353
	c-0.428,5.985-1.868,11.187-5.431,16.03c-4.14,5.631-10.168,11.523-17.385,17.102c-6.4,4.943-12.172,8.363-19.486,11.023
	l-0.018,0.004c3.686-1.605,6.973-3.326,10.963-5.75c3.99-2.422,8.978-6.127,11.97-8.691c2.992-2.566,7.125-6.271,10.261-9.977
	c3.135-3.705,5.695-7.982,7.07-12.238c1.335-4.133,1.466-9.318,0.478-12.752c-0.775-2.688-2.645-5.385-5.025-8.438
	c-1.685-2.161-6.108-5.981-8.888-8.141c-2.868-2.228-7.23-4.74-13.73-7.735c-6.72-3.097-13.838-5.76-20.158-7.775
	C5.797,2.412,1.932,1.54,0.013,1.423L0,1.443z"/>
</svg>
