<?xml version="1.0" encoding="iso-8859-1"?>
<!-- Generator: Adobe Illustrator 16.0.0, SVG Export Plug-In . SVG Version: 6.00 Build 0)  -->
<!DOCTYPE svg PUBLIC "-//W3C//DTD SVG 1.1//EN" "http://www.w3.org/Graphics/SVG/1.1/DTD/svg11.dtd">
<svg version="1.1" id="Layer_1" xmlns="http://www.w3.org/2000/svg" xmlns:xlink="http://www.w3.org/1999/xlink" x="0px" y="0px"
	 width="72.455px" height="89.008px" viewBox="0 0 72.455 89.008" style="enable-background:new 0 0 72.455 89.008;"
	 xml:space="preserve">
<path style="fill:#4FBA6F;" d="M0.052,0.303c6.144,1.685,13.323,3.926,17.243,5.265c6.864,2.345,14.944,5.647,22.704,9.71
	c6.812,3.567,13.341,8.195,16.601,12.738c3.075,4.285,6.243,7.8,5.775,14.353c-0.428,5.984-1.868,11.186-5.431,16.031
	c-4.14,5.629-10.168,11.523-17.385,17.1c-6.4,4.945-12.172,8.365-19.486,11.023c-1.021,0.371-2.071,0.727-3.158,1.068l-0.04-0.021
	c-0.139,0.857-0.224,1.371-0.224,1.371l0.038,0.066c1.639-0.285,4.202-1.041,9.035-2.926c5.605-2.186,11.411-5.023,17.539-8.16
	c6.127-3.135,15.105-9.262,19.665-14.535c4.561-5.271,8.55-12.396,9.263-19.808c0.713-7.41,0.713-18.81-9.975-28.786
	C51.529,4.818,42.215,3.712,22.006,1.395C15.983,0.704,11.761,0.306,7.518,0L7.491,0.001C4.995,0.061,2.497,0.143,0,0.25
	L0.052,0.303z"/>
</svg>
