<?xml version="1.0" encoding="iso-8859-1"?>
<!-- Generator: Adobe Illustrator 16.0.0, SVG Export Plug-In . SVG Version: 6.00 Build 0)  -->
<!DOCTYPE svg PUBLIC "-//W3C//DTD SVG 1.1//EN" "http://www.w3.org/Graphics/SVG/1.1/DTD/svg11.dtd">
<svg version="1.1" id="Layer_1" xmlns="http://www.w3.org/2000/svg" xmlns:xlink="http://www.w3.org/1999/xlink" x="0px" y="0px"
	 width="26.481px" height="8.279px" viewBox="0 0 26.481 8.279" style="enable-background:new 0 0 26.481 8.279;"
	 xml:space="preserve">
<path style="fill:#FFCD8A;" d="M26.447,7.963c-1.521-0.375-3.521-0.812-5.188-1.146c-1.667-0.333-4.5-0.75-6.168-1
	c-1.667-0.25-4.586-0.471-6.667-0.667c-2.208-0.208-3.7-0.35-4.417-0.75C3.28,3.994,3.12,3.138,3.737,2.296
	c0.521-0.71,1.224-0.822,4.188-0.229c2.083,0.417,3.5,0.667,5.917,1.333c2.418,0.667,4.501,1.333,6.084,1.834
	c1.584,0.5,2.899,1.016,4.639,1.223l0.066,0.021c-1.215-0.495-2.597-1.033-4.276-1.621c-3.333-1.167-8-2.833-11.667-3.667
	C7.271,0.867,5.466,0.448,3.614,0.032L3.642,0C3.045,2.04,2.042,3.469,0.038,4.495L0,4.481c0.387,0.227,0.888,0.385,1.517,0.493
	c2.917,0.5,5.833,1,8.667,1.166s5.584,0.334,7.834,0.75s4.594,0.959,5.76,1.375l0.014,0.014c1.055-0.123,1.934-0.22,2.69-0.303
	L26.447,7.963z"/>
</svg>
