<?xml version="1.0" encoding="iso-8859-1"?>
<!-- Generator: Adobe Illustrator 16.0.0, SVG Export Plug-In . SVG Version: 6.00 Build 0)  -->
<!DOCTYPE svg PUBLIC "-//W3C//DTD SVG 1.1//EN" "http://www.w3.org/Graphics/SVG/1.1/DTD/svg11.dtd">
<svg version="1.1" id="Layer_1" xmlns="http://www.w3.org/2000/svg" xmlns:xlink="http://www.w3.org/1999/xlink" x="0px" y="0px"
	 width="22.588px" height="3.872px" viewBox="0 0 22.588 3.872" style="enable-background:new 0 0 22.588 3.872;"
	 xml:space="preserve">
<path style="fill:#FFCD8A;" d="M21.15,3.858c-1.521-0.375-3.521-0.812-5.188-1.146c-1.667-0.333-4.5-0.75-6.167-1
	S5.209,1.242,3.128,1.045C1.837,0.924,0.79,0.825,0,0.684l0.041-0.038c1.198-0.684,4.087-0.767,5.837-0.517s3.584,0.5,5.25,0.917
	c1.666,0.417,3.491,0.952,4.75,1.25c1.938,0.458,3.455,0.719,4.852,0.678l0.025-0.01c0.629,0.265,1.22,0.517,1.797,0.758
	l0.035-0.008c-0.422,0.049-0.884,0.1-1.403,0.158L21.15,3.858z"/>
</svg>
