<?xml version="1.0" encoding="iso-8859-1"?>
<!-- Generator: Adobe Illustrator 16.0.0, SVG Export Plug-In . SVG Version: 6.00 Build 0)  -->
<!DOCTYPE svg PUBLIC "-//W3C//DTD SVG 1.1//EN" "http://www.w3.org/Graphics/SVG/1.1/DTD/svg11.dtd">
<svg version="1.1" id="Layer_1" xmlns="http://www.w3.org/2000/svg" xmlns:xlink="http://www.w3.org/1999/xlink" x="0px" y="0px"
	 width="271.916px" height="20.645px" viewBox="0 0 271.916 20.645" style="enable-background:new 0 0 271.916 20.645;"
	 xml:space="preserve">
<path style="fill:#4FBA6F;" d="M0,3.244V0l0.002,0.031C0.726,1.236,2.598,2.703,5.184,3.53c3.124,0.999,9.289,1.809,13.4,2.261
	C26.113,6.62,39.25,7.75,52.216,8.356c15.248,0.712,33.916,1.282,51.871,1.71c17.956,0.428,32.634,0.998,48.88,1.282
	c16.245,0.285,32.205,0.57,45.886,1.14c13.681,0.57,23.371,1.141,35.056,1.996c11.686,0.854,20.664,1.709,25.509,2.707
	c4.846,0.998,8.986,1.896,12.335,2.965l0.023,0.008c0.049,0.16,0.096,0.32,0.141,0.48l-0.008-0.02
	c-3.407-1.014-9.652-2.092-11.707-2.454c-3.616-0.638-8.166-1.015-13.787-1.639c-5.656-0.628-11.46-0.643-21.555-1.354
	c-10.117-0.713-23.655-0.713-37.479-1.425c-13.822-0.713-26.509-0.186-36.908-0.57c-7.695-0.285-17.094-0.57-22.801-0.57
	c-5.7,0-14.964-0.396-20.806-0.428c-10.691-0.055-26.078-0.712-36.767-0.997c-14.398-0.384-21.66-0.854-27.788-1.283
	c-6.128-0.427-14.303-1.16-19.879-1.71C15.635,7.525,9.841,6.734,5.546,5.987C3.495,5.63,1.455,4.922,0.002,3.25L0,3.244z"/>
</svg>
