<?xml version="1.0" encoding="iso-8859-1"?>
<!-- Generator: Adobe Illustrator 16.0.0, SVG Export Plug-In . SVG Version: 6.00 Build 0)  -->
<!DOCTYPE svg PUBLIC "-//W3C//DTD SVG 1.1//EN" "http://www.w3.org/Graphics/SVG/1.1/DTD/svg11.dtd">
<svg version="1.1" id="Layer_1" xmlns="http://www.w3.org/2000/svg" xmlns:xlink="http://www.w3.org/1999/xlink" x="0px" y="0px"
	 width="47.964px" height="7.931px" viewBox="0 0 47.964 7.931" style="enable-background:new 0 0 47.964 7.931;"
	 xml:space="preserve">
<path style="fill:#FFCD8A;" d="M47.329,3.082c-1.689-1.43-5.814-2.796-8.166-3.01c-2.775-0.252-8.592,0.208-12.184,0.641
	c-5.142,0.621-11.668,1.852-15.818,2.85C7.946,4.336,4.105,5.392,1.031,6.322l-0.03,0.01c-0.25,0.32-0.641,1-0.969,1.578L0,7.931
	c1.663-0.562,3.392-1.1,4.962-1.519c3.582-0.954,7.535-1.834,10.831-2.351c0.966-0.151,1.96-0.268,2.938-0.361l-0.059,0.007
	c2.688-0.732,5.165-1.15,7.518-1.526c2.606-0.417,6.409-0.856,8.057-0.969c3.135-0.214,6.199-0.071,8.123,0.285
	c1.924,0.356,4.32,1.414,5.568,2.242l0.025,0.053c-0.121-0.164-0.243-0.313-0.357-0.442c-0.102-0.102-0.21-0.206-0.322-0.313
	L47.329,3.082z"/>
</svg>
