<?xml version="1.0" encoding="iso-8859-1"?>
<!-- Generator: Adobe Illustrator 16.0.0, SVG Export Plug-In . SVG Version: 6.00 Build 0)  -->
<!DOCTYPE svg PUBLIC "-//W3C//DTD SVG 1.1//EN" "http://www.w3.org/Graphics/SVG/1.1/DTD/svg11.dtd">
<svg version="1.1" id="Layer_1" xmlns="http://www.w3.org/2000/svg" xmlns:xlink="http://www.w3.org/1999/xlink" x="0px" y="0px"
	 width="91.417px" height="82.464px" viewBox="0 0 91.417 82.464" style="enable-background:new 0 0 91.417 82.464;"
	 xml:space="preserve">
<path style="fill:#4FBA6F;" d="M91.417,0.22c-0.444-0.91-5.205,1.199-8.02,2.766c-2.658,1.481-7.586,4.158-12.968,8.266
	c-5.415,4.133-10.475,8.458-16.531,15.391c-5.914,6.77-10.164,13.492-12.47,18.027c-2.208,4.347-4.022,8.151-5.415,12.042
	c-0.951,2.654-2.171,5.471-3.678,7.08c-1.013,1.082-2.479,1.551-3.733,2.183c-2.088,1.051-6.571,1.804-10.884,1.924
	c-4.594,0.128-8.221,0.606-12.131,1.782c-1.338,0.401-2.525,1.018-3.806,1.908l-0.069,0.03c-0.231,0.243-0.443,0.504-0.634,0.782
	C0.501,73.12,0.11,74.058,0.03,74.952c-0.292,3.269,1.583,6.275,3.455,7.496v0.016c-2.328-2.359-2.398-3.694-2.625-6.047
	c-0.315-3.271,1.283-4.744,6.045-5.975c2.539-0.656,5.313-1.168,8.095-1.336c2.789-0.17,5.57-0.244,7.959-0.457
	c5.369-0.481,10.845-3.271,12.186-6.91c4.035-10.945,9.216-21.759,18.621-32.87C63.335,17.563,76.72,7.246,91.407,0.23L91.417,0.22z
	"/>
</svg>
