<?xml version="1.0" encoding="iso-8859-1"?>
<!-- Generator: Adobe Illustrator 16.0.0, SVG Export Plug-In . SVG Version: 6.00 Build 0)  -->
<!DOCTYPE svg PUBLIC "-//W3C//DTD SVG 1.1//EN" "http://www.w3.org/Graphics/SVG/1.1/DTD/svg11.dtd">
<svg version="1.1" id="Layer_1" xmlns="http://www.w3.org/2000/svg" xmlns:xlink="http://www.w3.org/1999/xlink" x="0px" y="0px"
	 width="10.906px" height="4.302px" viewBox="0 0 10.906 4.302" style="enable-background:new 0 0 10.906 4.302;"
	 xml:space="preserve">
<path style="fill:#4FBA6F;" d="M10.906,3.176c-1.117,0.38-3.09,0.906-4.055,1.038C6.189,4.305,5.241,4.345,4.304,4.234
	c-0.667-0.08-1.565-0.568-2.292-1.333c-0.918-0.965-1.48-1.678-1.98-2.475L0,0.395c0.493-0.311,1.075-0.44,1.517-0.381
	c0.194,0.026,0.36,0.09,0.479,0.191c0.481,0.407,1.338,1.091,2.031,1.567C4.383,2.018,4.806,2.264,5.24,2.448
	c0.261,0.111,0.525,0.199,0.781,0.251C6.674,2.831,7.583,2.938,8.6,3.016c0.082,0.007,0.17,0.003,0.262-0.01L8.844,3.004
	c0.531,0.089,1.448,0.235,2.015,0.201L10.906,3.176z"/>
</svg>
