<?xml version="1.0" encoding="iso-8859-1"?>
<!-- Generator: Adobe Illustrator 16.0.0, SVG Export Plug-In . SVG Version: 6.00 Build 0)  -->
<!DOCTYPE svg PUBLIC "-//W3C//DTD SVG 1.1//EN" "http://www.w3.org/Graphics/SVG/1.1/DTD/svg11.dtd">
<svg version="1.1" id="Layer_1" xmlns="http://www.w3.org/2000/svg" xmlns:xlink="http://www.w3.org/1999/xlink" x="0px" y="0px"
	 width="25.256px" height="18.949px" viewBox="0 0 25.256 18.949" style="enable-background:new 0 0 25.256 18.949;"
	 xml:space="preserve">
<path style="fill:#4FBA6F;" d="M0,0c0.415,0.106,0.762,0.245,0.992,0.414C2.097,1.225,2.27,1.187,3.487,2.297
	c1.29,1.176,2.714,2.549,4.688,4.155c1.722,1.401,4.042,3.417,6.417,4.979c3.463,2.277,5.658,3.845,8.064,5.519
	c0.922,0.643,1.801,1.291,2.6,1.903l-0.025-0.001c-1.188,0.344-3.381-0.27-5.66-1.213c-2.416-1-5.523-2.336-9.04-3.904
	c-3.241-1.444-6.83-2.791-9.651-3.946L0.831,9.743c-0.039-0.724-0.077-1.24-0.125-1.562H0.7c3.234,0.75,3.988-0.853,2.184-3.47
	C1.45,2.628,0.804,1.37,0.028,0.009L0,0z"/>
</svg>
