<?xml version="1.0" encoding="utf-8"?>
<!-- Generator: Adobe Illustrator 16.0.0, SVG Export Plug-In . SVG Version: 6.00 Build 0)  -->
<!DOCTYPE svg PUBLIC "-//W3C//DTD SVG 1.1//EN" "http://www.w3.org/Graphics/SVG/1.1/DTD/svg11.dtd">
<svg version="1.1" id="Layer_1" xmlns="http://www.w3.org/2000/svg" xmlns:xlink="http://www.w3.org/1999/xlink" x="0px" y="0px"
	 width="12.778px" height="7.893px" viewBox="0 0 12.778 7.893" enable-background="new 0 0 12.778 7.893" xml:space="preserve">
<path fill="#FECD8A" d="M12.758,5.225C11.834,4.819,10.87,4.394,9.874,3.95c-3.24-1.445-6.829-2.792-9.65-3.946L0.195,0
	c0.036,0.651,0.034,1.228-0.011,1.902C0.138,2.609,0.076,3.281,0,3.919l0.009-0.011c0.106,0.029,0.211,0.057,0.317,0.086
	L0.319,3.983C1.194,2.542,2.19,2.365,3.185,2.63c0.919,0.246,1.739,0.866,1.11,2.481L4.266,5.158c1.09,0.346,2.126,0.69,3.001,1.002
	c1.621,0.575,3.147,1.146,4.664,1.75l0.023-0.018c0.254-0.88,0.528-1.766,0.824-2.67L12.758,5.225z"/>
</svg>
