<?xml version="1.0" encoding="utf-8"?>
<!-- Generator: Adobe Illustrator 16.0.0, SVG Export Plug-In . SVG Version: 6.00 Build 0)  -->
<!DOCTYPE svg PUBLIC "-//W3C//DTD SVG 1.1//EN" "http://www.w3.org/Graphics/SVG/1.1/DTD/svg11.dtd">
<svg version="1.1" id="Layer_1" xmlns="http://www.w3.org/2000/svg" xmlns:xlink="http://www.w3.org/1999/xlink" x="0px" y="0px"
	 width="33.88px" height="29.893px" viewBox="0 0 33.88 29.893" enable-background="new 0 0 33.88 29.893" xml:space="preserve">
<path fill="#FECD8A" d="M28.808,0.005c1.163,1.993,2.62,4.863,3.706,8.534c1.211,4.097,1.496,7.089,1.318,10.189
	c-0.061,1.048-0.166,2.08-0.327,3.086l-0.011-0.002c-4.418,0.143-9.571,1.091-14.074,2.322c-4.526,1.236-9.087,2.799-14.004,5.715
	l-0.047,0.043c-0.284-2.435-0.761-5-1.389-7.184c-0.205-0.712-0.427-1.383-0.663-1.995C2.576,18.789,1.457,17.02,0,15.432
	l0.011,0.016C7.244,9.568,18.244,2.676,28.807,0L28.808,0.005z"/>
</svg>
