<?xml version="1.0" encoding="iso-8859-1"?>
<!-- Generator: Adobe Illustrator 16.0.0, SVG Export Plug-In . SVG Version: 6.00 Build 0)  -->
<!DOCTYPE svg PUBLIC "-//W3C//DTD SVG 1.1//EN" "http://www.w3.org/Graphics/SVG/1.1/DTD/svg11.dtd">
<svg version="1.1" id="Layer_1" xmlns="http://www.w3.org/2000/svg" xmlns:xlink="http://www.w3.org/1999/xlink" x="0px" y="0px"
	 width="126.662px" height="59.633px" viewBox="0 0 126.662 59.633" style="enable-background:new 0 0 126.662 59.633;"
	 xml:space="preserve">
<path style="fill:#4FBA6F;" d="M102.428,6.704c0.41,0.467,1.074,0.75,2.037,0.915c2.916,0.5,5.832,1,8.666,1.167
	s5.584,0.333,7.834,0.75s4.531,0.927,5.697,1.344l-0.16-0.009c-8.111-0.898-13.994-1.165-21.166-1.533
	C100.93,9.11,94.318,9.14,88.385,9.154c-5.271,0.013-10.832,0.447-15.74,1.574c-10.835,2.487-23.752,8.453-31.088,13.789
	C30.592,32.49,20.204,43.748,14.648,54.543c-0.339,0.66-0.662,1.348-0.97,2.057l0.014-0.064c-0.854,0.5-2.52,1.16-3.673,1.633
	c-0.831,0.34-1.812,0.74-2.763,1.139l0.029-0.021c-1.995,0.713-4.49,0.25-5.898-0.678c-0.949-0.625-1.661-2.547-1.287-5.201
	c0.388-2.76,1.513-5.697,2.468-7.695c1.834-3.832,6.563-12.209,11.229-17.043c4.667-4.833,12-11.333,17.834-15
	c5.833-3.667,14.5-8.5,20.833-10.5S68.635,0,75.635,0s13.166,0.5,16.834,1.333c3.666,0.833,7.021,2.845,10.137,5.514"/>
</svg>
