<?xml version="1.0" encoding="iso-8859-1"?>
<!-- Generator: Adobe Illustrator 16.0.0, SVG Export Plug-In . SVG Version: 6.00 Build 0)  -->
<!DOCTYPE svg PUBLIC "-//W3C//DTD SVG 1.1//EN" "http://www.w3.org/Graphics/SVG/1.1/DTD/svg11.dtd">
<svg version="1.1" id="Layer_1" xmlns="http://www.w3.org/2000/svg" xmlns:xlink="http://www.w3.org/1999/xlink" x="0px" y="0px"
	 width="14.665px" height="7.363px" viewBox="0 0 14.665 7.363" style="enable-background:new 0 0 14.665 7.363;"
	 xml:space="preserve">
<path style="fill:#4FBA6F;" d="M3.882,7.328C2.528,6.688,0.985,4.955,0.486,3.815C0.015,2.738-0.114,0.926,0.101,0l0.012,0.013
	c0.425,0.074,0.877,0.15,1.345,0.226l-0.01,0.014c0.106,7.019,8.883,1.846,10.7,1.561l-0.013-0.004
	c1.148,0.157,2.153,0.292,2.529,0.342l-0.001-0.009c-0.395-0.013-1.032-0.011-1.234,0.047c-0.36,0.103-0.659,0.266-1.009,0.434
	c-0.405,0.195-0.805,0.457-1.193,0.732c-0.421,0.299-0.846,0.701-1.262,0.965C9.444,4.649,9.102,4.916,8.665,5.17
	C8.201,5.438,7.76,5.818,7.255,6.041C6.363,6.434,5.211,6.94,3.943,7.363L3.882,7.328z"/>
</svg>
