<?xml version="1.0" encoding="iso-8859-1"?>
<!-- Generator: Adobe Illustrator 16.0.0, SVG Export Plug-In . SVG Version: 6.00 Build 0)  -->
<!DOCTYPE svg PUBLIC "-//W3C//DTD SVG 1.1//EN" "http://www.w3.org/Graphics/SVG/1.1/DTD/svg11.dtd">
<svg version="1.1" id="Layer_1" xmlns="http://www.w3.org/2000/svg" xmlns:xlink="http://www.w3.org/1999/xlink" x="0px" y="0px"
	 width="28.144px" height="20.634px" viewBox="0 0 28.144 20.634" style="enable-background:new 0 0 28.144 20.634;"
	 xml:space="preserve">
<path style="fill:#FFCD8A;" d="M0.017,11.584c-0.03-1.777-0.021-3.539,0.049-5.155C0.154,4.372,0.263,2.259,0.499,0l0.021,0.004
	c6.555,0.713,16.005,5.381,20.083,9.088c3.039,2.763,5.708,6.689,7.541,10.366v0.028c-3.833,0.04-7.518,0.307-10.533,0.863
	c-0.488,0.09-0.98,0.186-1.473,0.284l0.008-0.006c-1.811-2.636-4.478-4.65-6.801-5.978c-2.993-1.711-6.901-3.053-9.324-3.053
	L0.017,11.584z"/>
</svg>
