<?xml version="1.0" encoding="iso-8859-1"?>
<!-- Generator: Adobe Illustrator 16.0.0, SVG Export Plug-In . SVG Version: 6.00 Build 0)  -->
<!DOCTYPE svg PUBLIC "-//W3C//DTD SVG 1.1//EN" "http://www.w3.org/Graphics/SVG/1.1/DTD/svg11.dtd">
<svg version="1.1" id="Layer_1" xmlns="http://www.w3.org/2000/svg" xmlns:xlink="http://www.w3.org/1999/xlink" x="0px" y="0px"
	 width="15.789px" height="18.931px" viewBox="0 0 15.789 18.931" style="enable-background:new 0 0 15.789 18.931;"
	 xml:space="preserve">
<path style="fill:#4FBA6F;" d="M4.196,18.921C4.053,14.36,2.898,7.447,1.33,3.6c-0.351-0.86-0.801-1.671-1.322-2.43L0,1.176
	c0.493-0.099,0.984-0.194,1.473-0.284c3.016-0.557,6.701-0.824,10.533-0.863V0c0.979,1.959,1.719,3.848,2.15,5.452
	c0.885,3.287,1.488,9.955,1.633,12.719l-0.031,0.008c-3.059,0.029-6.111,0.162-8.379,0.363c-1.046,0.092-2.12,0.219-3.203,0.389
	L4.196,18.921z"/>
</svg>
