<?xml version="1.0" encoding="iso-8859-1"?>
<!-- Generator: Adobe Illustrator 16.0.0, SVG Export Plug-In . SVG Version: 6.00 Build 0)  -->
<!DOCTYPE svg PUBLIC "-//W3C//DTD SVG 1.1//EN" "http://www.w3.org/Graphics/SVG/1.1/DTD/svg11.dtd">
<svg version="1.1" id="Layer_1" xmlns="http://www.w3.org/2000/svg" xmlns:xlink="http://www.w3.org/1999/xlink" x="0px" y="0px"
	 width="24.054px" height="11.279px" viewBox="0 0 24.054 11.279" style="enable-background:new 0 0 24.054 11.279;"
	 xml:space="preserve">
<path style="fill:#FFCD8A;" d="M0.006,9.197V0l0.026,0.031c0,2.066,0.363,4.277,0.953,5.458C1.37,6.258,2.461,6.891,4.379,7.26
	c1.848,0.354,4.501,0.59,7.083,0.442c2.038-0.116,3.76-0.269,5.977-0.369c1.623-0.073,2.803-0.151,4.058-0.222
	c1.328-0.073,2.552,0.738,2.552,1.623l0.005,0.016l0.001,1.204L24.048,10c0,0-2.434,0.184-5.135,0.408
	c-1.738,0.145-4.473,0.438-8.662,0.871L10.23,11.25c-0.917-1.166-4.416-2.417-6.833-2.334C3.12,8.939,2.792,8.967,2.423,8.996
	C1.732,9.053,0.899,9.121,0,9.197H0.006z"/>
</svg>
