<?xml version="1.0" encoding="iso-8859-1"?>
<!-- Generator: Adobe Illustrator 16.0.0, SVG Export Plug-In . SVG Version: 6.00 Build 0)  -->
<!DOCTYPE svg PUBLIC "-//W3C//DTD SVG 1.1//EN" "http://www.w3.org/Graphics/SVG/1.1/DTD/svg11.dtd">
<svg version="1.1" id="Layer_1" xmlns="http://www.w3.org/2000/svg" xmlns:xlink="http://www.w3.org/1999/xlink" x="0px" y="0px"
	 width="68.682px" height="89.135px" viewBox="0 0 68.682 89.135" style="enable-background:new 0 0 68.682 89.135;"
	 xml:space="preserve">
<path style="fill:#FFCD8A;" d="M9.129,89.135L9.129,89.135L9.129,89.135c3.468-0.445,6.549-0.875,8.723-1.332
	c10.836-2.276,20.267-6.881,29.881-12.578c6.476-3.838,11.206-9.045,15.047-15.639c7.989-13.721,8.117-29.802-1.155-42.728
	C52.854,4.63,39.218,0.705,25.469,0.256C14.27-0.107,5.757-0.016,0,0.121l0.027-0.001C4.27,0.425,8.492,0.823,14.515,1.514
	c20.208,2.317,29.523,3.423,40.211,13.399c10.688,9.976,10.688,21.375,9.975,28.786c-0.713,7.411-4.702,14.536-9.263,19.808
	c-4.56,5.273-13.538,11.4-19.665,14.535c-6.128,3.136-11.934,5.974-17.539,8.159c-4.833,1.885-7.396,2.642-9.035,2.927L9.129,89.135
	z"/>
</svg>
