<?xml version="1.0" encoding="utf-8"?>
<!-- Generator: Adobe Illustrator 16.0.0, SVG Export Plug-In . SVG Version: 6.00 Build 0)  -->
<!DOCTYPE svg PUBLIC "-//W3C//DTD SVG 1.1//EN" "http://www.w3.org/Graphics/SVG/1.1/DTD/svg11.dtd">
<svg version="1.1" id="Layer_1" xmlns="http://www.w3.org/2000/svg" xmlns:xlink="http://www.w3.org/1999/xlink" x="0px" y="0px"
	 width="8.74px" height="8.804px" viewBox="0 0 8.74 8.804" enable-background="new 0 0 8.74 8.804" xml:space="preserve">
<path fill="#FFCD8A" d="M0,3.734C1.125,4.047,2.266,4.312,3.266,4.5s2.312,1.125,2.812,1.688s0.969,1.672,1.281,2.609l0.004,0.007
	C7.837,8.78,8.256,8.731,8.537,8.65C8.613,8.628,8.68,8.584,8.74,8.521L8.734,8.5c-0.125-1-0.719-3.312-1.281-4.312
	s-1.188-2.062-2-2.688S2.109,0.062,1.047,0L1.033,0.016C1.182,0.94,1.098,1.948,1.051,2.228C0.957,2.79,0.54,3.3,0.027,3.729
	L0,3.734z"/>
</svg>
