<?xml version="1.0" encoding="iso-8859-1"?>
<!-- Generator: Adobe Illustrator 16.0.0, SVG Export Plug-In . SVG Version: 6.00 Build 0)  -->
<!DOCTYPE svg PUBLIC "-//W3C//DTD SVG 1.1//EN" "http://www.w3.org/Graphics/SVG/1.1/DTD/svg11.dtd">
<svg version="1.1" id="Layer_1" xmlns="http://www.w3.org/2000/svg" xmlns:xlink="http://www.w3.org/1999/xlink" x="0px" y="0px"
	 width="52.29px" height="16.832px" viewBox="0 0 52.29 16.832" style="enable-background:new 0 0 52.29 16.832;"
	 xml:space="preserve">
<path style="fill:#4FBA6F;" d="M52.097,13.514c0.535-3.136-0.025-5.915-1.852-8.302c-1.727-2.256-5.701-4.274-10.26-4.844
	c-4.393-0.55-12.825-0.429-17.671,0c-4.845,0.427-10.31,1.596-14.393,4.417c-3.456,2.387-4.943,5.077-5.665,6.591
	c-0.651,1.366-1.46,3.455-1.46,3.455C0.553,15.5,0.259,16.284,0,16.832l0.028-0.09c0.605-0.819,1.883-2.067,3.451-3.364
	c1.071-0.887,2.485-1.782,4.023-2.64c4.805-2.679,12.683-3.42,17.528-3.99c4.846-0.57,11.4-0.285,17.243,0.143
	c5.843,0.427,8.629,3.477,9.796,6.602L52.097,13.514z"/>
</svg>
