<?xml version="1.0" encoding="iso-8859-1"?>
<!-- Generator: Adobe Illustrator 16.0.0, SVG Export Plug-In . SVG Version: 6.00 Build 0)  -->
<!DOCTYPE svg PUBLIC "-//W3C//DTD SVG 1.1//EN" "http://www.w3.org/Graphics/SVG/1.1/DTD/svg11.dtd">
<svg version="1.1" id="Layer_1" xmlns="http://www.w3.org/2000/svg" xmlns:xlink="http://www.w3.org/1999/xlink" x="0px" y="0px"
	 width="123.552px" height="5.078px" viewBox="0 0 123.552 5.078" style="enable-background:new 0 0 123.552 5.078;"
	 xml:space="preserve">
<path style="fill:#FFCD8A;" d="M123.552,4.017c0-1.148-1.377-1.427-10.831-1.709C96.05,1.809,81.233,1.784,67.404,1.594
	C57.002,1.452,45.451,1.483,30.496,0.739C22.073,0.32,9.405,0.027,5.843,0.027C2.562,0.027,0-0.258,0,1.024
	c0,1.425,2.209,1.871,5.771,2.013s12.825,0.143,24.796,0.57c11.97,0.428,24.508,0.569,36.908,0.712
	c12.398,0.143,25.508,0.143,35.341,0.428S123.552,5.585,123.552,4.017z"/>
</svg>
