<?xml version="1.0" encoding="iso-8859-1"?>
<!-- Generator: Adobe Illustrator 16.0.0, SVG Export Plug-In . SVG Version: 6.00 Build 0)  -->
<!DOCTYPE svg PUBLIC "-//W3C//DTD SVG 1.1//EN" "http://www.w3.org/Graphics/SVG/1.1/DTD/svg11.dtd">
<svg version="1.1" id="Layer_1" xmlns="http://www.w3.org/2000/svg" xmlns:xlink="http://www.w3.org/1999/xlink" x="0px" y="0px"
	 width="78.028px" height="48.239px" viewBox="0 0 78.028 48.239" style="enable-background:new 0 0 78.028 48.239;"
	 xml:space="preserve">
<path style="fill:#FFCD8A;" d="M77.611,19.297c0.197-1.568,0.445-3.89,0.414-6.452V12.78c-0.025-0.707-0.086-1.612-0.117-2.226
	C77.709,6.776,76.947,3.017,75.631,0l0.023,0.061c0.4,1.104,0.309,2.47,0.043,3.454l-0.004,0.018
	c-0.998,4.56-3.371,11.394-5.484,15.336c-2.137,3.99-6.156,8.349-12.967,11.97c-6.697,3.562-19.238,7.695-31.494,10.688
	c-11.753,2.871-22.16,5.277-25.723,5.848l-0.008,0.016C0.049,47.605,0.041,47.807,0,47.994L0.042,48
	c3.578,0.562,10.986,0.102,16.401-1.037c6.532-1.375,15.444-3.537,24.938-5.648c7.588-1.688,14.213-2.748,18.258-3.936
	c4.078-1.197,7.961-2.793,10.207-4.258c2.082-1.355,4.32-4.09,5.879-7.463c0.877-1.903,1.596-3.935,1.879-6.346"/>
</svg>
