<?xml version="1.0" encoding="iso-8859-1"?>
<!-- Generator: Adobe Illustrator 16.0.0, SVG Export Plug-In . SVG Version: 6.00 Build 0)  -->
<!DOCTYPE svg PUBLIC "-//W3C//DTD SVG 1.1//EN" "http://www.w3.org/Graphics/SVG/1.1/DTD/svg11.dtd">
<svg version="1.1" id="Layer_1" xmlns="http://www.w3.org/2000/svg" xmlns:xlink="http://www.w3.org/1999/xlink" x="0px" y="0px"
	 width="11.076px" height="10.069px" viewBox="0 0 11.076 10.069" style="enable-background:new 0 0 11.076 10.069;"
	 xml:space="preserve">
<path style="fill:#FFCD8A;" d="M5.529,2.71c0.154-0.855,0.282-1.756,0.408-2.688L5.935,0C6.283,0.065,6.626,0.129,6.96,0.188
	c0.094,0.017,0.189,0.034,0.286,0.05L7.234,0.226C7.02,1.152,7.148,2.964,7.619,4.041c0.499,1.14,2.042,2.873,3.396,3.513
	l0.061,0.035C10.89,7.65,10.701,7.71,10.511,7.767c-0.296,0.09-0.596,0.182-0.899,0.271C8.564,8.351,7.48,8.651,6.408,8.832
	c-1.665,0.28-3.935,0.767-6.392,1.228L0,10.069C3.714,9.19,4.869,6.366,5.529,2.71"/>
</svg>
