<?xml version="1.0" encoding="utf-8"?>
<!-- Generator: Adobe Illustrator 16.0.0, SVG Export Plug-In . SVG Version: 6.00 Build 0)  -->
<!DOCTYPE svg PUBLIC "-//W3C//DTD SVG 1.1//EN" "http://www.w3.org/Graphics/SVG/1.1/DTD/svg11.dtd">
<svg version="1.1" id="Layer_1" xmlns="http://www.w3.org/2000/svg" xmlns:xlink="http://www.w3.org/1999/xlink" x="0px" y="0px"
	 width="15.183px" height="49.044px" viewBox="0 0 15.183 49.044" enable-background="new 0 0 15.183 49.044" xml:space="preserve">
<path fill="#FFCD8A" d="M2.406,20.452c0.146-2.426,0.185-5.05-0.013-7.607l0.001-0.065c-0.027-0.707-0.086-1.612-0.119-2.226
	C2.078,6.776,1.315,3.017,0,0c4.813,4.399,9.435,10.664,11.482,15.32c1.463,3.325,2.563,8.216,2.851,12.541
	c0.228,3.431,0.263,6.883,0.104,9.533c-0.094,1.559-0.533,4.918-0.416,7.684c0.076,1.781,0.384,3.316,1.163,3.967h-0.017
	c-0.763-0.703-1.558-1.372-2.3-1.936c-1.345-1.02-4.109-3.146-6.173-4.797c-1.686-1.349-4.52-3.949-5.037-5.707
	c-0.581-1.975-0.263-6.718,0.111-9.621C1.999,25.199,2.257,22.928,2.406,20.452"/>
</svg>
