<?xml version="1.0" encoding="iso-8859-1"?>
<!-- Generator: Adobe Illustrator 16.0.0, SVG Export Plug-In . SVG Version: 6.00 Build 0)  -->
<!DOCTYPE svg PUBLIC "-//W3C//DTD SVG 1.1//EN" "http://www.w3.org/Graphics/SVG/1.1/DTD/svg11.dtd">
<svg version="1.1" id="Layer_1" xmlns="http://www.w3.org/2000/svg" xmlns:xlink="http://www.w3.org/1999/xlink" x="0px" y="0px"
	 width="25.113px" height="51.641px" viewBox="0 0 25.113 51.641" style="enable-background:new 0 0 25.113 51.641;"
	 xml:space="preserve">
<path style="fill:#FFCD8A;" d="M23.207,51.641c0.18-1.238,0.426-2.498,0.623-3.818c0.283-1.91,0.5-3.402,0.691-5.213
	c0.168-1.568,0.328-3.527,0.428-4.912c0.158-2.201,0.252-5.137,0.043-7.553c-0.426-4.921-1.818-11.645-4.674-16.25
	c-2.137-3.444-4.852-6.037-7.965-8.161C8.782,3.299,4.62,1.614,0,0c4.813,4.399,9.435,10.664,11.482,15.32
	c1.462,3.325,2.562,8.216,2.85,12.541c0.229,3.43,0.264,6.883,0.104,9.533c-0.094,1.559-0.533,4.918-0.416,7.684l0.016-0.047
	c2.139,2.715,5.447,5.336,9.121,6.578L23.207,51.641z"/>
</svg>
