<?xml version="1.0" encoding="iso-8859-1"?>
<!-- Generator: Adobe Illustrator 16.0.0, SVG Export Plug-In . SVG Version: 6.00 Build 0)  -->
<!DOCTYPE svg PUBLIC "-//W3C//DTD SVG 1.1//EN" "http://www.w3.org/Graphics/SVG/1.1/DTD/svg11.dtd">
<svg version="1.1" id="Layer_1" xmlns="http://www.w3.org/2000/svg" xmlns:xlink="http://www.w3.org/1999/xlink" x="0px" y="0px"
	 width="165.626px" height="123.623px" viewBox="0 0 165.626 123.623" style="enable-background:new 0 0 165.626 123.623;"
	 xml:space="preserve">
<path style="fill:#4FBA6F;" d="M90.585,41.389c-14.688,7.016-28.072,17.333-37.642,28.639
	c-9.404,11.111-14.585,21.926-18.621,32.871c-1.341,3.639-6.816,6.429-12.186,6.91c-2.389,0.213-5.17,0.287-7.959,0.457
	c-2.782,0.168-5.556,0.68-8.095,1.336c-4.763,1.23-6.36,2.703-6.045,5.975c0.227,2.353,0.297,3.688,2.625,6.047l-0.016-0.016
	c-1.172-1.391-1.444-2.223-1.658-3.148c-0.214-0.927-0.499-2.565-0.356-3.92c0.142-1.354,1.354-2.778,2.637-3.42
	c1.282-0.641,3.847-1.318,6.484-1.746c3.817-0.619,7.253-0.839,10.581-0.891c3.065-0.047,6.385-0.81,8.836-1.888
	c3.562-1.567,5.171-2.976,7.089-8.302c1.099-3.053,3.226-7.905,6.057-13.324c2.493-4.773,5.985-9.976,11.757-16.816
	c5.707-6.764,12.469-12.229,17.101-15.889c4.418-3.491,10.44-7.073,17.172-10.617c6.77-3.563,11.9-5.629,18.527-7.696
	c4.999-1.559,13.676-3.473,20.021-4.917c7.146-1.625,13.471-3.006,17.885-4.204c1.104-0.299,2.032-0.566,2.899-0.741l-0.017-0.028
	c3.844-1.031,7.748-2.562,9.9-3.879c2.476-1.514,3.656-3.14,4.633-4.71c1.372-2.208,1.838-3.513,2.275-4.825
	s0.822-3.176,1.035-5.039l-0.004,0c0.146-2.426,0.186-5.05-0.013-7.607c0.032,2.562-0.216,4.883-0.413,6.452
	c-0.012,0.084-0.021,0.166-0.031,0.246c-0.232,1.814-0.667,3.733-1.201,5.305c-0.626,1.837-1.432,3.365-2.215,4.66
	c-0.682,1.127-1.695,2.366-2.82,3.312c-0.926,0.778-2.125,1.611-3.33,2.18c-0.9,0.425-2.66,1.164-4.523,1.835
	c-1.711,0.617-3.984,1.317-6.473,2.018c-2.398,0.675-6,1.433-10.004,2.337l0.043-0.017c-1.256,0.284-2.589,0.671-3.898,0.965
	c-6.043,1.356-13.306,3.13-20.036,4.771c-5.712,1.394-12.246,3.749-19.993,7.316"/>
</svg>
