<?xml version="1.0" encoding="utf-8"?>
<!-- Generator: Adobe Illustrator 16.0.0, SVG Export Plug-In . SVG Version: 6.00 Build 0)  -->
<!DOCTYPE svg PUBLIC "-//W3C//DTD SVG 1.1//EN" "http://www.w3.org/Graphics/SVG/1.1/DTD/svg11.dtd">
<svg version="1.1" id="Layer_1" xmlns="http://www.w3.org/2000/svg" xmlns:xlink="http://www.w3.org/1999/xlink" x="0px" y="0px"
	 width="112.475px" height="71.993px" viewBox="0 0 112.475 71.993" enable-background="new 0 0 112.475 71.993"
	 xml:space="preserve">
<path fill="#FFCD8A" d="M112.475,8.336c-3.114-2.669-6.471-4.68-10.137-5.514c-3.668-0.833-9.834-1.333-16.834-1.333
	S68.67,2.656,62.336,4.656c-6.333,2-15,6.833-20.833,10.5c-5.833,3.667-13.167,10.167-17.834,15
	c-4.667,4.833-9.396,13.211-11.229,17.044c-0.956,1.998-2.08,4.936-2.468,7.694c-0.374,2.655,0.337,4.576,1.287,5.201
	c1.408,0.928,3.904,1.422,5.898,0.709l-0.044-0.006c-0.511,0.213-1.013,0.426-1.477,0.627c-1.336,0.576-3.167,1.263-4.645,1.875
	c-1.153,0.477-3.091,1.523-4.211,2.37C4.312,67.537,1.14,69.677,0,71.993v-0.031c1.5-3.167,3.502-7.471,5.002-11.305
	c1.5-3.833,4.104-9.956,5.938-13.956c1.527-3.331,4.039-7.946,7.148-12.373c3.229-4.596,9.73-11.395,15.11-15.799
	C39.877,13.062,48.031,8.401,57.33,4.588c8.03-3.293,17.08-4.731,26.699-4.577c6.231,0.1,11.357,0.403,15.006,0.93
	c3.795,0.548,7.661,1.371,9.599,1.662c1.087,0.163,2.216,0.4,3.679,0.702L112.3,3.303c-0.663,2.539-0.762,4.028-0.003,4.89
	L112.475,8.336z"/>
</svg>
