<?xml version="1.0" encoding="utf-8"?>
<!-- Generator: Adobe Illustrator 16.0.0, SVG Export Plug-In . SVG Version: 6.00 Build 0)  -->
<!DOCTYPE svg PUBLIC "-//W3C//DTD SVG 1.1//EN" "http://www.w3.org/Graphics/SVG/1.1/DTD/svg11.dtd">
<svg version="1.1" id="Layer_1" xmlns="http://www.w3.org/2000/svg" xmlns:xlink="http://www.w3.org/1999/xlink" x="0px" y="0px"
	 width="12.21px" height="7.791px" viewBox="0 0 12.21 7.791" enable-background="new 0 0 12.21 7.791" xml:space="preserve">
<path fill="#FFCD8A" d="M0.007,3.926c2.17-0.911,4.67-2.465,5.805-3.908L5.832,0C5.926,0.028,6.02,0.052,6.11,0.07
	c0.976,0.192,2.558,0.524,4.148,0.858c0.739,0.155,1.385,0.655,1.84,1.224l0.006-0.008c0.167,0.417,0.125,1-0.041,1.583
	c-0.074,0.258-0.147,0.581-0.268,0.948h0.002c-1.016,1.406-2.223,2.202-2.979,2.555C7.75,7.728,6.184,8.007,4.828,7.585
	C3.386,7.138,1.14,5.208,0,3.925L0.007,3.926z"/>
</svg>
