<?xml version="1.0" encoding="utf-8"?>
<!-- Generator: Adobe Illustrator 16.0.0, SVG Export Plug-In . SVG Version: 6.00 Build 0)  -->
<!DOCTYPE svg PUBLIC "-//W3C//DTD SVG 1.1//EN" "http://www.w3.org/Graphics/SVG/1.1/DTD/svg11.dtd">
<svg version="1.1" id="Layer_1" xmlns="http://www.w3.org/2000/svg" xmlns:xlink="http://www.w3.org/1999/xlink" x="0px" y="0px"
	 width="81.327px" height="47.455px" viewBox="0 0 81.327 47.455" enable-background="new 0 0 81.327 47.455" xml:space="preserve">
<path fill="#23AA4A" d="M81.327,0.001c-2.204-0.004-4.457,0.003-6.621,0.008c-5.271,0.013-10.832,0.447-15.739,1.574
	C48.13,4.071,35.213,10.037,27.878,15.372C16.914,23.345,6.525,34.603,0.97,45.398C0.63,46.058,0.308,46.746,0,47.455l0.045-0.08
	c8-4.756,14.905-9.418,22.752-14.722c7.873-5.321,17.235-13.373,26.486-18.617C57.89,9.157,67.985,5.555,75.476,3.193
	c2.447-0.772,4.315-1.744,5.835-3.178L81.327,0.001z"/>
</svg>
