<?xml version="1.0" encoding="iso-8859-1"?>
<!-- Generator: Adobe Illustrator 16.0.0, SVG Export Plug-In . SVG Version: 6.00 Build 0)  -->
<!DOCTYPE svg PUBLIC "-//W3C//DTD SVG 1.1//EN" "http://www.w3.org/Graphics/SVG/1.1/DTD/svg11.dtd">
<svg version="1.1" id="Layer_1" xmlns="http://www.w3.org/2000/svg" xmlns:xlink="http://www.w3.org/1999/xlink" x="0px" y="0px"
	 width="40.861px" height="16.038px" viewBox="0 0 40.861 16.038" style="enable-background:new 0 0 40.861 16.038;"
	 xml:space="preserve">
<path style="fill:#FFCD8A;" d="M0.016,11.833c3.897-0.064,7.455-0.129,10.18-0.186c4.959-0.105,12.781,0.048,16.672,0.57
	c3.602,0.482,8.229,1.071,10.546,2.137c1.821,0.838,2.446,1.15,3.009,1.666l0.018,0.018c0.244-5.207,0.373-9.643,0.422-13.628
	l-0.035,0.021c-1.932-0.126-3.823-0.309-5.551-0.474C28.412,1.299,18.623,0.379,9.34,0.104C6.898,0.032,3.526-0.016,0,0.005l0.013,0
	v11.843L0.016,11.833z"/>
</svg>
