<?xml version="1.0" encoding="iso-8859-1"?>
<!-- Generator: Adobe Illustrator 16.0.0, SVG Export Plug-In . SVG Version: 6.00 Build 0)  -->
<!DOCTYPE svg PUBLIC "-//W3C//DTD SVG 1.1//EN" "http://www.w3.org/Graphics/SVG/1.1/DTD/svg11.dtd">
<svg version="1.1" id="Layer_1" xmlns="http://www.w3.org/2000/svg" xmlns:xlink="http://www.w3.org/1999/xlink" x="0px" y="0px"
	 width="52.908px" height="55.33px" viewBox="0 0 52.908 55.33" style="enable-background:new 0 0 52.908 55.33;"
	 xml:space="preserve">
<path style="fill:#4FBA6F;" d="M52.906,0.049c-2.219-0.375-4.092,1.476-6.258,3.476c-2.167,2-6.834,6.833-8.667,9
	c-1.833,2.167-4.5,5.333-6,7.833s-4.335,4.347-5.669,3.847l0.001-0.045c-2.066,3.687-4.083,7.701-5.818,11.537
	c-1.736,3.836-2.615,6.174-4.132,9.616c-1.23,2.792-2.507,5.052-5.043,6.248C7.556,53.336,2.338,54.707,0,55.33h0.062
	c3.511-0.659,7.527-1.554,10.472-2.053c4.428-0.749,8.258-3.27,10.26-7.885c2.952-6.805,6.983-15.534,11.25-22.4
	c4.371-7.03,12.203-15.862,19.754-22.02c0.368-0.301,0.738-0.599,1.109-0.895L52.906,0.049z"/>
</svg>
