<?xml version="1.0" encoding="iso-8859-1"?>
<!-- Generator: Adobe Illustrator 16.0.0, SVG Export Plug-In . SVG Version: 6.00 Build 0)  -->
<!DOCTYPE svg PUBLIC "-//W3C//DTD SVG 1.1//EN" "http://www.w3.org/Graphics/SVG/1.1/DTD/svg11.dtd">
<svg version="1.1" id="Layer_1" xmlns="http://www.w3.org/2000/svg" xmlns:xlink="http://www.w3.org/1999/xlink" x="0px" y="0px"
	 width="17.222px" height="19.77px" viewBox="0 0 17.222 19.77" style="enable-background:new 0 0 17.222 19.77;"
	 xml:space="preserve">
<path style="fill:#FFCD8A;" d="M17.221,18.412c-0.013-0.168-0.135-0.338-0.318-0.5c-0.142-0.127-0.936-0.68-1.807-1.05
	c-1.02-0.433-2.371-1.154-2.857-1.77c-1.068-1.354-2.351-4.275-2.636-5.914c-0.37-2.125-0.499-4.417-0.285-5.985
	c0.111-0.815-0.045-1.549-0.378-2.106C8.627,0.564,8.159,0.196,7.607,0.058c-1.14-0.285-3.224,0.493-4.56,2.137
	c-1.853,2.28-3.862,6.262-2.708,9.263c0.712,1.853,2.32,3.191,4.56,4.275c2.208,1.068,4.489,2.137,5.557,2.636
	c1.13,0.527,2.207,1.007,2.922,1.212c0.498,0.143,1.616,0.282,2.316,0.106c0.607-0.153,1.283-0.547,1.416-0.901
	C17.157,18.665,17.229,18.539,17.221,18.412z"/>
</svg>
