<?xml version="1.0" encoding="iso-8859-1"?>
<!-- Generator: Adobe Illustrator 16.0.0, SVG Export Plug-In . SVG Version: 6.00 Build 0)  -->
<!DOCTYPE svg PUBLIC "-//W3C//DTD SVG 1.1//EN" "http://www.w3.org/Graphics/SVG/1.1/DTD/svg11.dtd">
<svg version="1.1" id="Layer_1" xmlns="http://www.w3.org/2000/svg" xmlns:xlink="http://www.w3.org/1999/xlink" x="0px" y="0px"
	 width="8.281px" height="26.656px" viewBox="0 0 8.281 26.656" style="enable-background:new 0 0 8.281 26.656;"
	 xml:space="preserve">
<path style="fill:#FFCD8A;" d="M0,9.266C0.57,5.988,2.824,1.995,5.531,0l0.047,0.008c0.049,0.067,0.098,0.136,0.145,0.206
	c0.568,0.854,0.748,2.101,0.605,3.633S5.863,7.23,5.615,8.584c-0.25,1.353-0.393,2.707-0.357,3.882
	c0.037,1.175,0.25,2.102,0.748,2.885c0.5,0.783,1.176,1.318,1.639,1.39C7.9,16.78,8.121,16.733,8.27,16.684L8.266,16.75l0.014,9.892
	l0.002,0.015c-0.012-0.168-0.135-0.338-0.318-0.5c-0.141-0.127-0.936-0.68-1.807-1.05c-1.02-0.433-2.371-1.154-2.856-1.77
	c-1.069-1.354-2.351-4.275-2.636-5.914c-0.37-2.124-0.499-4.417-0.285-5.985C0.49,10.622,0.333,9.889,0,9.331L0,9.266z"/>
</svg>
