<?xml version="1.0" encoding="iso-8859-1"?>
<!-- Generator: Adobe Illustrator 16.0.0, SVG Export Plug-In . SVG Version: 6.00 Build 0)  -->
<!DOCTYPE svg PUBLIC "-//W3C//DTD SVG 1.1//EN" "http://www.w3.org/Graphics/SVG/1.1/DTD/svg11.dtd">
<svg version="1.1" id="Layer_1" xmlns="http://www.w3.org/2000/svg" xmlns:xlink="http://www.w3.org/1999/xlink" x="0px" y="0px"
	 width="24.066px" height="32.253px" viewBox="0 0 24.066 32.253" style="enable-background:new 0 0 24.066 32.253;"
	 xml:space="preserve">
<path style="fill:#FFCD8A;" d="M21.359,1.729c-0.555-0.752-1.301-1.313-2.707-1.575c-1.531-0.285-3.027-0.213-4.451,0.534
	c-1.425,0.748-2.174,1.247-4.168,3.063s-4.061,3.74-5.557,4.702C2.98,9.416,2.019,9.736,1.271,9.878C0.812,9.966,0.38,9.893,0,9.675
	l0.02,0.011v6.942v6.875l0.026,0.031c0,2.066,0.363,4.277,0.953,5.457c0.385,0.77,1.476,1.402,3.394,1.771
	c1.848,0.354,4.501,0.59,7.083,0.442c2.038-0.116,3.76-0.269,5.977-0.369c1.623-0.073,2.803-0.151,4.057-0.222
	c1.328-0.073,2.553,0.738,2.553,1.623l0.004,0.016l-0.006-3.89l0.002,0.015c0.008,0.127-0.064,0.253-0.109,0.375
	c-0.133,0.354-0.809,0.748-1.416,0.901c-0.701,0.176-1.818,0.036-2.316-0.106c-0.715-0.205-1.793-0.685-2.922-1.212
	c-1.068-0.499-3.35-1.567-5.558-2.636c-2.24-1.084-3.848-2.423-4.56-4.275c-1.154-3.001,0.855-6.983,2.708-9.263
	c1.336-1.644,3.42-2.422,4.561-2.137c0.551,0.138,1.02,0.506,1.332,1.028v-0.065c0.57-3.278,2.824-7.271,5.531-9.266"/>
</svg>
