<?xml version="1.0" encoding="iso-8859-1"?>
<!-- Generator: Adobe Illustrator 16.0.0, SVG Export Plug-In . SVG Version: 6.00 Build 0)  -->
<!DOCTYPE svg PUBLIC "-//W3C//DTD SVG 1.1//EN" "http://www.w3.org/Graphics/SVG/1.1/DTD/svg11.dtd">
<svg version="1.1" id="Layer_1" xmlns="http://www.w3.org/2000/svg" xmlns:xlink="http://www.w3.org/1999/xlink" x="0px" y="0px"
	 width="126.685px" height="154.27px" viewBox="0 0 126.685 154.27" style="enable-background:new 0 0 126.685 154.27;"
	 xml:space="preserve">
<path style="fill:#FFCD8A;" d="M2.83,105.809c1.58-6.754,3.983-12.928,6.164-17.422c2.75-5.666,6.5-11.583,10.083-16.333
	s9.583-11.583,15.417-17.5s11.75-11.75,18.5-17s14.666-10.75,21.166-14.667s21.166-11.5,32.666-15.667
	c6.49-2.351,13.141-4.438,19.77-6.229l0.09-0.023l-0.238-0.91L126.441,0C96.207,8.082,67.74,21.955,43.467,44.384
	C18.091,67.833-2.006,93.18,0.16,126.174c0.848,12.916,5.158,19.109,7.655,21.855c2.16,2.373,6.958,6.008,11.164,6.24h44.993
	l0.031-0.018c0,0-3.297-0.43-5.162-0.604c-1.865-0.176-4.08-0.35-6.761-0.408s-9.675,0.117-9.675,0.117s0,0-7.635-0.059
	s-16.086,0-16.086,0s-0.408-0.059-1.049-0.234c-0.641-0.174-1.516-0.35-3.672-1.514c-2.156-1.166-4.663-3.207-6.295-5.188
	c-1.632-1.982-3.206-5.129-4.371-8.859s-1.982-8.977-2.215-13.756s0.233-8.859,0.641-12.006C2.13,108.594,2.83,105.809,2.83,105.809
	"/>
</svg>
