<?xml version="1.0" encoding="iso-8859-1"?>
<!-- Generator: Adobe Illustrator 16.0.0, SVG Export Plug-In . SVG Version: 6.00 Build 0)  -->
<!DOCTYPE svg PUBLIC "-//W3C//DTD SVG 1.1//EN" "http://www.w3.org/Graphics/SVG/1.1/DTD/svg11.dtd">
<svg version="1.1" id="Layer_1" xmlns="http://www.w3.org/2000/svg" xmlns:xlink="http://www.w3.org/1999/xlink" x="0px" y="0px"
	 width="272.592px" height="20.143px" viewBox="0 0 272.592 20.143" style="enable-background:new 0 0 272.592 20.143;"
	 xml:space="preserve">
<path style="fill:#4FBA6F;" d="M0,15.531C0,7.562,0,0.204,0,0.014L0.013,0c1.453,1.672,3.493,2.38,5.544,2.737
	c4.295,0.747,10.089,1.538,16.887,2.208c5.576,0.55,13.751,1.283,19.879,1.71c6.128,0.428,13.39,0.899,27.788,1.283
	c10.688,0.285,26.075,0.942,36.767,0.998c5.842,0.03,15.105,0.428,20.806,0.428c5.707,0,15.105,0.285,22.801,0.57
	c10.399,0.385,23.086-0.143,36.908,0.57c13.823,0.712,27.361,0.712,37.479,1.425c10.095,0.711,15.898,0.726,21.555,1.354
	c5.621,0.624,10.171,1.001,13.787,1.639c2.055,0.362,8.3,1.44,11.707,2.454l0.008,0.02c0.198,0.692,0.372,1.387,0.523,2.078
	c0.05,0.227,0.097,0.45,0.142,0.67l-0.017-0.002c-4.039-0.089-9.289-0.089-17.372-0.339c-7.815-0.241-22.503-0.458-44.003-0.333
	c-20.949,0.121-65.722-0.464-97.5-0.75c-25.674-0.23-51.299-0.391-86.875-1.5c-5.608-0.175-15.123-1-26.789-1.667L0,15.531z
	 M185.112,12.783c0-1.148-1.377-1.428-10.831-1.709c-16.671-0.499-31.487-0.524-45.316-0.713
	c-10.402-0.142-21.953-0.111-36.908-0.855c-8.423-0.419-21.091-0.712-24.653-0.712c-3.281,0-5.843-0.285-5.843,0.998
	c0,1.425,2.209,1.871,5.771,2.014s12.825,0.143,24.796,0.569c11.97,0.428,24.508,0.569,36.908,0.712
	c12.398,0.143,25.508,0.143,35.341,0.428S185.112,14.352,185.112,12.783z M11.815,11.043c5.93,0.535,10.771,0.611,10.811,0.168
	c0.04-0.444-4.735-1.238-10.665-1.774C6.03,8.9,1.189,8.825,1.149,9.269C1.11,9.712,5.885,10.506,11.815,11.043z M81.439,14.227
	c-12.397-0.285-21.945-0.143-33.916-0.57c-11.97-0.428-26.651-0.428-33.203-0.783c-6.556-0.356-13.039-0.998-13.039-0.428
	s4.488,1.211,13.039,1.567c8.548,0.356,23.37,0.642,33.347,0.927c9.975,0.285,24.51,0.459,33.915,0.57
	c12.113,0.143,23.941,0.427,44.034,0.569c20.094,0.143,57.572,0.428,81.94,0.854c24.368,0.428,36.338,0.428,46.171,1.283
	s17.955,1.816,17.955,1.425c0-0.356-7.125-1.282-17.955-1.995s-16.104-0.855-31.636-1.14c-15.533-0.285-29.642-0.428-47.882-0.713
	c-18.24-0.284-31.778-0.569-48.736-0.712S93.838,14.512,81.439,14.227z M250.308,14.369c-3.701-0.336-9.548-0.713-15.818-0.998
	s-10.83-0.285-10.83,0.428c0,0.855,5.13,0.57,10.83,0.855s13.895,0.57,20.164,1.282c6.271,0.712,14.75,2.423,14.75,1.853
	s-5.13-1.567-8.266-2.137C258.003,15.082,253.866,14.692,250.308,14.369z M176.394,18.453c0.223-0.219,0.256-0.641,0.115-0.962
	c-0.127-0.294-0.422-0.503-0.742-0.506l-10.617-0.1l-4.637,0.598l-80.938-0.765l-4.911-0.687l-12.041-0.114
	c-0.356-0.004-0.806,0.103-0.964,0.384c-0.183,0.318-0.19,0.805,0.095,1.069c0.283,0.263,0.854,0.258,0.854,0.258l113.144,1.066
	C175.751,18.695,176.179,18.664,176.394,18.453z M253.231,19.312c0.146-0.031,0.246-0.121,0.255-0.404
	c0.009-0.285-0.383-0.402-0.559-0.408l-17.808-0.494c-0.214-0.006-0.538-0.051-0.582,0.377c-0.041,0.398,0.162,0.43,0.162,0.43
	c0.318,0.078,0.396,0.049,0.396,0.049l17.808,0.494C252.904,19.355,253.088,19.346,253.231,19.312z"/>
</svg>
