<?xml version="1.0" encoding="iso-8859-1"?>
<!-- Generator: Adobe Illustrator 16.0.0, SVG Export Plug-In . SVG Version: 6.00 Build 0)  -->
<!DOCTYPE svg PUBLIC "-//W3C//DTD SVG 1.1//EN" "http://www.w3.org/Graphics/SVG/1.1/DTD/svg11.dtd">
<svg version="1.1" id="Layer_1" xmlns="http://www.w3.org/2000/svg" xmlns:xlink="http://www.w3.org/1999/xlink" x="0px" y="0px"
	 width="70.375px" height="12.98px" viewBox="0 0 70.375 12.98" style="enable-background:new 0 0 70.375 12.98;"
	 xml:space="preserve">
<path style="fill:#4FBA6F;" d="M70.33,3.375c-0.013-0.008-0.025-0.017-0.039-0.026c-0.914-0.6-2.044-1.262-2.881-1.613
	c-1.129-0.473-2.508-0.849-3.531-1.095c-1.97-0.472-5.195-0.79-9.334-0.57C50.474,0.289,44.377,0.995,40.08,1.568
	c-4.205,0.561-10.004,1.391-14.036,2.137c-3.848,0.712-10.759,2.494-15.889,4.49C7.468,9.24,3.72,10.846,0.028,12.953L0,12.98
	c0.493-0.311,1.075-0.44,1.517-0.381l0.052-0.023c2.33-0.615,5.067-1.428,7.695-2.422c2.871-1.086,6.76-2.327,9.441-3.208
	c2.819-0.924,5.875-1.703,8.317-2.197c2.556-0.517,7.017-1.476,9.353-1.828c2.838-0.428,7.205-1.07,12.185-1.639
	c4.987-0.57,9.228-0.812,12.362-0.642c2.029,0.111,4.933,0.889,6.164,1.354c0.99,0.375,2.671,1.117,3.289,1.407L70.33,3.375z"/>
</svg>
