<?xml version="1.0" encoding="iso-8859-1"?>
<!-- Generator: Adobe Illustrator 16.0.0, SVG Export Plug-In . SVG Version: 6.00 Build 0)  -->
<!DOCTYPE svg PUBLIC "-//W3C//DTD SVG 1.1//EN" "http://www.w3.org/Graphics/SVG/1.1/DTD/svg11.dtd">
<svg version="1.1" id="Layer_1" xmlns="http://www.w3.org/2000/svg" xmlns:xlink="http://www.w3.org/1999/xlink" x="0px" y="0px"
	 width="270.544px" height="7.655px" viewBox="0 0 270.544 7.655" style="enable-background:new 0 0 270.544 7.655;"
	 xml:space="preserve">
<path style="fill:#4FBA6F;stroke:#808080;stroke-width:0.1425;stroke-linecap:round;stroke-linejoin:round;" d="M80.229,2.08
	C67.832,1.794,58.284,1.937,46.313,1.51C34.344,1.082,19.662,1.082,13.11,0.726C6.555,0.37,0.071-0.272,0.071,0.298
	c0,0.57,4.488,1.211,13.039,1.567c8.548,0.356,23.37,0.642,33.347,0.926c9.975,0.285,24.51,0.459,33.915,0.57
	c12.113,0.143,23.941,0.427,44.034,0.57c20.094,0.143,57.572,0.428,81.94,0.855c24.368,0.427,36.338,0.427,46.171,1.282
	s17.955,1.816,17.955,1.425c0-0.356-7.125-1.282-17.955-1.995c-10.83-0.712-16.104-0.854-31.636-1.139
	C205.349,4.075,191.24,3.932,173,3.647c-18.24-0.285-31.778-0.57-48.736-0.712S92.628,2.365,80.229,2.08z"/>
</svg>
