<?xml version="1.0" encoding="iso-8859-1"?>
<!-- Generator: Adobe Illustrator 16.0.0, SVG Export Plug-In . SVG Version: 6.00 Build 0)  -->
<!DOCTYPE svg PUBLIC "-//W3C//DTD SVG 1.1//EN" "http://www.w3.org/Graphics/SVG/1.1/DTD/svg11.dtd">
<svg version="1.1" id="Layer_1" xmlns="http://www.w3.org/2000/svg" xmlns:xlink="http://www.w3.org/1999/xlink" x="0px" y="0px"
	 width="34.287px" height="8.525px" viewBox="0 0 34.287 8.525" style="enable-background:new 0 0 34.287 8.525;"
	 xml:space="preserve">
<path style="fill:#FFCD8A;" d="M0,8.18C1.204,8.24,2.362,8.31,3.468,8.394L3.466,8.382c3.995-0.847,10.647-0.281,14.211-0.026
	c4.478,0.319,8.424,0.135,10.118-0.107c2.842-0.406,5.092-1.322,5.925-2.322c0.209-0.25,0.396-0.495,0.567-0.744l-0.005-0.027
	c-7.375,1-12.375,0.938-16.688,0.375s-6.75-1.734-9.062-3.422L8.471,2.09C7.968,2.027,7.486,1.965,7.032,1.904
	C3.09,1.375,0.698,0.236,0.016,0L0.014,0.029V8.17L0,8.18z"/>
</svg>
