<?xml version="1.0" encoding="iso-8859-1"?>
<!-- Generator: Adobe Illustrator 16.0.0, SVG Export Plug-In . SVG Version: 6.00 Build 0)  -->
<!DOCTYPE svg PUBLIC "-//W3C//DTD SVG 1.1//EN" "http://www.w3.org/Graphics/SVG/1.1/DTD/svg11.dtd">
<svg version="1.1" id="Layer_1" xmlns="http://www.w3.org/2000/svg" xmlns:xlink="http://www.w3.org/1999/xlink" x="0px" y="0px"
	 width="53.211px" height="11.938px" viewBox="0 0 53.211 11.938" style="enable-background:new 0 0 53.211 11.938;"
	 xml:space="preserve">
<path style="fill:#4FBA6F;" d="M53.211,7.063c-1.167-3.125-3.953-6.174-9.796-6.602C37.572,0.034,31.018-0.25,26.172,0.319
	c-4.845,0.57-12.723,1.312-17.528,3.99C7.105,5.167,5.692,6.062,4.621,6.949c-1.568,1.297-2.846,2.545-3.451,3.365l-0.028,0.09
	c-0.045,0.095-0.088,0.183-0.13,0.262c-0.285,0.534-0.427,0.749-0.57,0.891C0.334,11.663,0.105,11.852,0,11.938l0.127-0.082
	c2.458-1.96,6.521-4.269,10.084-5.266s9.975-2.137,15.533-2.422c5.559-0.285,10.545-0.712,15.105-0.57
	c4.561,0.143,7.126,0.57,8.692,1.14c1.568,0.57,3.586,2.285,3.586,2.285L53.211,7.063z"/>
</svg>
