<?xml version="1.0" encoding="iso-8859-1"?>
<!-- Generator: Adobe Illustrator 16.0.0, SVG Export Plug-In . SVG Version: 6.00 Build 0)  -->
<!DOCTYPE svg PUBLIC "-//W3C//DTD SVG 1.1//EN" "http://www.w3.org/Graphics/SVG/1.1/DTD/svg11.dtd">
<svg version="1.1" id="Layer_1" xmlns="http://www.w3.org/2000/svg" xmlns:xlink="http://www.w3.org/1999/xlink" x="0px" y="0px"
	 width="43.589px" height="5.824px" viewBox="0 0 43.589 5.824" style="enable-background:new 0 0 43.589 5.824;"
	 xml:space="preserve">
<path style="fill:#4FBA6F;" d="M10.286,2.041C9.493,2.175,8.74,2.305,8.056,2.424C4.971,2.96,2.736,3.408,0.77,4.078
	C0.502,4.17,0.246,4.26,0,4.352l0.01,0.039c0.179,0.402,0.226,0.67,0.403,0.938c2.324-0.805,6.4-1.128,12.336-1.52
	c4.738-0.313,7.094-0.492,12.559-0.492c4.202,0,8.003-0.03,11.354,0.536c3.441,0.582,6.928,1.967,6.928,1.967v0.004V0.2
	l-0.006-0.032c-3.889,0-8.264-0.068-12.509-0.158c-1.258-0.027-2.422,0.002-3.524,0.061c-2.618,0.14-4.889,0.452-7.248,0.609
	C17.599,0.861,13.59,1.484,10.286,2.041z"/>
</svg>
