<?xml version="1.0" encoding="iso-8859-1"?>
<!-- Generator: Adobe Illustrator 16.0.0, SVG Export Plug-In . SVG Version: 6.00 Build 0)  -->
<!DOCTYPE svg PUBLIC "-//W3C//DTD SVG 1.1//EN" "http://www.w3.org/Graphics/SVG/1.1/DTD/svg11.dtd">
<svg version="1.1" id="Layer_1" xmlns="http://www.w3.org/2000/svg" xmlns:xlink="http://www.w3.org/1999/xlink" x="0px" y="0px"
	 width="20.443px" height="32.438px" viewBox="0 0 20.443 32.438" style="enable-background:new 0 0 20.443 32.438;"
	 xml:space="preserve">
<path style="fill:#FFCD8A;" d="M20.443,32.438c-0.084-0.135-0.169-0.266-0.254-0.393c-1.099-1.633-3.456-3.887-5.435-5.389
	c-1.345-1.02-4.109-3.146-6.173-4.797c-1.686-1.348-4.52-3.949-5.037-5.707c-0.581-1.974-0.263-6.717,0.111-9.621
	C3.887,4.747,4.146,2.476,4.294,0l0.003,0C4.085,1.863,3.7,3.727,3.262,5.04S2.359,7.657,0.987,9.865
	C0.704,10.32,0.403,10.78,0.06,11.241l-0.012,0.025c-0.144,2.873,0.045,4.742,0.432,6.023C1,19.018,2.587,20.83,3.987,22.115
	c1.729,1.586,3.457,2.938,5.441,4.229c1.171,0.764,3.339,1.971,5.559,3.002c1.488,0.691,3.607,1.766,5.357,2.982L20.443,32.438z"/>
</svg>
