<?xml version="1.0" encoding="iso-8859-1"?>
<!-- Generator: Adobe Illustrator 16.0.0, SVG Export Plug-In . SVG Version: 6.00 Build 0)  -->
<!DOCTYPE svg PUBLIC "-//W3C//DTD SVG 1.1//EN" "http://www.w3.org/Graphics/SVG/1.1/DTD/svg11.dtd">
<svg version="1.1" id="Layer_1" xmlns="http://www.w3.org/2000/svg" xmlns:xlink="http://www.w3.org/1999/xlink" x="0px" y="0px"
	 width="25.093px" height="8.127px" viewBox="0 0 25.093 8.127" style="enable-background:new 0 0 25.093 8.127;"
	 xml:space="preserve">
<path style="fill:#FFCD8A;" d="M3.991,0.519C3.042,0.72,2.281,0.992,1.733,1.358C0.382,2.264-0.429,4.503,0.237,6.132
	C0.532,6.853,0.967,7.469,1.48,8.127L1.475,8.091c3.113-0.347,7.034-0.577,10.078-0.406l0.02-0.019
	c-0.057-0.017-0.113-0.036-0.17-0.056c-1.166-0.428-2.285-1.626,0.698-3.117c1.629-0.814,4.895-1.178,5.874-1.328
	c1.598-0.245,4.171-0.591,5.599-0.774c0.254-0.033,0.488-0.08,0.693-0.149c0.464-0.156,0.775-0.426,0.826-0.898l-0.023-0.018
	c-3.848-0.712-10.938-1.393-14.928-1.321C7.653,0.049,5.563,0.186,3.991,0.519"/>
</svg>
