<?xml version="1.0" encoding="iso-8859-1"?>
<!-- Generator: Adobe Illustrator 16.0.0, SVG Export Plug-In . SVG Version: 6.00 Build 0)  -->
<!DOCTYPE svg PUBLIC "-//W3C//DTD SVG 1.1//EN" "http://www.w3.org/Graphics/SVG/1.1/DTD/svg11.dtd">
<svg version="1.1" id="Layer_1" xmlns="http://www.w3.org/2000/svg" xmlns:xlink="http://www.w3.org/1999/xlink" x="0px" y="0px"
	 width="11.515px" height="4.578px" viewBox="0 0 11.515 4.578" style="enable-background:new 0 0 11.515 4.578;"
	 xml:space="preserve">
<path style="fill:#FFCD8A;" d="M11.488,3.57c-0.682,0.744-1.963,1.022-3.09,1.007C7.359,4.562,5.587,4.242,4.625,4.1L4.602,4.118
	C3.011,3.784,1.429,3.452,0.454,3.26C0.31,3.232,0.157,3.189,0.005,3.135L0,3.115c0.222-0.839,0.78-1.427,1.701-1.851
	C2.576,0.861,3.636,0.391,4.753,0l0.012,0.017c1.71,0.356,3.17,0.891,4.489,1.354c1.318,0.463,2.465,1.307,2.23,2.197L11.488,3.57z"
	/>
</svg>
