<?xml version="1.0" encoding="iso-8859-1"?>
<!-- Generator: Adobe Illustrator 16.0.0, SVG Export Plug-In . SVG Version: 6.00 Build 0)  -->
<!DOCTYPE svg PUBLIC "-//W3C//DTD SVG 1.1//EN" "http://www.w3.org/Graphics/SVG/1.1/DTD/svg11.dtd">
<svg version="1.1" id="Layer_1" xmlns="http://www.w3.org/2000/svg" xmlns:xlink="http://www.w3.org/1999/xlink" x="0px" y="0px"
	 width="72.432px" height="15.21px" viewBox="0 0 72.432 15.21" style="enable-background:new 0 0 72.432 15.21;"
	 xml:space="preserve">
<path style="fill:#4FBA6F;" d="M1.071,15.177C0.69,14.643,0.329,14.17,0,13.748l0.021-0.01C2.8,12.171,8.339,9.405,12.187,7.98
	S20.666,5.344,24.3,4.489c3.634-0.855,9.69-1.568,14.535-2.209s10.831-1.354,14.464-1.71C56.934,0.214,62.49,0,64.486,0
	c1.994,0,3.99,0.642,4.987,1.283s2.171,1.942,2.954,2.94l0.004-0.011c-0.882-0.554-1.788-0.973-2.744-1.362
	c-2.28-0.926-6.912-1.282-11.472-0.926c-4.56,0.356-13.895,1.354-21.589,2.494c-7.696,1.14-12.826,2.066-18.17,3.634
	s-11.268,3.962-15.96,6.413c-0.467,0.243-0.936,0.492-1.405,0.745L1.071,15.177z"/>
</svg>
