<?xml version="1.0" encoding="iso-8859-1"?>
<!-- Generator: Adobe Illustrator 16.0.0, SVG Export Plug-In . SVG Version: 6.00 Build 0)  -->
<!DOCTYPE svg PUBLIC "-//W3C//DTD SVG 1.1//EN" "http://www.w3.org/Graphics/SVG/1.1/DTD/svg11.dtd">
<svg version="1.1" id="Layer_1" xmlns="http://www.w3.org/2000/svg" xmlns:xlink="http://www.w3.org/1999/xlink" x="0px" y="0px"
	 width="32.029px" height="11.448px" viewBox="0 0 32.029 11.448" style="enable-background:new 0 0 32.029 11.448;"
	 xml:space="preserve">
<path style="fill:#4FBA6F;" d="M0.771,9c0.694,0.112,1.407,0.225,2.142,0.336H2.896C7.271,2.773,19.881,3.68,24.631,11.43
	l-0.076,0.019c0.852,0.004,2.095-0.019,2.889-0.019l0.004,0.004c0.811-0.822,1.607-1.746,2.425-2.831
	c0.768-1.019,1.347-2.13,1.391-3.331c0.046-1.241,0.372-1.842,0.719-1.809l0.024,0.029c0.008-0.504,0.016-1.003,0.023-1.499
	l-0.008-0.017c-7.344-1.234-14.448-1.785-18.828-1.922c-4-0.125-9.276-0.059-13.188,0.438L0,0.472
	c0.271,1.975,0.489,4.41,0.771,8.505L0.771,9z"/>
</svg>
