<?xml version="1.0" encoding="iso-8859-1"?>
<!-- Generator: Adobe Illustrator 16.0.0, SVG Export Plug-In . SVG Version: 6.00 Build 0)  -->
<!DOCTYPE svg PUBLIC "-//W3C//DTD SVG 1.1//EN" "http://www.w3.org/Graphics/SVG/1.1/DTD/svg11.dtd">
<svg version="1.1" id="Layer_1" xmlns="http://www.w3.org/2000/svg" xmlns:xlink="http://www.w3.org/1999/xlink" x="0px" y="0px"
	 width="32.833px" height="6.788px" viewBox="0 0 32.833 6.788" style="enable-background:new 0 0 32.833 6.788;"
	 xml:space="preserve">
<path style="fill:#FFCD8A;" d="M0.001,0.971C2.042,0.707,4.614,0.38,7.452,0.018l0.033,0.003
	c12.188-0.125,20.859,0.328,25.297,0.953l0.021,0.046c0.028,1.179,0.034,2.319,0.027,3.454c-0.002,0.417-0.006,0.833-0.011,1.25
	c-0.004,0.354-0.009,0.708-0.015,1.064l-0.008-0.018c-7.344-1.234-14.448-1.785-18.828-1.922c-4-0.125-9.276-0.059-13.188,0.438
	L0.775,5.266C0.567,3.745,0.326,2.498,0,0.974"/>
</svg>
