<?xml version="1.0" encoding="utf-8"?>
<!-- Generator: Adobe Illustrator 16.0.0, SVG Export Plug-In . SVG Version: 6.00 Build 0)  -->
<!DOCTYPE svg PUBLIC "-//W3C//DTD SVG 1.1//EN" "http://www.w3.org/Graphics/SVG/1.1/DTD/svg11.dtd">
<svg version="1.1" id="Layer_1" xmlns="http://www.w3.org/2000/svg" xmlns:xlink="http://www.w3.org/1999/xlink" x="0px" y="0px"
	 width="33.336px" height="19.59px" viewBox="0 0 33.336 19.59" enable-background="new 0 0 33.336 19.59" xml:space="preserve">
<g>
	<path fill="#FCCD8A" d="M32.803,4.367c-0.033-1.384-0.098-2.819-0.209-4.358V0c-4.27,0.605-9.331,1.319-14.051,1.937
		C14.771,2.43,10.914,2.924,7.452,3.365c-2.838,0.362-5.41,0.689-7.451,0.953L0,4.321c0.326,1.523,0.567,2.771,0.775,4.292
		c0.271,1.975,0.489,4.409,0.771,8.505l-0.001,0.023c0.689,0.111,1.398,0.223,2.128,0.334c4.376-6.56,16.983-5.653,21.732,2.096
		L25.33,19.59c0.852,0.004,2.095-0.019,2.889-0.019l0.004,0.004c0.811-0.822,1.607-1.746,2.425-2.831
		c0.768-1.019,1.347-2.13,1.391-3.331c0.046-1.241,0.372-1.842,0.719-1.809l0.024,0.029c0.008-0.504,0.016-1.003,0.023-1.499
		c0.006-0.356,0.011-0.71,0.015-1.064c0.005-0.417,0.009-0.833,0.011-1.25C32.837,6.687,32.831,5.546,32.803,4.367z"/>
	<polygon fill="#FCCD8A" points="3.688,17.478 3.674,17.476 3.672,17.478 	"/>
</g>
</svg>
