<?xml version="1.0" encoding="iso-8859-1"?>
<!-- Generator: Adobe Illustrator 16.0.0, SVG Export Plug-In . SVG Version: 6.00 Build 0)  -->
<!DOCTYPE svg PUBLIC "-//W3C//DTD SVG 1.1//EN" "http://www.w3.org/Graphics/SVG/1.1/DTD/svg11.dtd">
<svg version="1.1" id="Layer_1" xmlns="http://www.w3.org/2000/svg" xmlns:xlink="http://www.w3.org/1999/xlink" x="0px" y="0px"
	 width="43.894px" height="14.061px" viewBox="0 0 43.894 14.061" style="enable-background:new 0 0 43.894 14.061;"
	 xml:space="preserve">
<path style="fill:#4FBA6F;" d="M0.209,10.596c0.028,1.18,0.034,2.32,0.028,3.455l0.011,0.01c1.51-0.189,3.12-0.402,4.797-0.641
	c4.507-0.641,9.514-1.475,14.414-2.518c0.532-0.113,1.062-0.229,1.59-0.346c9.376-2.096,18.111-4.975,21.873-8.772l0.014-0.017
	c0.309-0.644,0.591-1.164,0.908-1.749L43.894,0c-1.126,0.167-2.212,0.326-3.224,0.47c-5.984,0.855-12.537,1.803-18.593,2.658
	C17.782,3.734,10.643,4.736,6.719,5.28C4.955,5.524,2.627,5.856,0,6.229l0,0.009C0.112,7.777,0.176,9.213,0.209,10.596"/>
</svg>
