<?xml version="1.0" encoding="iso-8859-1"?>
<!-- Generator: Adobe Illustrator 16.0.0, SVG Export Plug-In . SVG Version: 6.00 Build 0)  -->
<!DOCTYPE svg PUBLIC "-//W3C//DTD SVG 1.1//EN" "http://www.w3.org/Graphics/SVG/1.1/DTD/svg11.dtd">
<svg version="1.1" id="Layer_1" xmlns="http://www.w3.org/2000/svg" xmlns:xlink="http://www.w3.org/1999/xlink" x="0px" y="0px"
	 width="19.291px" height="7.605px" viewBox="0 0 19.291 7.605" style="enable-background:new 0 0 19.291 7.605;"
	 xml:space="preserve">
<path style="fill:#4FBA6F;" d="M0.072,7.605c0.757-0.554,1.816-1.061,3.093-1.482l-0.009-0.01c0.438-1.25,1.219-2.969,5.219-3.281
	c1.016-0.079,1.949-0.125,2.812-0.145c1.785-0.04,3.269,0.033,4.547,0.155c0.539,0.052,1.043,0.112,1.516,0.177
	c0.768,0.104,1.438,0.205,2.041,0.306l-0.01-0.041l-0.58-2.947l-0.014-0.053c-5.75-0.75-12.422,0.078-18.609,1.328l0.009,0.016
	L0,7.598L0.072,7.605z"/>
</svg>
