<?xml version="1.0" encoding="iso-8859-1"?>
<!-- Generator: Adobe Illustrator 16.0.0, SVG Export Plug-In . SVG Version: 6.00 Build 0)  -->
<!DOCTYPE svg PUBLIC "-//W3C//DTD SVG 1.1//EN" "http://www.w3.org/Graphics/SVG/1.1/DTD/svg11.dtd">
<svg version="1.1" id="Layer_1" xmlns="http://www.w3.org/2000/svg" xmlns:xlink="http://www.w3.org/1999/xlink" x="0px" y="0px"
	 width="22.328px" height="20.877px" viewBox="0 0 22.328 20.877" style="enable-background:new 0 0 22.328 20.877;"
	 xml:space="preserve">
<g>
	<g>
		<g>
			<g>
				<path style="fill:#FFCD8A;" d="M22.326,0c-0.01,0.015-0.021,0.03-0.03,0.045c0.01-0.001,0.022-0.003,0.032-0.005L22.326,0z"/>
				<path style="fill:#FFCD8A;" d="M6.142,2.509L6.125,2.525C5.808,3.11,5.525,3.63,5.217,4.274C4.644,5.468,4.087,6.76,3.555,8.146
					c-0.558,1.449-1.089,3-1.586,4.649c-0.173,0.574-0.342,1.162-0.507,1.76c-0.046,0.164-0.091,0.33-0.136,0.498
					C0.84,16.859,0.395,18.83,0,20.838l0.004,0.039C10.639,14.042,17.669,7.161,22.296,0.045C18.604,0.582,11.773,1.668,6.142,2.509
					z M13.923,6.514c-0.823,0.091-1.538-0.253-1.595-0.768c-0.058-0.515,0.564-1.005,1.389-1.097
					c0.823-0.092,1.537,0.252,1.594,0.767S14.747,6.422,13.923,6.514z M20.331,2.06v0.037c0,0-0.563,0.831-0.991,1.34
					c-0.43,0.509-1.391,1.53-1.957,1.983c-1.071,0.857-2.492-1.286-0.991-1.715l0.046-0.024c-0.301,0.063-0.61,0.116-0.93,0.158
					c-3.422,0.442-8.57-0.089-8.642-0.641C6.795,2.646,11.828,2.282,15.25,1.84c3.422-0.442,5.922-1.372,5.994-0.82
					C21.271,1.23,20.94,1.626,20.331,2.06z"/>
			</g>
		</g>
	</g>
</g>
</svg>
