<?xml version="1.0" encoding="iso-8859-1"?>
<!-- Generator: Adobe Illustrator 16.0.0, SVG Export Plug-In . SVG Version: 6.00 Build 0)  -->
<!DOCTYPE svg PUBLIC "-//W3C//DTD SVG 1.1//EN" "http://www.w3.org/Graphics/SVG/1.1/DTD/svg11.dtd">
<svg version="1.1" id="Layer_1" xmlns="http://www.w3.org/2000/svg" xmlns:xlink="http://www.w3.org/1999/xlink" x="0px" y="0px"
	 width="50.238px" height="9.395px" viewBox="0 0 50.238 9.395" style="enable-background:new 0 0 50.238 9.395;"
	 xml:space="preserve">
<path style="fill:#FFCD8A;" d="M0.036,9.389c4.952-1.924,12.051-4.165,15.223-4.848C18.451,3.854,25.66,2.7,29.15,2.344
	l-0.021,0.003c1.572-0.333,3.662-0.47,6.15-0.514c3.99-0.071,11.08,0.609,14.928,1.321l0.031-0.12c0-0.092-0.014-0.192-0.037-0.3
	L50.16,2.717c-1.959-0.748-4.859-1.502-7.113-1.881c-2.574-0.433-6.057-0.642-9.477-0.784c-2.85-0.118-5.826-0.018-7.91,0.143
	c-1.521,0.118-3.599,0.214-5.754,0.422c-0.979,0.094-1.973,0.21-2.938,0.361C13.672,1.495,9.719,2.375,6.138,3.33
	c-1.571,0.419-3.3,0.956-4.962,1.519l0.017,0.01C0.712,6.092,0.197,7.862,0,9.395L0.036,9.389z"/>
</svg>
