<?xml version="1.0" encoding="iso-8859-1"?>
<!-- Generator: Adobe Illustrator 16.0.0, SVG Export Plug-In . SVG Version: 6.00 Build 0)  -->
<!DOCTYPE svg PUBLIC "-//W3C//DTD SVG 1.1//EN" "http://www.w3.org/Graphics/SVG/1.1/DTD/svg11.dtd">
<svg version="1.1" id="Layer_1" xmlns="http://www.w3.org/2000/svg" xmlns:xlink="http://www.w3.org/1999/xlink" x="0px" y="0px"
	 width="27.164px" height="3.844px" viewBox="0 0 27.164 3.844" style="enable-background:new 0 0 27.164 3.844;"
	 xml:space="preserve">
<path style="fill:#4FBA6F;" d="M25.816,3.092c0.511-0.746,0.87-1.527,1.183-2.59c0.042-0.143,0.084-0.29,0.125-0.438l0.04-0.058
	c-1.619,0.675-4.191,1.148-7.103,1.246c-0.772,0.025-1.496,0.046-2.188,0.06c-2.723,0.054-4.959,0.002-7.75-0.247
	C9.512,1.01,8.861,0.95,8.188,0.885C5.529,0.631,2.504,0.311,0,0l0.062,0.018c2.312,1.688,4.75,2.859,9.062,3.422
	s9.312,0.625,16.688-0.375L25.816,3.092z"/>
</svg>
