<?xml version="1.0" encoding="iso-8859-1"?>
<!-- Generator: Adobe Illustrator 16.0.0, SVG Export Plug-In . SVG Version: 6.00 Build 0)  -->
<!DOCTYPE svg PUBLIC "-//W3C//DTD SVG 1.1//EN" "http://www.w3.org/Graphics/SVG/1.1/DTD/svg11.dtd">
<svg version="1.1" id="Layer_1" xmlns="http://www.w3.org/2000/svg" xmlns:xlink="http://www.w3.org/1999/xlink" x="0px" y="0px"
	 width="19.347px" height="11.731px" viewBox="0 0 19.347 11.731" style="enable-background:new 0 0 19.347 11.731;"
	 xml:space="preserve">
<path style="fill:#FFCD8A;" d="M8.846,8.942c-1.209,0.345-2.768,0.603-3.94,0.603c-1.333,0-2.373,0.808-2.79,1.724l0.016-0.007
	c-0.786,0.108-1.529,0.267-2.097,0.47L0,11.722c0.855-4.561,2.679-7.583,3.819-9.292s3.135-2.381,6.128-2.423
	c2.946-0.041,6.188,0.131,9.323,0.131l0.077-0.003l-0.039,0.034c-2.567,1.71-4.151,3.46-5.651,5.46c-1.5,2-3.083,2.75-4.333,3.167
	C9.172,8.846,9.013,8.895,8.846,8.942"/>
</svg>
