<?xml version="1.0" encoding="iso-8859-1"?>
<!-- Generator: Adobe Illustrator 16.0.0, SVG Export Plug-In . SVG Version: 6.00 Build 0)  -->
<!DOCTYPE svg PUBLIC "-//W3C//DTD SVG 1.1//EN" "http://www.w3.org/Graphics/SVG/1.1/DTD/svg11.dtd">
<svg version="1.1" id="Layer_1" xmlns="http://www.w3.org/2000/svg" xmlns:xlink="http://www.w3.org/1999/xlink" x="0px" y="0px"
	 width="10.5px" height="10.811px" viewBox="0 0 10.5 10.811" style="enable-background:new 0 0 10.5 10.811;" xml:space="preserve"
	>
<path style="fill:#FFCD8A;" d="M1.045,10.811c0.974-0.104,1.965-0.252,2.913-0.455l0.089-0.012c0.702-0.42,1.33-0.859,1.808-1.297
	C7.102,7.908,8.025,6.73,8.49,5.913c0.541-0.948,1.67-3.512,1.67-3.512C10.262,1.618,10.375,0.816,10.5,0l-0.039,0.034
	c-2.566,1.71-4.15,3.46-5.651,5.46c-1.5,2-3.083,2.75-4.333,3.167C0.326,8.713,0.167,8.762,0,8.809l0.06,0.02
	c0.583,0.666,1.021,1.395,1.021,1.979L1.045,10.811z"/>
</svg>
