<?xml version="1.0" encoding="utf-8"?>
<!-- Generator: Adobe Illustrator 16.0.0, SVG Export Plug-In . SVG Version: 6.00 Build 0)  -->
<!DOCTYPE svg PUBLIC "-//W3C//DTD SVG 1.1//EN" "http://www.w3.org/Graphics/SVG/1.1/DTD/svg11.dtd">
<svg version="1.1" id="Layer_1" xmlns="http://www.w3.org/2000/svg" xmlns:xlink="http://www.w3.org/1999/xlink" x="0px" y="0px"
	 width="19.308px" height="11.76px" viewBox="0 0 19.308 11.76" enable-background="new 0 0 19.308 11.76" xml:space="preserve">
<g>
	<path fill="#FFCD8A" d="M0,11.739c0.797-4.25,2.436-7.166,3.577-8.926l0.001-0.005C4.94,3.683,5.669,4.461,7.177,6.065l0.01,0.001
		c-0.1,0.078-0.201,0.158-0.302,0.242C5.426,7.524,4.356,8.643,3.481,9.858h-0.02c-0.629,0.288-1.103,0.775-1.337,1.412
		l-0.003,0.012c-0.797,0.109-1.548,0.271-2.116,0.479L0,11.739z"/>
	<path fill="#FFCD8A" d="M7.177,6.065C5.669,4.461,4.94,3.683,3.579,2.808L3.577,2.812c0.083-0.128,0.164-0.25,0.242-0.367
		c1.14-1.71,3.135-2.381,6.128-2.423c2.946-0.041,6.043-0.044,9.323,0.131l0.038,0.031c-2.567,1.71-4.151,3.46-5.651,5.46v0.016
		c-0.953-0.922-1.715-0.957-2.832-1.005C9.783,4.609,8.532,5.028,7.187,6.066L7.177,6.065z"/>
	<path fill="#FFCD8A" d="M13.656,5.645c-1.5,2-3.083,2.75-4.333,3.167s-3.084,0.75-4.417,0.75c-0.534,0-1.024,0.104-1.444,0.296
		h0.02c0.875-1.215,1.944-2.334,3.403-3.549c0.101-0.084,0.202-0.165,0.302-0.242c1.345-1.039,2.597-1.457,3.638-1.411
		c1.117,0.049,1.879,0.083,2.832,1.005V5.645z"/>
</g>
</svg>
