<?xml version="1.0" encoding="iso-8859-1"?>
<!-- Generator: Adobe Illustrator 16.0.0, SVG Export Plug-In . SVG Version: 6.00 Build 0)  -->
<!DOCTYPE svg PUBLIC "-//W3C//DTD SVG 1.1//EN" "http://www.w3.org/Graphics/SVG/1.1/DTD/svg11.dtd">
<svg version="1.1" id="Layer_1" xmlns="http://www.w3.org/2000/svg" xmlns:xlink="http://www.w3.org/1999/xlink" x="0px" y="0px"
	 width="22.697px" height="5.397px" viewBox="0 0 22.697 5.397" style="enable-background:new 0 0 22.697 5.397;"
	 xml:space="preserve">
<path style="fill:#FFCD8A;" d="M22.697,5.384c-0.452-0.189-0.923-0.387-1.422-0.591l-0.066-0.021
	C19.47,4.565,18.154,4.05,16.57,3.55c-1.583-0.5-3.666-1.167-6.083-1.834C8.07,1.049,6.653,0.799,4.57,0.382
	C1.605-0.21,0.903-0.099,0.382,0.611C-0.235,1.453-0.076,2.31,0.653,2.716C0.95,2.882,1.381,3.004,1.941,3.104l0.041-0.038
	C3.18,2.382,6.07,2.299,7.82,2.549s3.584,0.5,5.25,0.917c1.666,0.417,3.491,0.952,4.75,1.25c1.938,0.459,3.455,0.719,4.852,0.678
	L22.697,5.384z"/>
</svg>
