<?xml version="1.0" encoding="iso-8859-1"?>
<!-- Generator: Adobe Illustrator 16.0.0, SVG Export Plug-In . SVG Version: 6.00 Build 0)  -->
<!DOCTYPE svg PUBLIC "-//W3C//DTD SVG 1.1//EN" "http://www.w3.org/Graphics/SVG/1.1/DTD/svg11.dtd">
<svg version="1.1" id="Layer_1" xmlns="http://www.w3.org/2000/svg" xmlns:xlink="http://www.w3.org/1999/xlink" x="0px" y="0px"
	 width="40.427px" height="22.389px" viewBox="0 0 40.427 22.389" style="enable-background:new 0 0 40.427 22.389;"
	 xml:space="preserve">
<path style="fill:#4FBA6F;" d="M0,22.389V0.233l0.003-0.016C3.9,0.153,7.458,0.088,10.183,0.031
	c4.959-0.105,12.781,0.048,16.672,0.57c3.602,0.482,8.229,1.072,10.546,2.137c1.821,0.838,2.446,1.15,3.009,1.666l0.018,0.017
	c-0.036,0.768-0.075,1.553-0.116,2.356L40.3,6.78c-9.084-0.25-18.426-0.323-25.593,0.51C6.617,8.23,3.039,8.78,3.206,14.779
	l-0.011-0.006c-1.29,0.658-2.091,1.576-2.091,2.593c0,1.057,0.865,2.008,2.248,2.671l0.021,0.002c0,1.75-1.272,2.35-3.355,2.35H0z
	 M1.081,6.078c0.418,0,0.756-0.203,0.756-0.454S1.499,5.171,1.081,5.171S0.325,5.374,0.325,5.625S0.663,6.078,1.081,6.078z"/>
</svg>
