<?xml version="1.0" encoding="iso-8859-1"?>
<!-- Generator: Adobe Illustrator 16.0.0, SVG Export Plug-In . SVG Version: 6.00 Build 0)  -->
<!DOCTYPE svg PUBLIC "-//W3C//DTD SVG 1.1//EN" "http://www.w3.org/Graphics/SVG/1.1/DTD/svg11.dtd">
<svg version="1.1" id="Layer_1" xmlns="http://www.w3.org/2000/svg" xmlns:xlink="http://www.w3.org/1999/xlink" x="0px" y="0px"
	 width="67.588px" height="14.059px" viewBox="0 0 67.588 14.059" style="enable-background:new 0 0 67.588 14.059;"
	 xml:space="preserve">
<path style="fill:#4FBA6F;" d="M67.543,3.842c-0.395-0.374-0.841-0.773-1.297-1.146l-0.018,0.005
	c-0.942-0.58-3.359-1.541-5.346-2.108c-1.851-0.528-4.896-0.628-7.09-0.583L53.76,0.029c-1.639,0.213-7.446,0.93-10.512,1.348
	c-3.135,0.428-7.047,1.191-9.868,1.781c-1.876,0.393-4.846,1.041-6.503,1.471c-1.386,0.36-3.555,0.91-4.862,1.308
	c-2.103,0.64-5.068,1.498-6.698,1.817c-1.645,0.322-3.908,0.908-5.448,0.978L9.825,8.736c-1.305,0.62-2.661,1.22-3.771,1.761
	c-1.494,0.728-3.48,1.6-6.045,2.953L0,13.487c0.261,0.111,0.525,0.199,0.782,0.251c0.652,0.132,1.561,0.239,2.578,0.317
	c0.85,0.064,2.23-0.975,3.194-1.422c1.275-0.591,3.274-1.456,4.988-2.209c1.825-0.801,4.76-1.682,6.982-2.422
	C21.731,6.934,27.133,5.4,31.42,4.369c4.15-0.998,10.676-2.229,15.818-2.85c3.592-0.434,9.408-0.894,12.184-0.641
	c2.352,0.214,6.477,1.58,8.166,3.01"/>
</svg>
