<?xml version="1.0" encoding="iso-8859-1"?>
<!-- Generator: Adobe Illustrator 16.0.0, SVG Export Plug-In . SVG Version: 6.00 Build 0)  -->
<!DOCTYPE svg PUBLIC "-//W3C//DTD SVG 1.1//EN" "http://www.w3.org/Graphics/SVG/1.1/DTD/svg11.dtd">
<svg version="1.1" id="Layer_1" xmlns="http://www.w3.org/2000/svg" xmlns:xlink="http://www.w3.org/1999/xlink" x="0px" y="0px"
	 width="69.97px" height="14.445px" viewBox="0 0 69.97 14.445" style="enable-background:new 0 0 69.97 14.445;"
	 xml:space="preserve">
<path style="fill:#FFCD8A;" d="M69.97,3.653c-0.388-0.318-0.782-0.618-1.156-0.866l0.045,0.027c-0.618-0.29-2.299-1.032-3.289-1.407
	c-1.231-0.465-4.135-1.243-6.164-1.354c-3.135-0.171-7.375,0.072-12.362,0.642c-4.979,0.569-9.347,1.21-12.184,1.639
	c-2.336,0.353-6.797,1.311-9.353,1.828c-2.443,0.495-5.499,1.273-8.317,2.198c-2.681,0.879-6.57,2.121-9.441,3.207
	c-2.628,0.994-5.366,1.807-7.695,2.422L0,12.012c0.194,0.026,0.36,0.09,0.479,0.191c0.481,0.406,1.338,1.091,2.031,1.566
	c0.356,0.246,0.779,0.492,1.213,0.676l0.01-0.037c2.565-1.354,4.551-2.226,6.045-2.953c1.109-0.541,2.466-1.141,3.771-1.761
	c0.777-0.37,1.537-0.748,2.214-1.126c1.681-0.938,5.849-2.425,8.23-2.957c2.62-0.585,5.195-1.1,6.199-1.283
	c1.533-0.279,4.241-0.849,7.268-1.354c3.019-0.503,7.812-1.07,10.723-1.354c2.922-0.285,6.627-0.57,8.836-0.641
	c0.16-0.005,0.326-0.01,0.498-0.013c2.193-0.045,5.239,0.055,7.09,0.583c1.986,0.567,4.403,1.528,5.346,2.108L69.97,3.653z"/>
</svg>
