<?xml version="1.0" encoding="utf-8"?>
<!-- Generator: Adobe Illustrator 16.0.0, SVG Export Plug-In . SVG Version: 6.00 Build 0)  -->
<!DOCTYPE svg PUBLIC "-//W3C//DTD SVG 1.1//EN" "http://www.w3.org/Graphics/SVG/1.1/DTD/svg11.dtd">
<svg version="1.1" id="Layer_1" xmlns="http://www.w3.org/2000/svg" xmlns:xlink="http://www.w3.org/1999/xlink" x="0px" y="0px"
	 width="72.828px" height="15.604px" viewBox="0 0 72.828 15.604" enable-background="new 0 0 72.828 15.604" xml:space="preserve">
<g>
	<path fill="#FCCD8A" d="M70.33,3.374c-0.013-0.008-0.025-0.017-0.039-0.025c-0.914-0.6-2.044-1.262-2.881-1.613
		c-1.129-0.473-2.508-0.85-3.531-1.095c-1.97-0.472-5.195-0.79-9.334-0.569C50.474,0.288,44.377,0.995,40.08,1.567
		c-4.205,0.561-10.004,1.391-14.036,2.137c-3.848,0.713-10.759,2.494-15.889,4.49c-2.687,1.045-6.435,2.65-10.126,4.758L0,12.979
		c0.493-0.311,1.075-0.44,1.517-0.381l0.052-0.023c2.33-0.615,5.067-1.428,7.695-2.422c2.871-1.086,6.76-2.327,9.441-3.207
		c2.819-0.924,5.875-1.703,8.317-2.197c2.556-0.518,7.017-1.476,9.353-1.828c2.837-0.428,7.205-1.07,12.184-1.639
		c4.987-0.57,9.228-0.812,12.362-0.642c2.029,0.111,4.933,0.89,6.164,1.354c0.99,0.374,2.671,1.116,3.289,1.406L70.33,3.374z"/>
	<path fill="#FCCD8A" d="M71.486,4.24c-0.388-0.318-0.782-0.618-1.156-0.866l0.045,0.027c-0.618-0.29-2.299-1.032-3.289-1.406
		c-1.231-0.465-4.135-1.243-6.164-1.354C57.787,0.47,53.547,0.712,48.56,1.282c-4.979,0.568-9.347,1.211-12.184,1.639
		c-2.336,0.353-6.797,1.311-9.353,1.828c-2.443,0.494-5.499,1.273-8.317,2.197c-2.681,0.88-6.57,2.121-9.441,3.207
		c-2.628,0.994-5.366,1.807-7.695,2.422l-0.052,0.023c0.194,0.026,0.36,0.09,0.479,0.191c0.481,0.406,1.338,1.091,2.031,1.566
		c0.356,0.246,0.779,0.492,1.213,0.676l0.01-0.037c2.565-1.354,4.551-2.226,6.045-2.953c1.109-0.541,2.466-1.141,3.771-1.761
		c0.777-0.37,1.537-0.748,2.214-1.126c1.681-0.938,5.849-2.426,8.23-2.957c2.62-0.584,5.195-1.1,6.199-1.282
		c1.533-0.278,4.241-0.849,7.268-1.354c3.019-0.503,7.812-1.07,10.723-1.354c2.922-0.285,6.627-0.569,8.836-0.641
		c0.16-0.005,0.326-0.01,0.498-0.014c2.193-0.045,5.239,0.055,7.09,0.584c1.986,0.566,4.403,1.527,5.346,2.107L71.486,4.24z"/>
	<path fill="#FCCD8A" d="M59.033,1.554c-0.172,0.004-0.338,0.009-0.498,0.014c-2.209,0.071-5.914,0.355-8.836,0.641
		c-2.91,0.284-7.704,0.852-10.723,1.354c-3.027,0.505-5.735,1.075-7.268,1.354c-1.004,0.183-3.579,0.698-6.199,1.282
		c-2.381,0.531-6.549,2.02-8.23,2.957c-0.678,0.378-1.437,0.756-2.214,1.126l0.044-0.005c1.541-0.07,3.804-0.656,5.448-0.979
		c1.629-0.319,4.595-1.177,6.698-1.816c1.307-0.398,3.476-0.948,4.862-1.309c1.657-0.43,4.626-1.078,6.503-1.471
		c2.821-0.59,6.733-1.354,9.868-1.781C51.554,2.503,57.361,1.786,59,1.573L59.033,1.554z"/>
	<path fill="#FCCD8A" d="M72.783,5.387c-0.395-0.374-0.841-0.772-1.297-1.146l-0.018,0.005c-0.942-0.58-3.359-1.541-5.346-2.107
		c-1.851-0.529-4.896-0.629-7.09-0.584L59,1.573c-1.639,0.213-7.446,0.93-10.512,1.348c-3.135,0.428-7.047,1.191-9.868,1.781
		c-1.876,0.393-4.846,1.041-6.503,1.471c-1.386,0.36-3.555,0.91-4.862,1.309c-2.103,0.64-5.068,1.497-6.698,1.816
		c-1.645,0.322-3.908,0.908-5.448,0.979l-0.044,0.005c-1.305,0.62-2.661,1.22-3.771,1.761c-1.494,0.728-3.48,1.6-6.045,2.953
		l-0.01,0.037c0.261,0.111,0.525,0.199,0.782,0.251c0.652,0.132,1.561,0.239,2.578,0.317c0.85,0.064,2.23-0.975,3.194-1.422
		c1.275-0.591,3.274-1.456,4.988-2.209c1.825-0.801,4.76-1.682,6.982-2.422c3.208-1.07,8.609-2.604,12.897-3.635
		c4.15-0.998,10.676-2.229,15.818-2.85C56.07,2.63,61.887,2.17,64.662,2.423c2.352,0.213,6.477,1.58,8.166,3.01"/>
</g>
</svg>
