<?xml version="1.0" encoding="utf-8"?>
<!-- Generator: Adobe Illustrator 16.0.0, SVG Export Plug-In . SVG Version: 6.00 Build 0)  -->
<!DOCTYPE svg PUBLIC "-//W3C//DTD SVG 1.1//EN" "http://www.w3.org/Graphics/SVG/1.1/DTD/svg11.dtd">
<svg version="1.1" id="Layer_1" xmlns="http://www.w3.org/2000/svg" xmlns:xlink="http://www.w3.org/1999/xlink" x="0px" y="0px"
	 width="43.968px" height="8.727px" viewBox="0 0 43.968 8.727" enable-background="new 0 0 43.968 8.727" xml:space="preserve">
<path fill="#FFCD8A" d="M43.968,0c-0.172,0.003-0.338,0.008-0.498,0.013c-2.209,0.071-5.914,0.356-8.836,0.641
	c-2.91,0.284-7.704,0.851-10.723,1.354c-3.027,0.504-5.735,1.075-7.268,1.354c-1.004,0.183-3.579,0.698-6.199,1.282
	c-2.381,0.531-6.549,2.02-8.23,2.957C1.537,7.979,0.777,8.357,0,8.727l0.044-0.005c1.541-0.07,3.804-0.656,5.448-0.979
	c1.629-0.319,4.595-1.177,6.698-1.816c1.307-0.398,3.476-0.948,4.862-1.308c1.657-0.43,4.626-1.079,6.503-1.471
	c2.821-0.59,6.733-1.354,9.868-1.781c3.065-0.418,8.873-1.134,10.512-1.348L43.968,0z"/>
</svg>
