<?xml version="1.0" encoding="iso-8859-1"?>
<!-- Generator: Adobe Illustrator 16.0.0, SVG Export Plug-In . SVG Version: 6.00 Build 0)  -->
<!DOCTYPE svg PUBLIC "-//W3C//DTD SVG 1.1//EN" "http://www.w3.org/Graphics/SVG/1.1/DTD/svg11.dtd">
<svg version="1.1" id="Layer_1" xmlns="http://www.w3.org/2000/svg" xmlns:xlink="http://www.w3.org/1999/xlink" x="0px" y="0px"
	 width="13.811px" height="34.211px" viewBox="0 0 13.811 34.211" style="enable-background:new 0 0 13.811 34.211;"
	 xml:space="preserve">
<path style="fill:#4FBA6F;" d="M0.527,26.213c0.088,0,0.176,0,0.265,0c5.371,0,12.717-1.371,12.717-2.094
	c0-0.725-7.346-0.527-12.717-0.527c-0.03,0-0.061,0-0.091,0l0.077-0.881c0.321,0.002,0.647,0.004,0.977,0.004
	c6.345,0,11.487-0.451,11.487-1.008S8.1,20.699,1.755,20.699c-0.291,0-0.58,0.001-0.866,0.003L0.92,20.01
	c0.935,0.03,1.936,0.047,2.977,0.048c5.175,0.002,9.371-0.401,9.371-0.902s-4.195-0.909-9.37-0.911
	c-1.007-0.001-1.977,0.014-2.886,0.042l0.091-1.476c0.041-0.803,0.08-1.588,0.116-2.356C1.463,9.249,1.592,4.812,1.641,0.827
	L1.605,0.848C5.943,1.129,10.481,1.124,13.811,0l-0.013,0.016c0.006,9.555-0.003,28.163-0.002,34.156l-0.001,0.039H0l0.232-3.332
	c0.438,0.007,0.884,0.009,1.336,0.006c9.795-0.067,11.723-2.341,11.733-3.287s-5.46-0.063-11.691-0.139
	c-0.386-0.005-0.768-0.006-1.144-0.006L0.527,26.213z"/>
</svg>
