<?xml version="1.0" encoding="utf-8"?>
<!-- Generator: Adobe Illustrator 16.0.0, SVG Export Plug-In . SVG Version: 6.00 Build 0)  -->
<!DOCTYPE svg PUBLIC "-//W3C//DTD SVG 1.1//EN" "http://www.w3.org/Graphics/SVG/1.1/DTD/svg11.dtd">
<svg version="1.1" id="Layer_1" xmlns="http://www.w3.org/2000/svg" xmlns:xlink="http://www.w3.org/1999/xlink" x="0px" y="0px"
	 width="12.597px" height="7.575px" viewBox="0 0 12.597 7.575" enable-background="new 0 0 12.597 7.575" xml:space="preserve">
<path fill="#FFCD8A" d="M363.799,386.028c-0.967-0.279-1.91-0.528-2.795-0.729c-1.417-0.322-3.222-0.741-5.074-1.157
	c-1.375-0.31-2.777-0.617-4.065-0.884l-0.064,0.021c0.067-0.258,0.142-0.527,0.22-0.808c0.32-1.135,0.582-2.476,0.766-4.019
	l0.325,0.084c0.079,0.021,0.157,0.043,0.235,0.064c0.383,0.106,0.774,0.217,1.17,0.332l0.025,0.037
	c-0.07,1.551,1.617,2.029,3.646,2.373l0.051,0.008c0.354,0.183,0.807,0.37,1.384,0.569c1.493,0.516,3.131,1.15,4.774,1.795
	l-0.005-0.046c-0.211,0.779-0.408,1.558-0.595,2.346L363.799,386.028z"/>
<path fill="#FFCD8A" d="M11.999,7.575c-0.967-0.279-1.91-0.528-2.795-0.729C7.787,6.523,5.982,6.104,4.13,5.688
	c-1.376-0.31-2.778-0.617-4.066-0.884L0,4.826c0.067-0.258,0.141-0.527,0.22-0.808C0.54,2.884,0.802,1.543,0.985,0l0.326,0.084
	c0.079,0.021,0.157,0.043,0.235,0.064C1.929,0.255,2.32,0.366,2.716,0.48l0.025,0.038C2.67,2.069,4.359,2.547,6.388,2.891
	l0.051,0.007c0.354,0.183,0.807,0.371,1.384,0.57c1.493,0.516,3.131,1.15,4.774,1.795l-0.005-0.046
	c-0.211,0.779-0.408,1.558-0.595,2.346L11.999,7.575z"/>
</svg>
