<?xml version="1.0" encoding="utf-8"?>
<!-- Generator: Adobe Illustrator 16.0.0, SVG Export Plug-In . SVG Version: 6.00 Build 0)  -->
<!DOCTYPE svg PUBLIC "-//W3C//DTD SVG 1.1//EN" "http://www.w3.org/Graphics/SVG/1.1/DTD/svg11.dtd">
<svg version="1.1" id="Layer_1" xmlns="http://www.w3.org/2000/svg" xmlns:xlink="http://www.w3.org/1999/xlink" x="0px" y="0px"
	 width="18.914px" height="8.266px" viewBox="0 0 18.914 8.266" enable-background="new 0 0 18.914 8.266" xml:space="preserve">
<path fill="#FFCD8A" d="M18.914,7.979c0,0-0.857,0.074-1.997,0.217c-0.165,0.02-0.335,0.041-0.513,0.062l-0.035,0.008
	c-0.577-0.241-1.168-0.493-1.797-0.758c-0.452-0.189-0.923-0.387-1.422-0.591c-1.215-0.495-2.597-1.033-4.276-1.621
	C6.345,4.41,3.048,3.237,0.002,2.358L0,2.346C0.187,1.558,0.384,0.779,0.595,0L0.6,0.046c1.243,0.487,2.489,0.979,3.679,1.43
	c2.799,1.06,5.154,2.079,7.125,3.098c1.972,1.02,5.729,2.69,7.502,3.396L18.914,7.979z"/>
</svg>
