<?xml version="1.0" encoding="utf-8"?>
<!-- Generator: Adobe Illustrator 16.0.0, SVG Export Plug-In . SVG Version: 6.00 Build 0)  -->
<!DOCTYPE svg PUBLIC "-//W3C//DTD SVG 1.1//EN" "http://www.w3.org/Graphics/SVG/1.1/DTD/svg11.dtd">
<svg version="1.1" id="Layer_1" xmlns="http://www.w3.org/2000/svg" xmlns:xlink="http://www.w3.org/1999/xlink" x="0px" y="0px"
	 width="12.904px" height="6.136px" viewBox="0 0 12.904 6.136" enable-background="new 0 0 12.904 6.136" xml:space="preserve">
<path fill="#FFCD8A" d="M5.086,6.136C4.33,5.181,2.873,3.74,2.373,3.162C1.526,2.185,0.597,1.144,0,0.401l0.044,0.005
	c0.342-0.114,0.701-0.25,1.07-0.405L1.107,0c1.14,1.283,3.386,3.213,4.828,3.66c1.356,0.421,2.922,0.143,3.99-0.355
	c0.756-0.353,1.963-1.148,2.979-2.555h-0.002c-0.152,0.462-0.379,0.994-0.773,1.552c-0.709,1-2.334,2-3.793,2.625
	C7.6,5.242,6.253,5.748,5.091,6.125L5.086,6.136z"/>
</svg>
