<?xml version="1.0" encoding="iso-8859-1"?>
<!-- Generator: Adobe Illustrator 16.0.0, SVG Export Plug-In . SVG Version: 6.00 Build 0)  -->
<!DOCTYPE svg PUBLIC "-//W3C//DTD SVG 1.1//EN" "http://www.w3.org/Graphics/SVG/1.1/DTD/svg11.dtd">
<svg version="1.1" id="Layer_1" xmlns="http://www.w3.org/2000/svg" xmlns:xlink="http://www.w3.org/1999/xlink" x="0px" y="0px"
	 width="76.534px" height="14.843px" viewBox="0 0 76.534 14.843" style="enable-background:new 0 0 76.534 14.843;"
	 xml:space="preserve">
<path style="fill:#4FBA6F;" d="M0.781,14.843C0.495,14.477,0.232,14.147,0,13.849l0.001,0.005c0.436-0.233,0.881-0.468,1.341-0.704
	c4.346-2.244,6.91-3.42,11.22-5.023c4.31-1.602,7.23-2.457,11.291-3.383s7.374-1.318,11.505-1.852
	c4.132-0.535,8.442-1.104,11.79-1.532c3.349-0.427,6.91-0.819,9.867-1.033c2.956-0.214,5.342-0.356,7.729-0.321
	s3.883,0.178,5.308,0.784s2.423,1.354,3.634,2.92c1.211,1.567,2.137,3.242,2.635,3.99c0.071,0.106,0.143,0.214,0.214,0.319
	l-0.147,0.103c-1.054-1.262-2.096-2.138-3.174-2.814l-0.004,0.011c-0.783-0.998-1.957-2.299-2.954-2.94s-2.993-1.283-4.987-1.283
	c-1.996,0-7.553,0.214-11.188,0.57c-3.633,0.356-9.619,1.069-14.464,1.71S28.715,4.729,25.081,5.584
	c-3.634,0.855-8.265,2.066-12.113,3.491s-9.387,4.19-12.166,5.758L0.781,14.843z"/>
</svg>
