<?xml version="1.0" encoding="iso-8859-1"?>
<!-- Generator: Adobe Illustrator 16.0.0, SVG Export Plug-In . SVG Version: 6.00 Build 0)  -->
<!DOCTYPE svg PUBLIC "-//W3C//DTD SVG 1.1//EN" "http://www.w3.org/Graphics/SVG/1.1/DTD/svg11.dtd">
<svg version="1.1" id="Layer_1" xmlns="http://www.w3.org/2000/svg" xmlns:xlink="http://www.w3.org/1999/xlink" x="0px" y="0px"
	 width="104.369px" height="40.763px" viewBox="0 0 104.369 40.763" style="enable-background:new 0 0 104.369 40.763;"
	 xml:space="preserve">
<path style="fill:#FFCD8A;" d="M29.662,14.247c-5.8,3.042-11.365,7.193-14.5,9.615c-3.135,2.424-5.771,5.202-6.84,6.342
	c-1.069,1.141-1.963,2.289-2.351,3.35c-0.711,1.945-0.371,3.209,1.489,2.553l0.016-0.016c-0.958,0.57-4.464,2.613-7.375,4.672
	l-0.002-0.008c-0.54-1.049,1.292-3.137,2.595-5.135c1.047-1.605,3.247-4.4,5.059-6.413c1.924-2.138,5.091-4.996,8.978-7.98
	c3.6-2.765,8.012-5.471,12.346-7.805c0.47-0.253,0.938-0.502,1.405-0.746c4.692-2.451,10.617-4.845,15.96-6.413
	S56.916,3.77,64.611,2.63C72.306,1.49,81.641,0.492,86.2,0.136c4.56-0.356,9.191,0,11.472,0.926
	c0.956,0.389,1.862,0.808,2.744,1.362c1.078,0.676,2.12,1.552,3.174,2.814l-0.001,0.01c-0.618,0.575,0.077,1.252,0.78,1.051V6.294
	v3.39l-0.005-0.01c0-0.749-0.84-2.073-1.456-2.769c-0.777-0.767-1.867-1.729-2.814-2.351c-0.914-0.6-2.044-1.262-2.881-1.613
	c-1.129-0.473-2.508-0.849-3.531-1.095c-1.97-0.472-5.195-0.79-9.334-0.57C80.276,1.493,74.18,2.2,69.883,2.772
	C65.678,3.333,59.879,4.163,55.847,4.91c-3.848,0.712-10.759,2.494-15.889,4.489c-2.687,1.045-6.435,2.651-10.126,4.759
	c-0.055,0.031-0.111,0.063-0.166,0.095L29.662,14.247z"/>
</svg>
