<?xml version="1.0" encoding="iso-8859-1"?>
<!-- Generator: Adobe Illustrator 16.0.0, SVG Export Plug-In . SVG Version: 6.00 Build 0)  -->
<!DOCTYPE svg PUBLIC "-//W3C//DTD SVG 1.1//EN" "http://www.w3.org/Graphics/SVG/1.1/DTD/svg11.dtd">
<svg version="1.1" id="Layer_1" xmlns="http://www.w3.org/2000/svg" xmlns:xlink="http://www.w3.org/1999/xlink" x="0px" y="0px"
	 width="36.902px" height="2.698px" viewBox="0 0 36.902 2.698" style="enable-background:new 0 0 36.902 2.698;"
	 xml:space="preserve">
<path style="fill:#4FBA6F;" d="M29.574,1.906c-2.686-0.178-5.219-0.282-7.027-0.206c-2.449,0.104-4.944,0.236-6.266,0.316
	C13.93,2.159,10.652,2.23,7.873,2.444c-2.85,0.22-6.263,0.437-7.831,0.009L0,2.451c4.836-0.652,9.831-1.306,13.36-1.717
	c3.778-0.44,9.123-0.705,13.83-0.729c3.799-0.019,7.156,0.006,7.855,0.146c0.697,0.139,1.857,0.771,1.857,0.771l-0.029-0.002
	c-1.705,0.235-3.322,0.445-4.863,0.658c-0.795,0.109-1.617,0.223-2.451,0.338L29.574,1.906z"/>
</svg>
