<?xml version="1.0" encoding="iso-8859-1"?>
<!-- Generator: Adobe Illustrator 16.0.0, SVG Export Plug-In . SVG Version: 6.00 Build 0)  -->
<!DOCTYPE svg PUBLIC "-//W3C//DTD SVG 1.1//EN" "http://www.w3.org/Graphics/SVG/1.1/DTD/svg11.dtd">
<svg version="1.1" id="Layer_1" xmlns="http://www.w3.org/2000/svg" xmlns:xlink="http://www.w3.org/1999/xlink" x="0px" y="0px"
	 width="29.562px" height="1.568px" viewBox="0 0 29.562 1.568" style="enable-background:new 0 0 29.562 1.568;"
	 xml:space="preserve">
<path style="fill:#FFCD8A;" d="M0.031,0.778c1.567,0.428,4.981,0.21,7.831-0.009c2.779-0.214,6.057-0.285,8.408-0.428
	c1.322-0.08,3.816-0.212,6.267-0.316c1.808-0.077,4.341,0.028,7.026,0.206l-0.015,0.01c-1.417,0.198-2.858,0.403-4.218,0.611
	l-0.015-0.026c-2.212-0.059-3.554-0.058-5.769,0.085c-2.227,0.144-6.127,0.427-9.405,0.57C7.358,1.603,0.844,1.747,0,0.762
	L0.031,0.778z"/>
</svg>
