<?xml version="1.0" encoding="iso-8859-1"?>
<!-- Generator: Adobe Illustrator 16.0.0, SVG Export Plug-In . SVG Version: 6.00 Build 0)  -->
<!DOCTYPE svg PUBLIC "-//W3C//DTD SVG 1.1//EN" "http://www.w3.org/Graphics/SVG/1.1/DTD/svg11.dtd">
<svg version="1.1" id="Layer_1" xmlns="http://www.w3.org/2000/svg" xmlns:xlink="http://www.w3.org/1999/xlink" x="0px" y="0px"
	 width="52.91px" height="7.01px" viewBox="0 0 52.91 7.01" style="enable-background:new 0 0 52.91 7.01;" xml:space="preserve">
<path style="fill:#4FBA6F;" d="M52.91,0.09c-0.896,0.137-1.758,0.275-2.551,0.412c-3.039,0.524-8.801,1.257-15.701,2.141
	c-6.916,0.886-15.034,1.995-19.879,2.708c-4.856,0.714-7.92,1.214-9.619,1.425C3.106,7.031,0.819,7.282,0.083,6.34
	C0.051,6.299,0.023,6.256,0,6.211l0.002,0.008C2.913,4.16,6.419,2.117,7.377,1.547l0.004,0.009c0.038,0.058,0.082,0.11,0.132,0.159
	c0.942,0.901,3.745,0.545,6.625,0.145c2.72-0.378,7.975-1.11,13.43-1.846L27.58,0c0.844,0.984,7.357,0.84,10.143,0.719
	C41,0.577,44.9,0.293,47.127,0.149c2.215-0.144,3.557-0.145,5.77-0.085L52.91,0.09z"/>
</svg>
