<?xml version="1.0" encoding="iso-8859-1"?>
<!-- Generator: Adobe Illustrator 16.0.0, SVG Export Plug-In . SVG Version: 6.00 Build 0)  -->
<!DOCTYPE svg PUBLIC "-//W3C//DTD SVG 1.1//EN" "http://www.w3.org/Graphics/SVG/1.1/DTD/svg11.dtd">
<svg version="1.1" id="Layer_1" xmlns="http://www.w3.org/2000/svg" xmlns:xlink="http://www.w3.org/1999/xlink" x="0px" y="0px"
	 width="17.178px" height="13.308px" viewBox="0 0 17.178 13.308" style="enable-background:new 0 0 17.178 13.308;"
	 xml:space="preserve">
<path style="fill:#4FBA6F;" d="M14.164,13.308H4.476l-0.005-0.023c0-0.835-0.951-1.301-2.255-1.537
	c-1.521-0.276-2.499-1.512-2.142-2.94c0.327-1.309,1.072-3.132,1.491-4.25c0.474-1.262,1.028-2.603,1.683-3.64
	C3.6,0.152,4.511-0.079,5.459,0.023l0.017,0.011c0.571,1.713,1.986,3.222,4.341,3.834c2.528,0.657,5.219,1.05,7.361,1.269
	l-0.017-0.01c-0.008,0.056-0.017,0.112-0.025,0.168c-0.205,1.269-0.562,2.747-0.811,3.333c-0.631,1.483-1.389,2.922-2.166,4.672
	L14.164,13.308z"/>
</svg>
