<?xml version="1.0" encoding="iso-8859-1"?>
<!-- Generator: Adobe Illustrator 16.0.0, SVG Export Plug-In . SVG Version: 6.00 Build 0)  -->
<!DOCTYPE svg PUBLIC "-//W3C//DTD SVG 1.1//EN" "http://www.w3.org/Graphics/SVG/1.1/DTD/svg11.dtd">
<svg version="1.1" id="Layer_1" xmlns="http://www.w3.org/2000/svg" xmlns:xlink="http://www.w3.org/1999/xlink" x="0px" y="0px"
	 width="35.763px" height="14.126px" viewBox="0 0 35.763 14.126" style="enable-background:new 0 0 35.763 14.126;"
	 xml:space="preserve">
<path style="fill:#4FBA6F;" d="M28.397,9.159c0.082-0.924,1.438-1.558,3.027-1.416c1.588,0.143,2.809,1.007,2.727,1.931
	s-1.438,1.558-3.027,1.415C29.536,10.947,28.314,10.083,28.397,9.159z M18.913,0.134c-5.415,0.142-8.93,0.404-11.448,0.831
	C4.6,1.452,2.518,2.046,1.432,2.865c-0.744,0.561-1.583,2.42-1.409,3.82c0.184,1.47,1.29,2.116,1.931,2.711
	c1.182,1.098,3.99,2.423,8.266,2.851c4.275,0.427,7.695,0.712,13.181,0.997c5.578,0.29,8.123,0.57,9.548,0.855
	s2.233-1.77,2.613-4.608c0.382-2.851,0.239-5.178-0.616-6.746c-0.855-1.567-4.562-2.541-6.842-2.683
	C25.756-0.084,21.549,0.064,18.913,0.134z"/>
</svg>
