<?xml version="1.0" encoding="iso-8859-1"?>
<!-- Generator: Adobe Illustrator 16.0.0, SVG Export Plug-In . SVG Version: 6.00 Build 0)  -->
<!DOCTYPE svg PUBLIC "-//W3C//DTD SVG 1.1//EN" "http://www.w3.org/Graphics/SVG/1.1/DTD/svg11.dtd">
<svg version="1.1" id="Layer_1" xmlns="http://www.w3.org/2000/svg" xmlns:xlink="http://www.w3.org/1999/xlink" x="0px" y="0px"
	 width="71.194px" height="107.785px" viewBox="0 0 71.194 107.785" style="enable-background:new 0 0 71.194 107.785;"
	 xml:space="preserve">
<path style="fill:#4FBA6F;" d="M6.756,107.785c-0.054-9.863,2.69-17.115,6.1-25.932c3.698-9.564,9.093-20.279,16.321-31.2
	C40.227,33.957,53.038,18.89,71.18,0.552l0.014-0.047C70.934,0.283,70.671,0.119,70.413,0l-0.059,0.051
	c-5.7,3.562-15.351,10.303-24.186,18.105c-8.685,7.669-18.301,16.487-22.444,21.055C14.454,49.43,8.759,56.965,4.913,66.43
	c-3.705,9.121-5.272,16.754-4.845,21.803c0.444,5.254,2.046,12.426,6.341,19.238L6.756,107.785z"/>
</svg>
