<?xml version="1.0" encoding="iso-8859-1"?>
<!-- Generator: Adobe Illustrator 16.0.0, SVG Export Plug-In . SVG Version: 6.00 Build 0)  -->
<!DOCTYPE svg PUBLIC "-//W3C//DTD SVG 1.1//EN" "http://www.w3.org/Graphics/SVG/1.1/DTD/svg11.dtd">
<svg version="1.1" id="Layer_1" xmlns="http://www.w3.org/2000/svg" xmlns:xlink="http://www.w3.org/1999/xlink" x="0px" y="0px"
	 width="83.529px" height="108.072px" viewBox="0 0 83.529 108.072" style="enable-background:new 0 0 83.529 108.072;"
	 xml:space="preserve">
<path style="fill:#FFCD8A;" d="M32.444,34.279C20.909,45.2,10.634,57.194,6.252,67.164c-1.523,3.466-2.767,6.275-3.734,8.87
	c-1.41,3.784-2.232,7.112-2.475,11.354c-0.285,4.987,0.743,10.958,5.303,15.091s8.515,4.596,14.5,5.593l-0.32-0.321
	c-4.295-6.812-5.897-13.983-6.341-19.237c-0.428-5.05,1.14-12.683,4.845-21.804c3.846-9.465,9.541-17,18.811-27.218
	c4.144-4.568,13.76-13.386,22.444-21.055C68.12,10.634,77.771,3.894,83.471,0.331l0.059-0.051c-1.495-0.688-2.852,0.132-2.438-0.049
	l-0.062,0.025C72.27,4.29,67.297,6.993,61.943,10.532C53.126,16.363,42.323,24.928,32.444,34.279"/>
</svg>
