<?xml version="1.0" encoding="iso-8859-1"?>
<!-- Generator: Adobe Illustrator 16.0.0, SVG Export Plug-In . SVG Version: 6.00 Build 0)  -->
<!DOCTYPE svg PUBLIC "-//W3C//DTD SVG 1.1//EN" "http://www.w3.org/Graphics/SVG/1.1/DTD/svg11.dtd">
<svg version="1.1" id="Layer_1" xmlns="http://www.w3.org/2000/svg" xmlns:xlink="http://www.w3.org/1999/xlink" x="0px" y="0px"
	 width="11.773px" height="4.423px" viewBox="0 0 11.773 4.423" style="enable-background:new 0 0 11.773 4.423;"
	 xml:space="preserve">
<path style="fill:#4FBA6F;" d="M11.766,3.754c-1.449,0.79-3.869,0.914-6.4,0.188C2.791,3.203,0.782,1.779,0,0.315l0.008-0.017
	c1.574-0.39,3.387-0.383,5.178-0.067c2.269,0.4,4.552,1.598,6.587,3.52L11.766,3.754z M5.573,3.348
	c0.694,0.198,1.405-0.159,1.589-0.799c0.184-0.641-0.229-1.321-0.923-1.521C5.545,0.829,4.833,1.187,4.65,1.827
	C4.466,2.467,4.879,3.148,5.573,3.348z"/>
</svg>
