<?xml version="1.0" encoding="iso-8859-1"?>
<!-- Generator: Adobe Illustrator 16.0.0, SVG Export Plug-In . SVG Version: 6.00 Build 0)  -->
<!DOCTYPE svg PUBLIC "-//W3C//DTD SVG 1.1//EN" "http://www.w3.org/Graphics/SVG/1.1/DTD/svg11.dtd">
<svg version="1.1" id="Layer_1" xmlns="http://www.w3.org/2000/svg" xmlns:xlink="http://www.w3.org/1999/xlink" x="0px" y="0px"
	 width="53.333px" height="18.142px" viewBox="0 0 53.333 18.142" style="enable-background:new 0 0 53.333 18.142;"
	 xml:space="preserve">
<path style="fill:#FFCD8A;" d="M20.114,0.899c5.034,1.172,12.021,2.021,16.75,1.931c0.785-0.015,1.552-0.033,2.297-0.056h0.031
	c4.797,1.797,11.016,5.609,14.141,11.047l-0.01-0.031v4.344l-0.031,0.008H0l0.001-0.014c0.143-3.633,0.595-7.959,1.094-10.738
	C1.973,2.5,9.675,0.5,13.8,0c-3.247,0.524-5.664,2.509-5.679,4.87c-0.019,2.782,3.305,5.06,7.423,5.088
	c4.118,0.027,7.471-2.206,7.49-4.988c0.011-1.661-1.167-3.141-2.995-4.071L20.114,0.899z M21.295,15.218
	c4.925,0,8.917-0.273,8.917-0.524s-3.993-0.454-8.917-0.454c-4.925,0-9.167,1.866-8.918,2.235
	C12.752,17.03,16.37,15.218,21.295,15.218z M36.504,17.489c1.085-0.002,1.964-0.387,1.964-0.859
	c-0.002-0.473-0.882-0.855-1.967-0.854c-1.086,0.002-1.965,0.387-1.964,0.86S35.419,17.491,36.504,17.489z M17.253,16.599
	c-0.002,0.501,3.785,0.927,8.459,0.951c4.675,0.025,8.466-0.36,8.469-0.861c0.003-0.5-3.784-0.927-8.459-0.951
	C21.048,15.712,17.256,16.098,17.253,16.599z M11.115,13.522c0.363-1.103-1.49-1.547-2.459-2.095
	c-0.968-0.548-2.824-1.33-3.484-0.683c-0.616,0.604,1.136,2.103,2.105,2.65C8.245,13.944,10.845,14.341,11.115,13.522z
	 M11.875,16.052c-0.103-0.977-2.661-0.73-4.405-1.337c-1.724-0.601-4.511-2.97-4.991-2.303c-0.681,0.946,1.385,3.688,3.421,4.344
	C9.297,17.85,11.947,16.735,11.875,16.052z M14.313,14.979c1.133-0.386,1.994-0.868,1.922-1.079s-1.048-0.069-2.181,0.316
	c-1.133,0.385-1.993,0.867-1.921,1.078S13.18,15.363,14.313,14.979z"/>
</svg>
