<?xml version="1.0" encoding="iso-8859-1"?>
<!-- Generator: Adobe Illustrator 16.0.0, SVG Export Plug-In . SVG Version: 6.00 Build 0)  -->
<!DOCTYPE svg PUBLIC "-//W3C//DTD SVG 1.1//EN" "http://www.w3.org/Graphics/SVG/1.1/DTD/svg11.dtd">
<svg version="1.1" id="Layer_1" xmlns="http://www.w3.org/2000/svg" xmlns:xlink="http://www.w3.org/1999/xlink" x="0px" y="0px"
	 width="34.83px" height="4.472px" viewBox="0 0 34.83 4.472" style="enable-background:new 0 0 34.83 4.472;" xml:space="preserve"
	>
<path style="fill:#FFCD8A;" d="M0.272,2.232c1.75-0.562,3.433-0.653,5.059-0.545c1.875,0.125,3.75,0.312,5.062,1l0.047,0.021
	c1.561,0.146,3.335,0.358,5.453,0.666c0.399,0.059,0.788,0.113,1.169,0.168c3.066,0.434,5.627,0.734,9.144,0.865
	c0.285,0.012,0.577,0.021,0.875,0.029c3.113,0.088,5.703,0.021,7.749-0.393l-0.015,0.002c-1.854-0.356-5.734-1.172-8.547-1.422
	c-2.986-0.266-6.812-0.75-10.688-1.5C12.128,0.457,6.859,0,3.644,0C2.508,0,1.253,0.035,0.027,0.097L0,0.042v2.177L0.272,2.232z"/>
</svg>
