<?xml version="1.0" encoding="iso-8859-1"?>
<!-- Generator: Adobe Illustrator 16.0.0, SVG Export Plug-In . SVG Version: 6.00 Build 0)  -->
<!DOCTYPE svg PUBLIC "-//W3C//DTD SVG 1.1//EN" "http://www.w3.org/Graphics/SVG/1.1/DTD/svg11.dtd">
<svg version="1.1" id="Layer_1" xmlns="http://www.w3.org/2000/svg" xmlns:xlink="http://www.w3.org/1999/xlink" x="0px" y="0px"
	 width="9.187px" height="18.284px" viewBox="0 0 9.187 18.284" style="enable-background:new 0 0 9.187 18.284;"
	 xml:space="preserve">
<path style="fill:#4FBA6F;" d="M9.187,6.609c-0.323,2.214-0.942,5.023-1.299,6.947c-0.264,1.42-0.441,2.949-0.699,4.728l-0.02-0.003
	c0.084-0.795,0.138-1.48,0.138-1.48c0.031-0.768-0.06-1.646-0.246-2.566c-0.12-0.593-0.279-1.203-0.47-1.815
	c-0.305-0.974-0.688-1.948-1.123-2.854C5.177,8.958,4.863,8.382,4.535,7.858C4.451,7.724,4.367,7.593,4.281,7.466
	C3.595,6.446,2.416,5.183,1.146,4.013l0.017,0C0.384,3.363,0.076,1.828,0,0.047L0.015,0c2.139,2.715,5.448,5.336,9.121,6.579
	L9.187,6.609z"/>
</svg>
