<?xml version="1.0" encoding="iso-8859-1"?>
<!-- Generator: Adobe Illustrator 16.0.0, SVG Export Plug-In . SVG Version: 6.00 Build 0)  -->
<!DOCTYPE svg PUBLIC "-//W3C//DTD SVG 1.1//EN" "http://www.w3.org/Graphics/SVG/1.1/DTD/svg11.dtd">
<svg version="1.1" id="Layer_1" xmlns="http://www.w3.org/2000/svg" xmlns:xlink="http://www.w3.org/1999/xlink" x="0px" y="0px"
	 width="23.844px" height="15.859px" viewBox="0 0 23.844 15.859" style="enable-background:new 0 0 23.844 15.859;"
	 xml:space="preserve">
<path style="fill:#4FBA6F;" d="M0.018,15.859L0.014,13.25L0,3.125l0.013-0.022c0,0,0.205-0.125,0.535-0.318l0.061-0.019
	C8.046,1.14,13.482,0.66,20.344,0.203c1.059-0.07,2.117-0.139,3.219-0.203l0.016,0.015l0.266,2.562v0.005
	c-5.268,0.299-10.43,0.764-13.5,0.995C7.031,3.828,3.683,4.866,2.51,6.336L2.497,6.34C2.241,6.629,2.019,6.967,1.861,7.336
	L1.843,7.343c-0.765,2.036-1.281,4.469-1.797,8.454L0.018,15.859z"/>
</svg>
