<?xml version="1.0" encoding="iso-8859-1"?>
<!-- Generator: Adobe Illustrator 16.0.0, SVG Export Plug-In . SVG Version: 6.00 Build 0)  -->
<!DOCTYPE svg PUBLIC "-//W3C//DTD SVG 1.1//EN" "http://www.w3.org/Graphics/SVG/1.1/DTD/svg11.dtd">
<svg version="1.1" id="Layer_1" xmlns="http://www.w3.org/2000/svg" xmlns:xlink="http://www.w3.org/1999/xlink" x="0px" y="0px"
	 width="66.232px" height="21.255px" viewBox="0 0 66.232 21.255" style="enable-background:new 0 0 66.232 21.255;"
	 xml:space="preserve">
<path style="fill:#FFCD8A;" d="M16.297,0.02C12.331,1.63,3.694,5.622,0.016,7.316L0,7.348C0.544,7.093,1.5,7.16,2.316,7.463
	c0.259,0.119,0.522,0.283,0.781,0.505C3.379,8.211,3.656,8.522,3.917,8.92l3.672,7.926l-0.02-0.059
	c6.271,5.771,17.109,5.063,26.579,2.812c7.222-1.717,16.245-4.132,23.229-5.843c1.946-0.477,3.479-0.952,5.063-1.335
	c1.319-0.319,2.398-0.267,3.065,0.032c0.257,0.116,0.505,0.343,0.728,0.651l-0.01-0.011l-1.305-2.887l-0.054-0.069
	c-3.554,0.745-7.293,1.54-10.918,2.33c-1.737,0.379-3.572,0.796-5.451,1.236c-3.903,0.914-7.996,1.927-11.792,2.896
	c-1.801,0.46-3.823,0.853-5.741,1.081l-0.038,0.004c-1.403,0.166-2.75,0.244-3.912,0.197c-2.839-0.115-5.415-1.282-6.555-3.562
	c-0.482-0.963-1.001-1.948-1.499-2.9l-0.16-0.308c-0.241-0.462-0.475-0.916-0.693-1.353c-0.712-1.425-1.496-3.135-1.923-4.132
	c-0.253-0.591-0.579-1.365-0.808-2.123c-0.196-0.653-0.319-1.295-0.261-1.796C15.202,0.953,15.708,0.377,16.336,0"/>
</svg>
