<?xml version="1.0" encoding="iso-8859-1"?>
<!-- Generator: Adobe Illustrator 16.0.0, SVG Export Plug-In . SVG Version: 6.00 Build 0)  -->
<!DOCTYPE svg PUBLIC "-//W3C//DTD SVG 1.1//EN" "http://www.w3.org/Graphics/SVG/1.1/DTD/svg11.dtd">
<svg version="1.1" id="Layer_1" xmlns="http://www.w3.org/2000/svg" xmlns:xlink="http://www.w3.org/1999/xlink" x="0px" y="0px"
	 width="10.197px" height="2.68px" viewBox="0 0 10.197 2.68" style="enable-background:new 0 0 10.197 2.68;" xml:space="preserve"
	>
<path style="fill:#4FBA6F;" d="M0,1.288c1.479,0.075,3.599,0.15,5.502,0.27c1.186,0.075,2.26,0.163,3.062,0.431
	c0.429,0.143,1.144,0.365,1.607,0.686l0.025,0.006C9.543,2.182,8.812,1.718,8.169,1.392C7.665,1.136,7.201,0.926,6.744,0.79
	C6.325,0.665,5.478,0.496,4.896,0.439c-1.223-0.121-2.801-0.229-4.415-0.4C0.357,0.026,0.233,0.013,0.109,0l0.013,0.029
	c0,0.427-0.056,0.902-0.091,1.223L0,1.288z"/>
</svg>
