<?xml version="1.0" encoding="iso-8859-1"?>
<!-- Generator: Adobe Illustrator 16.0.0, SVG Export Plug-In . SVG Version: 6.00 Build 0)  -->
<!DOCTYPE svg PUBLIC "-//W3C//DTD SVG 1.1//EN" "http://www.w3.org/Graphics/SVG/1.1/DTD/svg11.dtd">
<svg version="1.1" id="Layer_1" xmlns="http://www.w3.org/2000/svg" xmlns:xlink="http://www.w3.org/1999/xlink" x="0px" y="0px"
	 width="31.107px" height="12.754px" viewBox="0 0 31.107 12.754" style="enable-background:new 0 0 31.107 12.754;"
	 xml:space="preserve">
<path style="fill:#FFCD8A;" d="M10.188,3.315c2.046,0.177,3.924,0.338,5.718,0.521c0.124,0.013,0.248,0.026,0.371,0.039
	c1.614,0.17,3.192,0.279,4.415,0.4c0.582,0.057,1.43,0.226,1.849,0.351c0.457,0.137,0.921,0.347,1.425,0.603
	c0.643,0.326,1.374,0.79,2.028,1.288c0.275,0.21,0.537,0.427,0.773,0.642c1.349,1.229,2.427,2.76,3.361,4.146
	c0.344,0.51,0.667,1,0.979,1.449V9.51h-0.029c-0.75-0.996-2.372-3.877-2.976-5.52c-0.018-0.049-0.036-0.098-0.057-0.146
	c-0.669-1.597-2.528-2.755-4.076-3.309c-0.56-0.201-1.38-0.337-2.278-0.421C20.854,0.035,19.947,0,19.125,0
	c-0.092,0-0.187,0.001-0.284,0.003c-0.953,0.019-2.19,0.126-3.311,0.27c-0.208,0.027-0.412,0.055-0.609,0.083
	C13.586,0.551,11.9,0.922,9.577,1.567C8.038,1.995,5.559,2.314,2.781,2.412C1.878,2.443,0.943,2.452,0,2.432L0.002,2.45
	c2.964,0.235,5.602,0.457,8.15,0.685C8.851,3.198,9.528,3.257,10.188,3.315z"/>
</svg>
