<?xml version="1.0" encoding="iso-8859-1"?>
<!-- Generator: Adobe Illustrator 16.0.0, SVG Export Plug-In . SVG Version: 6.00 Build 0)  -->
<!DOCTYPE svg PUBLIC "-//W3C//DTD SVG 1.1//EN" "http://www.w3.org/Graphics/SVG/1.1/DTD/svg11.dtd">
<svg version="1.1" id="Layer_1" xmlns="http://www.w3.org/2000/svg" xmlns:xlink="http://www.w3.org/1999/xlink" x="0px" y="0px"
	 width="264.3px" height="32.5px" viewBox="0 0 264.3 32.5" style="enable-background:new 0 0 264.3 32.5;" xml:space="preserve">
<path style="fill:#FFCD8A;" d="M0,13.251c4.872-0.379,11.646,0.457,17.949,0.99c10.118,0.855,20.378,1.853,28.358,2.28
	c7.98,0.427,24.653,1.568,39.474,2.137c14.82,0.57,37.621,1.426,54.722,1.711s33.346,0.57,47.881,1.141
	c14.536,0.57,33.347,1.424,41.896,1.994c8.551,0.57,17.101,2.566,23.941,4.846c6.84,2.279,10.078,4.15,10.078,4.15v-0.016
	c0,0-2.383-2.852-4.663-4.99c-1.093-1.023-2.605-2.615-4.85-4.127c-2.441-1.648-5.562-3.447-8.118-4.566
	c-4.561-1.995-11.259-3.419-18.668-4.56c-7.41-1.14-19.238-2.137-31.778-2.992c-12.541-0.855-25.081-1.425-41.042-2.138
	c-15.961-0.713-32.918-1.283-45.887-1.71c-12.967-0.427-27.218-1.14-40.043-1.71c-12.826-0.57-25.509-1.567-36.909-2.565
	S12.315,1.322,8.899,0.988c-2.497-0.244-5.412-0.587-7.48-0.855c-0.286-0.037-0.566-0.074-0.84-0.111L0.582,0L0.009,13.229L0,13.251
	z"/>
</svg>
