<?xml version="1.0" encoding="iso-8859-1"?>
<!-- Generator: Adobe Illustrator 16.0.0, SVG Export Plug-In . SVG Version: 6.00 Build 0)  -->
<!DOCTYPE svg PUBLIC "-//W3C//DTD SVG 1.1//EN" "http://www.w3.org/Graphics/SVG/1.1/DTD/svg11.dtd">
<svg version="1.1" id="Layer_1" xmlns="http://www.w3.org/2000/svg" xmlns:xlink="http://www.w3.org/1999/xlink" x="0px" y="0px"
	 width="113.323px" height="76.842px" viewBox="0 0 113.323 76.842" style="enable-background:new 0 0 113.323 76.842;"
	 xml:space="preserve">
<path style="fill:#FFCD8A;" d="M112.351,8.03c-1.463-0.302-2.592-0.539-3.679-0.702c-1.938-0.291-5.804-1.114-9.599-1.662
	c-3.648-0.527-8.774-0.831-15.006-0.93c-9.619-0.154-18.669,1.284-26.699,4.577c-9.299,3.812-17.453,8.473-24.132,13.941
	c-5.38,4.404-11.881,11.203-15.11,15.799c-3.11,4.426-5.622,9.041-7.148,12.372c-1.833,4-4.438,10.123-5.938,13.956
	c-1.5,3.834-3.502,8.138-5.002,11.305L0,76.842c0.487-4.067,1.24-8.421,2.391-12.652c5.146-18.922,11.727-30.558,26.611-42.232
	c9.75-7.647,18.945-12.906,28.195-16.489c8.068-3.125,16.161-4.823,29.594-5.403c5.047-0.218,10.155,0.132,14.478,0.682
	c3.576,0.455,7.947,1.347,11.991,2.434l0.063,0.021c-0.184,1.543-0.445,2.884-0.766,4.019c-0.078,0.28-0.152,0.549-0.22,0.808
	L112.351,8.03z"/>
</svg>
