<?xml version="1.0" encoding="iso-8859-1"?>
<!-- Generator: Adobe Illustrator 16.0.0, SVG Export Plug-In . SVG Version: 6.00 Build 0)  -->
<!DOCTYPE svg PUBLIC "-//W3C//DTD SVG 1.1//EN" "http://www.w3.org/Graphics/SVG/1.1/DTD/svg11.dtd">
<svg version="1.1" id="Layer_1" xmlns="http://www.w3.org/2000/svg" xmlns:xlink="http://www.w3.org/1999/xlink" x="0px" y="0px"
	 width="27.156px" height="39.355px" viewBox="0 0 27.156 39.355" style="enable-background:new 0 0 27.156 39.355;"
	 xml:space="preserve">
<path style="fill:#4FBA6F;" d="M15.527,39.355c-2.507-1.405-6.055-4.941-8.276-8.459C4.8,27.016,3.118,21.49,2.548,16.788
	c-0.57-4.703-0.57-7.98-0.428-9.263c0.143-1.283,1.995,0,2.708,2.138c0.713,2.137,2.851,6.982,5.13,8.692
	c2.28,1.71,5.843,3.42,7.695,3.562s4.702-0.117,7.124-0.688l0.066,0.01c0.699-0.265,1.469-0.506,2.312-0.716l-0.066-0.022
	c-3.166,0.208-6.708,0.083-9.291-0.458c-2.584-0.542-4.376-1.208-6.667-3.25s-3.625-3.875-4.708-7.167S4.756,4.001,4.131,2.418
	S2.923-0.04,2.298,0.001s-1.042,1.292-1.25,1.833s-0.5,1.958-0.667,3.042S0.048,8.585,0.006,10.96s0.125,5.708,0.542,8.458
	S1.881,25.71,3.09,28.46s2.417,4.917,3.667,6.417s2.208,2.417,3,3.209l0.117,0.08c1.778,0.859,3.642,1.161,5.548,1.126
	L15.527,39.355z"/>
</svg>
