<?xml version="1.0" encoding="utf-8"?>
<!-- Generator: Adobe Illustrator 16.0.0, SVG Export Plug-In . SVG Version: 6.00 Build 0)  -->
<!DOCTYPE svg PUBLIC "-//W3C//DTD SVG 1.1//EN" "http://www.w3.org/Graphics/SVG/1.1/DTD/svg11.dtd">
<svg version="1.1" id="Layer_1" xmlns="http://www.w3.org/2000/svg" xmlns:xlink="http://www.w3.org/1999/xlink" x="0px" y="0px"
	 width="20.971px" height="31.768px" viewBox="0 0 20.971 31.768" enable-background="new 0 0 20.971 31.768" xml:space="preserve">
<path fill="#FFCD8A" d="M0.079,0c-0.142,1.282-0.142,4.56,0.428,9.263c0.57,4.703,2.252,10.228,4.703,14.108
	c2.221,3.518,5.691,6.991,8.198,8.396v-0.002c1.025-0.021,2.063-0.139,3.107-0.32c3.265-0.564,4.25-2.279,4.25-2.279
	c0.111-0.18,0.203-0.328,0.203-0.328l0.002-0.008c-0.871-0.473-1.6-0.975-2.207-1.494l0.02-0.006
	c-3.344,2.016-6.833,1.408-8.828-1.727c-1.485-2.334-2.842-4.028-3.848-7.268c-0.678-2.185-0.811-3.647-0.365-4.296L0.079,0z"/>
</svg>
