<?xml version="1.0" encoding="iso-8859-1"?>
<!-- Generator: Adobe Illustrator 16.0.0, SVG Export Plug-In . SVG Version: 6.00 Build 0)  -->
<!DOCTYPE svg PUBLIC "-//W3C//DTD SVG 1.1//EN" "http://www.w3.org/Graphics/SVG/1.1/DTD/svg11.dtd">
<svg version="1.1" id="Layer_1" xmlns="http://www.w3.org/2000/svg" xmlns:xlink="http://www.w3.org/1999/xlink" x="0px" y="0px"
	 width="22.797px" height="32.279px" viewBox="0 0 22.797 32.279" style="enable-background:new 0 0 22.797 32.279;"
	 xml:space="preserve">
<path style="fill:#4FBA6F;" d="M13.408,32.277c1.025-0.021,2.063-0.139,3.107-0.32c3.265-0.564,4.25-2.279,4.25-2.279
	c0.111-0.18,0.203-0.328,0.203-0.328l0.002-0.008c-0.871-0.473-1.6-0.975-2.207-1.494l0.02-0.006
	c-3.344,2.016-6.833,1.408-8.828-1.727c-1.485-2.334-2.842-4.028-3.848-7.268c-1.551-4.994-0.245-6.215,4.275-2.565
	c1.882,1.521,5.356,1.594,9.042-0.222l-0.006-0.02c0.886-0.668,1.997-1.287,3.379-1.812l-0.061-0.013
	c-2.422,0.57-5.271,0.831-7.124,0.688s-5.415-1.853-7.695-3.563c-2.28-1.71-4.417-6.555-5.13-8.692
	c-0.712-2.138-2.564-3.42-2.708-2.138c-0.142,1.282-0.142,4.56,0.428,9.263c0.57,4.703,2.252,10.228,4.703,14.108
	c2.221,3.518,5.691,6.991,8.198,8.396V32.277z"/>
</svg>
