<?xml version="1.0" encoding="iso-8859-1"?>
<!-- Generator: Adobe Illustrator 16.0.0, SVG Export Plug-In . SVG Version: 6.00 Build 0)  -->
<!DOCTYPE svg PUBLIC "-//W3C//DTD SVG 1.1//EN" "http://www.w3.org/Graphics/SVG/1.1/DTD/svg11.dtd">
<svg version="1.1" id="Layer_1" xmlns="http://www.w3.org/2000/svg" xmlns:xlink="http://www.w3.org/1999/xlink" x="0px" y="0px"
	 width="53.459px" height="43.233px" viewBox="0 0 53.459 43.233" style="enable-background:new 0 0 53.459 43.233;"
	 xml:space="preserve">
<path style="fill:#4FBA6F;" d="M0,43.141V0l0.031,0.016C0.156,0.196,0.277,0.45,0.369,0.711c0.322,0.91,0.482,2.284,0.755,3.98
	c0.356,2.208,0.784,4.453,1.211,7.731c0.357,2.739,0.998,4.965,1.639,6.127c0.027,0.05,0.057,0.103,0.089,0.159
	c0.325,0.562,0.896,1.418,1.554,1.837l0.039,0.033c1.192,0.928,3.659,1.672,5.047,1.609l0.04-0.004
	c5.702-0.556,9.878-1.416,20.235-2.422c10.261-0.998,22.475-2.245,22.475-2.245l0.006-0.031v3.203l-0.037,0.032
	c-1.471,0.06-3.105,0.104-4.736,0.164c-1.924,0.071-4.917,0.071-4.917,1.069s6.626,0.285,7.838,0.214
	c0.521-0.031,1.174-0.089,1.815-0.134l0.037,0.016v3.562l-0.021-0.016c0,0-1.777,0.064-3.791,0.152
	c-2.043,0.09-5.717,0.273-10.83,0.713c-4.49,0.385-12.448,1.23-18.877,1.916c-0.711,0.076-1.404,0.15-2.071,0.221
	C11.15,29.311,1.293,32.07,0.117,41.732c-0.059,0.482-0.096,0.982-0.11,1.501L0,43.141z M53.174,24.499
	c0-0.428-2.216-0.856-9.084-0.606c-5.742,0.211-9.029,0.818-8.979,1.64c0.037,0.604,1.211,0.623,3.492,0.445
	c1.713-0.134,4.56-0.428,6.84-0.534c2.279-0.107,4.916-0.25,5.878-0.285S53.174,24.926,53.174,24.499z"/>
</svg>
