<?xml version="1.0" encoding="iso-8859-1"?>
<!-- Generator: Adobe Illustrator 16.0.0, SVG Export Plug-In . SVG Version: 6.00 Build 0)  -->
<!DOCTYPE svg PUBLIC "-//W3C//DTD SVG 1.1//EN" "http://www.w3.org/Graphics/SVG/1.1/DTD/svg11.dtd">
<svg version="1.1" id="Layer_1" xmlns="http://www.w3.org/2000/svg" xmlns:xlink="http://www.w3.org/1999/xlink" x="0px" y="0px"
	 width="30.532px" height="56.692px" viewBox="0 0 30.532 56.692" style="enable-background:new 0 0 30.532 56.692;"
	 xml:space="preserve">
<path style="fill:#4FBA6F;" d="M25.49,56.662c2.404-1.37,3.113-2.935,4.175-8.646c0.711-3.826,0.833-7.944,0.866-12.111
	c0.043-5.432-1.568-11.97-4.275-16.53c-2.637-4.44-6.633-8.756-11.258-11.685c-4.241-2.686-9.63-5.314-14.829-7.625L0,0
	c1.053,2.07,1.716,3.641,2.236,5.099L2.233,5.052c4.62,1.614,8.782,3.299,12.353,5.734c3.113,2.124,5.828,4.717,7.965,8.161
	c2.855,4.605,4.248,11.329,4.674,16.25c0.209,2.415,0.116,5.351-0.042,7.552c-0.1,1.385-0.261,3.344-0.429,4.913
	c-0.191,1.81-0.407,3.302-0.691,5.212c-0.197,1.32-0.442,2.58-0.623,3.818L25.49,56.662z"/>
</svg>
