<?xml version="1.0" encoding="iso-8859-1"?>
<!-- Generator: Adobe Illustrator 16.0.0, SVG Export Plug-In . SVG Version: 6.00 Build 0)  -->
<!DOCTYPE svg PUBLIC "-//W3C//DTD SVG 1.1//EN" "http://www.w3.org/Graphics/SVG/1.1/DTD/svg11.dtd">
<svg version="1.1" id="Layer_1" xmlns="http://www.w3.org/2000/svg" xmlns:xlink="http://www.w3.org/1999/xlink" x="0px" y="0px"
	 width="40.887px" height="10.629px" viewBox="0 0 40.887 10.629" style="enable-background:new 0 0 40.887 10.629;"
	 xml:space="preserve">
<path style="fill:#4FBA6F;" d="M0.013,8.203V0l0.002,0.011c4.376,0.056,6.364,0.092,8.142,0.177
	c2.625,0.125,4.476,0.141,6.875,0.312c2.625,0.188,4.562,0.312,6.625,0.5s3.938,0.312,4.5,0.938c0.594,0.66,2,1.188,4.812,1.375
	s5.062,0.312,7.938,0.438c0.733,0.032,1.386,0.072,1.969,0.119v-0.01c0.019,2.135,0.017,4.361-0.014,6.748l-0.035,0.021
	c-1.932-0.126-3.823-0.309-5.551-0.475C28.412,9.497,18.623,8.578,9.34,8.303C6.898,8.23,3.526,8.183,0,8.203H0.013z M30.171,5.006
	c1.388,0.092,2.533-0.126,2.557-0.487c0.024-0.361-1.082-0.728-2.47-0.819c-1.389-0.092-2.533,0.126-2.558,0.487
	S28.783,4.915,30.171,5.006z"/>
</svg>
