<?xml version="1.0" encoding="iso-8859-1"?>
<!-- Generator: Adobe Illustrator 16.0.0, SVG Export Plug-In . SVG Version: 6.00 Build 0)  -->
<!DOCTYPE svg PUBLIC "-//W3C//DTD SVG 1.1//EN" "http://www.w3.org/Graphics/SVG/1.1/DTD/svg11.dtd">
<svg version="1.1" id="Layer_1" xmlns="http://www.w3.org/2000/svg" xmlns:xlink="http://www.w3.org/1999/xlink" x="0px" y="0px"
	 width="20.325px" height="11.599px" viewBox="0 0 20.325 11.599" style="enable-background:new 0 0 20.325 11.599;"
	 xml:space="preserve">
<path style="fill:#FFCD8A;" d="M14.919,10.937c-1.363,0.104-2.711,0.211-4.016,0.315c-1.461,0.118-2.885,0.235-4.219,0.347
	l-0.016-0.014c0,0-0.219-0.765-0.61-0.906c-0.392-0.143-0.926-0.071-1.567-0.036c-0.857,0.048-2.861,0.288-4.463,0.396l-0.025-0.03
	L0.002,9.804L0,8.522l0.028-0.062c0.516-3.984,1.033-6.419,1.797-8.454L1.843,0c-0.23,0.537-0.327,1.139-0.201,1.754
	c0.204,0.998,1.063,1.887,2.025,2.748c1.313,1.174,2.589,1.994,3.96,2.667c1.575,0.774,3.443,1.604,5.286,2.014
	c2.008,0.446,4.947,1.137,7.33,1.354l0.082,0.01C18.544,10.667,16.719,10.8,14.919,10.937"/>
</svg>
