<?xml version="1.0" encoding="iso-8859-1"?>
<!-- Generator: Adobe Illustrator 16.0.0, SVG Export Plug-In . SVG Version: 6.00 Build 0)  -->
<!DOCTYPE svg PUBLIC "-//W3C//DTD SVG 1.1//EN" "http://www.w3.org/Graphics/SVG/1.1/DTD/svg11.dtd">
<svg version="1.1" id="Layer_1" xmlns="http://www.w3.org/2000/svg" xmlns:xlink="http://www.w3.org/1999/xlink" x="0px" y="0px"
	 width="14.916px" height="9.445px" viewBox="0 0 14.916 9.445" style="enable-background:new 0 0 14.916 9.445;"
	 xml:space="preserve">
<path style="fill:#4FBA6F;" d="M11.365,2.911c-0.804,0.881-1.728,2-2.388,2.816C8.146,6.754,6.535,7.805,5.201,8.293
	C3.69,8.846,1.503,9.361,0.025,9.445L0,9.367V5.805l0.01,0c0.792-0.054,1.86-0.13,3.054-0.167c1.709-0.052,6.122-0.631,7.232-2.031
	C10.991,2.73,8.142,3.67,6.662,3.892C5.237,4.106,2.351,4.355,0.641,4.426C0.476,4.433,0.193,4.454,0.025,4.46L0,4.444V1.242h0.01
	c1.517-0.14,3.899-0.348,6.672-0.58C8.016,0.55,9.439,0.433,10.9,0.315C12.205,0.21,13.553,0.104,14.916,0l-0.047,0.023
	c-1.176,0.107-2.293,1.643-2.863,2.212C11.808,2.434,11.591,2.663,11.365,2.911 M11.701,1.645c0.512-0.129,0.879-0.43,0.817-0.673
	c-0.061-0.243-0.526-0.335-1.038-0.207c-0.514,0.128-0.88,0.43-0.818,0.672C10.723,1.681,11.188,1.773,11.701,1.645z M1.104,3.956
	c0.635,0,0.806-0.316,0.806-0.705c0-0.39-0.361-0.706-0.806-0.706S0.298,2.861,0.298,3.251C0.298,3.64,0.659,3.956,1.104,3.956z
	 M3.389,7.322c0.933-0.068,1.934-0.285,2.708-0.605c0.826-0.342,1.393-0.79,1.335-0.971C7.345,5.474,6.545,5.635,5.486,5.782
	C4.757,5.883,3.85,5.95,3.194,5.999c-1.928,0.14-2.784,0.337-2.76,1.078C0.443,7.354,1.779,7.441,3.389,7.322z M9.548,4.569
	C9.405,4.462,8.292,5.68,7.84,6.032C7.231,6.506,6.282,7.008,5.522,7.24C4.508,7.551,2.849,7.705,1.995,7.668
	C1.157,7.633,0.214,7.877,0.214,8.346c0,0.428,0.641,0.748,1.674,0.57C2.916,8.738,4.703,8.311,5.7,7.848
	c0.998-0.465,1.817-1.07,2.458-1.641C8.8,5.638,9.69,4.676,9.548,4.569z M1.453,2.253C1.49,2.669,3.339,2.847,5.584,2.651
	C7.83,2.456,10.44,2.957,10.796,2.47c0.246-0.337-3.097-1.521-5.343-1.324C3.208,1.342,1.417,1.837,1.453,2.253z"/>
</svg>
