<?xml version="1.0" encoding="iso-8859-1"?>
<!-- Generator: Adobe Illustrator 16.0.0, SVG Export Plug-In . SVG Version: 6.00 Build 0)  -->
<!DOCTYPE svg PUBLIC "-//W3C//DTD SVG 1.1//EN" "http://www.w3.org/Graphics/SVG/1.1/DTD/svg11.dtd">
<svg version="1.1" id="Layer_1" xmlns="http://www.w3.org/2000/svg" xmlns:xlink="http://www.w3.org/1999/xlink" x="0px" y="0px"
	 width="17.687px" height="7.122px" viewBox="0 0 17.687 7.122" style="enable-background:new 0 0 17.687 7.122;"
	 xml:space="preserve">
<path style="fill:#FFCD8A;" d="M16.688,1.587c0.328-0.578,0.719-1.257,0.969-1.578L17.687,0c-1.025,0.311-1.965,0.607-2.767,0.874
	c-2.223,0.741-5.158,1.621-6.982,2.423C6.224,4.049,4.225,4.915,2.95,5.506C2.079,5.91,0.869,6.797,0.017,6.918L0,6.916
	C0.532,7.004,1.448,7.15,2.015,7.117C2.359,7.096,3.186,6.93,3.562,6.822L3.527,6.828C6.071,5.721,9.655,4.261,11.5,3.51
	c1.4-0.57,3.233-1.252,5.155-1.901L16.688,1.587z"/>
</svg>
