<?xml version="1.0" encoding="iso-8859-1"?>
<!-- Generator: Adobe Illustrator 16.0.0, SVG Export Plug-In . SVG Version: 6.00 Build 0)  -->
<!DOCTYPE svg PUBLIC "-//W3C//DTD SVG 1.1//EN" "http://www.w3.org/Graphics/SVG/1.1/DTD/svg11.dtd">
<svg version="1.1" id="Layer_1" xmlns="http://www.w3.org/2000/svg" xmlns:xlink="http://www.w3.org/1999/xlink" x="0px" y="0px"
	 width="77.592px" height="33.922px" viewBox="0 0 77.592 33.922" style="enable-background:new 0 0 77.592 33.922;"
	 xml:space="preserve">
<path style="fill:#4FBA6F;" d="M2.608,33.922c0.447-0.133,0.869-0.252,1.257-0.359c2.25-0.625,5.25-2,9.25-3.5s9-2.75,13.375-3.875
	s8.5-2,12.125-2.875c3.625-0.875,6.503-1.295,8.378-1.42c4.004-0.904,7.605-1.662,10.004-2.338c2.488-0.699,4.762-1.4,6.473-2.018
	c1.863-0.672,3.623-1.41,4.523-1.835c1.205-0.569,2.404-1.402,3.33-2.18c1.125-0.946,2.139-2.185,2.82-3.312
	c0.783-1.294,1.59-2.822,2.215-4.66c0.535-1.572,0.969-3.49,1.201-5.305c0.01-0.08,0.02-0.162,0.031-0.246l-0.008,0.015
	c-0.283,2.411-1.002,4.443-1.879,6.346c-1.559,3.374-3.797,6.107-5.879,7.464c-2.246,1.464-6.129,3.06-10.207,4.257
	c-4.045,1.188-10.67,2.248-18.258,3.936c-9.494,2.111-18.407,4.273-24.938,5.648c-5.415,1.139-12.823,1.6-16.401,1.037L0,28.717
	l2.664,5.168L2.608,33.922z"/>
</svg>
