<?xml version="1.0" encoding="iso-8859-1"?>
<!-- Generator: Adobe Illustrator 16.0.0, SVG Export Plug-In . SVG Version: 6.00 Build 0)  -->
<!DOCTYPE svg PUBLIC "-//W3C//DTD SVG 1.1//EN" "http://www.w3.org/Graphics/SVG/1.1/DTD/svg11.dtd">
<svg version="1.1" id="Layer_1" xmlns="http://www.w3.org/2000/svg" xmlns:xlink="http://www.w3.org/1999/xlink" x="0px" y="0px"
	 width="30.354px" height="4.707px" viewBox="0 0 30.354 4.707" style="enable-background:new 0 0 30.354 4.707;"
	 xml:space="preserve">
<path style="fill:#4FBA6F;" d="M29.266,2.627c-1.248-0.828-3.645-1.885-5.568-2.242c-1.924-0.356-4.988-0.499-8.123-0.285
	c-1.647,0.112-5.45,0.551-8.056,0.969C5.165,1.446,2.688,1.864,0,2.596l0.059-0.007c2.155-0.208,4.233-0.305,5.754-0.422
	c2.083-0.161,5.06-0.261,7.909-0.143c3.42,0.142,6.902,0.352,9.477,0.784c2.255,0.378,5.155,1.133,7.114,1.881l0.041,0.018
	c-0.132-0.604-0.604-1.413-1.062-2.027L29.266,2.627z"/>
</svg>
