<?xml version="1.0" encoding="iso-8859-1"?>
<!-- Generator: Adobe Illustrator 16.0.0, SVG Export Plug-In . SVG Version: 6.00 Build 0)  -->
<!DOCTYPE svg PUBLIC "-//W3C//DTD SVG 1.1//EN" "http://www.w3.org/Graphics/SVG/1.1/DTD/svg11.dtd">
<svg version="1.1" id="Layer_1" xmlns="http://www.w3.org/2000/svg" xmlns:xlink="http://www.w3.org/1999/xlink" x="0px" y="0px"
	 width="50.83px" height="10.49px" viewBox="0 0 50.83 10.49" style="enable-background:new 0 0 50.83 10.49;" xml:space="preserve"
	>
<path style="fill:#4FBA6F;" d="M6.638,5.858C6.443,5.714,6.255,5.568,6.075,5.42C5.291,4.779,3.991,3.98,2.939,3.692
	c-1.167-0.319-2.26-0.02-2.779,0.499C0.106,4.246,0.052,4.303,0,4.362l0.014-0.004C1.186,2.888,4.534,1.85,7.847,1.6
	c3.07-0.231,8.232-0.696,13.5-0.995c0.417-0.023,0.834-0.046,1.25-0.067c2.128-0.109,4.78-0.266,7.421-0.382
	c3.408-0.149,6.798-0.231,9.017-0.056c3.938,0.312,6.438,0.75,7.812,1.062s3.375,1,3.875,1.125c0.029,0.007,0.065,0.019,0.108,0.033
	L50.828,2.35v8.141L50.8,10.475c-3.078-1.406-6.016-1.625-12.203-1.812c-4.812-0.146-8.438-0.312-14.25-0.438
	C18.723,8.104,13.659,7.537,6.659,5.85L6.638,5.858z"/>
</svg>
