<?xml version="1.0" encoding="iso-8859-1"?>
<!-- Generator: Adobe Illustrator 16.0.0, SVG Export Plug-In . SVG Version: 6.00 Build 0)  -->
<!DOCTYPE svg PUBLIC "-//W3C//DTD SVG 1.1//EN" "http://www.w3.org/Graphics/SVG/1.1/DTD/svg11.dtd">
<svg version="1.1" id="Layer_1" xmlns="http://www.w3.org/2000/svg" xmlns:xlink="http://www.w3.org/1999/xlink" x="0px" y="0px"
	 width="40.322px" height="17.566px" viewBox="0 0 40.322 17.566" style="enable-background:new 0 0 40.322 17.566;"
	 xml:space="preserve">
<path style="fill:#4FBA6F;" d="M3.364,13.426c1.238,0.594,2.891,0.957,4.705,0.957c3.84,0,6.953-1.625,6.953-3.628
	s-3.113-3.627-6.953-3.627c-1.893,0-3.608,0.394-4.862,1.034l0.011,0.006c-0.167-6,3.411-6.549,11.501-7.49
	c7.167-0.833,16.509-0.76,25.593-0.51l0.011-0.002c-0.024,0.483-0.05,0.974-0.077,1.471l-0.014,0.005
	c-3.764,0.115-6.485,0.456-6.486,0.86c0,0.4,2.678,0.741,6.395,0.863l0.01,0.021c-0.013,0.223-0.025,0.447-0.038,0.672l-0.003-0.001
	c-5.94,0.039-10.621,0.474-10.621,1.005c0,0.527,4.623,0.96,10.511,1.003l-0.007,0.009c-0.018,0.285-0.035,0.571-0.053,0.86
	l-0.018,0.013c-5.328,0.006-9.633,0.59-9.633,1.311c0,0.711,4.211,1.291,9.459,1.31l0.023,0.022
	c-0.026,0.408-0.054,0.819-0.082,1.234l-0.002-0.016c-5.696,0.02-10.152,0.695-10.162,1.583c-0.011,0.878,4.327,1.755,9.928,1.843
	l0.004-0.02c-0.075,1.072-0.154,2.171-0.237,3.297l0.001,0.055H0l0.012-0.012v-1.777H0.03c2.083,0,3.355-0.6,3.355-2.35
	L3.364,13.426z M4.22,4.845c0,0.611,1.398,1.108,3.123,1.108c1.726,0,3.125-0.497,3.125-1.108c0-0.612-1.399-1.109-3.125-1.109
	C5.618,3.736,4.22,4.233,4.22,4.845z M19.64,1.92c0,0.556,1.354,1.007,3.022,1.007c1.67,0,3.023-0.451,3.023-1.007
	c0-0.557-1.354-1.008-3.023-1.008C20.993,0.913,19.64,1.363,19.64,1.92z"/>
</svg>
