<?xml version="1.0" encoding="iso-8859-1"?>
<!-- Generator: Adobe Illustrator 16.0.0, SVG Export Plug-In . SVG Version: 6.00 Build 0)  -->
<!DOCTYPE svg PUBLIC "-//W3C//DTD SVG 1.1//EN" "http://www.w3.org/Graphics/SVG/1.1/DTD/svg11.dtd">
<svg version="1.1" id="Layer_1" xmlns="http://www.w3.org/2000/svg" xmlns:xlink="http://www.w3.org/1999/xlink" x="0px" y="0px"
	 width="32.811px" height="27.01px" viewBox="0 0 32.811 27.01" style="enable-background:new 0 0 32.811 27.01;"
	 xml:space="preserve">
<path style="fill:#FFCD8A;" d="M32.785,17.32c-0.052-1.162-0.305-1.5-1.488-1.639c-0.873-0.104-2.375,0.625-3.875,1.625
	c-1.399,0.932-3.303,2.1-4.5,2.875c-1.341,0.867-2.453,1.762-2.936,2.434l-0.033,0.004c-1.492,1.619-0.914,2.457,0.617,2.986
	l0.029-0.008c-1.041-0.291-2.209-0.666-3.167-0.875c-0.958-0.207-2.083-0.375-3.375-0.5s-3.5-0.375-4.958-0.166s-3,0.625-4,1.084
	c-1.387,0.635-3.077,1.232-5.068,1.869L0,26.979C16.75,18.104,26.811,9.25,32.811,0v17.291L32.785,17.32z"/>
</svg>
