<?xml version="1.0" encoding="utf-8"?>
<!-- Generator: Adobe Illustrator 16.0.0, SVG Export Plug-In . SVG Version: 6.00 Build 0)  -->
<!DOCTYPE svg PUBLIC "-//W3C//DTD SVG 1.1//EN" "http://www.w3.org/Graphics/SVG/1.1/DTD/svg11.dtd">
<svg version="1.1" id="Layer_1" xmlns="http://www.w3.org/2000/svg" xmlns:xlink="http://www.w3.org/1999/xlink" x="0px" y="0px"
	 width="153.26px" height="97.739px" viewBox="0 0 153.26 97.739" enable-background="new 0 0 153.26 97.739" xml:space="preserve">
<path fill="#FECD8A" d="M39.521,91.38c0.06-3.409-1.533-5.893-10.164-6.035c-5.133-0.086-10.905,0.199-16.127,0.664
	c-2.529,0.226-6.557,0.838-9.017,1.746c-1.57,0.579-3.127,1.839-3.167,3.17c-0.082,2.743,0.006,4.752,1.053,6.814l-0.047-0.047
	c-1.172-1.391-1.444-2.223-1.658-3.148c-0.214-0.927-0.499-2.565-0.356-3.92c0.142-1.354,1.354-2.778,2.637-3.42
	c1.282-0.641,3.847-1.318,6.484-1.746c3.817-0.619,7.253-0.839,10.581-0.891c3.065-0.047,6.385-0.81,8.836-1.888
	c3.562-1.567,5.171-2.976,7.089-8.302c1.099-3.053,3.226-7.905,6.057-13.324c2.493-4.773,5.985-9.976,11.757-16.816
	c5.707-6.764,12.469-12.229,17.101-15.89c4.418-3.491,10.439-7.073,17.172-10.617c6.77-3.563,11.9-5.629,18.527-7.696
	c4.999-1.559,13.676-3.473,20.021-4.917c7.146-1.625,13.471-3.006,17.885-4.204c1.104-0.299,2.032-0.566,2.899-0.741
	c0.386-0.078,0.759-0.138,1.13-0.174l-0.021,0.021c0.456,0.683,0.88,1.327,1.271,1.942c1.467,2.3,2.489,4.191,3.111,6.17
	c0.204,0.651,0.377,1.402,0.498,2.213c0.075,0.505,0.13,1.034,0.159,1.576c0.036,0.651,0.036,1.322-0.009,1.997
	c-0.046,0.697-0.107,1.362-0.182,1.992l-0.065-0.005c-4.044-1.087-8.415-1.979-11.991-2.434c-4.322-0.549-9.431-0.899-14.478-0.682
	c-13.434,0.58-21.526,2.277-29.595,5.403c-9.25,3.583-18.443,8.842-28.194,16.489c-14.884,11.674-21.465,23.31-26.611,42.232
	c-1.323,4.862-2.121,9.887-2.593,14.452L39.521,91.38z"/>
</svg>
