<?xml version="1.0" encoding="utf-8"?>
<!-- Generator: Adobe Illustrator 16.0.0, SVG Export Plug-In . SVG Version: 6.00 Build 0)  -->
<!DOCTYPE svg PUBLIC "-//W3C//DTD SVG 1.1//EN" "http://www.w3.org/Graphics/SVG/1.1/DTD/svg11.dtd">
<svg version="1.1" id="Layer_1" xmlns="http://www.w3.org/2000/svg" xmlns:xlink="http://www.w3.org/1999/xlink" x="0px" y="0px"
	 width="28.893px" height="49.821px" viewBox="0 0 28.893 49.821" enable-background="new 0 0 28.893 49.821" xml:space="preserve">
<path fill="#FFCD8A" d="M28.775,32.157c-3.166,0.208-6.708,0.082-9.291-0.459c-2.584-0.541-4.376-1.209-6.667-3.25
	s-3.625-3.875-4.708-7.167s-1.667-5.625-2.292-7.208s-1.208-2.458-1.833-2.417s-1.042,1.292-1.25,1.833s-0.5,1.958-0.667,3.042
	s-0.333,3.708-0.375,6.083s0.125,5.708,0.542,8.458s1.333,6.292,2.542,9.042s2.417,4.917,3.667,6.417s2.208,2.417,3,3.209
	l0.117,0.08c-0.772-0.373-1.529-0.852-2.266-1.453c-4.956-4.046-8.244-11.157-9.095-20.776c-0.478-5.404-0.083-15.293,1.172-21.612
	L1.37,5.982L1.327,5.977C7.215,6.756,9.559,3.445,11.661,0l-0.042,0.011c-1.41,3.784-2.286,7.2-2.528,11.442
	c-0.285,4.988,0.743,10.958,5.303,15.091c4.56,4.133,8.514,4.596,14.5,5.593L28.775,32.157z"/>
</svg>
