<?xml version="1.0" encoding="iso-8859-1"?>
<!-- Generator: Adobe Illustrator 16.0.0, SVG Export Plug-In . SVG Version: 6.00 Build 0)  -->
<!DOCTYPE svg PUBLIC "-//W3C//DTD SVG 1.1//EN" "http://www.w3.org/Graphics/SVG/1.1/DTD/svg11.dtd">
<svg version="1.1" id="Layer_1" xmlns="http://www.w3.org/2000/svg" xmlns:xlink="http://www.w3.org/1999/xlink" x="0px" y="0px"
	 width="33.283px" height="8.282px" viewBox="0 0 33.283 8.282" style="enable-background:new 0 0 33.283 8.282;"
	 xml:space="preserve">
<path style="fill:#4FBA6F;" d="M16.317,8.264c-0.606-0.016-1.216-0.039-1.821-0.076C9.256,7.881,4.662,7.354,1.67,7.068
	c-0.542-0.053-1.098-0.1-1.668-0.143L0,6.914c3.995-0.846,10.647-0.281,14.211-0.025c4.478,0.318,8.424,0.135,10.118-0.107
	c2.842-0.406,5.092-1.322,5.925-2.323c0.209-0.25,0.396-0.495,0.567-0.744c0.511-0.746,0.87-1.527,1.183-2.59
	c0.042-0.143,0.084-0.29,0.125-0.438l0.04-0.058c0.467-0.195,0.791-0.359,1.085-0.583L33.283,0c-0.66,3.656-1.815,6.48-5.529,7.359
	l0.017-0.01c-0.753,0.143-1.524,0.281-2.302,0.41C23.386,8.111,19.902,8.354,16.317,8.264z"/>
</svg>
