<?xml version="1.0" encoding="iso-8859-1"?>
<!-- Generator: Adobe Illustrator 16.0.0, SVG Export Plug-In . SVG Version: 6.00 Build 0)  -->
<!DOCTYPE svg PUBLIC "-//W3C//DTD SVG 1.1//EN" "http://www.w3.org/Graphics/SVG/1.1/DTD/svg11.dtd">
<svg version="1.1" id="Layer_1" xmlns="http://www.w3.org/2000/svg" xmlns:xlink="http://www.w3.org/1999/xlink" x="0px" y="0px"
	 width="6.307px" height="15.057px" viewBox="0 0 6.307 15.057" style="enable-background:new 0 0 6.307 15.057;"
	 xml:space="preserve">
<path style="fill:#4FBA6F;" d="M0,0.659c0.157-0.197,0.286-0.415,0.395-0.648L0.386,0c0.453,0.396,0.909,0.828,1.371,1.297
	c0.066,0.067,0.132,0.135,0.198,0.204C2.77,2.346,3.775,3.537,4.449,4.85c0.568,1.109,1.077,2.734,1.291,3.6
	c0.281,1.144,0.525,2.697,0.561,4.027c0.022,0.805-0.022,1.702-0.15,2.58l-0.09-0.105c-1.371-1.625-2.145-4.846-2.601-6.697
	C2.84,5.736,1.429,3.159,0.075,0.808L0,0.659z"/>
</svg>
