<?xml version="1.0" encoding="iso-8859-1"?>
<!-- Generator: Adobe Illustrator 16.0.0, SVG Export Plug-In . SVG Version: 6.00 Build 0)  -->
<!DOCTYPE svg PUBLIC "-//W3C//DTD SVG 1.1//EN" "http://www.w3.org/Graphics/SVG/1.1/DTD/svg11.dtd">
<svg version="1.1" id="Layer_1" xmlns="http://www.w3.org/2000/svg" xmlns:xlink="http://www.w3.org/1999/xlink" x="0px" y="0px"
	 width="29.169px" height="8.346px" viewBox="0 0 29.169 8.346" style="enable-background:new 0 0 29.169 8.346;"
	 xml:space="preserve">
<path style="fill:#4FBA6F;" d="M24.22,8.346c-1.639-1.238-3.767-2.357-6.449-2.801C13.729,4.879,7.105,5.22,2.362,6.383
	C1.623,6.564,0.829,6.797,0,7.069l0.054-0.024c4.952-1.924,12.051-4.166,15.223-4.848C18.47,1.509,25.678,0.356,29.169,0
	l-0.021,0.003c-0.949,0.201-1.71,0.473-2.258,0.839c-1.351,0.905-2.162,3.145-1.496,4.774c0.295,0.721,0.73,1.337,1.244,1.995
	l-0.053,0.026c-0.783,0.143-1.988,0.475-2.344,0.688L24.22,8.346z"/>
</svg>
