<?xml version="1.0" encoding="iso-8859-1"?>
<!-- Generator: Adobe Illustrator 16.0.0, SVG Export Plug-In . SVG Version: 6.00 Build 0)  -->
<!DOCTYPE svg PUBLIC "-//W3C//DTD SVG 1.1//EN" "http://www.w3.org/Graphics/SVG/1.1/DTD/svg11.dtd">
<svg version="1.1" id="Layer_1" xmlns="http://www.w3.org/2000/svg" xmlns:xlink="http://www.w3.org/1999/xlink" x="0px" y="0px"
	 width="20.921px" height="4.817px" viewBox="0 0 20.921 4.817" style="enable-background:new 0 0 20.921 4.817;"
	 xml:space="preserve">
<path style="fill:#4FBA6F;" d="M0.078,2.614L0,0.129l0.017-0.014C1.699,0.07,3.55,0.033,5.625,0.004
	c4.562-0.062,9.75,0.5,15.188,2.438c0.026,0.009,0.06,0.018,0.1,0.026l0.007,0.005v2.344l0.002-0.029
	c-0.043-0.015-0.079-0.025-0.108-0.033c-0.5-0.125-2.5-0.812-3.875-1.125s-3.875-0.75-7.812-1.063
	C6.906,2.391,3.517,2.473,0.108,2.623L0.078,2.614z M4.844,0.817c-2.434,0-4.406,0.252-4.406,0.562S2.41,1.942,4.844,1.942
	s3.719-0.314,3.719-0.625S7.277,0.817,4.844,0.817z M16.25,1.754C13.863,1.28,12.561,1.2,12.5,1.504s1.145,0.879,3.531,1.354
	c2.387,0.476,4.371,0.614,4.432,0.309C20.523,2.862,18.637,2.23,16.25,1.754z"/>
</svg>
