<?xml version="1.0" encoding="iso-8859-1"?>
<!-- Generator: Adobe Illustrator 16.0.0, SVG Export Plug-In . SVG Version: 6.00 Build 0)  -->
<!DOCTYPE svg PUBLIC "-//W3C//DTD SVG 1.1//EN" "http://www.w3.org/Graphics/SVG/1.1/DTD/svg11.dtd">
<svg version="1.1" id="Layer_1" xmlns="http://www.w3.org/2000/svg" xmlns:xlink="http://www.w3.org/1999/xlink" x="0px" y="0px"
	 width="16.551px" height="23.119px" viewBox="0 0 16.551 23.119" style="enable-background:new 0 0 16.551 23.119;"
	 xml:space="preserve">
<path style="fill:#FFCD8A;" d="M0,6.276v-1.75L0.01,4.51c3.25-0.125,8.312-0.094,11.5-1.781C13.829,1.501,15.158,0.823,16.551,0
	L16.51,0.042c-0.873,4.584-2.604,8.883-5.631,13.476c-0.439,0.668-0.906,1.342-1.402,2.023c-1.846,2.537-5.693,5.771-9.467,7.547
	L0,23.119V11.901V6.276z M0.506,8.013C0.582,8.479,1.377,8.74,2.284,8.594C3.19,8.448,3.865,7.951,3.79,7.484
	S2.918,6.757,2.012,6.903C1.105,7.048,0.431,7.545,0.506,8.013z"/>
</svg>
