<?xml version="1.0" encoding="iso-8859-1"?>
<!-- Generator: Adobe Illustrator 16.0.0, SVG Export Plug-In . SVG Version: 6.00 Build 0)  -->
<!DOCTYPE svg PUBLIC "-//W3C//DTD SVG 1.1//EN" "http://www.w3.org/Graphics/SVG/1.1/DTD/svg11.dtd">
<svg version="1.1" id="Layer_1" xmlns="http://www.w3.org/2000/svg" xmlns:xlink="http://www.w3.org/1999/xlink" x="0px" y="0px"
	 width="41.406px" height="57.22px" viewBox="0 0 41.406 57.22" style="enable-background:new 0 0 41.406 57.22;"
	 xml:space="preserve">
<path style="fill:#4FBA6F;" d="M25.321,56.666c2.875,0.957,4.832,0.973,6.98-2.404c1.289-2.027,3.129-5.428,5.115-9.395
	c1.991-3.98,3.578-9.27,3.922-13.154c0.308-3.472-0.396-6.495-2.996-10.978c-1.826-3.147-4.703-6.185-8.122-9.045l-0.075-0.021
	c-1.709,0.997-4.799,0.684-6.328-0.19c-2.993-1.71-6.776-4.095-9.976-5.985C10.707,3.64,3.705,0.712,0,0
	c5.199,2.311,10.588,4.939,14.829,7.625c4.625,2.929,8.621,7.245,11.258,11.685c2.707,4.56,4.318,11.098,4.275,16.53
	c-0.033,4.168-0.155,8.285-0.866,12.111c-1.062,5.711-1.771,7.275-4.175,8.646V56.666z"/>
</svg>
