<?xml version="1.0" encoding="iso-8859-1"?>
<!-- Generator: Adobe Illustrator 16.0.0, SVG Export Plug-In . SVG Version: 6.00 Build 0)  -->
<!DOCTYPE svg PUBLIC "-//W3C//DTD SVG 1.1//EN" "http://www.w3.org/Graphics/SVG/1.1/DTD/svg11.dtd">
<svg version="1.1" id="Layer_1" xmlns="http://www.w3.org/2000/svg" xmlns:xlink="http://www.w3.org/1999/xlink" x="0px" y="0px"
	 width="26.56px" height="44.142px" viewBox="0 0 26.56 44.142" style="enable-background:new 0 0 26.56 44.142;"
	 xml:space="preserve">
<path style="fill:#4FBA6F;" d="M26.56,0.142v43.98l-0.012,0.012H0.016L0,44.142C8,31.767,12.047,17.251,13.547,0.001L13.529,0
	c4.148,0.002,8.311,0.092,12.236,0.142c0.268,0.003,0.527,0.007,0.779,0.01L26.56,0.142z M12.688,31.419
	c-3.951,0.013-7.147,2.277-7.139,5.061c0.009,2.782,3.219,5.027,7.17,5.016s7.147-2.277,7.139-5.06
	C19.849,33.652,16.639,31.407,12.688,31.419z M21.253,42.093c0,0.611,1.038,1.108,2.318,1.108c1.279,0,2.317-0.497,2.317-1.108
	c0-0.612-1.038-1.108-2.317-1.108C22.291,40.984,21.253,41.48,21.253,42.093z M25.388,27.159c0.473,0,0.856-0.181,0.856-0.403
	s-0.384-0.403-0.856-0.403c-0.474,0-0.856,0.181-0.856,0.403S24.914,27.159,25.388,27.159z"/>
</svg>
