<?xml version="1.0" encoding="iso-8859-1"?>
<!-- Generator: Adobe Illustrator 16.0.0, SVG Export Plug-In . SVG Version: 6.00 Build 0)  -->
<!DOCTYPE svg PUBLIC "-//W3C//DTD SVG 1.1//EN" "http://www.w3.org/Graphics/SVG/1.1/DTD/svg11.dtd">
<svg version="1.1" id="Layer_1" xmlns="http://www.w3.org/2000/svg" xmlns:xlink="http://www.w3.org/1999/xlink" x="0px" y="0px"
	 width="40.297px" height="44.142px" viewBox="0 0 40.297 44.142" style="enable-background:new 0 0 40.297 44.142;"
	 xml:space="preserve">
<path style="fill:#4FBA6F;" d="M40.279,0c-1.07-0.001-2.139,0.004-3.201,0.017c-5.188,0.062-8.637,0.394-11.812,0.688
	c-0.564,0.053-1.107,0.122-1.627,0.205l0.002,0.045c0,6.75-4.016,12.266-12.735,16.219l-0.022,0.008
	c-0.439,0.667-0.906,1.341-1.402,2.022c-1.846,2.538-5.693,5.771-9.467,7.548l-0.01,0.031v13v4.344L0,44.134h26.766l-0.016,0.008
	c8-12.375,12.047-26.891,13.547-44.141L40.279,0z"/>
</svg>
