<?xml version="1.0" encoding="iso-8859-1"?>
<!-- Generator: Adobe Illustrator 16.0.0, SVG Export Plug-In . SVG Version: 6.00 Build 0)  -->
<!DOCTYPE svg PUBLIC "-//W3C//DTD SVG 1.1//EN" "http://www.w3.org/Graphics/SVG/1.1/DTD/svg11.dtd">
<svg version="1.1" id="Layer_1" xmlns="http://www.w3.org/2000/svg" xmlns:xlink="http://www.w3.org/1999/xlink" x="0px" y="0px"
	 width="32.126px" height="3.816px" viewBox="0 0 32.126 3.816" style="enable-background:new 0 0 32.126 3.816;"
	 xml:space="preserve">
<path style="fill:#FFCD8A;" d="M0.031,1.75c2.521,0.019,4.77,0.081,7.044,0.215C11.92,2.25,15.482,2.47,17.479,2.606
	c3.135,0.214,6.504,0.556,8.763,0.712c0.065,0.005,0.132,0.01,0.198,0.014c1.816,0.137,3.905,0.408,5.218,0.468
	c0.104,0.005,0.213,0.011,0.327,0.017L32.014,3.8c0.035-0.428,0.07-0.891,0.106-1.318l0.006-0.052
	c-0.66-0.058-1.338-0.117-2.036-0.18c-2.549-0.229-5.187-0.45-8.15-0.685c-0.685-0.054-1.386-0.109-2.107-0.166
	c-4.267-0.331-9.243-0.695-15.535-1.145C2.947,0.158,1.523,0.072,0,0l0.028,0.016v1.75"/>
</svg>
