<?xml version="1.0" encoding="iso-8859-1"?>
<!-- Generator: Adobe Illustrator 16.0.0, SVG Export Plug-In . SVG Version: 6.00 Build 0)  -->
<!DOCTYPE svg PUBLIC "-//W3C//DTD SVG 1.1//EN" "http://www.w3.org/Graphics/SVG/1.1/DTD/svg11.dtd">
<svg version="1.1" id="Layer_1" xmlns="http://www.w3.org/2000/svg" xmlns:xlink="http://www.w3.org/1999/xlink" x="0px" y="0px"
	 width="51.72px" height="12.343px" viewBox="0 0 51.72 12.343" style="enable-background:new 0 0 51.72 12.343;"
	 xml:space="preserve">
<path style="fill:#4FBA6F;" d="M0.257,1.797c0.158-0.369,0.38-0.707,0.636-0.996C0.945,0.742,0.999,0.685,1.053,0.63
	c0.519-0.519,1.612-0.818,2.779-0.499c1.051,0.288,2.352,1.087,3.135,1.728C7.148,2.007,7.335,2.153,7.53,2.297
	c0.721,0.534,1.542,1.051,2.506,1.596c0.604,0.342,1.54,0.772,2.408,1.033c0.869,0.26,2.204,0.693,3.002,0.852
	c2.868,0.572,7.323,0.969,12.184,0.784c6.411-0.244,12.402-0.07,18.383,0.143C48,6.776,49.905,6.847,51.707,6.938l0.01,0.022v5.046
	l0.003,0.005c-7.474-0.355-16.661-0.415-23.662-0.178c-1.173,0.04-2.476,0.1-3.865,0.175c-1.714,0.092-3.559,0.207-5.453,0.334
	l-0.083-0.01c-2.382-0.217-5.321-0.907-7.329-1.354c-1.844-0.41-3.712-1.239-5.287-2.014c-1.372-0.674-2.647-1.492-3.96-2.667
	C1.119,5.438,0.26,4.55,0.056,3.552C-0.07,2.937,0.027,2.334,0.257,1.797"/>
</svg>
