<?xml version="1.0" encoding="iso-8859-1"?>
<!-- Generator: Adobe Illustrator 16.0.0, SVG Export Plug-In . SVG Version: 6.00 Build 0)  -->
<!DOCTYPE svg PUBLIC "-//W3C//DTD SVG 1.1//EN" "http://www.w3.org/Graphics/SVG/1.1/DTD/svg11.dtd">
<svg version="1.1" id="Layer_1" xmlns="http://www.w3.org/2000/svg" xmlns:xlink="http://www.w3.org/1999/xlink" x="0px" y="0px"
	 width="22.6px" height="5.959px" viewBox="0 0 22.6 5.959" style="enable-background:new 0 0 22.6 5.959;" xml:space="preserve">
<path style="fill:#FFCD8A;" d="M7.251,3.646c0.481-0.035,0.884-0.066,1.28-0.111C8.668,3.52,8.805,3.504,8.942,3.487
	c1.253-0.148,2.525-0.34,3.927-0.607c5.242-0.998,7.482-1.61,9.664-2.857L22.6,0c-0.434,0.412-0.645,0.909-0.488,1.378l0.014,0.003
	c-1.061,0.431-2.445,0.903-3.705,1.121c-1.172,0.202-3.229,0.57-5.135,0.939C11.432,3.8,10.156,4.053,8.783,4.176
	C8.718,4.182,8.653,4.188,8.588,4.193C7.073,4.314,6.283,4.391,5.673,4.498C5.575,4.516,5.482,4.533,5.391,4.553
	C5.072,4.621,4.686,4.75,4.317,4.893c-0.391,0.152-0.763,0.32-1.02,0.457c-0.5,0.266-0.969,0.609-0.969,0.609L2.39,5.951H0l0-0.012
	l0-1.871l0,0.006C1.905,3.997,3.89,3.908,4.563,3.85C5.742,3.75,6.573,3.696,7.251,3.646z"/>
</svg>
