<?xml version="1.0" encoding="iso-8859-1"?>
<!-- Generator: Adobe Illustrator 16.0.0, SVG Export Plug-In . SVG Version: 6.00 Build 0)  -->
<!DOCTYPE svg PUBLIC "-//W3C//DTD SVG 1.1//EN" "http://www.w3.org/Graphics/SVG/1.1/DTD/svg11.dtd">
<svg version="1.1" id="Layer_1" xmlns="http://www.w3.org/2000/svg" xmlns:xlink="http://www.w3.org/1999/xlink" x="0px" y="0px"
	 width="13.5px" height="17.748px" viewBox="0 0 13.5 17.748" style="enable-background:new 0 0 13.5 17.748;" xml:space="preserve"
	>
<path style="fill:#FFCD8A;" d="M13.475,8.03c0.015,0.586,0.023,1.183,0.025,1.784c0.004,1.086-0.052,2.455-0.123,3.749
	c-0.122,2.201-0.29,4.186-0.29,4.186s-0.665-0.131-1.417-0.632c-0.597-0.397-1.504-1.72-2.801-2.585
	c-0.564-0.375-1.296-0.688-1.837-0.891c-0.691-0.26-1.164-0.425-2-0.6c-1.098-0.23-2.201,0.139-2.953,0.389
	c-0.751,0.252-2.028,0.896-2.028,0.896c-0.157-0.47,0.054-0.967,0.487-1.378c0.259-0.248,0.599-0.464,0.986-0.626
	c1.271-0.531,2.787-1.362,4.008-2.345c0.29-0.232,0.574-0.47,0.854-0.714C6.86,8.849,7.322,8.415,7.78,7.949
	c0.802-0.817,1.591-1.732,2.401-2.808c0.768-1.019,1.347-2.13,1.391-3.331c0.091-2.482,1.308-2.405,1.552,0.19
	C13.287,3.745,13.422,5.823,13.475,8.03z"/>
</svg>
