<?xml version="1.0" encoding="iso-8859-1"?>
<!-- Generator: Adobe Illustrator 16.0.0, SVG Export Plug-In . SVG Version: 6.00 Build 0)  -->
<!DOCTYPE svg PUBLIC "-//W3C//DTD SVG 1.1//EN" "http://www.w3.org/Graphics/SVG/1.1/DTD/svg11.dtd">
<svg version="1.1" id="Layer_1" xmlns="http://www.w3.org/2000/svg" xmlns:xlink="http://www.w3.org/1999/xlink" x="0px" y="0px"
	 width="30.809px" height="3.646px" viewBox="0 0 30.809 3.646" style="enable-background:new 0 0 30.809 3.646;"
	 xml:space="preserve">
<path style="fill:#FFCD8A;" d="M0.008,3.064c0.316,0.178,0.529,0.352,1.159,0.425c1.786,0.209,4.281,0.12,9.793,0.12
	c2.755,0,5.69-0.99,7.86-1.742c2.172-0.752,4.594-0.752,6.681,0.25c1.901,0.913,3.841,1.451,5.245,1.529l-0.002-0.015
	c0.013-0.132,0.026-0.274,0.041-0.433l0.023-0.018c-1.947-0.31-3.997-1.874-4.653-2.108c-0.835-0.298-1.551-0.597-2.505-0.835
	C22.695,0,21.205,0,20.25,0c-0.953,0-1.908,0.417-2.146,0.775c-0.238,0.357-0.537,0.954-1.133,1.133
	c-0.597,0.179-1.909,0.537-3.639,0.835c-1.729,0.297-3.221,0.119-5.368,0.178C6.056,2.976,4.266,3.043,2.895,3.041
	c-0.68,0-1.133-0.094-1.524-0.359L1.356,2.673C1.258,2.69,1.165,2.709,1.074,2.729C0.755,2.797,0.369,2.925,0,3.068L0.008,3.064z"/>
</svg>
