<?xml version="1.0" encoding="iso-8859-1"?>
<!-- Generator: Adobe Illustrator 16.0.0, SVG Export Plug-In . SVG Version: 6.00 Build 0)  -->
<!DOCTYPE svg PUBLIC "-//W3C//DTD SVG 1.1//EN" "http://www.w3.org/Graphics/SVG/1.1/DTD/svg11.dtd">
<svg version="1.1" id="Layer_1" xmlns="http://www.w3.org/2000/svg" xmlns:xlink="http://www.w3.org/1999/xlink" x="0px" y="0px"
	 width="32.734px" height="2.804px" viewBox="0 0 32.734 2.804" style="enable-background:new 0 0 32.734 2.804;"
	 xml:space="preserve">
<path style="fill:#FFCD8A;" d="M0.062,2.796h32.626V2.772c0.015-0.152,0.029-0.305,0.045-0.472l0.002,0.015
	c-1.404-0.078-3.344-0.616-5.245-1.529c-2.087-1.002-4.509-1.002-6.681-0.25c-2.17,0.752-5.104,1.742-7.86,1.742
	c-5.513,0-8.007,0.089-9.793-0.12c-0.63-0.073-0.843-0.247-1.159-0.425L1.988,1.737c-0.391,0.151-0.763,0.32-1.02,0.457
	C0.469,2.46,0,2.804,0,2.804L0.062,2.796z"/>
</svg>
