<?xml version="1.0" encoding="iso-8859-1"?>
<!-- Generator: Adobe Illustrator 16.0.0, SVG Export Plug-In . SVG Version: 6.00 Build 0)  -->
<!DOCTYPE svg PUBLIC "-//W3C//DTD SVG 1.1//EN" "http://www.w3.org/Graphics/SVG/1.1/DTD/svg11.dtd">
<svg version="1.1" id="Layer_1" xmlns="http://www.w3.org/2000/svg" xmlns:xlink="http://www.w3.org/1999/xlink" x="0px" y="0px"
	 width="6.422px" height="5.352px" viewBox="0 0 6.422 5.352" style="enable-background:new 0 0 6.422 5.352;" xml:space="preserve"
	>
<path style="fill:#4FBA6F;" d="M2.323,4.177c-0.068,0.321-0.111,0.705-0.15,1.167l0,0.008H0l0-0.023
	C0.015,5.176,0.03,5.023,0.045,4.856c0.013-0.132,0.026-0.274,0.042-0.433C0.09,4.387,0.094,4.35,0.098,4.312
	C0.102,4.271,0.106,4.23,0.11,4.188l0.022,0.014c0,0,0.168-1.984,0.29-4.186V0c1.658,1.136,4.333,2.052,6,1.719L6.27,1.76
	C4.893,2.092,3.7,2.562,3.057,2.971C2.647,3.231,2.445,3.605,2.323,4.177"/>
</svg>
