<?xml version="1.0" encoding="iso-8859-1"?>
<!-- Generator: Adobe Illustrator 16.0.0, SVG Export Plug-In . SVG Version: 6.00 Build 0)  -->
<!DOCTYPE svg PUBLIC "-//W3C//DTD SVG 1.1//EN" "http://www.w3.org/Graphics/SVG/1.1/DTD/svg11.dtd">
<svg version="1.1" id="Layer_1" xmlns="http://www.w3.org/2000/svg" xmlns:xlink="http://www.w3.org/1999/xlink" x="0px" y="0px"
	 width="52.402px" height="19.205px" viewBox="0 0 52.402 19.205" style="enable-background:new 0 0 52.402 19.205;"
	 xml:space="preserve">
<path style="fill:#FFCD8A;" d="M43.219,7.938c3.012,0.317,4.693,0.309,5.969,0.328c0.832,0.013,2.294-0.016,3.188-0.016l0.027-0.02
	c-0.458,0.466-0.92,0.9-1.393,1.313l-0.025-0.012c-0.951-0.793-2.611,0.198-4.672,1.387c-2.062,1.189-3.869,1.8-6.421,2.458
	c-2.457,0.634-5.407,0.999-9.423,1.233l-0.017,0.02c-0.106,0.002-0.214,0.006-0.323,0.012c-1.719,0.092-3.085,0.66-3.053,1.271
	c0.029,0.548,1.178,0.941,2.658,0.95l0.078,0.014c-0.678,0.049-1.509,0.103-2.688,0.203c-0.673,0.058-2.658,0.146-4.562,0.224
	c-1.459,0.06-2.87,0.112-3.605,0.14c-1.472,0.055-3.304,0.136-4.563,0.326c-0.634,0.096-1.457,0.639-1.503,1.373v0.039h-0.329
	l0.017-0.008c-0.042-0.497-0.007-1.268-0.849-1.625c-0.859-0.363-2.062-0.319-3.021-0.105c-0.972,0.215-1.269,0.913-1.411,1.73
	l0.016,0.008H7.078l0.016-0.023c-0.213-1.031-1.295-1.469-2-1.59c-0.981-0.167-2.433-0.164-3.483,0.037
	C0.556,17.805,0.106,18.567,0,19.172l0.002,0.033c0,0,0.063-3.496,0.5-7.371C0.94,7.959,1.7,4.568,2.628,1.646
	c0.19-0.598,0.374-1.146,0.55-1.644L3.188,0c0,0,4.119,2.858,22.493,5.817c1.865,0.3,3.877,0.602,6.046,0.901l-0.013-0.007
	c-2.065,0.931-3.346,2.28-3.159,3.588c0.13,0.912,0.951,1.645,2.196,2.111c1.03,0.387,2.351,0.591,3.812,0.566
	c0.597-0.011,1.217-0.06,1.852-0.15c4.059-0.578,7.121-2.648,6.84-4.623c-0.014-0.098-0.035-0.194-0.065-0.289L43.219,7.938z
	 M19.101,12.063c0.658-0.358,1.116-0.855,1.293-1.472c0.567-1.975-1.958-4.432-5.641-5.489C11.071,4.046,7.627,4.79,7.061,6.764
	c-0.169,0.59-0.062,1.224,0.269,1.849l0.015-0.004c1.574-0.39,3.387-0.383,5.178-0.067c2.269,0.4,4.552,1.598,6.588,3.52
	L19.101,12.063z M19.109,12.062c-2.036-1.922-4.319-3.12-6.588-3.52c-1.791-0.316-3.604-0.323-5.178,0.067L7.329,8.613
	c0.777,1.469,2.79,2.898,5.372,3.639c2.532,0.727,4.953,0.603,6.4-0.188L19.109,12.062z M11.985,10.138
	c0.184-0.641,0.895-0.998,1.589-0.799c0.694,0.199,1.107,0.88,0.923,1.521c-0.184,0.64-0.895,0.997-1.589,0.799
	C12.215,11.459,11.801,10.777,11.985,10.138z M12.908,11.658c0.694,0.198,1.405-0.159,1.589-0.799
	c0.184-0.641-0.229-1.322-0.923-1.521c-0.694-0.199-1.405,0.159-1.589,0.799C11.801,10.777,12.215,11.459,12.908,11.658z
	 M8.014,13.124c-0.194,0.694,0.472,1.489,1.487,1.772c1.016,0.285,1.997-0.049,2.191-0.742c0.195-0.695-0.471-1.49-1.487-1.773
	C9.189,12.096,8.208,12.43,8.014,13.124z M13.134,14.434c0,0.5,0.576,0.717,1.631,0.686c1.056-0.029,1.624-0.188,1.65-0.769
	c0.023-0.53-0.658-0.824-1.713-0.793S13.136,13.777,13.134,14.434z M24.099,12.155c0-0.657-0.568-1.189-1.269-1.189
	c-0.701,0-1.27,0.532-1.27,1.189s0.568,1.19,1.27,1.19C23.53,13.346,24.099,12.812,24.099,12.155z M3.712,8.797
	c0.766-0.13,1.251-1.035,1.083-2.019C4.628,5.792,3.871,5.1,3.105,5.23C2.339,5.36,1.854,6.264,2.021,7.25
	C2.188,8.234,2.945,8.928,3.712,8.797z M7.005,12.512c0.604-0.488,0.585-1.515-0.042-2.292C6.335,9.442,5.336,9.208,4.732,9.696
	c-0.605,0.488-0.587,1.513,0.041,2.292C5.401,12.766,6.4,13,7.005,12.512z M19.928,15.139c1.388,0.031,2.521-0.326,2.532-0.798
	s-1.106-0.88-2.494-0.911c-1.387-0.031-2.521,0.325-2.531,0.797C17.424,14.699,18.54,15.106,19.928,15.139z M4.207,14.514
	c-0.316-0.342-0.662-0.703-0.973-1.014c-0.453-0.453-0.906-0.828-1.344-1.062s-1.047,0.094-1.234,1.328s-0.203,1.812-0.031,2.359
	s0.602,0.7,1.391,0.609c0.812-0.094,1.318-0.244,1.641-0.453c0.163-0.105,0.346-0.192,0.525-0.279
	C4.609,15.797,4.544,14.877,4.207,14.514z"/>
</svg>
