<?xml version="1.0" encoding="iso-8859-1"?>
<!-- Generator: Adobe Illustrator 16.0.0, SVG Export Plug-In . SVG Version: 6.00 Build 0)  -->
<!DOCTYPE svg PUBLIC "-//W3C//DTD SVG 1.1//EN" "http://www.w3.org/Graphics/SVG/1.1/DTD/svg11.dtd">
<svg version="1.1" id="Layer_1" xmlns="http://www.w3.org/2000/svg" xmlns:xlink="http://www.w3.org/1999/xlink" x="0px" y="0px"
	 width="58.795px" height="15.26px" viewBox="0 0 58.795 15.26" style="enable-background:new 0 0 58.795 15.26;"
	 xml:space="preserve">
<path style="fill:#FFCD8A;" d="M0,9.924c0.071-1.294,0.127-2.664,0.124-3.75C0.121,5.573,0.112,4.977,0.098,4.391l0.012-0.014
	c0.906-0.016,1.688-0.031,2.703-0.031c1.188,0,2.222-0.038,3.641-0.062l0.022-0.014c-0.883,0.639-1.364,1.34-1.31,2.045
	c0.089,1.159,1.609,2.087,3.937,2.613c0.54,0.124,1.123,0.223,1.742,0.299c1.574,0.195,3.379,0.237,5.287,0.09
	c5.073-0.391,9.221-1.988,10.174-3.772c0.154-0.289,0.224-0.582,0.202-0.876c-0.011-0.146-0.045-0.289-0.101-0.428l0-0.086
	c-0.131-0.405-0.265-0.782-0.402-1.133l0.013,0.011c1.991-0.637,3.681-1.234,5.068-1.87c1-0.458,2.542-0.875,4-1.083
	s3.666,0.042,4.958,0.167s2.417,0.292,3.375,0.5s2.126,0.583,3.167,0.875l-0.029,0.007c0.521,0.18,1.153,0.324,1.852,0.451
	c2.75,0.5,6.25,1.266,10.375,1.641v0.016v1.453l0.014,0.003c-0.786,0-0.988,0.189-1.021,0.892c-0.046,0.959-0.316,2.285-0.516,3.238
	c-0.217,1.029-0.527,2.158-0.89,2.998c-0.376,0.875-0.895,1.915-1.384,2.932L55,15.26h-1.718l-0.005-0.008
	c0.777-1.75,1.535-3.188,2.166-4.672c0.248-0.586,0.605-2.064,0.811-3.333c0.009-0.056,0.018-0.112,0.025-0.168
	c0.202-1.41,0.034-2.698-1.978-2.996c-1.915-0.283-3.544-0.714-4.829-1c-1.272-0.283-3.143-0.714-4.284-1
	c-0.202-0.05-0.407-0.087-0.611-0.109c-0.948-0.102-1.859,0.129-2.212,0.893c-0.654,1.037-1.209,2.378-1.683,3.64
	c-0.419,1.119-1.164,2.941-1.491,4.251c-0.357,1.429,0.621,2.664,2.143,2.94c1.305,0.236,2.255,0.702,2.255,1.537l0.005,0.023h-2
	l-0.027-0.012c-0.713-0.594-2.081-0.769-3.15-0.769c-1.068,0-2.556-0.062-3.918-0.125c-1.287-0.06-2.652-0.205-4.063-0.876
	c-0.149-0.07-0.299-0.146-0.449-0.23c-1.251-0.692-2.306-1.02-3.713-1.48c0,0-2.737-0.438-4.559-0.596
	c-1.82-0.159-4.004-0.259-6.695-0.321c-2.692-0.062-5.685,0.243-7.65,0.524c-0.519,0.075-1.032,0.176-1.521,0.293L6,11.627
	c-1.667,0.334-4.342-0.583-6-1.719V9.924z M37.037,13.477c0.618-0.658,0.369-3.364,0.021-4.581
	c-0.381-1.333-0.957-2.706-2.004-3.943c-1.047-1.237-2.135-1.914-3.598-2.419c-1.658-0.574-3.443-0.136-2.53,1.257
	c0.207,0.315,0.332,0.738,0.403,1.18l0.014-0.016c1.062,0.062,3.594,0.875,4.406,1.5s1.438,1.688,2,2.688
	c0.562,1,1.156,3.312,1.281,4.312L37.037,13.477z M28.297,8.689c1.125,0.313,2.266,0.579,3.266,0.766s2.312,1.125,2.812,1.688
	s0.969,1.672,1.281,2.609l0.004,0.007c0.474-0.023,0.893-0.072,1.174-0.153c0.076-0.022,0.143-0.066,0.203-0.129l-0.006-0.021
	c-0.125-1-0.719-3.312-1.281-4.312c-0.562-1-1.188-2.063-2-2.688s-3.344-1.438-4.406-1.5L29.33,4.97
	c0.148,0.925,0.064,1.932,0.018,2.212c-0.094,0.562-0.511,1.072-1.023,1.501L28.297,8.689z M35.656,13.752
	c-0.312-0.938-0.781-2.047-1.281-2.609s-1.812-1.5-2.812-1.688s-2.141-0.453-3.266-0.766l0.027-0.006
	c-0.528,0.442-1.158,0.797-1.641,1.039c-0.952,0.476-1.03,1.345,0.059,1.561c1.133,0.225,2.182,0.715,3.199,1.239
	c0.734,0.377,1.652,0.926,2.851,1.113c0.712,0.111,1.903,0.172,2.868,0.124 M36.053,0.572c-0.832,0.082-1.419,1.048-1.31,2.158
	c0.108,1.11,0.872,1.943,1.704,1.861c0.833-0.082,1.42-1.048,1.311-2.157C37.648,1.323,36.885,0.49,36.053,0.572z M39.855,2.284
	c-0.724,0.523-1.361,1.517-1.731,3.057c-0.364,1.512,0.773,3.064,0.773,3.064s0.21-0.94,0.528-1.848
	c0.283-0.807,0.66-1.909,1.184-2.857c0.479-0.871,1.158-2.097,1.158-2.097S40.574,1.765,39.855,2.284z"/>
</svg>
