<?xml version="1.0" encoding="iso-8859-1"?>
<!-- Generator: Adobe Illustrator 16.0.0, SVG Export Plug-In . SVG Version: 6.00 Build 0)  -->
<!DOCTYPE svg PUBLIC "-//W3C//DTD SVG 1.1//EN" "http://www.w3.org/Graphics/SVG/1.1/DTD/svg11.dtd">
<svg version="1.1" id="Layer_1" xmlns="http://www.w3.org/2000/svg" xmlns:xlink="http://www.w3.org/1999/xlink" x="0px" y="0px"
	 width="25.639px" height="7.121px" viewBox="0 0 25.639 7.121" style="enable-background:new 0 0 25.639 7.121;"
	 xml:space="preserve">
<path style="fill:#4FBA6F;" d="M25.639,7.121c-1-0.188-1.844-0.734-2.906-1.609c-1.062-0.875-1.438-1.188-2.188-1.688
	s-2.312-0.875-4.875-1s-4.938-0.438-7.688-0.625S4.107,1.886,2.857,1.761s-2.281-0.875-2.844-1.75L0,0
	c1.816,0.136,3.905,0.408,5.218,0.467c0.104,0.005,0.213,0.011,0.327,0.017c1.46,0.082,3.682,0.293,4.91,0.375
	c0.246,0.017,0.528,0.032,0.84,0.048c1.479,0.075,3.599,0.15,5.502,0.27c1.186,0.075,2.26,0.163,3.062,0.431
	c0.429,0.142,1.144,0.364,1.607,0.685l0.025,0.006c0.275,0.21,0.537,0.427,0.773,0.642c1.349,1.229,2.427,2.759,3.361,4.147
	L25.639,7.121z"/>
</svg>
