<?xml version="1.0" encoding="iso-8859-1"?>
<!-- Generator: Adobe Illustrator 16.0.0, SVG Export Plug-In . SVG Version: 6.00 Build 0)  -->
<!DOCTYPE svg PUBLIC "-//W3C//DTD SVG 1.1//EN" "http://www.w3.org/Graphics/SVG/1.1/DTD/svg11.dtd">
<svg version="1.1" id="Layer_1" xmlns="http://www.w3.org/2000/svg" xmlns:xlink="http://www.w3.org/1999/xlink" x="0px" y="0px"
	 width="53.029px" height="10.229px" viewBox="0 0 53.029 10.229" style="enable-background:new 0 0 53.029 10.229;"
	 xml:space="preserve">
<path style="fill:#FFCD8A;" d="M0,1.656V0.047L0.016,0c2.521,0.019,4.77,0.081,7.044,0.215C11.904,0.5,15.467,0.72,17.463,0.856
	c3.135,0.214,6.504,0.556,8.763,0.713c0.065,0.004,0.132,0.009,0.198,0.014l0.014,0.011c0.562,0.875,1.594,1.625,2.844,1.75
	s2.375,0.25,5.125,0.438s5.125,0.5,7.688,0.625s4.125,0.5,4.875,1s1.125,0.812,2.188,1.688s1.906,1.422,2.906,1.609L52.051,8.67
	c0.344,0.51,0.667,1,0.979,1.449h-0.013c-0.765,0.213-1.61,0.1-2.423-0.213s-1.875-1.188-2.812-1.938s-2.125-1.562-3.25-1.875
	s-2.75-0.562-5.625-0.688s-5.125-0.25-7.938-0.438s-4.219-0.715-4.812-1.375c-0.562-0.625-2.438-0.75-4.5-0.938s-4-0.312-6.625-0.5
	c-2.399-0.171-4.25-0.188-6.875-0.312C6.379,1.759,4.391,1.723,0.015,1.667L0,1.656z"/>
</svg>
