<?xml version="1.0" encoding="iso-8859-1"?>
<!-- Generator: Adobe Illustrator 16.0.0, SVG Export Plug-In . SVG Version: 6.00 Build 0)  -->
<!DOCTYPE svg PUBLIC "-//W3C//DTD SVG 1.1//EN" "http://www.w3.org/Graphics/SVG/1.1/DTD/svg11.dtd">
<svg version="1.1" id="Layer_1" xmlns="http://www.w3.org/2000/svg" xmlns:xlink="http://www.w3.org/1999/xlink" x="0px" y="0px"
	 width="53.31px" height="11.752px" viewBox="0 0 53.31 11.752" style="enable-background:new 0 0 53.31 11.752;"
	 xml:space="preserve">
<path style="fill:#FFCD8A;" d="M0.006,11.688v-0.64H0c2.688,0.062,6.141-0.391,7.453-0.641s2.875-0.875,4.438-1.938
	s3.25-2.125,5-3.187s5.375-4.312,8.812-4.938l0.078-0.03c1.39-0.075,2.692-0.134,3.865-0.174c6.987-0.237,16.154-0.177,23.621,0.176
	l0.042,0.012v1.75l-0.013,0.031v1.609l-0.002,0.01c-0.252-0.003-0.512-0.007-0.779-0.01c-3.926-0.05-8.088-0.139-12.236-0.142
	c-1.069-0.001-2.138,0.004-3.201,0.017c-5.188,0.062-8.637,0.394-11.812,0.688c-3.375,0.312-6,1.25-7.062,1.938
	c-0.595,0.385-1.125,0.713-1.646,1.021c-1.393,0.822-2.722,1.501-5.042,2.729c-3.188,1.688-8.25,1.656-11.5,1.781L0.006,11.688z"/>
</svg>
