<?xml version="1.0" encoding="utf-8"?>
<!-- Generator: Adobe Illustrator 16.0.0, SVG Export Plug-In . SVG Version: 6.00 Build 0)  -->
<!DOCTYPE svg PUBLIC "-//W3C//DTD SVG 1.1//EN" "http://www.w3.org/Graphics/SVG/1.1/DTD/svg11.dtd">
<svg version="1.1" id="Layer_1" xmlns="http://www.w3.org/2000/svg" xmlns:xlink="http://www.w3.org/1999/xlink" x="0px" y="0px"
	 width="13.048px" height="6.045px" viewBox="0 0 13.048 6.045" enable-background="new 0 0 13.048 6.045" xml:space="preserve">
<path fill="#FFCD8A" d="M13.013,2.522c-0.251,0.109-0.492,0.215-0.721,0.316c-1.423,0.633-3.482,1.796-5,2.532
	C6.421,5.793,5.39,6.061,4.669,6.045c-0.907-0.02-2.117-0.36-2.636-0.927C1.705,4.76,1.291,4.138,0.926,3.503
	c-0.413-0.72-0.763-1.455-0.853-1.84c-0.077-0.328-0.099-0.621-0.037-0.881C0.108,0.479,0.293,0.221,0.642,0l0.031,0.031
	c0.5,0.797,1.062,1.51,1.98,2.475C3.38,3.271,4.279,3.76,4.946,3.84c0.937,0.11,1.886,0.07,2.548-0.021
	c0.964-0.132,2.937-0.658,4.054-1.038L11.5,2.811c0.345-0.021,1.171-0.187,1.548-0.295L13.013,2.522z"/>
</svg>
