<?xml version="1.0" encoding="iso-8859-1"?>
<!-- Generator: Adobe Illustrator 16.0.0, SVG Export Plug-In . SVG Version: 6.00 Build 0)  -->
<!DOCTYPE svg PUBLIC "-//W3C//DTD SVG 1.1//EN" "http://www.w3.org/Graphics/SVG/1.1/DTD/svg11.dtd">
<svg version="1.1" id="Layer_1" xmlns="http://www.w3.org/2000/svg" xmlns:xlink="http://www.w3.org/1999/xlink" x="0px" y="0px"
	 width="20.039px" height="13.359px" viewBox="0 0 20.039 13.359" style="enable-background:new 0 0 20.039 13.359;"
	 xml:space="preserve">
<path style="fill:#4FBA6F;" d="M19.822,0c-0.711,0.076-1.404,0.15-2.07,0.221C11.033,0.936,1.177,3.696,0,13.357l0.008,0.002
	c0.587-0.242,1.214-0.566,1.693-0.914l-0.068,0.039c0.159-0.432,0.507-1.209,1.336-2.809c0.626-1.207,1.475-2.19,2.86-3.174
	s2.727-1.609,4.693-2.279c1.965-0.67,4.202-1.118,7.286-1.654c0.686-0.119,1.438-0.249,2.23-0.383l-0.016-0.014
	c0-0.581,0.008-1.412-0.172-2.172H19.822z"/>
</svg>
