<?xml version="1.0" encoding="utf-8"?>
<!-- Generator: Adobe Illustrator 16.0.0, SVG Export Plug-In . SVG Version: 6.00 Build 0)  -->
<!DOCTYPE svg PUBLIC "-//W3C//DTD SVG 1.1//EN" "http://www.w3.org/Graphics/SVG/1.1/DTD/svg11.dtd">
<svg version="1.1" id="Layer_1" xmlns="http://www.w3.org/2000/svg" xmlns:xlink="http://www.w3.org/1999/xlink" x="0px" y="0px"
	 width="25.781px" height="10.739px" viewBox="0 0 25.781 10.739" enable-background="new 0 0 25.781 10.739" xml:space="preserve">
<path fill="#FFCD8A" d="M25.703,0.03c-3.438,0.625-7.062,3.875-8.812,4.938s-3.438,2.125-5,3.188s-3.125,1.688-4.438,1.938
	S2.688,10.795,0,10.733h0.006v-0.531l0.01-0.016c1.562,0.312,4.188,0.094,6.5-0.844s4.688-2.312,6.5-3.5
	c0.376-0.247,0.908-0.629,1.516-1.08c2.312-1.72,5.714-4.438,5.714-4.438l0.083,0.01C22.223,0.207,24.067,0.092,25.781,0
	L25.703,0.03z"/>
</svg>
