<?xml version="1.0" encoding="iso-8859-1"?>
<!-- Generator: Adobe Illustrator 16.0.0, SVG Export Plug-In . SVG Version: 6.00 Build 0)  -->
<!DOCTYPE svg PUBLIC "-//W3C//DTD SVG 1.1//EN" "http://www.w3.org/Graphics/SVG/1.1/DTD/svg11.dtd">
<svg version="1.1" id="Layer_1" xmlns="http://www.w3.org/2000/svg" xmlns:xlink="http://www.w3.org/1999/xlink" x="0px" y="0px"
	 width="39.533px" height="15.772px" viewBox="0 0 39.533 15.772" style="enable-background:new 0 0 39.533 15.772;"
	 xml:space="preserve">
<path style="fill:#4FBA6F;" d="M6.239,13.834c-1.236-0.629-2.767-1.007-4.428-1.018C1.187,12.813,0.58,12.841,0,12.935
	c5.131-0.622,11.808-1.69,17.221-1.872c6.227-0.211,12.465-1.367,17.742-3.421c0.711-0.276,1.164-0.683,1.539-1.104l-0.053,0.016
	c0.723-0.507,1.014-1.104-0.117-1.761c-2.172-1.262-6.404-2.507-8.609-3.094c-4.871-1.296-7.829-1.773-16.805-1.341l-0.071-0.009
	C14.278,0.125,16.674,0,21.242,0c4.201,0,8.002-0.03,11.354,0.536c3.441,0.581,6.928,1.967,6.928,1.967v0.003v11.219l0.01-0.031
	c-2.438,1.283-7.445,1.812-14.172,2.016c-0.746,0.022-1.512,0.041-2.297,0.056c-4.729,0.09-11.717-0.759-16.75-1.931H6.239z
	 M35.877,2.721c-0.129,0.455,0.523,0.928,1.406,1.178c0.883,0.252,1.664,0.185,1.793-0.271c0.129-0.454-0.549-0.861-1.432-1.11
	C36.762,2.266,36.006,2.266,35.877,2.721z"/>
</svg>
