<?xml version="1.0" encoding="iso-8859-1"?>
<!-- Generator: Adobe Illustrator 16.0.0, SVG Export Plug-In . SVG Version: 6.00 Build 0)  -->
<!DOCTYPE svg PUBLIC "-//W3C//DTD SVG 1.1//EN" "http://www.w3.org/Graphics/SVG/1.1/DTD/svg11.dtd">
<svg version="1.1" id="Layer_1" xmlns="http://www.w3.org/2000/svg" xmlns:xlink="http://www.w3.org/1999/xlink" x="0px" y="0px"
	 width="59.703px" height="16.289px" viewBox="0 0 59.703 16.289" style="enable-background:new 0 0 59.703 16.289;"
	 xml:space="preserve">
<path style="fill:#4FBA6F;" d="M59.688,1.008C46.357,1.54,27.655,6.586,13.934,11.261c-3.615,1.232-9.356,3.299-12.464,4.375
	c-0.238,0.083-0.474,0.19-0.694,0.322l-0.039,0.02c-0.216,0.088-0.446,0.182-0.688,0.283L0,16.289
	c2.232-2.449,4.703-3.891,8.203-5.016s9.875-2.875,15-4.5s12.809-3.433,19-4.75c5.875-1.25,10-1.875,12.375-2s4.375,0.25,5.125,1
	L59.688,1.008z"/>
</svg>
