<?xml version="1.0" encoding="iso-8859-1"?>
<!-- Generator: Adobe Illustrator 16.0.0, SVG Export Plug-In . SVG Version: 6.00 Build 0)  -->
<!DOCTYPE svg PUBLIC "-//W3C//DTD SVG 1.1//EN" "http://www.w3.org/Graphics/SVG/1.1/DTD/svg11.dtd">
<svg version="1.1" id="Layer_1" xmlns="http://www.w3.org/2000/svg" xmlns:xlink="http://www.w3.org/1999/xlink" x="0px" y="0px"
	 width="148.77px" height="60.008px" viewBox="0 0 148.77 60.008" style="enable-background:new 0 0 148.77 60.008;"
	 xml:space="preserve">
<path style="fill:#FFCD8A;" d="M129.232,3.594c5.396-0.215,9.911,0.309,12.861,1.896c2.719,1.463,5.275,4.042,6.652,7.638
	c0.008,0.02,0.016,0.041,0.023,0.061l-0.02-0.015c-0.678-1.896-1.596-3.985-3.3-7.113l-0.127,0.05c0,0-2.656-1.812-6.031-3.188
	c-1.721-0.701-5.25-1.875-9-2.625s-12.75,0-21,1.25s-19.25,5.125-26.625,7.25c-8.356,2.408-17,6.125-23.375,8.625
	c-5.425,2.127-13,6.25-19.25,9.625s-11.5,6.125-15.875,9.5C14.605,43.925,5.875,50.486,0,54.361l0.095-0.051
	c1.572,1.725,3.32,3.687,5.126,5.664l-0.005,0.033c9.879-9.352,20.682-17.916,29.5-23.747c5.353-3.539,10.326-6.242,19.085-10.276
	l0.059-0.045c3.479-1.603,11.518-5.329,15.734-7.092l-0.048,0.027c2.232-2.449,4.703-3.891,8.203-5.016s9.875-2.875,15-4.5
	s12.809-3.433,19-4.75c5.875-1.25,10-1.875,12.375-2s4.375,0.25,5.125,1L129.232,3.594z"/>
</svg>
