<?xml version="1.0" encoding="iso-8859-1"?>
<!-- Generator: Adobe Illustrator 16.0.0, SVG Export Plug-In . SVG Version: 6.00 Build 0)  -->
<!DOCTYPE svg PUBLIC "-//W3C//DTD SVG 1.1//EN" "http://www.w3.org/Graphics/SVG/1.1/DTD/svg11.dtd">
<svg version="1.1" id="Layer_1" xmlns="http://www.w3.org/2000/svg" xmlns:xlink="http://www.w3.org/1999/xlink" x="0px" y="0px"
	 width="354.894px" height="314.375px" viewBox="0 0 354.894 314.375" style="enable-background:new 0 0 354.894 314.375;"
	 xml:space="preserve">
<path style="fill:#FFCD8A;" d="M352.859,313.594c-1.721-0.701-5.234-1.875-8.984-2.625c-3.057-0.611-9.604-0.273-16.389,0.567
	l0.012-0.028l-0.154-1.945l0.029-0.014c2.292-0.209,4.543-0.291,9.709-0.209c5.168,0.084,10.708,0.334,12.708,1.043
	c2,0.708,3.417,1.666,4.208,2.291c0.792,0.625,1.221,1.534,0.596,1.701C354.594,314.375,353.463,313.84,352.859,313.594z"/>
<path style="fill:#FFCD8A;" d="M25.516,4.285c-1.721-0.701-5.234-1.875-8.984-2.625C13.474,1.049,6.927,1.387,0.143,2.228
	l0.012-0.029L0,0.254L0.03,0.24c2.292-0.208,4.542-0.292,9.709-0.208c5.167,0.083,10.708,0.333,12.708,1.042
	s3.417,1.667,4.208,2.292c0.792,0.625,1.221,1.534,0.596,1.701C27.25,5.066,26.119,4.531,25.516,4.285z"/>
</svg>
