<?xml version="1.0" encoding="iso-8859-1"?>
<!-- Generator: Adobe Illustrator 16.0.0, SVG Export Plug-In . SVG Version: 6.00 Build 0)  -->
<!DOCTYPE svg PUBLIC "-//W3C//DTD SVG 1.1//EN" "http://www.w3.org/Graphics/SVG/1.1/DTD/svg11.dtd">
<svg version="1.1" id="Layer_1" xmlns="http://www.w3.org/2000/svg" xmlns:xlink="http://www.w3.org/1999/xlink" x="0px" y="0px"
	 width="140.802px" height="58.983px" viewBox="0 0 140.802 58.983" style="enable-background:new 0 0 140.802 58.983;"
	 xml:space="preserve">
<path style="fill:#FFCD8A;" d="M140.794,3.207c-0.304-0.227-0.625-0.45-0.967-0.672c-3.334-2.167-7.916-2.833-13.083-2.417
	s-11.167,1.25-22.667,3.583c-5.01,1.016-10.114,2.223-15.23,3.604c-6.629,1.791-13.279,3.878-19.77,6.229
	c-11.5,4.167-26.166,11.75-32.666,15.667c-6.5,3.917-14.417,9.416-21.167,14.666C9.748,48.142,4.804,52.804,0.008,57.583L0,57.616
	c0.403,0.436,0.823,0.893,1.256,1.367l-0.012-0.012c5.875-3.875,14.605-10.421,24.167-17.797c4.375-3.375,9.641-6.109,15.891-9.484
	c6.25-3.375,13.81-7.497,19.234-9.625c6.375-2.5,15.019-6.186,23.375-8.594c7.375-2.125,18.359-6.016,26.609-7.266
	c1.524-0.231,3.135-0.435,4.672-0.625l-0.033-0.086l-0.154-1.945l0.072-0.014c0,0,3.332-0.417,5.25-0.708
	c1.916-0.292,3.75-0.458,7.625-0.5s8.891,0.42,12.85,0.878H140.794z"/>
</svg>
