<?xml version="1.0" encoding="iso-8859-1"?>
<!-- Generator: Adobe Illustrator 16.0.0, SVG Export Plug-In . SVG Version: 6.00 Build 0)  -->
<!DOCTYPE svg PUBLIC "-//W3C//DTD SVG 1.1//EN" "http://www.w3.org/Graphics/SVG/1.1/DTD/svg11.dtd">
<svg version="1.1" id="Layer_1" xmlns="http://www.w3.org/2000/svg" xmlns:xlink="http://www.w3.org/1999/xlink" x="0px" y="0px"
	 width="31.734px" height="8.535px" viewBox="0 0 31.734 8.535" style="enable-background:new 0 0 31.734 8.535;"
	 xml:space="preserve">
<path style="fill:#4FBA6F;" d="M31.625,8.535l0.109-0.031c-0.066-0.121-0.152-0.219-0.219-0.344
	c-1.641-3.047-2.995-5.283-5.656-7.266l0.016-0.016c-3.959-0.458-8.953-0.917-12.828-0.875s-5.739,0.208-7.656,0.5S0,1.237,0,1.237
	L0.031,1.3C2.323,1.091,4.63,0.982,9.797,1.065s10.812,0.354,12.812,1.062s3.328,1.693,4.119,2.318
	c0.792,0.625,1.162,1.495,0.6,1.636L31.625,8.535z"/>
</svg>
