<?xml version="1.0" encoding="iso-8859-1"?>
<!-- Generator: Adobe Illustrator 16.0.0, SVG Export Plug-In . SVG Version: 6.00 Build 0)  -->
<!DOCTYPE svg PUBLIC "-//W3C//DTD SVG 1.1//EN" "http://www.w3.org/Graphics/SVG/1.1/DTD/svg11.dtd">
<svg version="1.1" id="Layer_1" xmlns="http://www.w3.org/2000/svg" xmlns:xlink="http://www.w3.org/1999/xlink" x="0px" y="0px"
	 width="64.393px" height="34.48px" viewBox="0 0 64.393 34.48" style="enable-background:new 0 0 64.393 34.48;"
	 xml:space="preserve">
<path style="fill:#FFCD8A;" d="M35.152,0.994c0.328,0.422,0.689,0.895,1.07,1.428l0.021,0.033c-4.335,2.334-8.748,5.04-12.347,7.805
	c-3.887,2.984-7.054,5.843-8.978,7.98c-1.812,2.014-4.012,4.809-5.059,6.414c-1.304,1.998-3.135,4.086-2.595,5.135
	c0.023,0.045,0.051,0.088,0.083,0.129c0.737,0.941,3.023,0.691,5.078,0.436c1.698-0.211,4.763-0.711,9.619-1.426
	c4.845-0.711,12.964-1.82,19.88-2.707c6.898-0.883,12.662-1.617,15.699-2.141c0.795-0.137,1.656-0.275,2.553-0.412
	c1.359-0.209,2.801-0.414,4.217-0.611l-0.031,0.021c-1.521,0.514-4.002,0.82-5.781,1.156c-7.893,1.492-17.023,2.963-23.639,4.125
	c-5.241,0.918-13.625,2.111-19.025,2.992c-4.407,0.719-12.493,1.961-15.899,3.102L0,34.48c0.17-0.357,0.474-0.98,0.887-1.77
	L0.88,32.703c0.535,0.166,1.165,0.246,1.603-0.844c0.423-1.055,0.137-1.277-0.316-1.494l0.003,0.023
	c0.134-0.232,0.273-0.467,0.417-0.705c1.674-2.779,3.312-5.309,5.307-7.801c1.995-2.494,3.349-4.025,6.198-6.839
	c2.85-2.814,5.949-5.628,10.045-8.549c3.663-2.612,6.557-4.513,10.234-6.49V0C34.604,0.298,34.865,0.627,35.152,0.994"/>
</svg>
