<?xml version="1.0" encoding="iso-8859-1"?>
<!-- Generator: Adobe Illustrator 16.0.0, SVG Export Plug-In . SVG Version: 6.00 Build 0)  -->
<!DOCTYPE svg PUBLIC "-//W3C//DTD SVG 1.1//EN" "http://www.w3.org/Graphics/SVG/1.1/DTD/svg11.dtd">
<svg version="1.1" id="Layer_1" xmlns="http://www.w3.org/2000/svg" xmlns:xlink="http://www.w3.org/1999/xlink" x="0px" y="0px"
	 width="20.558px" height="7.469px" viewBox="0 0 20.558 7.469" style="enable-background:new 0 0 20.558 7.469;"
	 xml:space="preserve">
<path style="fill:#FFCD8A;" d="M0,5.383c1.57-0.026,2.817,0.379,2.848,0.95c0.024,0.463-0.761,0.903-1.895,1.128l0.099,0.008
	C2.306,7.32,3.577,7.129,4.98,6.861c5.241-0.998,7.481-1.609,9.664-2.856l0.065-0.023c0.259-0.247,0.599-0.463,0.986-0.625
	c1.271-0.531,2.786-1.362,4.008-2.344c0.29-0.233,0.574-0.47,0.854-0.715l-0.025-0.012c-0.951-0.793-2.611,0.198-4.672,1.387
	c-2.062,1.189-3.869,1.799-6.421,2.458C6.982,4.764,4.032,5.129,0.017,5.363L0,5.383z"/>
</svg>
