<?xml version="1.0" encoding="iso-8859-1"?>
<!-- Generator: Adobe Illustrator 16.0.0, SVG Export Plug-In . SVG Version: 6.00 Build 0)  -->
<!DOCTYPE svg PUBLIC "-//W3C//DTD SVG 1.1//EN" "http://www.w3.org/Graphics/SVG/1.1/DTD/svg11.dtd">
<svg version="1.1" id="Layer_1" xmlns="http://www.w3.org/2000/svg" xmlns:xlink="http://www.w3.org/1999/xlink" x="0px" y="0px"
	 width="25.021px" height="30.47px" viewBox="0 0 25.021 30.47" style="enable-background:new 0 0 25.021 30.47;"
	 xml:space="preserve">
<path style="fill:#4FBA6F;stroke:#FDFBE4;stroke-width:0.1425;stroke-linecap:round;stroke-linejoin:round;" d="M5.827,24.172
	c0.128-0.878,0.173-1.775,0.151-2.58c-0.036-1.33-0.28-2.883-0.562-4.027c-0.213-0.865-0.722-2.491-1.291-3.6
	c-0.674-1.312-1.679-2.503-2.495-3.349c-0.066-0.069-0.132-0.137-0.198-0.204l0.029,0.01c0.356-0.57-0.603-1.507-1.387-1.293
	L0.071,9.126c0.342-0.73,0.49-1.611,0.688-2.475c0.358-1.561,2.153-3.029,3.66-3.694C6.842,1.89,9.572,0.95,11.687,0.464
	c1.965-0.451,5.352-0.592,7.695,0c2.387,0.604,4.979,2.404,5.568,7.274l-0.011-0.047v6.875v9.198h-0.006
	c-1.921,0.162-5.388,0.412-8.081,0.838c-2.707,0.427-5.287,0.954-7.125,1.566c-0.278,0.094-0.547,0.229-0.806,0.4
	c-1.134,0.75-2.075,2.197-2.667,3.793l-0.022,0.033c-1.388,0.062-3.854-0.682-5.047-1.609l-0.039-0.033
	c0.038,0.023,0.076,0.047,0.115,0.068c2.209,1.211,3.42-0.861,4.013-2.42C5.531,25.725,5.712,24.956,5.827,24.172z"/>
</svg>
