<?xml version="1.0" encoding="utf-8"?>
<!-- Generator: Adobe Illustrator 16.0.0, SVG Export Plug-In . SVG Version: 6.00 Build 0)  -->
<!DOCTYPE svg PUBLIC "-//W3C//DTD SVG 1.1//EN" "http://www.w3.org/Graphics/SVG/1.1/DTD/svg11.dtd">
<svg version="1.1" id="Layer_1" xmlns="http://www.w3.org/2000/svg" xmlns:xlink="http://www.w3.org/1999/xlink" x="0px" y="0px"
	 width="36.479px" height="37.522px" viewBox="0 0 36.479 37.522" enable-background="new 0 0 36.479 37.522" xml:space="preserve">
<path fill="#FFCD8A" d="M27.645,37.209c-1.833-3.677-4.502-7.603-7.541-10.366c-4.077-3.707-13.527-8.375-20.082-9.088L0,17.751
	c0.329-3.139,0.906-6.557,2.024-10.493C2.799,4.535,3.642,2.128,4.603,0l0.028,0.005c2.708,1.283,8.292,4.915,11.482,7.458
	c3.979,3.17,7.77,6.632,12.256,11.828c4.818,5.582,7.696,12.512,8.123,18.212l-0.013,0.02c-2.876-0.21-5.899-0.313-8.835-0.284
	V37.209z"/>
</svg>
