<?xml version="1.0" encoding="utf-8"?>
<!-- Generator: Adobe Illustrator 16.0.0, SVG Export Plug-In . SVG Version: 6.00 Build 0)  -->
<!DOCTYPE svg PUBLIC "-//W3C//DTD SVG 1.1//EN" "http://www.w3.org/Graphics/SVG/1.1/DTD/svg11.dtd">
<svg version="1.1" id="Layer_1" xmlns="http://www.w3.org/2000/svg" xmlns:xlink="http://www.w3.org/1999/xlink" x="0px" y="0px"
	 width="44.664px" height="8.758px" viewBox="0 0 44.664 8.758" enable-background="new 0 0 44.664 8.758" xml:space="preserve">
<path fill="#FFCD8A" d="M1.431,5.057c0.998-1.105,3.947-2.221,6.023-2.801c3.039-0.849,6.435-1.879,11.04-2.101
	C27.47-0.277,30.427,0.2,35.298,1.496c2.205,0.587,6.438,1.833,8.609,3.094c1.426,0.828,0.59,1.561-0.515,2.139
	c-0.822,0.43-2.335,0.912-3.776,1.188c-1.164,0.224-3.096,0.504-4.347,0.592c-2.021,0.142-5.08,0.271-7.328,0.246
	c-3.134-0.032-6.398-0.104-9.63-0.104c-4.56,0-11.948-0.147-15.248-0.356C-1.599,8,0.101,6.533,1.431,5.057z"/>
</svg>
