<?xml version="1.0" encoding="iso-8859-1"?>
<!-- Generator: Adobe Illustrator 16.0.0, SVG Export Plug-In . SVG Version: 6.00 Build 0)  -->
<!DOCTYPE svg PUBLIC "-//W3C//DTD SVG 1.1//EN" "http://www.w3.org/Graphics/SVG/1.1/DTD/svg11.dtd">
<svg version="1.1" id="Layer_1" xmlns="http://www.w3.org/2000/svg" xmlns:xlink="http://www.w3.org/1999/xlink" x="0px" y="0px"
	 width="29.456px" height="4.156px" viewBox="0 0 29.456 4.156" style="enable-background:new 0 0 29.456 4.156;"
	 xml:space="preserve">
<path style="fill:#FFCD8A;" d="M0.015,3.639c0.391,0.266,0.844,0.359,1.524,0.359C2.909,4,4.699,3.933,6.608,3.879
	c2.147-0.059,3.638,0.119,5.368-0.178c1.73-0.299,3.042-0.656,3.639-0.835c0.596-0.179,0.895-0.775,1.133-1.133
	c0.238-0.358,1.193-0.775,2.146-0.775c0.955,0,2.445,0,3.4,0.239c0.954,0.238,1.67,0.537,2.505,0.835
	c0.656,0.234,2.706,1.798,4.653,2.107l-0.023,0.018c0.004-0.037,0.008-0.074,0.012-0.111l0.016,0.017
	c-2.16-0.424-4.044-2.454-5.373-2.985C22.89,0.6,21.399,0.063,20.087,0.003c-1.312-0.06-2.684,0.715-3.34,1.073
	S15.435,1.912,14.48,2.21c-0.954,0.298-1.849,0.537-3.161,0.775c-1.312,0.239-3.885,0.394-5.559,0.417
	C3.405,3.436,3.249,3.436,3.14,3.295l-0.03,0.014C3.045,3.314,2.98,3.32,2.915,3.325C1.399,3.447,0.609,3.522,0,3.63L0.015,3.639z"
	/>
</svg>
