<?xml version="1.0" encoding="iso-8859-1"?>
<!-- Generator: Adobe Illustrator 16.0.0, SVG Export Plug-In . SVG Version: 6.00 Build 0)  -->
<!DOCTYPE svg PUBLIC "-//W3C//DTD SVG 1.1//EN" "http://www.w3.org/Graphics/SVG/1.1/DTD/svg11.dtd">
<svg version="1.1" id="Layer_1" xmlns="http://www.w3.org/2000/svg" xmlns:xlink="http://www.w3.org/1999/xlink" x="0px" y="0px"
	 width="272.098px" height="13.467px" viewBox="0 0 272.098 13.467" style="enable-background:new 0 0 272.098 13.467;"
	 xml:space="preserve">
<path style="fill:#4FBA6F;" d="M272.035,6.114c-0.14-0.391-0.484-0.719-0.983-0.719c-0.463,0-1.547,0.016-2.323,0.02
	c-1.995,0.01-4.133,0-8.123,0c-3.989,0-10.688,0-16.388,0s-5.131-0.855-6.556-1.71s-2.992-2.28-3.847-2.85
	C232.96,0.285,231.25,0,230.11,0c-1.141,0-7.553,0-21.376,0s-24.227,0-28.786,0c-4.561,0-4.988,1.14-6.412,1.853
	c-1.141,0.57-2.281,1.425-3.705,2.28c-1.426,0.855-3.421,1.425-7.695,1.425c-4.275,0-49.021,0-87.07,0
	c-2.28,0-4.133-0.712-5.701-1.567c-1.231-0.672-2.279-1.568-3.135-2.138c-0.854-0.57-3.135-0.998-4.417-0.998
	c-1.283,0-5.7,0-16.53,0c-10.118,0-18.241,0-23.371,0c-4.703,0-5.558,0-6.413,0c-0.854,0-1.639,0.285-2.208,0.712
	c-0.484,0.363-1.212,0.713-1.64,1.14c-0.427,0.428-1.14,0.784-1.853,1.425C9.085,4.774,8.444,5.344,7.233,5.558
	C6.598,5.67,5.237,5.771,4.099,5.771C1.817,5.771,0,6.555,0,7.588c0,1.034,2.062,0.714,4.24,0.819c1.261,0.062,2.494,0,3.135,0.072
	c0.642,0.07,1.567,0.213,2.28,0.854s1.568,0.997,1.995,1.425c0.428,0.428,1.155,0.777,1.64,1.141
	c0.569,0.428,1.354,0.713,2.208,0.713c0.855,0,1.71,0,6.413,0c5.13,0,13.253,0,23.371,0c10.83,0,15.247,0,16.53,0
	c1.282,0,3.562-0.428,4.417-0.998c0.855-0.57,1.903-1.466,3.135-2.138c1.568-0.854,3.421-1.567,5.701-1.567
	c38.049,0,82.795,0,87.07,0c4.274,0,6.27,0.57,7.695,1.425c1.424,0.854,2.564,1.71,3.705,2.28c1.424,0.713,1.852,1.853,6.412,1.853
	c4.56,0,14.963,0,28.786,0s20.235,0,21.376,0c1.14,0,2.85-0.285,3.705-0.854c0.854-0.57,2.422-1.996,3.847-2.852
	c1.425-0.854,0.855-1.709,6.556-1.709s12.398,0,16.388,0c3.99,0,6.128,0,8.123,0s2.28,0,2.743,0c0.499,0,0.597-0.56,0.626-0.797
	L272.035,6.114z"/>
</svg>
