<?xml version="1.0" encoding="iso-8859-1"?>
<!-- Generator: Adobe Illustrator 16.0.0, SVG Export Plug-In . SVG Version: 6.00 Build 0)  -->
<!DOCTYPE svg PUBLIC "-//W3C//DTD SVG 1.1//EN" "http://www.w3.org/Graphics/SVG/1.1/DTD/svg11.dtd">
<svg version="1.1" id="Layer_1" xmlns="http://www.w3.org/2000/svg" xmlns:xlink="http://www.w3.org/1999/xlink" x="0px" y="0px"
	 width="24.285px" height="13.102px" viewBox="0 0 24.285 13.102" style="enable-background:new 0 0 24.285 13.102;"
	 xml:space="preserve">
<path style="fill:#4FBA6F;" d="M23.525,0c0.167,0.417,0.125,1-0.041,1.583s-0.334,1.5-1.041,2.5c-0.709,1-2.334,2-3.793,2.625
	c-0.735,0.315-2.082,0.82-3.244,1.198L15.4,7.917l-1.541,0.417V8.328c-0.204,0.059-0.564,0.184-0.765,0.238
	c-0.294,0.08-0.583,0.156-0.86,0.226c-2.167,0.542-5.25,1.292-7.458,1.833c-1.438,0.353-3.247,0.758-4.759,1.102L0,11.694
	c0.322,0.358,0.63,0.806,0.943,1.348l0.042,0.06c5.218-1.004,10.852-2.283,14.779-3.558c3.222-1.046,5.191-2.317,6.971-3.752
	c0.08-0.064,0.157-0.133,0.23-0.204c1.012-0.981,1.389-2.559,1.311-3.879c-0.021-0.364-0.196-0.86-0.5-1.339
	C23.641,0.156,23.525,0,23.525,0z"/>
</svg>
