<?xml version="1.0" encoding="iso-8859-1"?>
<!-- Generator: Adobe Illustrator 16.0.0, SVG Export Plug-In . SVG Version: 6.00 Build 0)  -->
<!DOCTYPE svg PUBLIC "-//W3C//DTD SVG 1.1//EN" "http://www.w3.org/Graphics/SVG/1.1/DTD/svg11.dtd">
<svg version="1.1" id="Layer_1" xmlns="http://www.w3.org/2000/svg" xmlns:xlink="http://www.w3.org/1999/xlink" x="0px" y="0px"
	 width="37.144px" height="5.56px" viewBox="0 0 37.144 5.56" style="enable-background:new 0 0 37.144 5.56;" xml:space="preserve"
	>
<path style="fill:#FFCD8A;" d="M0,1.555V0l0.003,0.013c0,0,1.403,0.062,2.722,0.062c1.317,0,3.276,0,5.485,0.143
	c2.208,0.143,5.058,0.463,7.088,0.712c2.03,0.249,4.239,0.57,6.731,0.997c2.494,0.428,5.842,1.069,8.122,1.496
	c1.986,0.373,4.623,0.934,6.989,1.379l0.003,0.022C36.472,5.143,35.7,5.382,34.83,5.558L34.815,5.56
	c-1.854-0.356-5.734-1.172-8.547-1.422c-2.986-0.266-6.812-0.75-10.688-1.5C12.128,1.969,6.859,1.513,3.644,1.513
	c-1.136,0-2.391,0.035-3.616,0.097L0,1.555z"/>
</svg>
