<?xml version="1.0" encoding="iso-8859-1"?>
<!-- Generator: Adobe Illustrator 16.0.0, SVG Export Plug-In . SVG Version: 6.00 Build 0)  -->
<!DOCTYPE svg PUBLIC "-//W3C//DTD SVG 1.1//EN" "http://www.w3.org/Graphics/SVG/1.1/DTD/svg11.dtd">
<svg version="1.1" id="Layer_1" xmlns="http://www.w3.org/2000/svg" xmlns:xlink="http://www.w3.org/1999/xlink" x="0px" y="0px"
	 width="12.298px" height="16.5px" viewBox="0 0 12.298 16.5" style="enable-background:new 0 0 12.298 16.5;" xml:space="preserve"
	>
<path style="fill:#4FBA6F;" d="M0.02,7C-0.017,5.575-0.01,3.113,0.098,1.438l0.041,0.013c1.282,0,2.395-0.049,3.776-0.285
	c1.46-0.25,3.055-0.542,4.559-0.819C9.822,0.098,11.251,0.036,12.285,0l0.002,0c0,7.63,0,15.682,0.001,16.484l0.011,0.016h-0.029
	c-0.75-0.996-2.372-3.877-2.976-5.52c-0.018-0.049-0.036-0.098-0.057-0.146l0.001,0.01c0.179-1.781-0.261-3.537-1.44-4.014
	C6.822,6.436,4.415,6.54,2.848,7.11l0.035-0.006C2.045,7.025,1.139,6.991,0.316,6.99c-0.092,0-0.187,0.001-0.284,0.003L0.02,7z"/>
</svg>
