<?xml version="1.0" encoding="utf-8"?>
<!-- Generator: Adobe Illustrator 16.0.0, SVG Export Plug-In . SVG Version: 6.00 Build 0)  -->
<!DOCTYPE svg PUBLIC "-//W3C//DTD SVG 1.1//EN" "http://www.w3.org/Graphics/SVG/1.1/DTD/svg11.dtd">
<svg version="1.1" id="Layer_1" xmlns="http://www.w3.org/2000/svg" xmlns:xlink="http://www.w3.org/1999/xlink" x="0px" y="0px"
	 width="19.146px" height="16.531px" viewBox="0 0 19.146 16.531" enable-background="new 0 0 19.146 16.531" xml:space="preserve">
<g>
	<path fill="#FECD8A" d="M2.883,7.119c-0.004,0-0.009,0-0.013-0.001C2.863,7.121,2.855,7.123,2.848,7.125L2.883,7.119z"/>
	<polygon fill="#FECD8A" points="9.239,10.859 9.239,10.853 9.238,10.85 	"/>
	<path fill="#FECD8A" d="M19.143,0.945C17.8,0.765,16.62,0.591,15.636,0.45C14.573,0.298,13.395,0.109,12.286,0l0.002,0.015
		l-0.002,0c-1.033,0.036-2.463,0.098-3.811,0.346c-1.505,0.277-3.1,0.57-4.56,0.819C2.534,1.417,1.421,1.466,0.139,1.466
		L0.098,1.453C-0.009,3.128-0.016,5.59,0.02,7.016l0.013-0.007C0.13,7.006,0.225,7.005,0.317,7.005c0.818,0,1.719,0.035,2.553,0.113
		c1.568-0.563,3.957-0.665,4.928-0.273c1.178,0.476,1.618,2.229,1.441,4.008c0.02,0.047,0.038,0.094,0.055,0.143
		c0.604,1.643,2.226,4.523,2.976,5.52h0.029L12.289,16.5l0.044,0.031c1.031-1.455,3.283-2.129,6.231-2.357l0.009-0.023l0.573-13.228
		L19.143,0.945z"/>
</g>
</svg>
