<?xml version="1.0" encoding="iso-8859-1"?>
<!-- Generator: Adobe Illustrator 16.0.0, SVG Export Plug-In . SVG Version: 6.00 Build 0)  -->
<!DOCTYPE svg PUBLIC "-//W3C//DTD SVG 1.1//EN" "http://www.w3.org/Graphics/SVG/1.1/DTD/svg11.dtd">
<svg version="1.1" id="Layer_1" xmlns="http://www.w3.org/2000/svg" xmlns:xlink="http://www.w3.org/1999/xlink" x="0px" y="0px"
	 width="21.064px" height="8.018px" viewBox="0 0 21.064 8.018" style="enable-background:new 0 0 21.064 8.018;"
	 xml:space="preserve">
<path style="fill:#FFCD8A;" d="M11.47,2.022c2.457-0.461,4.727-0.948,6.392-1.228c1.072-0.18,2.156-0.481,3.203-0.794l-0.002,0.016
	c-0.107,1.675-0.114,4.137-0.078,5.562l0.013-0.008c-0.953,0.02-2.19,0.127-3.311,0.271l0.001,0.003
	c-1.141-0.355-2.962-0.436-4.244-0.293c-1.276,0.141-2.992,0.498-4.347,0.926C7.722,6.911,6.108,7.439,4.969,7.938L4.938,7.98
	C4.034,8.012,3.1,8.02,2.156,8l0.002,0.018C1.474,7.964,0.772,7.908,0.051,7.853l0.022-0.036L0,2.938l0.017-0.001
	c3.585,0.09,7.068-0.154,9.151-0.504C9.945,2.303,10.717,2.164,11.47,2.022"/>
</svg>
