<?xml version="1.0" encoding="iso-8859-1"?>
<!-- Generator: Adobe Illustrator 16.0.0, SVG Export Plug-In . SVG Version: 6.00 Build 0)  -->
<!DOCTYPE svg PUBLIC "-//W3C//DTD SVG 1.1//EN" "http://www.w3.org/Graphics/SVG/1.1/DTD/svg11.dtd">
<svg version="1.1" id="Layer_1" xmlns="http://www.w3.org/2000/svg" xmlns:xlink="http://www.w3.org/1999/xlink" x="0px" y="0px"
	 width="74.211px" height="107.311px" viewBox="0 0 74.211 107.311" style="enable-background:new 0 0 74.211 107.311;"
	 xml:space="preserve">
<path style="fill:#FFCD8A;" d="M36.291,64.346c-2.803,3.537-4.92,6.875-6.833,10.219c-2.271,3.968-4.512,8.385-6.413,12.588
	c-1.736,3.836-2.615,6.174-4.132,9.616c-1.23,2.792-2.507,5.052-5.043,6.248c-3.707,1.748-8.777,3.086-11.164,3.722l-0.016,0.016
	c-0.33,0.062-0.734,0.154-1.054,0.211c-0.574,0.104-1.119,0.219-1.635,0.346l0.006-0.03c-0.054-9.864,2.69-17.116,6.1-25.932
	c3.698-9.564,9.093-20.28,16.321-31.201C33.476,33.452,46.287,18.385,64.43,0.047L64.443,0c0.281,0.242,0.559,0.554,0.818,0.951
	l8.949,19.313l-0.006,0.021c-8.051,3.634-16.883,9.599-23.221,16.141c-6.225,6.426-10.315,14.971-14.686,27.891L36.291,64.346z"/>
</svg>
