<?xml version="1.0" encoding="utf-8"?>
<!-- Generator: Adobe Illustrator 16.0.0, SVG Export Plug-In . SVG Version: 6.00 Build 0)  -->
<!DOCTYPE svg PUBLIC "-//W3C//DTD SVG 1.1//EN" "http://www.w3.org/Graphics/SVG/1.1/DTD/svg11.dtd">
<svg version="1.1" id="Layer_1" xmlns="http://www.w3.org/2000/svg" xmlns:xlink="http://www.w3.org/1999/xlink" x="0px" y="0px"
	 width="80.18px" height="85.074px" viewBox="0 0 80.18 85.074" enable-background="new 0 0 80.18 85.074" xml:space="preserve">
<path fill="#FFCD8A" d="M62.208,34.385c2.6,4.483,3.304,7.506,2.996,10.979c-0.344,3.884-1.931,9.174-3.922,13.153
	c-1.986,3.968-3.826,7.367-5.115,9.395c-2.148,3.378-4.105,3.362-6.98,2.404l-0.051-0.038c-0.323,2.215-0.942,5.023-1.299,6.947
	c-0.324,1.751-0.521,3.669-0.894,6.016c-0.128,0.806-0.229,1.428-0.294,1.834h0.018c7.686-3.861,13.071-8.192,16.766-12.227
	c4.32-4.717,7.146-8.848,9.035-11.814c1.607-2.525,3.897-6.586,5.122-9.266c1.857-4.061,3.508-11.16,2.004-16.1L62.208,34.385z"/>
<path fill="#FFCD8A" d="M79.594,35.667c-1.996-6.555-7.288-11.84-13.965-15.96C58.93,15.575,49.66,11.428,43.86,9.444
	c-5.742-1.964-13.805-4.631-17.871-5.72c-4.576-1.225-8.15-2.246-14.186-3.689L11.684,0C7.426,0.34,3.133,0.835,0.058,1.184L0,1.211
	c0.962-0.102,1.876-0.186,2.766-0.257c5.167-0.417,9.75,0.25,13.083,2.417c1.959,1.274,3.257,2.605,4.366,4.164l-0.01,0.06
	c7.125,2.28,17.478,6.507,24.902,11.258c3.166,2.026,6.246,4.2,8.979,6.488c3.419,2.86,6.296,5.897,8.122,9.045L79.594,35.667z"/>
</svg>
