<?xml version="1.0" encoding="utf-8"?>
<!-- Generator: Adobe Illustrator 16.0.0, SVG Export Plug-In . SVG Version: 6.00 Build 0)  -->
<!DOCTYPE svg PUBLIC "-//W3C//DTD SVG 1.1//EN" "http://www.w3.org/Graphics/SVG/1.1/DTD/svg11.dtd">
<svg version="1.1" id="Layer_1" xmlns="http://www.w3.org/2000/svg" xmlns:xlink="http://www.w3.org/1999/xlink" x="0px" y="0px"
	 width="79.594px" height="35.668px" viewBox="0 0 79.594 35.668" enable-background="new 0 0 79.594 35.668" xml:space="preserve">
<path fill="#FFCD8A" d="M79.594,35.668c-1.996-6.556-7.288-11.84-13.965-15.961C58.93,15.575,49.66,11.428,43.86,9.444
	c-5.742-1.964-13.805-4.631-17.871-5.72c-4.576-1.225-8.15-2.246-14.186-3.689L11.684,0C7.426,0.34,3.133,0.835,0.058,1.184L0,1.211
	c0.962-0.102,1.876-0.186,2.766-0.257c5.167-0.417,9.75,0.25,13.083,2.417c1.959,1.274,3.257,2.605,4.366,4.164l-0.01,0.06
	c7.125,2.28,17.478,6.507,24.902,11.258c3.166,2.026,6.246,4.2,8.979,6.488c3.419,2.86,6.296,5.897,8.122,9.045L79.594,35.668z"/>
</svg>
