<?xml version="1.0" encoding="iso-8859-1"?>
<!-- Generator: Adobe Illustrator 16.0.0, SVG Export Plug-In . SVG Version: 6.00 Build 0)  -->
<!DOCTYPE svg PUBLIC "-//W3C//DTD SVG 1.1//EN" "http://www.w3.org/Graphics/SVG/1.1/DTD/svg11.dtd">
<svg version="1.1" id="Layer_1" xmlns="http://www.w3.org/2000/svg" xmlns:xlink="http://www.w3.org/1999/xlink" x="0px" y="0px"
	 width="117.364px" height="66.295px" viewBox="0 0 117.364 66.295" style="enable-background:new 0 0 117.364 66.295;"
	 xml:space="preserve">
<path style="fill:#4FBA6F;" d="M11.208,66.295c1.333-0.334,2.901-2.24,3.901-4.406s1.667-4.166,2-6.334
	c0.333-2.166,2.167-1.166,1.667,0.834s-0.807,3.781-0.474,5.281l0.007-0.066c0.276-1.134,0.579-2.209,0.902-3.228
	c1.25-3.938,2.244-5.676,2.244-5.676l0.011,0.05l-0.027-0.088c0,0,0.712-1.853,1.46-3.491c0.748-1.64,1.924-3.919,3.1-5.843
	s2.814-4.311,4.489-6.448s3.812-4.631,5.843-6.662s4.417-4.204,6.662-5.985s4.917-3.848,8.515-6.092
	c3.598-2.245,5.665-3.385,8.657-4.81c2.993-1.425,5.985-2.778,10.226-4.168c4.238-1.39,6.84-2.031,9.547-2.529
	c2.708-0.499,4.988-0.926,6.805-1.211c1.817-0.285,4.275-0.605,6.199-0.855s5.236-0.641,8.051-0.962s6.52-0.712,9.264-1.033
	c2.743-0.321,4.951-0.534,7.09-0.784l0.02-0.024c-8.111-0.898-14.153-1.205-21.326-1.573c-2.8-0.144-6.489-0.184-10.33-0.19
	l-0.016,0.014c-1.52,1.434-3.388,2.406-5.835,3.178c-7.491,2.362-17.586,5.964-26.192,10.843
	c-9.251,5.244-18.613,13.295-26.486,18.617c-7.848,5.304-14.753,9.966-22.752,14.722v0.016c5.894-2.734,9.717-3.131,10.484,0.207
	c0.837,3.646,0.656,6.668-0.387,9.564c-1.13,3.14-3.177,5.436-6.357,6.102C6.009,63.715,2.911,63.929,0,63.929l0.021,0.022
	c3.895,0.57,7.564,1.443,9.979,2c0.396,0.092,0.796,0.206,1.197,0.343L11.208,66.295z"/>
</svg>
