<?xml version="1.0" encoding="iso-8859-1"?>
<!-- Generator: Adobe Illustrator 16.0.0, SVG Export Plug-In . SVG Version: 6.00 Build 0)  -->
<!DOCTYPE svg PUBLIC "-//W3C//DTD SVG 1.1//EN" "http://www.w3.org/Graphics/SVG/1.1/DTD/svg11.dtd">
<svg version="1.1" id="Layer_1" xmlns="http://www.w3.org/2000/svg" xmlns:xlink="http://www.w3.org/1999/xlink" x="0px" y="0px"
	 width="44.025px" height="6.065px" viewBox="0 0 44.025 6.065" style="enable-background:new 0 0 44.025 6.065;"
	 xml:space="preserve">
<path style="fill:#FFCD8A;" d="M43.893,3.679c-1.603,0.534-3.312,0.759-5.45,0.997c-2.833,0.316-7.802,0.314-11.079,0.285
	c-2.658-0.023-7.414-0.184-10.333-0.231C14.428,4.687,11.39,4.49,9.193,4.463c-1.894-0.024-3.832-0.041-5.27-0.087
	C1.94,4.313-0.681,4.033,5.935,0.1L6.041,0C4.214,0.616,2.217,1.492,1.431,2.363C0.101,3.84-1.599,5.308,3.065,5.602
	c3.3,0.209,10.688,0.357,15.248,0.357c3.231,0,6.497,0.071,9.63,0.104c2.248,0.023,5.308-0.104,7.328-0.246
	c1.251-0.088,3.182-0.369,4.347-0.592c1.441-0.276,2.954-0.76,3.776-1.189c0.228-0.119,0.443-0.245,0.631-0.377L43.893,3.679z"/>
</svg>
