<?xml version="1.0" encoding="iso-8859-1"?>
<!-- Generator: Adobe Illustrator 16.0.0, SVG Export Plug-In . SVG Version: 6.00 Build 0)  -->
<!DOCTYPE svg PUBLIC "-//W3C//DTD SVG 1.1//EN" "http://www.w3.org/Graphics/SVG/1.1/DTD/svg11.dtd">
<svg version="1.1" id="Layer_1" xmlns="http://www.w3.org/2000/svg" xmlns:xlink="http://www.w3.org/1999/xlink" x="0px" y="0px"
	 width="42.963px" height="7.666px" viewBox="0 0 42.963 7.666" style="enable-background:new 0 0 42.963 7.666;"
	 xml:space="preserve">
<path style="fill:#FFCD8A;" d="M42.191,6.371c-1.603,0.534-3.312,0.759-5.45,0.997c-2.833,0.316-7.802,0.314-11.079,0.285
	C23.004,7.63,18.249,7.47,15.33,7.422c-2.602-0.043-5.641-0.239-7.837-0.267c-1.894-0.024-3.832-0.041-5.27-0.087
	C0.24,7.006-2.381,6.726,4.234,2.792l0.106-0.1c0.493-0.167,0.973-0.314,1.414-0.437c3.039-0.849,6.435-1.879,11.04-2.101
	C25.77-0.277,28.727,0.2,33.599,1.496c2.204,0.587,6.437,1.833,8.608,3.094c1.132,0.657,0.84,1.253,0.117,1.76L42.191,6.371z"/>
</svg>
