<?xml version="1.0" encoding="iso-8859-1"?>
<!-- Generator: Adobe Illustrator 16.0.0, SVG Export Plug-In . SVG Version: 6.00 Build 0)  -->
<!DOCTYPE svg PUBLIC "-//W3C//DTD SVG 1.1//EN" "http://www.w3.org/Graphics/SVG/1.1/DTD/svg11.dtd">
<svg version="1.1" id="Layer_1" xmlns="http://www.w3.org/2000/svg" xmlns:xlink="http://www.w3.org/1999/xlink" x="0px" y="0px"
	 width="263.721px" height="36.096px" viewBox="0 0 263.721 36.096" style="enable-background:new 0 0 263.721 36.096;"
	 xml:space="preserve">
<path style="fill:#4FBA6F;" d="M0,3.634C0.273,3.67,0.554,3.708,0.84,3.745C2.908,4.013,5.823,4.356,8.32,4.6
	c3.416,0.334,12.042,1.14,23.442,2.138s24.083,1.995,36.909,2.565c12.825,0.57,27.076,1.283,40.043,1.71
	c12.969,0.428,29.926,0.998,45.887,1.71c15.961,0.712,28.501,1.282,41.042,2.138c12.54,0.855,24.368,1.852,31.778,2.992
	c7.409,1.14,14.107,2.565,18.668,4.56c2.557,1.119,5.677,2.918,8.118,4.566c2.244,1.512,3.757,3.104,4.85,4.127
	c2.28,2.139,4.663,4.99,4.663,4.99l-0.031-0.031c0,0-1.212-2.037-2.708-4.104c-1.322-1.826-4.632-5.201-6.841-6.982
	s-5.699-3.848-8.764-5.201c-3.064-1.354-6.77-2.495-9.619-3.207c-2.85-0.713-7.196-1.497-12.754-2.138
	c-5.558-0.642-12.185-1.354-19.452-1.995s-17.029-1.425-26.79-1.995c-8.622-0.504-21.306-1.14-30.995-1.496
	c-9.69-0.356-24.227-0.926-32.776-1.211c-8.551-0.285-18.739-0.784-28.287-1.14c-9.548-0.356-20.235-1.14-28.501-1.567
	C47.938,4.6,41.596,3.958,32.974,3.317C24.281,2.67,14.734,1.678,6.968,0.823C4.569,0.559,2.276,0.28,0.16,0.006V0L0.003,3.611
	L0,3.634z"/>
</svg>
