<?xml version="1.0" encoding="utf-8"?>
<!-- Generator: Adobe Illustrator 16.0.0, SVG Export Plug-In . SVG Version: 6.00 Build 0)  -->
<!DOCTYPE svg PUBLIC "-//W3C//DTD SVG 1.1//EN" "http://www.w3.org/Graphics/SVG/1.1/DTD/svg11.dtd">
<svg version="1.1" id="Layer_1" xmlns="http://www.w3.org/2000/svg" xmlns:xlink="http://www.w3.org/1999/xlink" x="0px" y="0px"
	 width="33.53px" height="50.689px" viewBox="0 0 33.53 50.689" enable-background="new 0 0 33.53 50.689" xml:space="preserve">
<path fill="#FFCD8A" d="M15.558,0c2.6,4.483,3.304,7.506,2.997,10.979c-0.344,3.883-1.931,9.174-3.922,13.153
	c-1.986,3.968-3.826,7.367-5.116,9.395c-2.148,3.378-4.105,3.362-6.979,2.404l-0.051-0.038c-0.323,2.215-0.942,5.023-1.299,6.947
	c-0.324,1.751-0.521,3.669-0.894,6.016C0.166,49.661,0.065,50.283,0,50.689h0.018c7.685-3.861,13.071-8.192,16.766-12.227
	c4.32-4.717,7.146-8.848,9.035-11.814c1.607-2.525,3.897-6.585,5.122-9.265c1.856-4.061,3.507-11.161,2.003-16.101L15.558,0z"/>
</svg>
