<?xml version="1.0" encoding="iso-8859-1"?>
<!-- Generator: Adobe Illustrator 16.0.0, SVG Export Plug-In . SVG Version: 6.00 Build 0)  -->
<!DOCTYPE svg PUBLIC "-//W3C//DTD SVG 1.1//EN" "http://www.w3.org/Graphics/SVG/1.1/DTD/svg11.dtd">
<svg version="1.1" id="Layer_1" xmlns="http://www.w3.org/2000/svg" xmlns:xlink="http://www.w3.org/1999/xlink" x="0px" y="0px"
	 width="76.61px" height="43.882px" viewBox="0 0 76.61 43.882" style="enable-background:new 0 0 76.61 43.882;"
	 xml:space="preserve">
<path style="fill:#FFCD8A;" d="M0.936,43.882c-0.027-0.19-0.085-0.393-0.178-0.608l-0.001-0.001L0,41.684l0.062-0.042
	c6.706-2.735,14.312-5.318,19.863-7.023c7.038-2.16,15.96-4.845,21.376-6.84c5.316-1.959,8.313-5.547,8.045-8.532
	c-0.014-0.15-0.035-0.299-0.064-0.446c-0.096-0.467-0.283-1.344-0.61-2.41c-0.079-0.258-0.172-0.5-0.275-0.723
	c-0.113-0.244-0.24-0.464-0.376-0.653l-0.01-0.011l-1.305-2.886l-0.054-0.069c1.121-0.234,2.224-0.464,3.298-0.688
	c1.14-0.237,2.247-0.467,3.312-0.688c2.675-0.554,6.008-1.408,9.03-2.327c1.646-0.501,3.2-1.021,4.507-1.521
	c2.423-0.928,4.439-1.965,6.127-2.993c1.389-0.845,3.047-2.432,3.456-3.384c0.06-0.139,0.115-0.289,0.166-0.447l0.062,0.025
	c-0.997,4.56-3.371,11.394-5.483,15.336c-2.137,3.99-6.157,8.348-12.967,11.97c-6.698,3.562-19.239,7.695-31.494,10.688
	c-11.753,2.87-22.16,5.276-25.723,5.847L0.936,43.882z"/>
</svg>
