<?xml version="1.0" encoding="utf-8"?>
<!-- Generator: Adobe Illustrator 16.0.0, SVG Export Plug-In . SVG Version: 6.00 Build 0)  -->
<!DOCTYPE svg PUBLIC "-//W3C//DTD SVG 1.1//EN" "http://www.w3.org/Graphics/SVG/1.1/DTD/svg11.dtd">
<svg version="1.1" id="Layer_1" xmlns="http://www.w3.org/2000/svg" xmlns:xlink="http://www.w3.org/1999/xlink" x="0px" y="0px"
	 width="33.031px" height="24.044px" viewBox="0 0 33.031 24.044" enable-background="new 0 0 33.031 24.044" xml:space="preserve">
<path fill="#FFCD8A" d="M22.666,14.899c3.053,2.082,5.725,4.04,7.805,5.99c1.033,0.969,1.89,2.009,2.568,3.138l-0.008,0.018
	c-1.025-0.846-3.373-2.867-6.184-4.824c-2.406-1.674-4.603-3.241-8.064-5.519c-2.375-1.563-4.695-3.579-6.417-4.979
	c-1.974-1.605-3.398-2.979-4.688-4.155C6.46,3.457,6.288,3.495,5.183,2.684c-0.685-0.503-2.406-0.733-3.871-0.67L1.272,2.002
	C0.88,1.387,0.456,0.743,0,0.06L0.022,0.04c0.618-0.061,1.23-0.055,1.881,0.04c1.688,0.246,3.146,0.945,4.342,1.935
	c1.453,1.203,2.948,2.439,4.413,3.729c1.175,1.035,2.722,2.354,4.376,3.669c1.157,0.919,2.567,2.052,4.324,3.262l0.644,0.435
	C20.917,13.716,21.807,14.313,22.666,14.899"/>
</svg>
