<?xml version="1.0" encoding="iso-8859-1"?>
<!-- Generator: Adobe Illustrator 16.0.0, SVG Export Plug-In . SVG Version: 6.00 Build 0)  -->
<!DOCTYPE svg PUBLIC "-//W3C//DTD SVG 1.1//EN" "http://www.w3.org/Graphics/SVG/1.1/DTD/svg11.dtd">
<svg version="1.1" id="Layer_1" xmlns="http://www.w3.org/2000/svg" xmlns:xlink="http://www.w3.org/1999/xlink" x="0px" y="0px"
	 width="44.177px" height="4.649px" viewBox="0 0 44.177 4.649" style="enable-background:new 0 0 44.177 4.649;"
	 xml:space="preserve">
<path style="fill:#4FBA6F;" d="M44.177,4.649c-1.802-0.091-3.707-0.162-5.694-0.233C32.502,4.203,26.511,4.029,20.1,4.273
	C15.239,4.459,10.784,4.062,7.916,3.49C7.118,3.33,5.782,2.898,4.914,2.638C4.045,2.377,3.11,1.947,2.506,1.605
	C1.542,1.06,0.721,0.543,0,0.009L0.021,0c7,1.688,12.064,2.254,17.688,2.375c5.812,0.125,9.438,0.291,14.25,0.438
	C38.146,3,41.084,3.219,44.162,4.625L44.177,4.649z"/>
</svg>
