<?xml version="1.0" encoding="iso-8859-1"?>
<!-- Generator: Adobe Illustrator 16.0.0, SVG Export Plug-In . SVG Version: 6.00 Build 0)  -->
<!DOCTYPE svg PUBLIC "-//W3C//DTD SVG 1.1//EN" "http://www.w3.org/Graphics/SVG/1.1/DTD/svg11.dtd">
<svg version="1.1" id="Layer_1" xmlns="http://www.w3.org/2000/svg" xmlns:xlink="http://www.w3.org/1999/xlink" x="0px" y="0px"
	 width="17.062px" height="5.289px" viewBox="0 0 17.062 5.289" style="enable-background:new 0 0 17.062 5.289;"
	 xml:space="preserve">
<path style="fill:#FFCD8A;" d="M10.44,0.49C8.726,0.33,7.268,0.251,5.894,0.219C3.595,0.164,1.152,0.143,0.22,0.03L0,0v2.344
	l0.002-0.029C0.685,2.55,3.076,3.689,7.019,4.219c0.454,0.061,0.936,0.123,1.438,0.186c2.504,0.311,5.529,0.631,8.188,0.885
	l-0.001-0.008c0.188-1,0.344-2.812,0.406-3.938l0.013-0.02c-0.381-0.054-0.77-0.11-1.169-0.168
	C13.775,0.849,12.001,0.636,10.44,0.49"/>
</svg>
