<?xml version="1.0" encoding="iso-8859-1"?>
<!-- Generator: Adobe Illustrator 16.0.0, SVG Export Plug-In . SVG Version: 6.00 Build 0)  -->
<!DOCTYPE svg PUBLIC "-//W3C//DTD SVG 1.1//EN" "http://www.w3.org/Graphics/SVG/1.1/DTD/svg11.dtd">
<svg version="1.1" id="Layer_1" xmlns="http://www.w3.org/2000/svg" xmlns:xlink="http://www.w3.org/1999/xlink" x="0px" y="0px"
	 width="273.7px" height="20px" viewBox="0 0 273.7 20" style="enable-background:new 0 0 273.7 20;" xml:space="preserve">
<path style="fill:#FFCD8A;" d="M0.003,20c0-0.249,0-10.554,0-20l0.036,0.021C11.705,0.688,21.22,1.513,26.828,1.688
	c35.576,1.11,61.201,1.269,86.875,1.5c31.778,0.286,76.551,0.872,97.5,0.75c21.5-0.125,36.188,0.091,44.003,0.333
	c8.083,0.25,13.333,0.25,17.372,0.339l0.017,0.001c0.527,2.606,0.694,4.717,0.892,6.918c0.214,2.387,0.214,4.168,0.214,5.166
	s0,3.297,0,3.297h-0.013H0L0.003,20z M4.775,10.381c1.783,0,4.417-0.642,4.417-1.283S6.699,8.884,4.276,8.884
	c-2.565,0-3.989,0.499-3.989,1.069C0.287,10.523,2.709,10.381,4.775,10.381z M272.499,11.703c-0.14-0.391-0.484-0.719-0.983-0.719
	c-0.463,0-1.547,0.016-2.323,0.02c-1.995,0.01-4.133,0-8.123,0c-3.989,0-10.688,0-16.388,0s-5.131-0.855-6.556-1.71
	s-2.992-2.28-3.847-2.85c-0.855-0.57-2.565-0.855-3.705-0.855c-1.141,0-7.553,0-21.376,0s-24.227,0-28.786,0
	c-4.561,0-4.988,1.14-6.412,1.853c-1.141,0.57-2.281,1.425-3.705,2.28c-1.426,0.854-3.421,1.425-7.695,1.425
	c-4.275,0-49.021,0-87.07,0c-2.28,0-4.133-0.712-5.701-1.567c-1.231-0.672-2.279-1.568-3.135-2.138
	c-0.854-0.57-3.135-0.998-4.417-0.998c-1.283,0-5.7,0-16.53,0c-10.118,0-18.241,0-23.371,0c-4.703,0-5.558,0-6.413,0
	c-0.854,0-1.639,0.285-2.208,0.712c-0.484,0.363-1.212,0.713-1.64,1.14c-0.427,0.428-1.14,0.784-1.853,1.425
	c-0.713,0.641-1.354,1.211-2.564,1.425c-0.636,0.112-1.996,0.214-3.135,0.214c-2.281,0-4.099,0.784-4.099,1.816
	c0,1.034,2.062,0.714,4.24,0.819c1.261,0.062,2.494,0,3.135,0.072c0.642,0.07,1.567,0.213,2.28,0.854s1.568,0.997,1.995,1.425
	c0.428,0.428,1.155,0.777,1.64,1.141c0.569,0.428,1.354,0.713,2.208,0.713c0.855,0,1.71,0,6.413,0c5.13,0,13.253,0,23.371,0
	c10.83,0,15.247,0,16.53,0c1.282,0,3.562-0.428,4.417-0.998c0.855-0.57,1.903-1.466,3.135-2.138
	c1.568-0.854,3.421-1.567,5.701-1.567c38.049,0,82.795,0,87.07,0c4.274,0,6.27,0.57,7.695,1.425c1.424,0.854,2.564,1.71,3.705,2.28
	c1.424,0.713,1.852,1.853,6.412,1.853c4.56,0,14.963,0,28.786,0s20.235,0,21.376,0c1.14,0,2.85-0.285,3.705-0.854
	c0.854-0.57,2.422-1.996,3.847-2.852c1.425-0.854,0.855-1.709,6.556-1.709s12.398,0,16.388,0c3.99,0,6.128,0,8.123,0s2.28,0,2.743,0
	c0.499,0,0.597-0.56,0.626-0.797L272.499,11.703z"/>
</svg>
