<?xml version="1.0" encoding="iso-8859-1"?>
<!-- Generator: Adobe Illustrator 16.0.0, SVG Export Plug-In . SVG Version: 6.00 Build 0)  -->
<!DOCTYPE svg PUBLIC "-//W3C//DTD SVG 1.1//EN" "http://www.w3.org/Graphics/SVG/1.1/DTD/svg11.dtd">
<svg version="1.1" id="Layer_1" xmlns="http://www.w3.org/2000/svg" xmlns:xlink="http://www.w3.org/1999/xlink" x="0px" y="0px"
	 width="71.973px" height="18.54px" viewBox="0 0 71.973 18.54" style="enable-background:new 0 0 71.973 18.54;"
	 xml:space="preserve">
<path style="fill:#FFCD8A;" d="M16.191,10.684c-6.354,2.175-12.482,4.438-16.16,5.825L0,16.556c0.175,0.58,0.455,1.221,0.781,1.984
	v-0.016c6.84-2.28,14.128-4.478,19.828-5.047c2.945-0.295,8.326-0.59,13.783-0.924l0.223-0.098c7.805-2.247,17.81-4.63,23.045-5.82
	c6.271-1.425,11.428-3.75,14.277-5.175l0.035,0c-0.068-0.034-0.137-0.066-0.204-0.098c-2.423-1.14-7.838-1.71-13.11-1.14
	c-5.272,0.57-14.535,2.708-23.941,4.845C29.892,6.166,22.888,8.391,16.191,10.684"/>
</svg>
