<?xml version="1.0" encoding="utf-8"?>
<!-- Generator: Adobe Illustrator 16.0.0, SVG Export Plug-In . SVG Version: 6.00 Build 0)  -->
<!DOCTYPE svg PUBLIC "-//W3C//DTD SVG 1.1//EN" "http://www.w3.org/Graphics/SVG/1.1/DTD/svg11.dtd">
<svg version="1.1" id="Layer_1" xmlns="http://www.w3.org/2000/svg" xmlns:xlink="http://www.w3.org/1999/xlink" x="0px" y="0px"
	 width="79.371px" height="24.086px" viewBox="0 0 79.371 24.086" enable-background="new 0 0 79.371 24.086" xml:space="preserve">
<g>
	<path fill="#FFCD8A" d="M16.191,10.683c-6.354,2.175-12.482,4.438-16.16,5.825L0,16.555c0.175,0.58,0.455,1.221,0.781,1.984v-0.016
		c6.84-2.28,14.128-4.478,19.828-5.047c2.945-0.295,8.326-0.59,13.783-0.923l0.223-0.099c7.805-2.247,17.81-4.629,23.045-5.819
		c6.271-1.425,11.428-3.75,14.277-5.175l0.035,0c-0.068-0.034-0.137-0.066-0.204-0.098c-2.423-1.14-7.838-1.71-13.11-1.14
		c-5.272,0.57-14.535,2.708-23.941,4.845C29.892,6.166,22.888,8.391,16.191,10.683"/>
	<path fill="#FFCD8A" d="M3.408,24.086c-0.241-0.463-0.475-0.916-0.693-1.354c-0.712-1.425-1.496-3.135-1.923-4.132l0.1-0.1
		c6.84-2.28,14.018-4.455,19.718-5.024c2.945-0.295,8.326-0.59,13.783-0.923l-0.018-0.014c-1.542,0.443-2.758,0.799-4.075,1.222
		c-7.98,2.565-20.253,7.435-26.809,10.285L3.408,24.086z"/>
	<path fill="#FFCD8A" d="M34.615,12.455c7.805-2.247,17.81-4.629,23.045-5.819c6.271-1.425,11.428-3.75,14.277-5.175l0.049,0.006
		c1.854,0.904,4.105,2.401,5.926,4.315l-0.024,0.011c-2.28,0.57-8.257,2.267-11.677,3.122c-3.42,0.855-11.4,1.71-18.24,2.565
		c-3.306,0.414-8.475,0.76-13.578,1.072L34.615,12.455z"/>
	<path fill="#FFCD8A" d="M3.606,24.393c2.522-0.688,7.151-1.781,12.479-2.982c4.934-1.113,10.468-2.317,15.484-3.377
		c3.031-0.64,5.872-1.227,8.278-1.707c8.359-1.672,16.458-3.344,22.795-4.675c1.764-0.371,3.393-0.714,4.852-1.025
		c6.697-1.425,9.027-2.216,11.877-3.071c-0.436-0.624-0.929-1.216-1.459-1.773l-0.024,0.011c-2.28,0.57-8.257,2.267-11.677,3.122
		c-3.42,0.855-11.4,1.71-18.24,2.565c-3.306,0.414-8.475,0.76-13.578,1.072l0.223-0.099c-1.542,0.444-2.999,0.883-4.315,1.306
		c-7.98,2.565-20.253,7.435-26.809,10.285l-0.083,0.04c0.053,0.102,0.106,0.204,0.16,0.307H3.606z"/>
</g>
</svg>
