<?xml version="1.0" encoding="utf-8"?>
<!-- Generator: Adobe Illustrator 16.0.0, SVG Export Plug-In . SVG Version: 6.00 Build 0)  -->
<!DOCTYPE svg PUBLIC "-//W3C//DTD SVG 1.1//EN" "http://www.w3.org/Graphics/SVG/1.1/DTD/svg11.dtd">
<svg version="1.1" id="Layer_1" xmlns="http://www.w3.org/2000/svg" xmlns:xlink="http://www.w3.org/1999/xlink" x="0px" y="0px"
	 width="17.018px" height="11.871px" viewBox="0 0 17.018 11.871" enable-background="new 0 0 17.018 11.871" xml:space="preserve">
<path fill="#FFCD8A" d="M16.733,0c-2.85,0.855-5.18,1.646-11.877,3.071C3.396,3.381,1.769,3.725,0.004,4.096L0,4.13
	c0.321,0.891,0.767,2.274,1.213,3.709c0.446,1.437,0.892,2.926,1.213,4.031l0.05-0.018c1.646-0.501,3.2-1.021,4.506-1.521
	c2.423-0.928,4.44-1.965,6.127-2.993c1.389-0.844,3.047-2.431,3.456-3.384c0.434-1.01,0.661-2.597,0.19-3.895L16.733,0z"/>
</svg>
