<?xml version="1.0" encoding="iso-8859-1"?>
<!-- Generator: Adobe Illustrator 16.0.0, SVG Export Plug-In . SVG Version: 6.00 Build 0)  -->
<!DOCTYPE svg PUBLIC "-//W3C//DTD SVG 1.1//EN" "http://www.w3.org/Graphics/SVG/1.1/DTD/svg11.dtd">
<svg version="1.1" id="Layer_1" xmlns="http://www.w3.org/2000/svg" xmlns:xlink="http://www.w3.org/1999/xlink" x="0px" y="0px"
	 width="75.963px" height="18.61px" viewBox="0 0 75.963 18.61" style="enable-background:new 0 0 75.963 18.61;"
	 xml:space="preserve">
<path style="fill:#FFCD8A;" d="M0.198,18.61c2.522-0.688,7.151-1.781,12.479-2.982c4.934-1.113,10.468-2.317,15.484-3.377
	c3.031-0.64,5.872-1.227,8.278-1.707C44.799,8.872,52.897,7.2,59.234,5.869c1.764-0.371,3.393-0.714,4.852-1.025
	c6.697-1.425,9.027-2.216,11.877-3.071C75.527,1.149,75.034,0.557,74.504,0l-0.024,0.011c-2.28,0.57-8.257,2.267-11.677,3.122
	c-3.42,0.855-11.4,1.71-18.24,2.565c-3.306,0.414-8.475,0.76-13.578,1.072l0.223-0.099c-1.542,0.444-2.999,0.883-4.315,1.306
	c-7.98,2.565-20.253,7.435-26.809,10.285L0,18.304c0.053,0.102,0.106,0.204,0.16,0.307H0.198z"/>
</svg>
