<?xml version="1.0" encoding="iso-8859-1"?>
<!-- Generator: Adobe Illustrator 16.0.0, SVG Export Plug-In . SVG Version: 6.00 Build 0)  -->
<!DOCTYPE svg PUBLIC "-//W3C//DTD SVG 1.1//EN" "http://www.w3.org/Graphics/SVG/1.1/DTD/svg11.dtd">
<svg version="1.1" id="Layer_1" xmlns="http://www.w3.org/2000/svg" xmlns:xlink="http://www.w3.org/1999/xlink" x="0px" y="0px"
	 width="17.933px" height="6.425px" viewBox="0 0 17.933 6.425" style="enable-background:new 0 0 17.933 6.425;"
	 xml:space="preserve">
<path style="fill:#FFCD8A;" d="M0.531,6.106c0.963-2.07,0.805-3.45-0.516-5.734L0,0.357C0.309,0.232,0.635,0.113,0.978,0
	L0.971,0.036c0.479,0.81,1.193,2.176,2.427,1.9C4.363,1.72,5.505,1.548,7.041,1.479C10.182,1.336,14.4,1.022,17.828,1.45V1.439
	c0.055,0.139,0.09,0.281,0.1,0.428c0.023,0.294-0.047,0.587-0.201,0.876l-0.055,0.018c-2.363-0.029-7.246-0.247-10.058,0.289
	C6.912,3.183,5.188,3.441,4.042,3.788C2.932,4.125,2.518,5.456,2.25,6.403l0.016,0.021C1.647,6.349,1.064,6.249,0.524,6.126"/>
</svg>
