<?xml version="1.0" encoding="utf-8"?>
<!-- Generator: Adobe Illustrator 16.0.0, SVG Export Plug-In . SVG Version: 6.00 Build 0)  -->
<!DOCTYPE svg PUBLIC "-//W3C//DTD SVG 1.1//EN" "http://www.w3.org/Graphics/SVG/1.1/DTD/svg11.dtd">
<svg version="1.1" id="Layer_1" xmlns="http://www.w3.org/2000/svg" xmlns:xlink="http://www.w3.org/1999/xlink" x="0px" y="0px"
	 width="17.932px" height="6.425px" viewBox="0 0 17.932 6.425" enable-background="new 0 0 17.932 6.425" xml:space="preserve">
<path fill="#FECD8A" d="M0.531,6.106c0.963-2.07,0.805-3.45-0.516-5.734L0,0.357C0.309,0.232,0.635,0.113,0.978,0L0.971,0.036
	c0.479,0.81,1.193,2.176,2.427,1.9C4.363,1.72,5.505,1.548,7.041,1.479c3.141-0.143,7.36-0.457,10.787-0.028V1.439
	c0.055,0.139,0.09,0.281,0.101,0.428c0.022,0.294-0.048,0.587-0.202,0.876l-0.055,0.018c-2.363-0.029-7.246-0.247-10.058,0.289
	C6.912,3.183,5.188,3.441,4.042,3.788C2.932,4.125,2.518,5.456,2.25,6.403l0.016,0.021C1.647,6.349,1.064,6.249,0.524,6.126"/>
</svg>
