<?xml version="1.0" encoding="iso-8859-1"?>
<!-- Generator: Adobe Illustrator 16.0.0, SVG Export Plug-In . SVG Version: 6.00 Build 0)  -->
<!DOCTYPE svg PUBLIC "-//W3C//DTD SVG 1.1//EN" "http://www.w3.org/Graphics/SVG/1.1/DTD/svg11.dtd">
<svg version="1.1" id="Layer_1" xmlns="http://www.w3.org/2000/svg" xmlns:xlink="http://www.w3.org/1999/xlink" x="0px" y="0px"
	 width="24.141px" height="10.723px" viewBox="0 0 24.141 10.723" style="enable-background:new 0 0 24.141 10.723;"
	 xml:space="preserve">
<path style="fill:#FFCD8A;" d="M11.063,10.723c1.513-0.344,3.321-0.749,4.758-1.102C18.03,9.08,21.114,8.33,23.28,7.788
	c0.277-0.069,0.566-0.146,0.86-0.226L24.14,7.559c-1.835-1.942-4.939-4.504-7.033-5.543C14.803,0.873,11.75,0.174,9.27,0.021
	C6.697-0.139,2.842,0.619,0.648,2.372c-1.643,1.312-0.011,4.66,3.197,7.95l0.003-0.014c1.145-0.145,2.566-0.387,3.498-0.598
	c1.657-0.375,2.737-0.097,3.701,0.979L11.063,10.723z"/>
</svg>
