<?xml version="1.0" encoding="iso-8859-1"?>
<!-- Generator: Adobe Illustrator 16.0.0, SVG Export Plug-In . SVG Version: 6.00 Build 0)  -->
<!DOCTYPE svg PUBLIC "-//W3C//DTD SVG 1.1//EN" "http://www.w3.org/Graphics/SVG/1.1/DTD/svg11.dtd">
<svg version="1.1" id="Layer_1" xmlns="http://www.w3.org/2000/svg" xmlns:xlink="http://www.w3.org/1999/xlink" x="0px" y="0px"
	 width="33.59px" height="15.572px" viewBox="0 0 33.59 15.572" style="enable-background:new 0 0 33.59 15.572;"
	 xml:space="preserve">
<path style="fill:#4FBA6F;" d="M5.465,15.493c0.951,0.096,4.581,0.105,5.934,0.021c0.312-0.02,0.703-0.061,1.134-0.115l-0.003,0.014
	c-3.208-3.29-4.839-6.638-3.197-7.95c2.194-1.753,6.049-2.511,8.621-2.352c2.481,0.154,5.534,0.852,7.838,1.995
	c2.094,1.039,5.198,3.601,7.033,5.543l0.001,0.004c0.2-0.055,0.561-0.18,0.765-0.238v0.006c-0.499-0.5-1.742-1.752-3.381-3.604
	s-2.992-3.277-4.561-4.703c-1.748-1.59-4.246-3.22-7.623-3.776C13.984-0.329,7.36,0.012,2.617,1.175
	C1.878,1.356,1.084,1.588,0.255,1.861L0.246,1.884c-0.411,2.059-0.347,5.353,0.499,7.278c1.082,2.463,2.617,4.513,4.667,6.304
	L5.465,15.493z"/>
</svg>
