<?xml version="1.0" encoding="iso-8859-1"?>
<!-- Generator: Adobe Illustrator 16.0.0, SVG Export Plug-In . SVG Version: 6.00 Build 0)  -->
<!DOCTYPE svg PUBLIC "-//W3C//DTD SVG 1.1//EN" "http://www.w3.org/Graphics/SVG/1.1/DTD/svg11.dtd">
<svg version="1.1" id="Layer_1" xmlns="http://www.w3.org/2000/svg" xmlns:xlink="http://www.w3.org/1999/xlink" x="0px" y="0px"
	 width="111.52px" height="35.735px" viewBox="0 0 111.52 35.735" style="enable-background:new 0 0 111.52 35.735;"
	 xml:space="preserve">
<path style="fill:#FFCD8A;" d="M0,35.735c3.406-1.141,11.492-2.383,15.899-3.102c5.4-0.881,13.784-2.073,19.024-2.992
	c6.615-1.161,15.747-2.633,23.64-4.125c1.778-0.336,4.26-0.643,5.78-1.156l0.032-0.021c0.833-0.115,1.656-0.229,2.45-0.338
	c1.542-0.213,3.159-0.423,4.864-0.658c2.312-0.319,4.783-0.685,7.444-1.164c5.863-1.057,12.777-2.552,17.363-4.04
	c3.222-1.046,5.191-2.317,6.971-3.752c0.08-0.064,0.157-0.133,0.23-0.204l0.004-0.01c0.583-0.512,1.577-1.437,2.081-2.06
	c0.78-0.964,2.316-3.169,3.091-4.394l-0.008,0.021c0.062-0.086,0.115-0.173,0.158-0.259c0.143-0.285,0.275-0.651,0.275-0.651
	l-0.02,0.03c0.549-0.984,1.304-2.708,1.598-3.618c0.249-0.773,0.574-2.132,0.637-3.241L111.52,0v20.079h-0.004
	c-4.418,0.641-13.391,2.08-19.377,2.936c-5.984,0.855-12.537,1.803-18.594,2.658c-4.295,0.605-11.434,1.607-15.357,2.151
	c-4.631,0.642-13.146,1.888-20.77,2.886s-15.604,1.995-19.951,2.564c-4.346,0.57-8.194,1.141-10.83,1.568S1.567,35.522,0,35.735z
	 M54.317,27.67c0.064,0.384,1.896,0.397,4.092,0.03c2.196-0.367,3.923-0.977,3.858-1.361c-0.063-0.385-1.967-0.611-4.162-0.244
	C55.91,26.462,54.253,27.285,54.317,27.67z M101.567,17.877c0.223,0.383,3.188,0.249,5.604-2.058
	c2.415-2.306,3.165-5.874,2.715-6.149c-0.508-0.312-1.622,2.459-4.036,4.765C103.434,16.741,101.301,17.42,101.567,17.877z"/>
</svg>
