<?xml version="1.0" encoding="utf-8"?>
<!-- Generator: Adobe Illustrator 16.0.0, SVG Export Plug-In . SVG Version: 6.00 Build 0)  -->
<!DOCTYPE svg PUBLIC "-//W3C//DTD SVG 1.1//EN" "http://www.w3.org/Graphics/SVG/1.1/DTD/svg11.dtd">
<svg version="1.1" id="Layer_1" xmlns="http://www.w3.org/2000/svg" xmlns:xlink="http://www.w3.org/1999/xlink" x="0px" y="0px"
	 width="75px" height="78.325px" viewBox="0 0 75 78.325" enable-background="new 0 0 75 78.325" xml:space="preserve">
<g>
	<g>
		<path fill="none" stroke="#59B556" stroke-width="1.5" stroke-linecap="round" stroke-linejoin="round" d="M73.115,64.314
			c0,11.552-5.36,12.314-5.36,12.314c-3.543,0.667-16.922,0.578-23.688,0.625c-6.767,0.047-18.209,0.11-23.562-0.25
			c-2.628-0.179-5.305-0.114-7.599-1.234c-2.25-1.098-4.225-2.812-5.711-4.83c-0.963-1.153-1.887-2.436-2.717-3.912
			C3.245,64.831,1.51,59.834,1.11,55.355c-0.549-6.132,1.009-13.418,3.443-20.771c2.01-6.068,10.891-26.612,14.266-33.259"/>
		<g>
			<circle fill="#59B556" cx="18.826" cy="1.41" r="1.41"/>
		</g>
	</g>
</g>
</svg>
