<?xml version="1.0" encoding="utf-8"?>
<!-- Generator: Adobe Illustrator 16.0.0, SVG Export Plug-In . SVG Version: 6.00 Build 0)  -->
<!DOCTYPE svg PUBLIC "-//W3C//DTD SVG 1.1//EN" "http://www.w3.org/Graphics/SVG/1.1/DTD/svg11.dtd">
<svg version="1.1" id="Layer_1" xmlns="http://www.w3.org/2000/svg" xmlns:xlink="http://www.w3.org/1999/xlink" x="0px" y="0px"
	 width="122.069px" height="78.559px" viewBox="0 0 122.069 78.559" enable-background="new 0 0 122.069 78.559"
	 xml:space="preserve">
<g>
	<g>
		<path fill="none" stroke="#59B657" stroke-width="1.5" stroke-linecap="round" stroke-linejoin="round" d="M121.042,22.721
			c-15.557,12.52-17.418,23.23-20.205,31.363l-0.947,4.141c-1.248,1.875-2.518,3.869-3.633,5.293
			c-2.27,2.896-3.945,6.452-9.473,8.19c-5.654,1.778-13.68,3.771-19.029,4.778c-3.542,0.667-16.922,0.578-23.688,0.625
			s-18.209,0.111-23.562-0.25c-2.628-0.178-5.305-0.114-7.599-1.234c-2.25-1.098-4.224-2.812-5.711-4.83
			c-0.963-1.153-1.886-2.436-2.716-3.912C3.245,64.688,1.51,59.691,1.11,55.213c-0.548-6.132,1.009-13.418,3.444-20.771
			C6.563,28.374,15.444,7.83,18.819,1.183"/>
		<g>
			<circle fill="#59B657" cx="18.826" cy="1.268" r="1.41"/>
		</g>
	</g>
</g>
</svg>
