<?xml version="1.0" encoding="utf-8"?>
<!-- Generator: Adobe Illustrator 16.0.0, SVG Export Plug-In . SVG Version: 6.00 Build 0)  -->
<!DOCTYPE svg PUBLIC "-//W3C//DTD SVG 1.1//EN" "http://www.w3.org/Graphics/SVG/1.1/DTD/svg11.dtd">
<svg version="1.1" id="Layer_1" xmlns="http://www.w3.org/2000/svg" xmlns:xlink="http://www.w3.org/1999/xlink" x="0px" y="0px"
	 width="259.667px" height="76.5px" viewBox="0 0 259.667 76.5" enable-background="new 0 0 259.667 76.5" xml:space="preserve">
<g>
	<g>
		<path fill="none" stroke="#58B556" stroke-width="1.5" stroke-linecap="round" stroke-linejoin="round" d="M19.128,1.177
			C15.711,7.651,6.562,26.735,4.554,32.798c-2.435,7.354-3.993,14.64-3.444,20.771c0.4,4.479,2.135,9.475,3.369,11.672
			c0.83,1.477,1.752,2.759,2.716,3.912c1.487,2.018,3.461,3.732,5.711,4.83c2.294,1.12,4.971,1.057,7.599,1.234
			c5.353,0.361,16.797,0.297,23.562,0.25s20.146,0.042,23.688-0.625l11-1.708c4.066-1.037,6.424-1.837,9.345-2.819
			c1.773-0.598,3.291-1.045,4.848-1.68c1.711-0.698,3.348-1.463,5.422-2.053l0.16,0.308c7.383-2.23,14.072-4.162,19.38-4.806
			c13.801-1.674,34.248-2.695,48.345-2.844c14.491-0.152,29.483-0.027,44.351-0.08c1.171-0.004,2.391-0.007,3.654-0.008l2.08-1.227
			c0,0,0,0,1.333-0.5s20.404-2.466,24.141-4.679c0,0,11.182-4.844,15.994-9.865"/>
		<g>
			<circle fill="#58B556" cx="19.138" cy="1.264" r="1.41"/>
		</g>
	</g>
</g>
</svg>
