<?xml version="1.0" encoding="utf-8"?>
<!-- Generator: Adobe Illustrator 16.0.0, SVG Export Plug-In . SVG Version: 6.00 Build 0)  -->
<!DOCTYPE svg PUBLIC "-//W3C//DTD SVG 1.1//EN" "http://www.w3.org/Graphics/SVG/1.1/DTD/svg11.dtd">
<svg version="1.1" id="Layer_1" xmlns="http://www.w3.org/2000/svg" xmlns:xlink="http://www.w3.org/1999/xlink" x="0px" y="0px"
	 width="244.334px" height="79.334px" viewBox="0 0 244.334 79.334" enable-background="new 0 0 244.334 79.334"
	 xml:space="preserve">
<g>
	<g>
		<path fill="none" stroke="#59B657" stroke-width="1.5" stroke-linecap="round" stroke-linejoin="round" d="M241.812,54.82
			c-3.736,2.213-22.808,4.179-24.141,4.679s-1.333,0.5-1.333,0.5l-2.08,1.227c-1.264,0.001-2.483,0.004-3.654,0.008
			c-14.867,0.053-29.859-0.072-44.351,0.08c-14.097,0.148-34.544,1.17-48.345,2.844c-5.308,0.644-11.997,2.575-19.38,4.806
			l-0.16-0.308c-2.074,0.59-3.711,1.354-5.422,2.053c-1.557,0.635-3.074,1.082-4.848,1.68c-2.921,0.982-5.278,1.782-9.345,2.819
			l-11,1.708c-3.542,0.667-16.922,0.578-23.688,0.625s-18.209,0.111-23.562-0.25c-2.628-0.178-5.305-0.114-7.599-1.234
			c-2.25-1.098-4.224-2.812-5.711-4.83c-0.963-1.153-1.886-2.436-2.716-3.912C3.245,65.116,1.51,60.12,1.11,55.642
			C0.562,49.51,2.119,42.224,4.554,34.87C6.563,28.802,15.448,7.875,18.821,1.184"/>
		<g>
			<circle fill="#59B657" cx="18.831" cy="1.271" r="1.41"/>
		</g>
	</g>
</g>
</svg>
