<?xml version="1.0" encoding="utf-8"?>
<!-- Generator: Adobe Illustrator 16.0.0, SVG Export Plug-In . SVG Version: 6.00 Build 0)  -->
<!DOCTYPE svg PUBLIC "-//W3C//DTD SVG 1.1//EN" "http://www.w3.org/Graphics/SVG/1.1/DTD/svg11.dtd">
<svg version="1.1" id="Layer_1" xmlns="http://www.w3.org/2000/svg" xmlns:xlink="http://www.w3.org/1999/xlink" x="0px" y="0px"
	 width="113.931px" height="79.023px" viewBox="0 0 113.931 79.023" enable-background="new 0 0 113.931 79.023"
	 xml:space="preserve">
<g>
	<path fill="none" stroke="#59B556" stroke-width="1.5" stroke-linecap="round" stroke-linejoin="round" d="M18.819,1.326
		C15.444,7.972,6.563,28.516,4.554,34.584C2.119,41.937,0.562,49.223,1.11,55.355c0.399,4.479,2.135,9.476,3.368,11.672
		c0.83,1.477,1.754,2.759,2.717,3.912c1.486,2.019,3.461,3.732,5.711,4.83c2.294,1.12,4.971,1.055,7.599,1.235
		c5.354,0.359,16.796,0.297,23.562,0.25c6.766-0.047,20.145,0.041,23.688-0.625c5.348-1.008,13.375-3,19.029-4.779
		c5.527-1.738,7.203-5.294,9.473-8.19c1.115-1.424,2.385-3.418,3.633-5.293l0.947-4.141l-0.288,1.262
		c0.614-8.701,2.056-20.156,4.81-26.838c3.434-8.333,2.145-6.488,7.234-15.066"/>
	<circle fill="#59B556" cx="18.826" cy="1.41" r="1.41"/>
</g>
</svg>
