<?xml version="1.0" encoding="utf-8"?>
<!-- Generator: Adobe Illustrator 16.0.0, SVG Export Plug-In . SVG Version: 6.00 Build 0)  -->
<!DOCTYPE svg PUBLIC "-//W3C//DTD SVG 1.1//EN" "http://www.w3.org/Graphics/SVG/1.1/DTD/svg11.dtd">
<svg version="1.1" id="Layer_1" xmlns="http://www.w3.org/2000/svg" xmlns:xlink="http://www.w3.org/1999/xlink" x="0px" y="0px"
	 width="238.359px" height="87.5px" viewBox="0 0 238.359 87.5" enable-background="new 0 0 238.359 87.5" xml:space="preserve">
<g>
	<g>
		<g>
			<g>
				<path fill="none" stroke="#59B556" stroke-width="1.5" stroke-linecap="round" stroke-linejoin="round" d="M1.28,84.984
					c2.024-8.873,5.793-13.625,8.833-16.816c3.187-3.344,5.056-5.272,8.556-8.681c3.5-3.406,5.862-5.523,9.362-8.617
					s6.656-5.458,11.656-9.178c3.226-2.397,5.435-3.885,11.16-7.625c3.875-2.53,5.832-3.678,9.894-5.989s6.78-3.479,11.124-5.541
					s7.83-3.611,13.33-5.644c5.5-2.031,9.338-3.176,16.12-5.207s12.753-3.398,19.097-4.773s10.619-2.087,16.119-2.854
					c8.73-1.215,11.072-1.383,17.57-2.076c5.859-0.625,11.406-1.219,16.281-0.891l0.037-0.005c2.557,0.083,6.447,0.255,9.5,0.583
					c4.822,0.52,8.5,1.333,15.041,2.625c7.408,1.463,17.125,4.625,25,7.875s10.86,3.424,18.398,7.392"/>
				<g>
					<circle fill="#59B556" cx="1.327" cy="84.923" r="1.41"/>
				</g>
			</g>
		</g>
	</g>
</g>
</svg>
