<?xml version="1.0" encoding="utf-8"?>
<!-- Generator: Adobe Illustrator 16.0.0, SVG Export Plug-In . SVG Version: 6.00 Build 0)  -->
<!DOCTYPE svg PUBLIC "-//W3C//DTD SVG 1.1//EN" "http://www.w3.org/Graphics/SVG/1.1/DTD/svg11.dtd">
<svg version="1.1" id="Layer_1" xmlns="http://www.w3.org/2000/svg" xmlns:xlink="http://www.w3.org/1999/xlink" x="0px" y="0px"
	 width="170.441px" height="12.364px" viewBox="0 0 170.441 12.364" enable-background="new 0 0 170.441 12.364"
	 xml:space="preserve">
<g>
	<g>
		<path fill="none" stroke="#59B657" stroke-width="1.5" stroke-linecap="round" stroke-linejoin="round" d="M169.154,0.799
			c-4.533,0-12.713-0.262-15.344,1.295c-3.736,2.213-6.43,3.871-7.764,4.371c-1.332,0.5-2.787,0.418-2.787,0.418l-0.656,0.688
			c-11.838-0.064-23.412-0.008-31.793,0.073C89.291,7.852,70.566,8.37,59.442,9.17c-8.677,0.625-16.48,1.041-21.836,1.041
			l-19.761,0.934c-2.412-0.325-5.925-0.229-9.316-0.199c-2.539,0.024-3.448-0.271-7.26-1.599"/>
		<g>
			<circle fill="#59B657" cx="1.339" cy="9.347" r="1.41"/>
		</g>
	</g>
</g>
</svg>
