<?xml version="1.0" encoding="utf-8"?>
<!-- Generator: Adobe Illustrator 16.0.0, SVG Export Plug-In . SVG Version: 6.00 Build 0)  -->
<!DOCTYPE svg PUBLIC "-//W3C//DTD SVG 1.1//EN" "http://www.w3.org/Graphics/SVG/1.1/DTD/svg11.dtd">
<svg version="1.1" id="Layer_1" xmlns="http://www.w3.org/2000/svg" xmlns:xlink="http://www.w3.org/1999/xlink" x="0px" y="0px"
	 width="253.5px" height="117.75px" viewBox="0 0 253.5 117.75" enable-background="new 0 0 253.5 117.75" xml:space="preserve">
<g>
	<g>
		<g>
			<g>
				<path fill="none" stroke="#59B556" stroke-width="1.5" stroke-linecap="round" stroke-linejoin="round" d="M1.727,115.798
					c-1.636-5.106,0-10.738,0-10.738c1.375-3.75,2.592-6.58,4.154-9.55c1.562-2.969,3.609-6.233,5.891-9.608
					c1.496-2.213,3.499-5.058,6.944-9.3c2.562-3.157,4.192-5.089,7.379-8.433s5.056-5.272,8.556-8.681
					c3.5-3.406,5.862-5.523,9.362-8.617s6.656-5.458,11.656-9.178c3.226-2.397,5.435-3.885,11.16-7.625
					c3.875-2.53,5.832-3.678,9.894-5.989c4.062-2.312,6.78-3.479,11.124-5.541s7.83-3.611,13.33-5.644
					c5.5-2.031,9.338-3.176,16.12-5.207c6.781-2.031,12.752-3.398,19.096-4.773s10.619-2.087,16.119-2.854
					c8.73-1.215,11.072-1.383,17.57-2.076c5.859-0.625,11.406-1.219,16.281-0.891l0.037-0.005c2.557,0.083,6.447,0.255,9.5,0.583
					c4.822,0.52,8.5,1.333,15.041,2.625c7.408,1.463,17.125,4.625,25,7.875s16.411,11.406,16.43,17.225
					c0.003,0.965-8.143,5.182-11.263,6.762"/>
				<g>
					<circle fill="#59B556" cx="241.163" cy="36.109" r="1.41"/>
				</g>
			</g>
		</g>
	</g>
</g>
</svg>
