<?xml version="1.0" encoding="utf-8"?>
<!-- Generator: Adobe Illustrator 16.0.0, SVG Export Plug-In . SVG Version: 6.00 Build 0)  -->
<!DOCTYPE svg PUBLIC "-//W3C//DTD SVG 1.1//EN" "http://www.w3.org/Graphics/SVG/1.1/DTD/svg11.dtd">
<svg version="1.1" id="Layer_1" xmlns="http://www.w3.org/2000/svg" xmlns:xlink="http://www.w3.org/1999/xlink" x="0px" y="0px"
	 width="143.645px" height="55.466px" viewBox="0 0 143.645 55.466" enable-background="new 0 0 143.645 55.466"
	 xml:space="preserve">
<g>
	<g>
		<g>
			<path fill="none" stroke="#07B9D4" stroke-miterlimit="10" d="M15.49,1.901c0,0,1.916,1.504,0.898,2.521
				c0,0-6.046,6.987-8.381,11.798s-4.944,9.615-7.005,21.947c0,0-1.191,9.053,0.383,10.627c0,0,1.269,3.481,6.905,5.031
				c0,0,8.343,1.342,13.897,0.996l92.337-1.633l27.152,0.045c0,0,0.209,0.104,0.271-1.715"/>
			<g>
				<polygon fill="#07B9D4" points="143.579,53.553 141.928,51.813 140.189,53.464 140.227,52.025 141.966,50.375 143.616,52.114 
									"/>
			</g>
		</g>
	</g>
	<circle fill="#07B9D4" cx="15.49" cy="2" r="2"/>
</g>
</svg>
