<?xml version="1.0" encoding="utf-8"?>
<!-- Generator: Adobe Illustrator 16.0.0, SVG Export Plug-In . SVG Version: 6.00 Build 0)  -->
<!DOCTYPE svg PUBLIC "-//W3C//DTD SVG 1.1//EN" "http://www.w3.org/Graphics/SVG/1.1/DTD/svg11.dtd">
<svg version="1.1" id="Layer_1" xmlns="http://www.w3.org/2000/svg" xmlns:xlink="http://www.w3.org/1999/xlink" x="0px" y="0px"
	 width="138.168px" height="57.537px" viewBox="0 0 138.168 57.537" enable-background="new 0 0 138.168 57.537"
	 xml:space="preserve">
<g id="CP-SNr">
	<g>
		<g>
			<path fill="none" stroke="#2C3E50" stroke-width="0.5" stroke-miterlimit="10" d="M135.486,51.231
				c-9.832,3.232-15.598,3.713-20.842,3.734c-11.838,0.049-23.412-0.008-31.793,0.073c-21.52,0.208-40.245,0.726-51.369,1.526
				c-8.677,0.625-14.187,0.223-18.812-0.277c-4.254-0.46-7.604-1.682-9.614-3.507l-0.011-0.005
				c-0.417-0.379-0.767-0.951-1.065-1.381c-3.401-4.898,0.983-21.517,3.736-28.197C9.151,14.865,14.963,7.32,21.338,1.443"/>
			<g>
				<path fill="#2C3E50" d="M138.168,50.457c-1.262-0.057-2.891-0.326-4-0.805l1.287,1.672l-0.082,2.107
					C136,52.398,137.172,51.236,138.168,50.457z"/>
			</g>
		</g>
	</g>
	<circle fill="#2C3E50" cx="21.359" cy="1.465" r="1.465"/>
</g>
</svg>
