<?xml version="1.0" encoding="utf-8"?>
<!-- Generator: Adobe Illustrator 16.0.0, SVG Export Plug-In . SVG Version: 6.00 Build 0)  -->
<!DOCTYPE svg PUBLIC "-//W3C//DTD SVG 1.1//EN" "http://www.w3.org/Graphics/SVG/1.1/DTD/svg11.dtd">
<svg version="1.1" id="Layer_1" xmlns="http://www.w3.org/2000/svg" xmlns:xlink="http://www.w3.org/1999/xlink" x="0px" y="0px"
	 width="113.353px" height="43.739px" viewBox="0 0 113.353 43.739" enable-background="new 0 0 113.353 43.739"
	 xml:space="preserve">
<g>
	<g>
		<g>
			<path fill="none" stroke="#07B9D4" stroke-miterlimit="10" d="M21.193,2.043c0,0-2.837,0.502-4.377,2.042l-5.17,7.321
				c0,0-7.523,11.069-10.27,18.999c0,0-1.721,5.287,0.124,8.059c0,0,2.56,2.707,5.264,3.341c0,0,6.062,1.766,11.058,1.438
				l18.682-0.484l73.16-1.218c0,0,3.074-0.578,3.074-3.556l0.001-10.705l-5.911-1.631"/>
			<g>
				<polygon fill="#07B9D4" points="109.199,24.544 107.113,25.728 108.297,27.813 106.909,27.43 105.726,25.345 107.812,24.162 
									"/>
			</g>
		</g>
	</g>
	<circle fill="#07B9D4" cx="21.193" cy="2" r="2"/>
</g>
</svg>
