<?xml version="1.0" encoding="utf-8"?>
<!-- Generator: Adobe Illustrator 16.0.0, SVG Export Plug-In . SVG Version: 6.00 Build 0)  -->
<!DOCTYPE svg PUBLIC "-//W3C//DTD SVG 1.1//EN" "http://www.w3.org/Graphics/SVG/1.1/DTD/svg11.dtd">
<svg version="1.1" id="Layer_1" xmlns="http://www.w3.org/2000/svg" xmlns:xlink="http://www.w3.org/1999/xlink" x="0px" y="0px"
	 width="109.375px" height="48.176px" viewBox="0 0 109.375 48.176" enable-background="new 0 0 109.375 48.176"
	 xml:space="preserve">
<g id="GPi-VAl">
	<g>
		<g>
			<path fill="none" stroke="#2C3E50" stroke-width="0.5" stroke-linecap="round" stroke-linejoin="round" d="M22.84,1.465
				C3.359,15.215-1.191,39.834,1.098,42.67l1.217,1.236c0.423,0.443,1.914,1.295,2.579,1.582c3.978,1.712,9.518,1.893,13.496,2.074
				c6.136,0.28,13.302-0.246,16.431-0.457c2.979-0.201,6.737-0.304,11.191-0.566c24.54-1.46,59.536,2.414,60.286-4.336
				c0.384-3.456,0.571-6.52,0.663-8.686"/>
			<g>
				<path fill="#2C3E50" d="M107.064,30.579c0.409,1.207,1.121,2.71,1.896,3.651l-1.979-0.781l-2.021,0.665
					C105.788,33.22,106.588,31.761,107.064,30.579z"/>
			</g>
		</g>
	</g>
	<circle fill="#2C3E50" cx="22.84" cy="1.465" r="1.465"/>
</g>
</svg>
