<?xml version="1.0" encoding="utf-8"?>
<!-- Generator: Adobe Illustrator 16.0.0, SVG Export Plug-In . SVG Version: 6.00 Build 0)  -->
<!DOCTYPE svg PUBLIC "-//W3C//DTD SVG 1.1//EN" "http://www.w3.org/Graphics/SVG/1.1/DTD/svg11.dtd">
<svg version="1.1" id="Layer_1" xmlns="http://www.w3.org/2000/svg" xmlns:xlink="http://www.w3.org/1999/xlink" x="0px" y="0px"
	 width="260.5px" height="168.5px" viewBox="0 0 260.5 168.5" enable-background="new 0 0 260.5 168.5" xml:space="preserve">
<g>
	<g>
		<path fill="none" stroke="#59B657" stroke-width="1.5" stroke-linecap="round" stroke-linejoin="round" d="M27.347,159.657
			c-2.872,0.554-5.149,2.588-7.758,2.452c-3-0.156-4.781-1.062-6.719-2.281s-4.156-3.281-5.75-5.281s-2.594-4.312-3.781-7.938
			s-1.719-6.812-2.062-10.219s-0.344-7.094-0.125-10.75s0.841-7.163,1.591-10.663c0.494-2.304,1.373-5.038,3.163-9.919
			c1.375-3.75,2.592-6.58,4.154-9.549s3.609-6.234,5.891-9.609c1.496-2.213,3.499-5.057,6.944-9.3
			c2.562-3.156,4.192-5.089,7.379-8.433s5.056-5.273,8.556-8.68s5.862-5.524,9.362-8.618s6.656-5.458,11.656-9.177
			c3.226-2.398,5.435-3.885,11.16-7.625c3.875-2.531,5.832-3.678,9.894-5.99s6.78-3.479,11.124-5.541s7.83-3.611,13.33-5.643
			s9.338-3.176,16.12-5.207s12.752-3.399,19.096-4.774s10.62-2.087,16.12-2.853c8.73-1.215,11.072-1.383,17.57-2.076
			c5.859-0.625,11.406-1.219,16.281-0.891l0.037-0.005c2.557,0.083,6.447,0.255,9.5,0.583c4.823,0.519,8.5,1.333,15.041,2.625
			c7.408,1.463,17.125,4.625,25,7.875s16.411,11.406,16.43,17.224c0.004,1.194-9.367,4.651-9.367,4.651"/>
		<g>
			<circle fill="#59B657" cx="27.281" cy="159.678" r="1.41"/>
		</g>
	</g>
</g>
</svg>
