<?xml version="1.0" encoding="utf-8"?>
<!-- Generator: Adobe Illustrator 15.0.0, SVG Export Plug-In . SVG Version: 6.00 Build 0)  -->
<!DOCTYPE svg PUBLIC "-//W3C//DTD SVG 1.1//EN" "http://www.w3.org/Graphics/SVG/1.1/DTD/svg11.dtd">
<svg version="1.1" id="Layer_1" xmlns="http://www.w3.org/2000/svg" xmlns:xlink="http://www.w3.org/1999/xlink" x="0px" y="0px"
	 width="75.488px" height="45.051px" viewBox="0 0 75.488 45.051" enable-background="new 0 0 75.488 45.051" xml:space="preserve">
<g>
	<circle fill="#E57E26" cx="1.608" cy="1.5" r="1.5"/>
	<g>
		<g>
			<path fill="none" stroke="#E57E26" stroke-miterlimit="10" d="M1.419,1.996c-1.31,7.593-0.448,15.801-0.175,19.53
				c0.379,5.19,1.896,8.7,4.111,12.687c2.216,3.988,4.177,6.205,6.456,7.723c2.279,1.52,6.899,2.533,11.393,2.533
				c4.494,0,14.432,0.062,21.204,0.062s13.545-0.127,18.165-0.189c4.621-0.064,7.533-1.338,9.178-3.236
				c1.217-1.404,1.813-4.871,2.034-7.828"/>
			<g>
				<polygon fill="#E57E26" points="73.892,30.451 75.328,34.504 73.748,33.482 72.08,34.35 				"/>
			</g>
		</g>
	</g>
</g>
</svg>
