<?xml version="1.0" encoding="utf-8"?>
<!-- Generator: Adobe Illustrator 16.0.0, SVG Export Plug-In . SVG Version: 6.00 Build 0)  -->
<!DOCTYPE svg PUBLIC "-//W3C//DTD SVG 1.1//EN" "http://www.w3.org/Graphics/SVG/1.1/DTD/svg11.dtd">
<svg version="1.1" id="Layer_1" xmlns="http://www.w3.org/2000/svg" xmlns:xlink="http://www.w3.org/1999/xlink" x="0px" y="0px"
	 width="145.081px" height="52.279px" viewBox="0 0 145.081 52.279" enable-background="new 0 0 145.081 52.279"
	 xml:space="preserve">
<g>
	<g>
		<path fill="none" stroke="#58B759" stroke-width="1.5" stroke-linecap="round" stroke-linejoin="round" d="M14.371,1
			C10.37,7.128,9.41,8.831,5.977,17.164C3.223,23.846-1.162,40.463,2.24,45.361c0.298,0.43,0.646,1.002,1.064,1.381l0.011,0.005
			c2.011,1.825,5.36,3.047,9.614,3.507c4.625,0.5,10.135,0.902,18.812,0.277c11.123-0.801,29.848-1.318,51.367-1.526
			c8.382-0.081,19.955-0.138,31.793-0.073l1.558-0.204c0,0,0.554-0.401,1.887-0.901s4.874-2.556,8.991-3.938
			c3.917-1.315,11.629-2.25,16.404-2.41"/>
		<g>
			<circle fill="#58B759" cx="143.672" cy="41.516" r="1.41"/>
		</g>
	</g>
</g>
</svg>
