<?xml version="1.0" encoding="utf-8"?>
<!-- Generator: Adobe Illustrator 16.0.0, SVG Export Plug-In . SVG Version: 6.00 Build 0)  -->
<!DOCTYPE svg PUBLIC "-//W3C//DTD SVG 1.1//EN" "http://www.w3.org/Graphics/SVG/1.1/DTD/svg11.dtd">
<svg version="1.1" id="Layer_1" xmlns="http://www.w3.org/2000/svg" xmlns:xlink="http://www.w3.org/1999/xlink" x="0px" y="0px"
	 width="143.394px" height="42.279px" viewBox="0 0 143.394 42.279" enable-background="new 0 0 143.394 42.279"
	 xml:space="preserve">
<g>
	<g>
		<path fill="none" stroke="#58B759" stroke-width="1.5" stroke-linecap="round" stroke-linejoin="round" d="M21.279,1
			C3.543,17.481-0.824,31.726,1.627,36.202C1.978,36.843,2.443,37.384,3,37.845c3.463,2.869,10.717,3.171,14.695,3.354
			c4.133,0.189,11.268-0.091,16.404-0.438c10.211-0.689,29.433-1.459,55.047-1.389c9.537,0.026,17.539-0.012,23.74-0.033
			l0.656-0.139c0,0,1.455,0.082,2.788-0.418s4.769-2.479,8.505-4.692c2.4-1.42,12.1-1.071,17.222-0.999"/>
		<g>
			<circle fill="#58B759" cx="141.983" cy="33.09" r="1.41"/>
		</g>
	</g>
</g>
</svg>
