<?xml version="1.0" encoding="utf-8"?>
<!-- Generator: Adobe Illustrator 16.0.0, SVG Export Plug-In . SVG Version: 6.00 Build 0)  -->
<!DOCTYPE svg PUBLIC "-//W3C//DTD SVG 1.1//EN" "http://www.w3.org/Graphics/SVG/1.1/DTD/svg11.dtd">
<svg version="1.1" id="Layer_1" xmlns="http://www.w3.org/2000/svg" xmlns:xlink="http://www.w3.org/1999/xlink" x="0px" y="0px"
	 width="143.912px" height="52.756px" viewBox="0 0 143.912 52.756" enable-background="new 0 0 143.912 52.756"
	 xml:space="preserve">
<g>
	<g>
		<g>
			<path fill="none" stroke="#07B9D4" stroke-miterlimit="10" d="M15.797,1.117c-0.211,0.708-0.621,1.656-1.412,2.547
				c0,0-4.098,4.842-6.433,9.652s-4.944,9.615-7.005,21.947c0,0-1.191,9.053,0.383,10.627c0,0,1.269,3.481,6.905,5.031
				c0,0,8.343,1.342,13.897,0.996l92.337-1.633l24.473,0.045c0,0,2.969-0.022,2.969-3.567"/>
			<g>
				<polygon fill="#07B9D4" points="13.73,2.731 15.731,1.409 17.052,3.411 17.341,2 16.02,0 14.019,1.321 				"/>
			</g>
		</g>
	</g>
	<circle fill="#07B9D4" cx="141.912" cy="46.763" r="2"/>
</g>
</svg>
