<?xml version="1.0" encoding="utf-8"?>
<!-- Generator: Adobe Illustrator 16.0.0, SVG Export Plug-In . SVG Version: 6.00 Build 0)  -->
<!DOCTYPE svg PUBLIC "-//W3C//DTD SVG 1.1//EN" "http://www.w3.org/Graphics/SVG/1.1/DTD/svg11.dtd">
<svg version="1.1" id="Layer_1" xmlns="http://www.w3.org/2000/svg" xmlns:xlink="http://www.w3.org/1999/xlink" x="0px" y="0px"
	 width="177.648px" height="82.618px" viewBox="0 0 177.648 82.618" enable-background="new 0 0 177.648 82.618"
	 xml:space="preserve">
<g>
	<g>
		<g>
			<path fill="none" stroke="#07B9D4" stroke-miterlimit="10" d="M175.648,80.594l-7.705-0.781c0,0-1.283-0.83-1.283-1.783v-2.705
				c0,0,0.322-1.391-1.271-2.027l-3.1-0.812c0,0-8.719-2.568-12.265-3.94c0,0-33.653-15.583-57.853-33.263
				c0,0-28.237-25.438-31.026-28.013c0,0-19.475-3.555-31.642-3.498c0,0-21.471,1.31-28.552-2.636"/>
			<g>
				<polygon fill="#07B9D4" points="3.552,0.785 1.207,1.283 1.706,3.629 0.499,2.845 0,0.5 2.345,0.001 				"/>
			</g>
		</g>
	</g>
	<circle fill="#07B9D4" cx="175.648" cy="80.618" r="2"/>
</g>
</svg>
