<?xml version="1.0" encoding="utf-8"?>
<!-- Generator: Adobe Illustrator 16.0.0, SVG Export Plug-In . SVG Version: 6.00 Build 0)  -->
<!DOCTYPE svg PUBLIC "-//W3C//DTD SVG 1.1//EN" "http://www.w3.org/Graphics/SVG/1.1/DTD/svg11.dtd">
<svg version="1.1" id="Layer_1" xmlns="http://www.w3.org/2000/svg" xmlns:xlink="http://www.w3.org/1999/xlink" x="0px" y="0px"
	 width="108.238px" height="37.35px" viewBox="0 0.374 108.238 37.35" enable-background="new 0 0.374 108.238 37.35"
	 xml:space="preserve">
<circle fill="#2C3E50" cx="106.773" cy="18.763" r="1.465"/>
<g>
	<g>
		<path fill="none" stroke="#2C3E50" stroke-width="0.5" stroke-miterlimit="10" d="M106.746,18.239c0,0,0.174,5.632-0.352,9.128
			l-0.355,3.877c0,0,0.379,2.223-3.19,3.004c0,0-1.013,1.234-18.726,1.234c0,0-37.035,0.424-37.724,0.424
			c-0.689,0-29.598,2.623-37.76,0.217c0,0-6.963-1.281-7.731-3.897c0,0-1.793-8.695,3.571-18.92c0,0,3.254-6.229,10.121-11.424"/>
		<g>
			<path fill="#2C3E50" d="M16.985,0.374c-0.712,1.022-1.478,2.456-1.768,3.612l-0.536-2.009l-1.696-1.202
				C14.168,0.906,15.78,0.686,16.985,0.374z"/>
		</g>
	</g>
</g>
</svg>
