<?xml version="1.0" encoding="utf-8"?>
<!-- Generator: Adobe Illustrator 16.0.0, SVG Export Plug-In . SVG Version: 6.00 Build 0)  -->
<!DOCTYPE svg PUBLIC "-//W3C//DTD SVG 1.1//EN" "http://www.w3.org/Graphics/SVG/1.1/DTD/svg11.dtd">
<svg version="1.1" id="Layer_1" xmlns="http://www.w3.org/2000/svg" xmlns:xlink="http://www.w3.org/1999/xlink" x="0px" y="0px"
	 width="113.302px" height="41.689px" viewBox="0 0 113.302 41.689" enable-background="new 0 0 113.302 41.689"
	 xml:space="preserve">
<g>
	<g>
		<g>
			<path fill="none" stroke="#07B9D4" stroke-miterlimit="10" d="M18.783,1.241c-0.858,0.493-2.096,1.283-3.007,2.194l-4.161,5.799
				c0,0-7.523,11.069-10.27,18.999c0,0-1.721,5.287,0.124,8.059c0,0,2.56,2.707,5.264,3.341c0,0,6.062,1.766,11.058,1.438
				l18.682-0.484l73.16-1.218c0,0,3.074-0.578,3.074-3.556l0.001-10.705l-7.815-2.41"/>
			<g>
				<polygon fill="#07B9D4" points="16.225,0.733 18.529,1.397 17.864,3.702 19.124,3.006 19.788,0.702 17.484,0.038 				"/>
			</g>
		</g>
	</g>
	<circle fill="#07B9D4" cx="104.892" cy="22.716" r="2"/>
</g>
</svg>
