<?xml version="1.0" encoding="utf-8"?>
<!-- Generator: Adobe Illustrator 15.0.0, SVG Export Plug-In . SVG Version: 6.00 Build 0)  -->
<!DOCTYPE svg PUBLIC "-//W3C//DTD SVG 1.1//EN" "http://www.w3.org/Graphics/SVG/1.1/DTD/svg11.dtd">
<svg version="1.1" id="Layer_1" xmlns="http://www.w3.org/2000/svg" xmlns:xlink="http://www.w3.org/1999/xlink" x="0px" y="0px"
	 width="49.05px" height="57.1px" viewBox="0 0 49.05 57.1" enable-background="new 0 0 49.05 57.1" xml:space="preserve">
<path fill="#4FBA6F" d="M49.048,0c-1.709,1-5.039,2.321-7.346,3.265c-2.564,1.049-5.845,2.39-8.508,3.54
	c-2.672,1.153-6.333,2.525-9.289,3.749c-2.307,0.954-6.183,3.049-8.422,4.741c-4.937,3.73-11.28,8.012-13.561,12.643l-0.076,0.248
	C0.458,39.77,0.147,50.193,0.154,57.096L0,57.095c0.371-0.33,0.955-0.626,1.683-0.887L1.61,56.188
	c1.71-9.12,5.357-15.166,7.638-18.586s6.271-4.763,12.256-4.846c5.892-0.081,12.375,0.262,18.645,0.262l0.155-0.007
	c1.667-10.86,4.415-22.956,8.716-32.882L49.048,0z"/>
</svg>
