<?xml version="1.0" encoding="utf-8"?>
<!-- Generator: Adobe Illustrator 15.0.0, SVG Export Plug-In . SVG Version: 6.00 Build 0)  -->
<!DOCTYPE svg PUBLIC "-//W3C//DTD SVG 1.1//EN" "http://www.w3.org/Graphics/SVG/1.1/DTD/svg11.dtd">
<svg version="1.1" id="Layer_1" xmlns="http://www.w3.org/2000/svg" xmlns:xlink="http://www.w3.org/1999/xlink" x="0px" y="0px"
	 width="253.32px" height="119.26px" viewBox="0 0 253.32 119.26" enable-background="new 0 0 253.32 119.26" xml:space="preserve">
<path fill="#5EBC67" d="M204.854,13.407c0.822,0.935,2.149,1.5,4.073,1.829c5.833,1,11.666,2,17.333,2.333s11.167,0.667,15.667,1.5
	s9.062,1.854,11.396,2.688l-0.32-0.018c-16.223-1.796-27.986-2.329-42.333-3.066c-8.81-0.452-22.032-0.393-33.9-0.365
	c-10.544,0.025-21.665,0.895-31.479,3.148c-21.672,4.975-47.506,16.906-62.177,27.577c-21.929,15.946-42.705,38.463-53.816,60.053
	c-0.679,1.32-1.324,2.694-1.939,4.112l0.028-0.129c-1.709,1-5.039,2.321-7.346,3.265c-1.662,0.681-3.625,1.483-5.525,2.277
	l0.059-0.042c-3.989,1.425-8.98,0.499-11.797-1.355c-1.898-1.25-3.321-5.092-2.573-10.403c0.776-5.517,3.025-11.392,4.937-15.388
	c3.668-7.667,13.126-24.421,22.459-34.088c9.334-9.667,24.001-22.667,35.668-30.001c11.667-7.333,29-17,41.667-21
	S137.268,0,151.268,0c14.001,0,26.334,1,33.668,2.667c7.333,1.667,14.046,5.689,20.273,11.027"/>
</svg>
