<?xml version="1.0" encoding="utf-8"?>
<!-- Generator: Adobe Illustrator 15.0.0, SVG Export Plug-In . SVG Version: 6.00 Build 0)  -->
<!DOCTYPE svg PUBLIC "-//W3C//DTD SVG 1.1//EN" "http://www.w3.org/Graphics/SVG/1.1/DTD/svg11.dtd">
<svg version="1.1" id="Layer_1" xmlns="http://www.w3.org/2000/svg" xmlns:xlink="http://www.w3.org/1999/xlink" x="0px" y="0px"
	 width="162.27px" height="94.69px" viewBox="0 0 162.27 94.69" enable-background="new 0 0 162.27 94.69" xml:space="preserve">
<path fill="#4FBA6E" d="M149.062,0.019c0,0-66.735,11.453-135.706,72.612l-0.111-0.081C8.851,78.526,5.02,84.592,1.935,90.585
	C1.258,91.902,0.614,93.273,0,94.688l0.091-0.16c15.961-9.488,29.74-18.792,45.398-29.375
	c15.709-10.617,34.389-26.683,52.848-37.146c17.173-9.735,37.315-16.923,52.263-21.636c4.883-1.54,8.611-3.48,11.643-6.34
	l0.03-0.027C157.875-0.006,153.38,0.008,149.062,0.019z"/>
</svg>
