<?xml version="1.0" encoding="utf-8"?>
<!-- Generator: Adobe Illustrator 15.0.0, SVG Export Plug-In . SVG Version: 6.00 Build 0)  -->
<!DOCTYPE svg PUBLIC "-//W3C//DTD SVG 1.1//EN" "http://www.w3.org/Graphics/SVG/1.1/DTD/svg11.dtd">
<svg version="1.1" id="Layer_1" xmlns="http://www.w3.org/2000/svg" xmlns:xlink="http://www.w3.org/1999/xlink" x="0px" y="0px"
	 width="126.03px" height="96.86px" viewBox="0 0 126.03 96.86" enable-background="new 0 0 126.03 96.86" xml:space="preserve">
<path fill="#4FBA6E" d="M52.621,84.466c1.287,1.054,2.789,1.9,4.488,2.557c6.271,2.423,17.091,3.943,27.496,4.37
	c10.402,0.428,21.08,1.244,26.79,1.71c6.982,0.57,10.888,2.13,14.638,3.755c0,0-3.656-0.469-10.388-1.177
	c-3.726-0.392-8.16-0.699-13.522-0.815s-19.351,0.232-19.351,0.232s0,0-15.271-0.116c-15.271-0.116-32.173,0-32.173,0
	s-0.815-0.116-2.098-0.467s-3.031-0.699-7.344-3.03s-9.326-6.411-12.59-10.375S6.885,70.852,4.554,63.392S0.59,45.439,0.125,35.881
	S0.59,18.163,1.407,11.868S3.623,0,3.623,0c0.813,0.166,1.597,0.297,2.35,0.395L5.969,0.389C3.458,13.026,2.67,32.805,3.625,43.613
	c1.703,19.238,8.278,33.461,18.19,41.553c6.709,5.478,14.225,5.846,21.898,4.517c6.53-1.13,8.502-4.56,8.502-4.56
	C52.438,84.764,52.621,84.466,52.621,84.466z"/>
</svg>
