<?xml version="1.0" encoding="utf-8"?>
<!-- Generator: Adobe Illustrator 15.0.0, SVG Export Plug-In . SVG Version: 6.00 Build 0)  -->
<!DOCTYPE svg PUBLIC "-//W3C//DTD SVG 1.1//EN" "http://www.w3.org/Graphics/SVG/1.1/DTD/svg11.dtd">
<svg version="1.1" id="Layer_1" xmlns="http://www.w3.org/2000/svg" xmlns:xlink="http://www.w3.org/1999/xlink" x="0px" y="0px"
	 width="66px" height="14px" viewBox="0 0 66 14" enable-background="new 0 0 66 14" xml:space="preserve">
<path fill="#4FBA6F" d="M0.002,1.941c4.081-0.527,9.226-1.182,14.901-1.905l0.065,0.006c24.375-0.25,41.719,0.656,50.594,1.906
	l0.043,0.092c0.057,2.357,0.068,4.639,0.056,6.909c-0.005,0.834-0.013,1.666-0.022,2.5c-0.008,0.708-0.018,1.416-0.029,2.128
	l-0.016-0.034c-14.688-2.469-28.896-3.57-37.656-3.844c-8-0.25-18.552-0.118-26.375,0.875l-0.012-0.041
	C1.134,7.49,0.652,4.995,0,1.948"/>
</svg>
