<?xml version="1.0" encoding="utf-8"?>
<!-- Generator: Adobe Illustrator 15.0.0, SVG Export Plug-In . SVG Version: 6.00 Build 0)  -->
<!DOCTYPE svg PUBLIC "-//W3C//DTD SVG 1.1//EN" "http://www.w3.org/Graphics/SVG/1.1/DTD/svg11.dtd">
<svg version="1.1" id="Layer_1" xmlns="http://www.w3.org/2000/svg" xmlns:xlink="http://www.w3.org/1999/xlink" x="0px" y="0px"
	 width="142.39px" height="215.57px" viewBox="0 0 142.39 215.57" enable-background="new 0 0 142.39 215.57" xml:space="preserve">
<path fill="#4FBA6F" d="M13.513,215.571c-0.108-19.729,5.38-34.231,12.199-51.863c7.396-19.129,18.187-40.56,32.643-62.401
	C80.454,67.914,106.076,37.78,142.362,1.104l0.025-0.094c-0.518-0.445-1.044-0.773-1.562-1.011l-0.117,0.103
	c-11.4,7.125-30.701,20.605-48.371,36.21C74.969,51.65,55.736,69.287,47.449,78.423c-18.541,20.437-29.931,35.506-37.622,54.437
	c-7.41,18.24-10.545,33.506-9.689,43.606c0.889,10.508,4.093,24.852,12.683,38.476L13.513,215.571z"/>
</svg>
