<?xml version="1.0" encoding="utf-8"?>
<!-- Generator: Adobe Illustrator 15.0.0, SVG Export Plug-In . SVG Version: 6.00 Build 0)  -->
<!DOCTYPE svg PUBLIC "-//W3C//DTD SVG 1.1//EN" "http://www.w3.org/Graphics/SVG/1.1/DTD/svg11.dtd">
<svg version="1.1" id="Layer_1" xmlns="http://www.w3.org/2000/svg" xmlns:xlink="http://www.w3.org/1999/xlink" x="0px" y="0px"
	 width="85.93px" height="15.33px" viewBox="0 0 85.93 15.33" enable-background="new 0 0 85.93 15.33" xml:space="preserve">
<path fill="#4FBA6E" d="M84.384,12.743c-3.206,1.068-6.626,1.518-10.901,1.994c-5.665,0.633-15.604,0.63-22.159,0.57
	c-5.314-0.048-14.826-0.367-20.664-0.463c-5.204-0.086-11.281-0.479-15.675-0.534c-3.788-0.048-7.663-0.082-10.539-0.173
	c-3.966-0.125-9.208-0.687,4.022-8.553L8.68,5.386c0.985-0.333,1.945-0.628,2.827-0.874c6.078-1.698,12.87-3.758,22.079-4.201
	c17.952-0.864,23.867,0.089,33.611,2.682c4.409,1.174,12.872,3.665,17.217,6.188c2.264,1.314,1.679,2.508,0.234,3.521L84.384,12.743
	z"/>
</svg>
