<?xml version="1.0" encoding="utf-8"?>
<!-- Generator: Adobe Illustrator 15.0.0, SVG Export Plug-In . SVG Version: 6.00 Build 0)  -->
<!DOCTYPE svg PUBLIC "-//W3C//DTD SVG 1.1//EN" "http://www.w3.org/Graphics/SVG/1.1/DTD/svg11.dtd">
<svg version="1.1" id="Layer_1" xmlns="http://www.w3.org/2000/svg" xmlns:xlink="http://www.w3.org/1999/xlink" x="0px" y="0px"
	 width="24.447px" height="28.548px" viewBox="0 0 24.447 28.548" enable-background="new 0 0 24.447 28.548" xml:space="preserve">
<path fill="#25AB4A" d="M24.524,0c-0.855,0.5-2.52,1.161-3.674,1.632c-1.281,0.524-2.922,1.195-4.254,1.77
	c-1.336,0.577-3.166,1.263-4.644,1.875c-1.153,0.477-3.091,1.524-4.211,2.371c-2.468,1.865-5.64,4.006-6.78,6.321l-0.038,0.124
	c-0.694,5.792-0.85,11.004-0.846,14.455L0,28.547c0.186-0.164,0.478-0.312,0.841-0.443l-0.036-0.01
	c0.855-4.561,2.679-7.583,3.819-9.293s3.135-2.381,6.128-2.423c2.946-0.04,6.188,0.131,9.323,0.131l0.076-0.003
	c0.834-5.431,2.209-11.479,4.359-16.441L24.524,0z"/>
</svg>
