<?xml version="1.0" encoding="utf-8"?>
<!-- Generator: Adobe Illustrator 15.0.0, SVG Export Plug-In . SVG Version: 6.00 Build 0)  -->
<!DOCTYPE svg PUBLIC "-//W3C//DTD SVG 1.1//EN" "http://www.w3.org/Graphics/SVG/1.1/DTD/svg11.dtd">
<svg version="1.1" id="Layer_1" xmlns="http://www.w3.org/2000/svg" xmlns:xlink="http://www.w3.org/1999/xlink" x="0px" y="0px"
	 width="80.88px" height="47.19px" viewBox="0 0 80.88 47.19" enable-background="new 0 0 80.88 47.19" xml:space="preserve">
<path fill="#4FBA6E" d="M74.293,0.009c0,0-33.26,5.708-67.637,36.192l-0.055-0.043c-2.19,2.98-4.1,6.003-5.637,8.99
	C0.627,45.805,0.306,46.489,0,47.193l0.044-0.08C8,42.385,14.868,37.747,22.672,32.473c7.83-5.291,17.14-13.299,26.34-18.514
	C57.57,9.107,67.609,5.525,75.061,3.175c2.434-0.767,4.291-1.734,5.803-3.161l0.014-0.013C78.686-0.003,76.445,0.004,74.293,0.009z"
	/>
</svg>
