<?xml version="1.0" encoding="utf-8"?>
<!-- Generator: Adobe Illustrator 15.0.0, SVG Export Plug-In . SVG Version: 6.00 Build 0)  -->
<!DOCTYPE svg PUBLIC "-//W3C//DTD SVG 1.1//EN" "http://www.w3.org/Graphics/SVG/1.1/DTD/svg11.dtd">
<svg version="1.1" id="Layer_1" xmlns="http://www.w3.org/2000/svg" xmlns:xlink="http://www.w3.org/1999/xlink" x="0px" y="0px"
	 width="63.02px" height="48.43px" viewBox="0 0 63.02 48.43" enable-background="new 0 0 63.02 48.43" xml:space="preserve">
<path fill="#4FBA6E" d="M26.31,42.233c0.644,0.526,1.395,0.949,2.244,1.277c3.135,1.212,8.545,1.973,13.748,2.186
	c5.201,0.214,10.54,0.622,13.396,0.855c3.49,0.285,5.443,1.064,7.318,1.877c0,0-1.828-0.234-5.193-0.588
	c-1.863-0.196-4.08-0.35-6.762-0.408s-9.676,0.116-9.676,0.116s0,0-7.635-0.058c-7.635-0.059-16.086,0-16.086,0
	s-0.408-0.059-1.049-0.234c-0.641-0.175-1.516-0.35-3.672-1.515s-4.663-3.206-6.295-5.188s-3.206-5.129-4.371-8.858
	c-1.166-3.73-1.982-8.977-2.215-13.756S0.295,9.082,0.703,5.934S1.811,0,1.811,0c0.407,0.083,0.798,0.148,1.175,0.197L2.984,0.194
	C1.729,6.513,1.335,16.402,1.812,21.807c0.852,9.619,4.139,16.73,9.095,20.776c3.354,2.738,7.112,2.923,10.949,2.258
	c3.265-0.564,4.251-2.279,4.251-2.279C26.219,42.382,26.31,42.233,26.31,42.233z"/>
</svg>
