<?xml version="1.0" encoding="utf-8"?>
<!-- Generator: Adobe Illustrator 15.0.0, SVG Export Plug-In . SVG Version: 6.00 Build 0)  -->
<!DOCTYPE svg PUBLIC "-//W3C//DTD SVG 1.1//EN" "http://www.w3.org/Graphics/SVG/1.1/DTD/svg11.dtd">
<svg version="1.1" id="Layer_1" xmlns="http://www.w3.org/2000/svg" xmlns:xlink="http://www.w3.org/1999/xlink" x="0px" y="0px"
	 width="98.1px" height="114.2px" viewBox="0 0 98.1 114.2" enable-background="new 0 0 98.1 114.2" xml:space="preserve">
<path fill="#25AB4A" d="M98.096,0c-3.418,2-10.078,4.643-14.691,6.529c-5.129,2.098-11.689,4.779-17.016,7.08
	c-5.344,2.307-12.666,5.051-18.578,7.498c-4.613,1.908-12.365,6.098-16.844,9.482C21.094,38.051,8.406,46.613,3.846,55.875
	l-0.152,0.496c-2.777,23.168-3.398,44.016-3.385,57.82L0,114.189c0.742-0.66,1.91-1.252,3.365-1.773l-0.145-0.041
	c3.42-18.24,10.715-30.332,15.275-37.172s12.541-9.525,24.512-9.691c11.783-0.162,24.75,0.523,37.289,0.523l0.311-0.014
	c3.334-21.721,8.83-45.912,17.432-65.764L98.096,0z"/>
</svg>
