<?xml version="1.0" encoding="utf-8"?>
<!-- Generator: Adobe Illustrator 15.0.0, SVG Export Plug-In . SVG Version: 6.00 Build 0)  -->
<!DOCTYPE svg PUBLIC "-//W3C//DTD SVG 1.1//EN" "http://www.w3.org/Graphics/SVG/1.1/DTD/svg11.dtd">
<svg version="1.1" id="Layer_1" xmlns="http://www.w3.org/2000/svg" xmlns:xlink="http://www.w3.org/1999/xlink" x="0px" y="0px"
	 width="506.65px" height="238.53px" viewBox="0 0 506.65 238.53" enable-background="new 0 0 506.65 238.53" xml:space="preserve">
<path fill="#4FBA6E" d="M409.709,26.814c1.645,1.869,4.299,3,8.146,3.658c11.666,2,23.332,4,34.666,4.666s22.334,1.334,31.334,3
	s18.125,3.709,22.791,5.375l-0.641-0.035c-32.445-3.592-55.973-4.658-84.666-6.133c-17.619-0.904-44.064-0.785-67.801-0.73
	c-21.088,0.051-43.33,1.789-62.959,6.297c-43.344,9.949-95.012,33.812-124.354,55.154c-43.857,31.893-85.41,76.926-107.633,120.105
	c-1.357,2.641-2.648,5.389-3.879,8.225l0.057-0.258c-3.418,2-10.078,4.643-14.691,6.529c-3.324,1.361-7.25,2.967-11.051,4.555
	l0.117-0.084c-7.979,2.85-17.961,0.998-23.594-2.711c-3.797-2.5-6.643-10.184-5.146-20.807c1.553-11.033,6.051-22.783,9.873-30.775
	c7.336-15.334,26.252-48.842,44.918-68.176c18.668-19.334,48.002-45.334,71.336-60.002c23.334-14.666,58-34,83.334-42
	S274.535,0,302.535,0c28.002,0,52.668,2,67.336,5.334c14.666,3.334,28.092,11.379,40.547,22.055"/>
</svg>
