<?xml version="1.0" encoding="utf-8"?>
<!-- Generator: Adobe Illustrator 15.0.0, SVG Export Plug-In . SVG Version: 6.00 Build 0)  -->
<!DOCTYPE svg PUBLIC "-//W3C//DTD SVG 1.1//EN" "http://www.w3.org/Graphics/SVG/1.1/DTD/svg11.dtd">
<svg version="1.1" id="Layer_1" xmlns="http://www.w3.org/2000/svg" xmlns:xlink="http://www.w3.org/1999/xlink" x="0px" y="0px"
	 width="325.31px" height="189.82px" viewBox="0 0 325.31 189.82" enable-background="new 0 0 325.31 189.82" xml:space="preserve">
<path fill="#4FBA6E" d="M298.824,0.037c0,0-133.783,22.959-272.049,145.565l-0.222-0.162c-8.811,11.98-16.491,24.139-22.674,36.154
	c-1.357,2.641-2.648,5.389-3.879,8.225l0.182-0.32c31.998-19.021,59.619-37.672,91.01-58.887
	c31.492-21.285,68.939-53.493,105.943-74.467c34.426-19.516,74.805-33.924,104.77-43.373c9.789-3.088,17.262-6.977,23.34-12.711
	l0.061-0.055C316.49-0.012,307.479,0.017,298.824,0.037z"/>
</svg>
