<?xml version="1.0" encoding="utf-8"?>
<!-- Generator: Adobe Illustrator 15.0.0, SVG Export Plug-In . SVG Version: 6.00 Build 0)  -->
<!DOCTYPE svg PUBLIC "-//W3C//DTD SVG 1.1//EN" "http://www.w3.org/Graphics/SVG/1.1/DTD/svg11.dtd">
<svg version="1.1" id="Layer_1" xmlns="http://www.w3.org/2000/svg" xmlns:xlink="http://www.w3.org/1999/xlink" x="0px" y="0px"
	 width="252px" height="194px" viewBox="0 0 252 194" enable-background="new 0 0 252 194" xml:space="preserve">
<path fill="#4FBA6F" d="M105.678,169.279c2.574,2.107,5.578,3.801,8.977,5.113c12.541,4.846,34.182,7.887,54.99,8.74
	c20.805,0.855,42.16,2.488,53.58,3.42c13.965,1.141,21.775,4.26,29.275,7.51c0,0-7.312-0.938-20.775-2.354
	c-7.451-0.783-16.32-1.398-27.045-1.631s-38.701,0.465-38.701,0.465s0,0-30.541-0.232s-64.346,0-64.346,0s-1.631-0.232-4.195-0.934
	s-6.062-1.398-14.688-6.061s-18.652-12.822-25.18-20.75s-12.822-20.516-17.484-35.436S1.617,91.227,0.686,72.109
	S1.617,36.674,3.25,24.084S7.682,0.348,7.682,0.348c1.627,0.332,3.193,0.594,4.699,0.789l-0.006-0.012
	C7.354,26.4,5.777,65.957,7.688,87.574c3.406,38.477,16.557,66.922,36.381,83.105c13.418,10.955,28.449,11.691,43.797,9.033
	c13.061-2.26,17.004-9.119,17.004-9.119C105.312,169.875,105.678,169.279,105.678,169.279z"/>
</svg>
