<?xml version="1.0" encoding="utf-8"?>
<!-- Generator: Adobe Illustrator 15.0.0, SVG Export Plug-In . SVG Version: 6.00 Build 0)  -->
<!DOCTYPE svg PUBLIC "-//W3C//DTD SVG 1.1//EN" "http://www.w3.org/Graphics/SVG/1.1/DTD/svg11.dtd">
<svg version="1.1" id="Layer_1" xmlns="http://www.w3.org/2000/svg" xmlns:xlink="http://www.w3.org/1999/xlink" x="0px" y="0px"
	 width="132px" height="27.5px" viewBox="0 0 132 27.5" enable-background="new 0 0 132 27.5" xml:space="preserve">
<path fill="#4FBA6F" d="M0.004,3.882c8.162-1.055,18.451-2.363,29.803-3.811l0.131,0.012c48.75-0.5,83.438,1.312,101.188,3.812
	l0.086,0.184c0.113,4.715,0.137,9.277,0.111,13.816c-0.01,1.668-0.025,3.332-0.045,5c-0.016,1.416-0.035,2.832-0.059,4.256
	l-0.031-0.068c-29.375-4.938-57.793-7.141-75.312-7.688c-16-0.5-37.104-0.236-52.75,1.75l-0.023-0.082
	C2.268,14.98,1.305,9.99,0,3.896"/>
</svg>
