<?xml version="1.0" encoding="utf-8"?>
<!-- Generator: Adobe Illustrator 15.0.0, SVG Export Plug-In . SVG Version: 6.00 Build 0)  -->
<!DOCTYPE svg PUBLIC "-//W3C//DTD SVG 1.1//EN" "http://www.w3.org/Graphics/SVG/1.1/DTD/svg11.dtd">
<svg version="1.1" id="Layer_1" xmlns="http://www.w3.org/2000/svg" xmlns:xlink="http://www.w3.org/1999/xlink" x="0px" y="0px"
	 width="284.77px" height="431.14px" viewBox="0 0 284.77 431.14" enable-background="new 0 0 284.77 431.14" xml:space="preserve">
<path fill="#4FBA6F" d="M27.026,431.143c-0.217-39.457,10.76-68.463,24.398-103.727c14.793-38.258,36.373-81.119,65.285-124.803
	c44.197-66.785,95.441-127.053,168.014-200.404l0.051-0.188c-1.035-0.891-2.088-1.547-3.123-2.021l-0.234,0.205
	c-22.801,14.25-61.402,41.211-96.742,72.42c-34.738,30.676-73.203,65.949-89.777,84.221
	c-37.082,40.873-59.861,71.012-75.244,108.873c-14.82,36.48-21.09,67.012-19.379,87.213c1.777,21.016,8.186,49.703,25.365,76.951
	L27.026,431.143z"/>
</svg>
