<?xml version="1.0" encoding="utf-8"?>
<!-- Generator: Adobe Illustrator 15.0.0, SVG Export Plug-In . SVG Version: 6.00 Build 0)  -->
<!DOCTYPE svg PUBLIC "-//W3C//DTD SVG 1.1//EN" "http://www.w3.org/Graphics/SVG/1.1/DTD/svg11.dtd">
<svg version="1.1" id="Layer_1" xmlns="http://www.w3.org/2000/svg" xmlns:xlink="http://www.w3.org/1999/xlink" x="0px" y="0px"
	 width="171.85px" height="30.66px" viewBox="0 0 171.85 30.66" enable-background="new 0 0 171.85 30.66" xml:space="preserve">
<path fill="#4FBA6E" d="M168.768,25.486c-6.412,2.137-13.252,3.035-21.803,3.988c-11.33,1.266-31.207,1.26-44.318,1.141
	c-10.629-0.096-29.652-0.734-41.328-0.926c-10.408-0.172-22.562-0.959-31.35-1.068c-7.576-0.096-15.326-0.164-21.078-0.346
	c-7.932-0.25-18.416-1.373,8.045-17.105l0.424-0.398c1.971-0.666,3.891-1.256,5.654-1.748c12.156-3.396,25.74-7.516,44.158-8.402
	c35.904-1.729,47.734,0.178,67.223,5.363c8.818,2.348,25.744,7.33,34.434,12.376c4.527,2.629,3.357,5.016,0.469,7.043
	L168.768,25.486z"/>
</svg>
