<?xml version="1.0" encoding="utf-8"?>
<!-- Generator: Adobe Illustrator 15.0.0, SVG Export Plug-In . SVG Version: 6.00 Build 0)  -->
<!DOCTYPE svg PUBLIC "-//W3C//DTD SVG 1.1//EN" "http://www.w3.org/Graphics/SVG/1.1/DTD/svg11.dtd">
<svg version="1.1" id="Layer_1" xmlns="http://www.w3.org/2000/svg" xmlns:xlink="http://www.w3.org/1999/xlink" x="0px" y="0px"
	 width="196.2px" height="228.38px" viewBox="0 0 196.2 228.38" enable-background="new 0 0 196.2 228.38" xml:space="preserve">
<path fill="#4FBA6F" d="M196.191,0c-6.836,4-20.156,9.285-29.383,13.059c-10.258,4.195-23.379,9.559-34.031,14.16
	c-10.688,4.613-25.332,10.102-37.156,14.996c-9.227,3.816-24.73,12.195-33.688,18.965C42.188,76.102,16.812,93.227,7.691,111.75
	l-0.305,0.992c-5.555,46.336-6.797,88.031-6.77,115.641L0,228.379c1.484-1.32,3.82-2.504,6.73-3.547l-0.289-0.082
	c6.84-36.48,21.43-60.664,30.551-74.344s25.082-19.051,49.023-19.383c23.566-0.324,49.5,1.047,74.578,1.047l0.621-0.027
	c6.668-43.441,17.66-91.824,34.863-131.527L196.191,0z"/>
</svg>
