<?xml version="1.0" encoding="utf-8"?>
<!-- Generator: Adobe Illustrator 15.0.0, SVG Export Plug-In . SVG Version: 6.00 Build 0)  -->
<!DOCTYPE svg PUBLIC "-//W3C//DTD SVG 1.1//EN" "http://www.w3.org/Graphics/SVG/1.1/DTD/svg11.dtd">
<svg version="1.1" id="Layer_1" xmlns="http://www.w3.org/2000/svg" xmlns:xlink="http://www.w3.org/1999/xlink" x="0px" y="0px"
	 width="1013.29px" height="477.05px" viewBox="0 0 1013.29 477.05" enable-background="new 0 0 1013.29 477.05"
	 xml:space="preserve">
<path fill="#4FBA6D" d="M820.375,52.352c3.289,3.738,8.598,6,16.293,7.316c23.332,4,46.664,8,69.332,9.332s44.668,2.668,62.668,6
	s36.25,7.418,45.582,10.75l-1.281-0.07c-64.891-7.184-111.945-9.316-169.332-12.266c-35.238-1.809-88.129-1.57-135.602-1.461
	c-42.176,0.102-86.66,3.578-125.918,12.594c-86.688,19.898-190.023,67.625-248.707,110.309
	c-87.715,63.785-170.82,153.852-215.266,240.211c-2.715,5.281-5.297,10.777-7.758,16.449L110.5,451
	c-6.836,4-20.156,9.285-29.383,13.059c-6.648,2.723-14.5,5.934-22.102,9.109L59.25,473c-15.957,5.699-35.922,1.996-47.188-5.422
	c-7.594-5-13.285-20.367-10.293-41.613c3.105-22.066,12.102-45.566,19.746-61.551c14.672-30.668,52.504-97.684,89.836-136.352
	c37.336-38.668,96.004-90.668,142.672-120.004c46.668-29.332,116-68,166.668-84S550.027-1.277,606.027-1.277
	c56.004,0,105.336,4,134.672,10.668c29.332,6.668,56.184,22.758,81.094,44.109"/>
</svg>
