<?xml version="1.0" encoding="utf-8"?>
<!-- Generator: Adobe Illustrator 15.0.0, SVG Export Plug-In . SVG Version: 6.00 Build 0)  -->
<!DOCTYPE svg PUBLIC "-//W3C//DTD SVG 1.1//EN" "http://www.w3.org/Graphics/SVG/1.1/DTD/svg11.dtd">
<svg version="1.1" id="Layer_1" xmlns="http://www.w3.org/2000/svg" xmlns:xlink="http://www.w3.org/1999/xlink" x="0px" y="0px"
	 width="505px" height="388px" viewBox="0 0 505 388" enable-background="new 0 0 505 388" xml:space="preserve">
<path fill="#4FBA6F" d="M211.355,338.559c5.148,4.215,11.156,7.602,17.953,10.227c25.082,9.691,68.363,15.773,109.98,17.48
	c41.609,1.711,84.32,4.977,107.16,6.84c27.93,2.281,43.551,8.52,58.551,15.02c0,0-14.625-1.875-41.551-4.707
	c-14.902-1.566-32.641-2.797-54.09-3.262s-77.402,0.93-77.402,0.93s0,0-61.082-0.465s-128.691,0-128.691,0s-3.262-0.465-8.391-1.867
	s-12.125-2.797-29.375-12.121s-37.305-25.645-50.359-41.5s-25.645-41.031-34.969-70.871S3.234,182.453,1.371,144.219
	S3.234,73.348,6.5,48.168s8.863-47.473,8.863-47.473c3.254,0.664,6.387,1.188,9.398,1.578L24.75,2.25
	c-10.043,50.551-13.195,129.664-9.375,172.898c6.812,76.953,33.113,133.844,72.762,166.211
	c26.836,21.91,56.898,23.383,87.594,18.066c26.121-4.52,34.008-18.238,34.008-18.238
	C210.625,339.75,211.355,338.559,211.355,338.559z"/>
</svg>
