<?xml version="1.0" encoding="utf-8"?>
<!-- Generator: Adobe Illustrator 15.0.0, SVG Export Plug-In . SVG Version: 6.00 Build 0)  -->
<!DOCTYPE svg PUBLIC "-//W3C//DTD SVG 1.1//EN" "http://www.w3.org/Graphics/SVG/1.1/DTD/svg11.dtd">
<svg version="1.1" id="Layer_1" xmlns="http://www.w3.org/2000/svg" xmlns:xlink="http://www.w3.org/1999/xlink" x="0px" y="0px"
	 width="263px" height="55px" viewBox="0 0 263 55" enable-background="new 0 0 263 55" xml:space="preserve">
<path fill="#4FBA6E" d="M0.258,8.973C16.582,6.863,37.16,4.246,59.863,1.352l0.262,0.023C157.625,0.375,227,4,262.5,9l0.172,0.367
	c0.227,9.43,0.273,18.555,0.223,27.633c-0.02,3.336-0.051,6.664-0.09,10c-0.031,2.832-0.07,5.664-0.117,8.512l-0.062-0.137
	C203.875,45.5,147.039,41.094,112,40c-32-1-74.207-0.473-105.5,3.5l-0.047-0.164C4.785,31.168,2.859,21.188,0.25,9"/>
</svg>
