<?xml version="1.0" encoding="utf-8"?>
<!-- Generator: Adobe Illustrator 15.0.0, SVG Export Plug-In . SVG Version: 6.00 Build 0)  -->
<!DOCTYPE svg PUBLIC "-//W3C//DTD SVG 1.1//EN" "http://www.w3.org/Graphics/SVG/1.1/DTD/svg11.dtd">
<svg version="1.1" id="Layer_1" xmlns="http://www.w3.org/2000/svg" xmlns:xlink="http://www.w3.org/1999/xlink" x="0px" y="0px"
	 width="569.55px" height="862.29px" viewBox="0 0 569.55 862.29" enable-background="new 0 0 569.55 862.29" xml:space="preserve">
<path fill="#4FBA6E" d="M54.053,862.285c-0.434-78.914,21.52-136.926,48.797-207.453c29.586-76.516,72.746-162.238,130.57-249.605
	c88.395-133.57,190.883-254.105,336.027-400.809l0.102-0.375c-2.07-1.781-4.176-3.094-6.246-4.043l-0.469,0.41
	c-45.602,28.5-122.805,82.422-193.484,144.84c-69.477,61.352-146.406,131.898-179.555,168.441
	C115.631,395.438,70.072,455.715,39.307,531.438C9.666,604.398-2.873,665.461,0.549,705.863
	c3.555,42.031,16.371,99.406,50.73,153.902L54.053,862.285z"/>
</svg>
