<?xml version="1.0" encoding="utf-8"?>
<!-- Generator: Adobe Illustrator 15.0.0, SVG Export Plug-In . SVG Version: 6.00 Build 0)  -->
<!DOCTYPE svg PUBLIC "-//W3C//DTD SVG 1.1//EN" "http://www.w3.org/Graphics/SVG/1.1/DTD/svg11.dtd">
<svg version="1.1" id="Layer_1" xmlns="http://www.w3.org/2000/svg" xmlns:xlink="http://www.w3.org/1999/xlink" x="0px" y="0px"
	 width="343.7px" height="61.33px" viewBox="0 0 343.7 61.33" enable-background="new 0 0 343.7 61.33" xml:space="preserve">
<path fill="#4FBA6E" d="M337.535,50.974c-12.824,4.273-26.504,6.07-43.605,7.977c-22.66,2.531-62.414,2.52-88.637,2.281
	c-21.258-0.191-59.304-1.469-82.656-1.852c-20.816-0.344-45.125-1.918-62.699-2.137c-15.152-0.191-30.652-0.328-42.156-0.691
	c-15.863-0.5-36.832-2.746,16.09-34.211l0.848-0.797c3.941-1.332,7.781-2.512,11.309-3.496c24.312-6.793,51.48-15.031,88.316-16.805
	c71.808-3.457,95.468,0.355,134.445,10.727c17.637,4.695,51.488,14.66,68.867,24.754c9.055,5.258,6.715,10.031,0.938,14.086
	L337.535,50.974z"/>
</svg>
