<?xml version="1.0" encoding="utf-8"?>
<!-- Generator: Adobe Illustrator 15.0.0, SVG Export Plug-In . SVG Version: 6.00 Build 0)  -->
<!DOCTYPE svg PUBLIC "-//W3C//DTD SVG 1.1//EN" "http://www.w3.org/Graphics/SVG/1.1/DTD/svg11.dtd">
<svg version="1.1" id="Layer_1" xmlns="http://www.w3.org/2000/svg" xmlns:xlink="http://www.w3.org/1999/xlink" x="0px" y="0px"
	 width="149px" height="90.25px" viewBox="0 0 149 90.25" enable-background="new 0 0 149 90.25" xml:space="preserve">
<g>
	<circle fill="#E37D27" cx="3" cy="3" r="3"/>
	<g>
		<g>
			<path fill="none" stroke="#E37D27" stroke-miterlimit="10" d="M2.621,3.992c-2.62,15.187-0.896,31.602-0.35,39.061
				c0.758,10.381,3.791,17.4,8.223,25.373c4.432,7.977,8.354,12.41,12.912,15.445c4.559,3.039,13.799,5.066,22.785,5.066
				c8.988,0,28.863,0.125,42.409,0.125c13.545,0,27.09-0.254,36.33-0.379c9.242-0.129,15.066-2.676,18.355-6.473
				c2.837-3.275,3.987-12.155,4.23-18.488"/>
			<g>
				<polygon fill="#E37D27" points="147.567,60.902 149.05,64.938 147.458,63.936 145.8,64.821 				"/>
			</g>
		</g>
	</g>
</g>
</svg>
